<svg width="700" height="430" viewBox="0 0 700 430" fill="none" xmlns="http://www.w3.org/2000/svg">
<rect x="401.914" y="7.58221" width="298.086" height="66.3892" rx="33.1946" fill="#F4EBFF"/>
<path d="M486.401 53.1969H483.641C480.593 53.1969 478.121 50.7254 478.121 47.6767V38.9931C478.121 37.0628 479.129 35.2727 480.78 34.2722L487.68 30.0903C489.439 29.0246 491.644 29.0246 493.402 30.0903L500.303 34.2722C501.953 35.2727 502.962 37.0628 502.962 38.9931V47.6767C502.962 50.7254 500.49 53.1969 497.441 53.1969H494.681M486.401 53.1969V47.6767C486.401 45.3902 488.255 43.5367 490.541 43.5367C492.828 43.5367 494.681 45.3902 494.681 47.6767V53.1969M486.401 53.1969H494.681" stroke="#B181E7" stroke-width="2.36576" stroke-linecap="round" stroke-linejoin="round"/>
<path d="M520.674 50.7768V30.9044H527.515C528.585 30.9044 529.55 31.1694 530.411 31.6993C531.282 32.2292 531.972 32.9437 532.483 33.8427C533.004 34.7417 533.264 35.7353 533.264 36.8235C533.264 37.9307 532.999 38.9338 532.469 39.8328C531.949 40.7223 531.253 41.432 530.383 41.962C529.512 42.4919 528.556 42.7569 527.515 42.7569H523.626V50.7768H520.674ZM523.626 39.8044H527.217C527.785 39.8044 528.301 39.6624 528.764 39.3785C529.238 39.0947 529.611 38.7161 529.886 38.243C530.17 37.7698 530.312 37.2352 530.312 36.639C530.312 36.0428 530.17 35.5082 529.886 35.035C529.611 34.5524 529.238 34.1739 528.764 33.8994C528.301 33.6155 527.785 33.4736 527.217 33.4736H523.626V39.8044ZM535.589 50.7768V36.5822H538.541V38.0868C539.034 37.5001 539.639 37.0364 540.358 36.6958C541.078 36.3551 541.854 36.1848 542.686 36.1848C543.216 36.1848 543.741 36.2557 544.262 36.3977L543.084 39.3785C542.715 39.2366 542.346 39.1656 541.977 39.1656C541.352 39.1656 540.779 39.3218 540.259 39.6341C539.739 39.9369 539.322 40.3485 539.01 40.869C538.698 41.3894 538.541 41.9667 538.541 42.6007V50.7768H535.589ZM551.482 51.1459C550.177 51.1459 548.984 50.8099 547.905 50.138C546.836 49.4662 545.98 48.5672 545.336 47.4411C544.702 46.3055 544.385 45.0516 544.385 43.6795C544.385 42.6386 544.57 41.6686 544.939 40.7696C545.308 39.8612 545.814 39.0663 546.458 38.3849C547.111 37.6941 547.868 37.1547 548.729 36.7667C549.59 36.3788 550.508 36.1848 551.482 36.1848C552.788 36.1848 553.976 36.5207 555.045 37.1926C556.124 37.8645 556.98 38.7682 557.615 39.9037C558.258 41.0393 558.58 42.2979 558.58 43.6795C558.58 44.711 558.395 45.6762 558.026 46.5752C557.657 47.4742 557.146 48.2691 556.493 48.9599C555.85 49.6412 555.097 50.1759 554.236 50.5639C553.385 50.9519 552.467 51.1459 551.482 51.1459ZM551.482 48.1934C552.268 48.1934 552.973 47.9852 553.597 47.5688C554.222 47.1524 554.714 46.6036 555.074 45.9222C555.443 45.2314 555.627 44.4839 555.627 43.6795C555.627 42.8562 555.438 42.0992 555.059 41.4084C554.69 40.7176 554.194 40.1687 553.569 39.7618C552.945 39.3454 552.249 39.1372 551.482 39.1372C550.706 39.1372 550.001 39.3454 549.367 39.7618C548.743 40.1782 548.246 40.7318 547.877 41.4226C547.517 42.1134 547.338 42.8657 547.338 43.6795C547.338 44.5217 547.527 45.2835 547.905 45.9648C548.284 46.6462 548.785 47.1903 549.41 47.5972C550.044 47.9947 550.735 48.1934 551.482 48.1934ZM563.826 57.8741H560.873V36.5822H563.826V38.6688C564.299 37.9402 564.904 37.3487 565.642 36.8945C566.381 36.4403 567.251 36.2132 568.254 36.2132C569.286 36.2132 570.251 36.4072 571.15 36.7951C572.058 37.1831 572.853 37.7225 573.535 38.4133C574.216 39.0947 574.751 39.8848 575.139 40.7838C575.527 41.6828 575.721 42.648 575.721 43.6795C575.721 44.711 575.527 45.6809 575.139 46.5894C574.751 47.4978 574.216 48.2975 573.535 48.9883C572.853 49.6696 572.058 50.2043 571.15 50.5923C570.251 50.9803 569.286 51.1742 568.254 51.1742C567.251 51.1742 566.381 50.9471 565.642 50.4929C564.904 50.0292 564.299 49.4378 563.826 48.7186V57.8741ZM568.226 39.0663C567.403 39.0663 566.679 39.2745 566.054 39.6908C565.43 40.1072 564.942 40.6655 564.592 41.3658C564.242 42.0566 564.067 42.8278 564.067 43.6795C564.067 44.5312 564.242 45.3072 564.592 46.0074C564.942 46.7077 565.43 47.266 566.054 47.6824C566.679 48.0988 567.403 48.3069 568.226 48.3069C569.04 48.3069 569.787 48.1035 570.469 47.6966C571.15 47.2802 571.694 46.7219 572.101 46.0216C572.508 45.3213 572.711 44.5406 572.711 43.6795C572.711 42.8373 572.508 42.0661 572.101 41.3658C571.704 40.6655 571.164 40.1072 570.483 39.6908C569.801 39.2745 569.049 39.0663 568.226 39.0663ZM584.252 51.1459C582.946 51.1459 581.754 50.8099 580.675 50.138C579.606 49.4662 578.749 48.5672 578.106 47.4411C577.472 46.3055 577.155 45.0516 577.155 43.6795C577.155 42.6386 577.339 41.6686 577.708 40.7696C578.077 39.8612 578.584 39.0663 579.227 38.3849C579.88 37.6941 580.637 37.1547 581.498 36.7667C582.359 36.3788 583.277 36.1848 584.252 36.1848C585.34 36.1848 586.339 36.4119 587.247 36.8661C588.155 37.3109 588.931 37.9307 589.575 38.7256C590.218 39.511 590.692 40.4195 590.994 41.451C591.297 42.473 591.387 43.5612 591.264 44.7157H580.32C580.443 45.3687 580.68 45.9601 581.03 46.49C581.389 47.0105 581.844 47.4221 582.392 47.725C582.951 48.0278 583.571 48.1839 584.252 48.1934C584.971 48.1934 585.624 48.0136 586.211 47.654C586.807 47.2944 587.294 46.7976 587.673 46.1636L590.668 46.8591C590.1 48.1177 589.244 49.1491 588.099 49.9535C586.954 50.7484 585.671 51.1459 584.252 51.1459ZM580.221 42.4588H588.283C588.189 41.7774 587.947 41.1623 587.559 40.6135C587.181 40.0552 586.703 39.6151 586.126 39.2934C585.558 38.9622 584.933 38.7966 584.252 38.7966C583.58 38.7966 582.956 38.9574 582.378 39.2792C581.811 39.6009 581.337 40.041 580.959 40.5993C580.59 41.1481 580.344 41.768 580.221 42.4588ZM593.615 50.7768V36.5822H596.567V38.0868C597.059 37.5001 597.665 37.0364 598.384 36.6958C599.103 36.3551 599.879 36.1848 600.712 36.1848C601.242 36.1848 601.767 36.2557 602.288 36.3977L601.11 39.3785C600.741 39.2366 600.371 39.1656 600.002 39.1656C599.378 39.1656 598.805 39.3218 598.285 39.6341C597.764 39.9369 597.348 40.3485 597.036 40.869C596.723 41.3894 596.567 41.9667 596.567 42.6007V50.7768H593.615ZM611.783 39.5347H608.802L608.788 50.7768H605.836L605.85 39.5347H603.593V36.5822H605.85L605.836 32.1251H608.788L608.802 36.5822H611.783V39.5347ZM623.604 36.5822H626.755L618.977 57.8741H615.84L618.409 50.7768L613.313 36.5822H616.535L619.885 46.7313L623.604 36.5822Z" fill="#B181E7"/>
<rect y="179.831" width="298.086" height="66.3892" rx="33.1946" fill="#F4EBFF"/>
<path d="M117.166 213.025V204.398C117.166 204.179 117.079 203.968 116.924 203.813L112.579 199.468C112.424 199.312 112.213 199.225 111.993 199.225H95.914C95.4567 199.225 95.0859 199.596 95.0859 200.053V225.998C95.0859 226.455 95.4567 226.826 95.914 226.826H104.746" stroke="#B181E7" stroke-width="2.36576" stroke-linecap="round" stroke-linejoin="round"/>
<path d="M100.605 210.266H111.646M100.605 204.745H106.126M100.605 215.786H104.746" stroke="#B181E7" stroke-width="2.36576" stroke-linecap="round" stroke-linejoin="round"/>
<path d="M114.343 219.842L115.723 218.462C116.327 217.858 117.307 217.858 117.911 218.462C118.515 219.066 118.515 220.046 117.911 220.651L116.531 222.031M114.343 219.842L110.215 223.97C110.008 224.177 109.872 224.444 109.827 224.733L109.492 226.881L111.64 226.546C111.929 226.501 112.196 226.365 112.403 226.158L116.531 222.031M114.343 219.842L116.531 222.031" stroke="#B181E7" stroke-width="2.36576" stroke-linecap="round" stroke-linejoin="round"/>
<path d="M111.648 199.225V203.917C111.648 204.375 112.019 204.745 112.476 204.745H117.169" stroke="#B181E7" stroke-width="2.36576" stroke-linecap="round" stroke-linejoin="round"/>
<path d="M136.364 223.026V203.153H139.317V220.073H147.876V223.026H136.364ZM155.973 223.395C154.667 223.395 153.474 223.059 152.396 222.387C151.326 221.715 150.47 220.816 149.826 219.69C149.192 218.554 148.875 217.3 148.875 215.928C148.875 214.887 149.06 213.917 149.429 213.018C149.798 212.11 150.304 211.315 150.948 210.634C151.601 209.943 152.358 209.404 153.219 209.016C154.08 208.628 154.998 208.434 155.973 208.434C157.061 208.434 158.059 208.661 158.968 209.115C159.876 209.56 160.652 210.18 161.296 210.974C161.939 211.76 162.412 212.668 162.715 213.7C163.018 214.722 163.108 215.81 162.985 216.965H152.041C152.164 217.617 152.4 218.209 152.75 218.739C153.11 219.259 153.564 219.671 154.113 219.974C154.671 220.277 155.291 220.433 155.973 220.442C156.692 220.442 157.345 220.262 157.931 219.903C158.528 219.543 159.015 219.046 159.393 218.412L162.389 219.108C161.821 220.366 160.964 221.398 159.819 222.202C158.674 222.997 157.392 223.395 155.973 223.395ZM151.941 214.708H160.004C159.909 214.026 159.668 213.411 159.28 212.862C158.901 212.304 158.424 211.864 157.846 211.542C157.278 211.211 156.654 211.045 155.973 211.045C155.301 211.045 154.676 211.206 154.099 211.528C153.531 211.85 153.058 212.29 152.679 212.848C152.31 213.397 152.064 214.017 151.941 214.708ZM176.351 208.831H179.304V223.026H176.337L176.223 220.967C175.807 221.696 175.244 222.283 174.534 222.728C173.824 223.172 172.987 223.395 172.022 223.395C170.981 223.395 170.001 223.201 169.083 222.813C168.166 222.415 167.356 221.866 166.656 221.166C165.965 220.466 165.426 219.661 165.038 218.753C164.65 217.835 164.456 216.851 164.456 215.801C164.456 214.788 164.645 213.837 165.024 212.947C165.402 212.048 165.928 211.263 166.599 210.591C167.271 209.919 168.047 209.394 168.927 209.016C169.817 208.628 170.768 208.434 171.78 208.434C172.812 208.434 173.72 208.67 174.506 209.143C175.301 209.607 175.958 210.203 176.479 210.932L176.351 208.831ZM171.951 220.542C172.784 220.542 173.512 220.338 174.137 219.931C174.761 219.515 175.244 218.956 175.585 218.256C175.935 217.556 176.11 216.78 176.11 215.928C176.11 215.067 175.935 214.286 175.585 213.586C175.234 212.886 174.747 212.332 174.123 211.925C173.507 211.509 172.784 211.301 171.951 211.301C171.128 211.301 170.375 211.509 169.694 211.925C169.013 212.342 168.473 212.9 168.076 213.6C167.678 214.301 167.48 215.077 167.48 215.928C167.48 216.789 167.683 217.57 168.09 218.27C168.506 218.961 169.05 219.515 169.722 219.931C170.404 220.338 171.146 220.542 171.951 220.542ZM186.394 223.295C185.647 223.248 184.918 223.097 184.208 222.841C183.499 222.586 182.874 222.24 182.335 221.805C181.805 221.36 181.407 220.84 181.142 220.243L183.655 219.165C183.778 219.42 183.991 219.671 184.294 219.917C184.606 220.163 184.97 220.366 185.387 220.527C185.803 220.679 186.238 220.754 186.693 220.754C187.137 220.754 187.549 220.693 187.927 220.57C188.315 220.437 188.632 220.239 188.878 219.974C189.125 219.709 189.248 219.392 189.248 219.023C189.248 218.606 189.106 218.285 188.822 218.058C188.547 217.821 188.202 217.641 187.786 217.518C187.369 217.395 186.953 217.277 186.536 217.163C185.609 216.955 184.757 216.671 183.981 216.312C183.215 215.943 182.604 215.474 182.15 214.906C181.696 214.329 181.469 213.624 181.469 212.791C181.469 211.883 181.715 211.097 182.207 210.435C182.699 209.763 183.343 209.247 184.138 208.888C184.942 208.528 185.798 208.348 186.707 208.348C187.842 208.348 188.883 208.59 189.83 209.072C190.776 209.555 191.5 210.217 192.001 211.06L189.659 212.451C189.517 212.167 189.304 211.911 189.02 211.684C188.737 211.457 188.415 211.277 188.055 211.145C187.696 211.003 187.322 210.922 186.934 210.903C186.451 210.885 186.002 210.941 185.585 211.074C185.178 211.197 184.852 211.396 184.606 211.67C184.36 211.944 184.237 212.295 184.237 212.72C184.237 213.137 184.384 213.449 184.677 213.657C184.97 213.856 185.339 214.017 185.784 214.14C186.238 214.263 186.702 214.4 187.175 214.551C188.017 214.816 188.808 215.143 189.546 215.531C190.284 215.909 190.88 216.378 191.334 216.936C191.788 217.494 192.006 218.176 191.987 218.98C191.987 219.87 191.717 220.65 191.178 221.322C190.648 221.994 189.957 222.505 189.106 222.855C188.254 223.205 187.35 223.352 186.394 223.295ZM200.469 223.395C199.163 223.395 197.971 223.059 196.892 222.387C195.823 221.715 194.966 220.816 194.323 219.69C193.689 218.554 193.372 217.3 193.372 215.928C193.372 214.887 193.556 213.917 193.926 213.018C194.295 212.11 194.801 211.315 195.444 210.634C196.097 209.943 196.854 209.404 197.716 209.016C198.577 208.628 199.495 208.434 200.469 208.434C201.558 208.434 202.556 208.661 203.464 209.115C204.373 209.56 205.149 210.18 205.792 210.974C206.436 211.76 206.909 212.668 207.212 213.7C207.514 214.722 207.604 215.81 207.481 216.965H196.537C196.66 217.617 196.897 218.209 197.247 218.739C197.607 219.259 198.061 219.671 198.61 219.974C199.168 220.277 199.788 220.433 200.469 220.442C201.188 220.442 201.841 220.262 202.428 219.903C203.024 219.543 203.512 219.046 203.89 218.412L206.885 219.108C206.317 220.366 205.461 221.398 204.316 222.202C203.171 222.997 201.889 223.395 200.469 223.395ZM196.438 214.708H204.501C204.406 214.026 204.165 213.411 203.777 212.862C203.398 212.304 202.92 211.864 202.343 211.542C201.775 211.211 201.151 211.045 200.469 211.045C199.797 211.045 199.173 211.206 198.596 211.528C198.028 211.85 197.555 212.29 197.176 212.848C196.807 213.397 196.561 214.017 196.438 214.708Z" fill="#B181E7"/>
<rect x="401.914" y="352.08" width="298.086" height="66.3892" rx="33.1946" fill="#F4EBFF"/>
<path d="M446.121 381.824L458.541 374.234L470.962 381.824" stroke="#B181E7" stroke-width="2.36576" stroke-linecap="round" stroke-linejoin="round"/>
<path d="M448.879 396.315H468.199" stroke="#B181E7" stroke-width="2.36576" stroke-linecap="round" stroke-linejoin="round"/>
<path d="M455.781 381.134H461.301" stroke="#B181E7" stroke-width="2.36576" stroke-linecap="round" stroke-linejoin="round"/>
<path d="M450.258 392.175V385.274" stroke="#B181E7" stroke-width="2.36576" stroke-linecap="round" stroke-linejoin="round"/>
<path d="M455.781 392.175V385.274" stroke="#B181E7" stroke-width="2.36576" stroke-linecap="round" stroke-linejoin="round"/>
<path d="M461.301 392.175V385.274" stroke="#B181E7" stroke-width="2.36576" stroke-linecap="round" stroke-linejoin="round"/>
<path d="M466.82 392.175V385.274" stroke="#B181E7" stroke-width="2.36576" stroke-linecap="round" stroke-linejoin="round"/>
<path d="M488.694 395.274V375.402H495.749C496.771 375.402 497.694 375.61 498.517 376.027C499.35 376.443 500.007 377.044 500.49 377.829C500.982 378.605 501.228 379.537 501.228 380.626C501.228 381.156 501.143 381.676 500.972 382.187C500.802 382.698 500.561 383.148 500.249 383.535C499.936 383.923 499.558 384.198 499.113 384.359C499.719 384.51 500.22 384.785 500.618 385.182C501.025 385.57 501.346 386.024 501.583 386.545C501.819 387.065 501.985 387.605 502.08 388.163C502.184 388.721 502.236 389.251 502.236 389.753C502.236 390.813 501.98 391.759 501.469 392.592C500.958 393.424 500.272 394.082 499.411 394.565C498.559 395.038 497.618 395.274 496.586 395.274H488.694ZM491.647 392.719H496.302C496.908 392.719 497.457 392.568 497.949 392.265C498.451 391.962 498.848 391.546 499.141 391.016C499.435 390.477 499.581 389.871 499.581 389.199C499.581 388.612 499.435 388.059 499.141 387.538C498.848 387.008 498.451 386.583 497.949 386.261C497.457 385.939 496.908 385.778 496.302 385.778H491.647V392.719ZM491.647 383.266H495.437C496.213 383.266 496.88 383.029 497.438 382.556C497.996 382.083 498.276 381.435 498.276 380.611C498.276 379.731 497.996 379.074 497.438 378.638C496.88 378.194 496.213 377.971 495.437 377.971H491.647V383.266ZM515.457 381.08H518.409V395.274H515.443L515.329 393.216C514.913 393.945 514.35 394.532 513.64 394.976C512.93 395.421 512.093 395.643 511.128 395.643C510.087 395.643 509.107 395.449 508.189 395.061C507.271 394.664 506.462 394.115 505.762 393.415C505.071 392.715 504.532 391.91 504.144 391.002C503.756 390.084 503.562 389.1 503.562 388.049C503.562 387.037 503.751 386.086 504.13 385.196C504.508 384.297 505.033 383.512 505.705 382.84C506.377 382.168 507.153 381.643 508.033 381.264C508.923 380.876 509.874 380.682 510.886 380.682C511.918 380.682 512.826 380.919 513.612 381.392C514.407 381.856 515.064 382.452 515.585 383.181L515.457 381.08ZM511.057 392.79C511.889 392.79 512.618 392.587 513.243 392.18C513.867 391.764 514.35 391.205 514.69 390.505C515.041 389.805 515.216 389.029 515.216 388.177C515.216 387.316 515.041 386.535 514.69 385.835C514.34 385.135 513.853 384.581 513.228 384.174C512.613 383.758 511.889 383.55 511.057 383.55C510.233 383.55 509.481 383.758 508.8 384.174C508.118 384.591 507.579 385.149 507.182 385.849C506.784 386.549 506.585 387.325 506.585 388.177C506.585 389.038 506.789 389.819 507.196 390.519C507.612 391.21 508.156 391.764 508.828 392.18C509.509 392.587 510.252 392.79 511.057 392.79ZM534.017 386.374V395.274H531.065V387.098C531.065 386.464 530.908 385.887 530.596 385.367C530.293 384.846 529.882 384.434 529.361 384.132C528.85 383.819 528.273 383.663 527.629 383.663C527.005 383.663 526.432 383.819 525.912 384.132C525.391 384.434 524.975 384.846 524.663 385.367C524.351 385.887 524.194 386.464 524.194 387.098V395.274H521.242V381.08H524.194V382.584C524.686 381.998 525.292 381.534 526.011 381.193C526.73 380.853 527.506 380.682 528.339 380.682C529.39 380.682 530.345 380.938 531.207 381.449C532.068 381.96 532.749 382.646 533.251 383.507C533.762 384.368 534.017 385.324 534.017 386.374ZM549.098 395.274H545.691L542.199 389.256L539.914 391.981V395.274H536.961V373.983H539.914V387.396L545.194 381.08H549.055L544.215 386.857L549.098 395.274ZM565.188 375.402H568.637L575.862 395.274H572.739L571.362 391.499H562.462L561.1 395.274H557.963L565.188 375.402ZM563.555 388.546H570.269L566.905 379.32L563.555 388.546ZM586.568 391.243L589.209 392.677C588.565 393.576 587.747 394.295 586.753 394.834C585.769 395.374 584.7 395.643 583.545 395.643C582.239 395.643 581.047 395.308 579.968 394.636C578.899 393.964 578.042 393.065 577.399 391.939C576.765 390.803 576.448 389.549 576.448 388.177C576.448 387.136 576.632 386.166 577.001 385.267C577.37 384.359 577.877 383.564 578.52 382.883C579.173 382.192 579.93 381.652 580.791 381.264C581.652 380.876 582.57 380.682 583.545 380.682C584.7 380.682 585.769 380.952 586.753 381.491C587.747 382.031 588.565 382.755 589.209 383.663L586.568 385.097C586.171 384.624 585.707 384.264 585.177 384.018C584.647 383.763 584.103 383.635 583.545 383.635C582.769 383.635 582.064 383.848 581.43 384.274C580.805 384.69 580.309 385.244 579.94 385.934C579.58 386.616 579.4 387.363 579.4 388.177C579.4 388.981 579.585 389.729 579.954 390.42C580.323 391.101 580.82 391.65 581.444 392.066C582.078 392.483 582.779 392.691 583.545 392.691C584.132 392.691 584.69 392.559 585.22 392.294C585.75 392.029 586.199 391.678 586.568 391.243ZM600.68 391.243L603.32 392.677C602.677 393.576 601.858 394.295 600.864 394.834C599.88 395.374 598.811 395.643 597.656 395.643C596.351 395.643 595.158 395.308 594.079 394.636C593.01 393.964 592.154 393.065 591.51 391.939C590.876 390.803 590.559 389.549 590.559 388.177C590.559 387.136 590.744 386.166 591.113 385.267C591.482 384.359 591.988 383.564 592.632 382.883C593.284 382.192 594.042 381.652 594.903 381.264C595.764 380.876 596.682 380.682 597.656 380.682C598.811 380.682 599.88 380.952 600.864 381.491C601.858 382.031 602.677 382.755 603.32 383.663L600.68 385.097C600.282 384.624 599.819 384.264 599.289 384.018C598.759 383.763 598.215 383.635 597.656 383.635C596.88 383.635 596.175 383.848 595.541 384.274C594.917 384.69 594.42 385.244 594.051 385.934C593.691 386.616 593.512 387.363 593.512 388.177C593.512 388.981 593.696 389.729 594.065 390.42C594.434 391.101 594.931 391.65 595.556 392.066C596.19 392.483 596.89 392.691 597.656 392.691C598.243 392.691 598.801 392.559 599.331 392.294C599.861 392.029 600.311 391.678 600.68 391.243ZM611.768 395.643C610.462 395.643 609.27 395.308 608.191 394.636C607.121 393.964 606.265 393.065 605.622 391.939C604.988 390.803 604.671 389.549 604.671 388.177C604.671 387.136 604.855 386.166 605.224 385.267C605.593 384.359 606.099 383.564 606.743 382.883C607.396 382.192 608.153 381.652 609.014 381.264C609.875 380.876 610.793 380.682 611.768 380.682C613.074 380.682 614.261 381.018 615.331 381.69C616.409 382.362 617.266 383.266 617.9 384.401C618.543 385.537 618.865 386.796 618.865 388.177C618.865 389.209 618.681 390.174 618.312 391.073C617.942 391.972 617.431 392.767 616.779 393.458C616.135 394.139 615.383 394.674 614.522 395.061C613.67 395.449 612.752 395.643 611.768 395.643ZM611.768 392.691C612.553 392.691 613.258 392.483 613.883 392.066C614.507 391.65 614.999 391.101 615.359 390.42C615.728 389.729 615.913 388.981 615.913 388.177C615.913 387.354 615.723 386.597 615.345 385.906C614.976 385.215 614.479 384.666 613.854 384.259C613.23 383.843 612.534 383.635 611.768 383.635C610.992 383.635 610.287 383.843 609.653 384.259C609.028 384.676 608.531 385.229 608.162 385.92C607.803 386.611 607.623 387.363 607.623 388.177C607.623 389.019 607.812 389.781 608.191 390.462C608.569 391.144 609.071 391.688 609.695 392.095C610.329 392.492 611.02 392.691 611.768 392.691ZM620.313 389.951V381.08H623.266V389.228C623.266 389.862 623.422 390.439 623.734 390.959C624.047 391.48 624.463 391.896 624.983 392.208C625.504 392.511 626.076 392.663 626.701 392.663C627.335 392.663 627.907 392.511 628.418 392.208C628.939 391.896 629.351 391.48 629.653 390.959C629.966 390.439 630.122 389.862 630.122 389.228V381.08H633.074L633.089 395.274H630.136L630.122 393.741C629.639 394.328 629.038 394.792 628.319 395.132C627.6 395.473 626.829 395.643 626.005 395.643C624.955 395.643 623.999 395.388 623.138 394.877C622.277 394.366 621.591 393.68 621.08 392.819C620.569 391.958 620.313 391.002 620.313 389.951ZM648.71 386.374V395.274H645.758V387.098C645.758 386.464 645.602 385.887 645.289 385.367C644.987 384.846 644.575 384.434 644.054 384.132C643.543 383.819 642.966 383.663 642.323 383.663C641.698 383.663 641.126 383.819 640.605 384.132C640.085 384.434 639.668 384.846 639.356 385.367C639.044 385.887 638.888 386.464 638.888 387.098V395.274H635.935V381.08H638.888V382.584C639.38 381.998 639.985 381.534 640.705 381.193C641.424 380.853 642.2 380.682 643.032 380.682C644.083 380.682 645.039 380.938 645.9 381.449C646.761 381.96 647.442 382.646 647.944 383.507C648.455 384.368 648.71 385.324 648.71 386.374ZM659.038 384.032H656.058L656.043 395.274H653.091L653.105 384.032H650.848V381.08H653.105L653.091 376.623H656.043L656.058 381.08H659.038V384.032Z" fill="#B181E7"/>
<path d="M246.341 383.435L155.97 347.617C152.195 346.121 147.992 346.121 144.217 347.617L53.8458 383.435C51.8313 384.233 51.8313 387.085 53.8458 387.883L144.217 423.701C147.992 425.197 152.195 425.197 155.97 423.701L246.341 387.883C248.356 387.085 248.356 384.233 246.341 383.435Z" fill="#EEEEEE"/>
<path d="M104.97 382.544H106.795V391.316H104.97V382.544ZM105.9 381.272C105.62 381.272 105.386 381.181 105.199 381C105.011 380.819 104.918 380.591 104.918 380.316C104.918 380.047 105.011 379.822 105.199 379.64C105.386 379.453 105.617 379.36 105.892 379.36C106.161 379.36 106.389 379.453 106.576 379.64C106.763 379.822 106.856 380.047 106.856 380.316C106.856 380.591 106.763 380.819 106.576 381C106.394 381.181 106.169 381.272 105.9 381.272ZM111.405 391.483C110.944 391.453 110.493 391.36 110.055 391.202C109.616 391.044 109.23 390.83 108.897 390.561C108.569 390.287 108.324 389.965 108.16 389.597L109.713 388.93C109.789 389.088 109.92 389.243 110.107 389.395C110.3 389.547 110.525 389.673 110.783 389.772C111.04 389.866 111.309 389.912 111.59 389.912C111.865 389.912 112.119 389.874 112.353 389.798C112.593 389.716 112.789 389.594 112.941 389.43C113.093 389.266 113.169 389.07 113.169 388.842C113.169 388.585 113.081 388.386 112.905 388.246C112.736 388.1 112.522 387.988 112.265 387.912C112.008 387.836 111.751 387.763 111.493 387.693C110.92 387.564 110.394 387.389 109.914 387.167C109.441 386.939 109.063 386.649 108.783 386.298C108.502 385.942 108.362 385.506 108.362 384.991C108.362 384.43 108.514 383.945 108.818 383.535C109.122 383.12 109.52 382.801 110.011 382.579C110.508 382.357 111.037 382.246 111.598 382.246C112.3 382.246 112.944 382.395 113.528 382.693C114.113 382.991 114.56 383.401 114.87 383.921L113.423 384.781C113.335 384.605 113.204 384.447 113.028 384.307C112.853 384.167 112.654 384.056 112.432 383.974C112.21 383.886 111.979 383.836 111.739 383.825C111.441 383.813 111.163 383.848 110.905 383.93C110.654 384.006 110.452 384.129 110.3 384.298C110.148 384.468 110.072 384.684 110.072 384.947C110.072 385.205 110.163 385.398 110.344 385.526C110.525 385.649 110.753 385.749 111.028 385.825C111.309 385.901 111.596 385.985 111.888 386.079C112.408 386.243 112.897 386.445 113.353 386.684C113.809 386.918 114.177 387.208 114.458 387.553C114.739 387.898 114.873 388.319 114.862 388.816C114.862 389.366 114.695 389.848 114.362 390.263C114.034 390.678 113.607 390.994 113.081 391.211C112.555 391.427 111.996 391.518 111.405 391.483ZM120.578 391.316V382.544H122.403V383.474C122.707 383.111 123.081 382.825 123.526 382.614C123.97 382.404 124.45 382.298 124.964 382.298C125.292 382.298 125.616 382.342 125.938 382.43L125.21 384.272C124.982 384.184 124.754 384.14 124.526 384.14C124.14 384.14 123.786 384.237 123.464 384.43C123.143 384.617 122.885 384.871 122.692 385.193C122.499 385.515 122.403 385.871 122.403 386.263V391.316H120.578ZM130.4 391.544C129.593 391.544 128.856 391.336 128.19 390.921C127.529 390.506 127 389.95 126.602 389.254C126.21 388.553 126.014 387.778 126.014 386.93C126.014 386.287 126.128 385.687 126.356 385.132C126.584 384.57 126.897 384.079 127.295 383.658C127.698 383.231 128.166 382.898 128.698 382.658C129.231 382.418 129.798 382.298 130.4 382.298C131.073 382.298 131.69 382.439 132.251 382.719C132.812 382.994 133.292 383.377 133.69 383.869C134.087 384.354 134.38 384.915 134.567 385.553C134.754 386.184 134.81 386.857 134.733 387.57H127.97C128.046 387.974 128.193 388.339 128.409 388.667C128.631 388.988 128.912 389.243 129.251 389.43C129.596 389.617 129.979 389.714 130.4 389.719C130.845 389.719 131.248 389.608 131.611 389.386C131.979 389.164 132.28 388.857 132.514 388.465L134.365 388.895C134.014 389.673 133.485 390.31 132.777 390.807C132.07 391.298 131.277 391.544 130.4 391.544ZM127.909 386.176H132.891C132.833 385.754 132.684 385.374 132.444 385.035C132.21 384.69 131.915 384.418 131.558 384.219C131.207 384.015 130.821 383.912 130.4 383.912C129.985 383.912 129.599 384.012 129.242 384.211C128.891 384.409 128.599 384.681 128.365 385.026C128.137 385.366 127.985 385.749 127.909 386.176ZM136.066 391.316V378.158H137.891V391.316H136.066ZM146.694 382.544H148.519V391.316H146.686L146.615 390.044C146.358 390.494 146.01 390.857 145.571 391.132C145.133 391.407 144.615 391.544 144.019 391.544C143.376 391.544 142.77 391.424 142.203 391.184C141.636 390.939 141.136 390.6 140.703 390.167C140.276 389.734 139.943 389.237 139.703 388.676C139.463 388.108 139.343 387.5 139.343 386.851C139.343 386.225 139.46 385.638 139.694 385.088C139.928 384.532 140.253 384.047 140.668 383.632C141.083 383.216 141.563 382.892 142.107 382.658C142.656 382.418 143.244 382.298 143.87 382.298C144.507 382.298 145.069 382.445 145.554 382.737C146.045 383.023 146.452 383.392 146.773 383.842L146.694 382.544ZM143.975 389.781C144.49 389.781 144.94 389.655 145.326 389.404C145.712 389.146 146.01 388.801 146.221 388.369C146.437 387.936 146.545 387.456 146.545 386.93C146.545 386.398 146.437 385.915 146.221 385.483C146.004 385.05 145.703 384.708 145.317 384.456C144.937 384.199 144.49 384.07 143.975 384.07C143.466 384.07 143.001 384.199 142.58 384.456C142.159 384.714 141.826 385.059 141.58 385.491C141.335 385.924 141.212 386.404 141.212 386.93C141.212 387.462 141.338 387.945 141.589 388.377C141.846 388.804 142.183 389.146 142.598 389.404C143.019 389.655 143.478 389.781 143.975 389.781ZM154.901 384.369H153.059L153.05 391.316H151.225L151.234 384.369H149.839V382.544H151.234L151.225 379.79H153.05L153.059 382.544H154.901V384.369ZM160.125 391.544C159.318 391.544 158.581 391.336 157.915 390.921C157.254 390.506 156.725 389.95 156.327 389.254C155.935 388.553 155.739 387.778 155.739 386.93C155.739 386.287 155.853 385.687 156.081 385.132C156.31 384.57 156.622 384.079 157.02 383.658C157.424 383.231 157.891 382.898 158.424 382.658C158.956 382.418 159.523 382.298 160.125 382.298C160.798 382.298 161.415 382.439 161.976 382.719C162.538 382.994 163.017 383.377 163.415 383.869C163.812 384.354 164.105 384.915 164.292 385.553C164.479 386.184 164.535 386.857 164.459 387.57H157.696C157.772 387.974 157.918 388.339 158.134 388.667C158.356 388.988 158.637 389.243 158.976 389.43C159.321 389.617 159.704 389.714 160.125 389.719C160.57 389.719 160.973 389.608 161.336 389.386C161.704 389.164 162.005 388.857 162.239 388.465L164.09 388.895C163.739 389.673 163.21 390.31 162.503 390.807C161.795 391.298 161.003 391.544 160.125 391.544ZM157.634 386.176H162.617C162.558 385.754 162.409 385.374 162.169 385.035C161.935 384.69 161.64 384.418 161.283 384.219C160.932 384.015 160.546 383.912 160.125 383.912C159.71 383.912 159.324 384.012 158.967 384.211C158.617 384.409 158.324 384.681 158.09 385.026C157.862 385.366 157.71 385.749 157.634 386.176ZM172.728 378.158H174.552V391.316H172.728V390.026C172.441 390.483 172.067 390.851 171.605 391.132C171.143 391.407 170.602 391.544 169.982 391.544C169.345 391.544 168.748 391.424 168.193 391.184C167.637 390.945 167.146 390.614 166.719 390.193C166.298 389.766 165.967 389.275 165.728 388.719C165.488 388.164 165.368 387.567 165.368 386.93C165.368 386.292 165.488 385.696 165.728 385.14C165.967 384.579 166.298 384.088 166.719 383.667C167.146 383.24 167.637 382.907 168.193 382.667C168.748 382.427 169.345 382.307 169.982 382.307C170.602 382.307 171.143 382.447 171.605 382.728C172.067 383.003 172.441 383.366 172.728 383.816V378.158ZM170 389.781C170.514 389.781 170.964 389.655 171.35 389.404C171.736 389.146 172.035 388.801 172.245 388.369C172.462 387.936 172.57 387.456 172.57 386.93C172.57 386.398 172.462 385.915 172.245 385.483C172.029 385.05 171.728 384.708 171.342 384.456C170.962 384.199 170.514 384.07 170 384.07C169.491 384.07 169.026 384.199 168.605 384.456C168.19 384.714 167.856 385.059 167.605 385.491C167.359 385.924 167.236 386.404 167.236 386.93C167.236 387.462 167.362 387.945 167.614 388.377C167.871 388.804 168.207 389.146 168.622 389.404C169.043 389.655 169.502 389.781 170 389.781ZM185.5 384.369H183.658L183.649 391.316H181.824L181.833 384.369H180.438V382.544H181.833L181.824 379.79H183.649L183.658 382.544H185.5V384.369ZM190.724 391.544C189.917 391.544 189.18 391.336 188.514 390.921C187.853 390.506 187.324 389.95 186.926 389.254C186.534 388.553 186.338 387.778 186.338 386.93C186.338 386.287 186.452 385.687 186.68 385.132C186.909 384.57 187.221 384.079 187.619 383.658C188.023 383.231 188.49 382.898 189.023 382.658C189.555 382.418 190.122 382.298 190.724 382.298C191.531 382.298 192.265 382.506 192.926 382.921C193.593 383.336 194.122 383.895 194.514 384.597C194.911 385.298 195.11 386.076 195.11 386.93C195.11 387.567 194.996 388.164 194.768 388.719C194.54 389.275 194.224 389.766 193.821 390.193C193.423 390.614 192.958 390.945 192.426 391.184C191.9 391.424 191.332 391.544 190.724 391.544ZM190.724 389.719C191.21 389.719 191.645 389.591 192.031 389.333C192.417 389.076 192.721 388.737 192.944 388.316C193.172 387.889 193.286 387.427 193.286 386.93C193.286 386.421 193.169 385.953 192.935 385.526C192.707 385.1 192.4 384.76 192.014 384.509C191.628 384.252 191.198 384.123 190.724 384.123C190.245 384.123 189.809 384.252 189.417 384.509C189.031 384.766 188.724 385.108 188.496 385.535C188.274 385.962 188.163 386.427 188.163 386.93C188.163 387.45 188.28 387.921 188.514 388.342C188.748 388.763 189.058 389.1 189.444 389.351C189.835 389.597 190.262 389.719 190.724 389.719Z" fill="#8C8C8C"/>
<path d="M249.281 39.7237L154.979 3.75595C151.319 2.35979 147.272 2.3598 143.612 3.75596L49.3098 39.7237C47.2567 40.5067 47.2567 43.4112 49.3098 44.1942L143.612 80.1619C147.272 81.5581 151.319 81.5581 154.979 80.1619L249.281 44.1942C251.334 43.4112 251.334 40.5067 249.281 39.7237Z" fill="#EEEEEE"/>
<path d="M100.142 38.8438H101.967V47.6158H100.142V38.8438ZM101.072 37.5719C100.791 37.5719 100.557 37.4812 100.37 37.3C100.183 37.1187 100.089 36.8906 100.089 36.6158C100.089 36.3467 100.183 36.1216 100.37 35.9403C100.557 35.7532 100.788 35.6596 101.063 35.6596C101.332 35.6596 101.56 35.7532 101.747 35.9403C101.934 36.1216 102.028 36.3467 102.028 36.6158C102.028 36.8906 101.934 37.1187 101.747 37.3C101.566 37.4812 101.341 37.5719 101.072 37.5719ZM106.577 47.7824C106.115 47.7532 105.665 47.6596 105.226 47.5017C104.788 47.3438 104.402 47.1304 104.068 46.8614C103.741 46.5865 103.495 46.2649 103.331 45.8965L104.884 45.2298C104.96 45.3877 105.092 45.5427 105.279 45.6947C105.472 45.8467 105.697 45.9725 105.954 46.0719C106.212 46.1655 106.481 46.2122 106.761 46.2122C107.036 46.2122 107.29 46.1742 107.524 46.0982C107.764 46.0163 107.96 45.8935 108.112 45.7298C108.264 45.566 108.34 45.3701 108.34 45.1421C108.34 44.8848 108.252 44.6859 108.077 44.5456C107.907 44.3994 107.694 44.2883 107.437 44.2122C107.179 44.1362 106.922 44.0631 106.665 43.9929C106.092 43.8643 105.565 43.6889 105.086 43.4666C104.612 43.2386 104.235 42.9491 103.954 42.5982C103.674 42.2415 103.533 41.8058 103.533 41.2912C103.533 40.7298 103.685 40.2444 103.989 39.8351C104.293 39.4198 104.691 39.1011 105.182 38.8789C105.679 38.6567 106.209 38.5456 106.77 38.5456C107.472 38.5456 108.115 38.6947 108.7 38.9929C109.285 39.2912 109.732 39.7005 110.042 40.221L108.595 41.0807C108.507 40.9052 108.375 40.7473 108.2 40.607C108.024 40.4666 107.826 40.3555 107.603 40.2736C107.381 40.1859 107.15 40.1362 106.91 40.1245C106.612 40.1128 106.334 40.1479 106.077 40.2298C105.826 40.3058 105.624 40.4286 105.472 40.5982C105.32 40.7678 105.244 40.9842 105.244 41.2473C105.244 41.5046 105.334 41.6976 105.516 41.8263C105.697 41.9491 105.925 42.0485 106.2 42.1245C106.481 42.2005 106.767 42.2853 107.059 42.3789C107.58 42.5427 108.068 42.7444 108.524 42.9842C108.981 43.2181 109.349 43.5076 109.63 43.8526C109.91 44.1976 110.045 44.6187 110.033 45.1158C110.033 45.6655 109.866 46.1479 109.533 46.5631C109.206 46.9783 108.779 47.2941 108.252 47.5105C107.726 47.7269 107.168 47.8175 106.577 47.7824ZM115.75 47.6158V38.8438H117.574V39.7736C117.879 39.4111 118.253 39.1245 118.697 38.914C119.142 38.7035 119.621 38.5982 120.136 38.5982C120.463 38.5982 120.788 38.6421 121.11 38.7298L120.381 40.5719C120.153 40.4842 119.925 40.4403 119.697 40.4403C119.311 40.4403 118.957 40.5368 118.636 40.7298C118.314 40.9169 118.057 41.1713 117.864 41.4929C117.671 41.8146 117.574 42.1713 117.574 42.5631V47.6158H115.75ZM125.572 47.8438C124.765 47.8438 124.028 47.6362 123.361 47.221C122.7 46.8058 122.171 46.2503 121.773 45.5543C121.382 44.8526 121.186 44.0777 121.186 43.2298C121.186 42.5865 121.3 41.9871 121.528 41.4315C121.756 40.8701 122.069 40.3789 122.466 39.9579C122.87 39.531 123.338 39.1976 123.87 38.9579C124.402 38.7181 124.969 38.5982 125.572 38.5982C126.244 38.5982 126.861 38.7386 127.423 39.0193C127.984 39.2941 128.463 39.6772 128.861 40.1684C129.259 40.6538 129.551 41.2152 129.738 41.8526C129.925 42.4842 129.981 43.1567 129.905 43.8701H123.142C123.218 44.2736 123.364 44.6391 123.58 44.9666C123.803 45.2883 124.083 45.5427 124.423 45.7298C124.768 45.9169 125.151 46.0134 125.572 46.0193C126.016 46.0193 126.42 45.9082 126.782 45.6859C127.151 45.4637 127.452 45.1567 127.686 44.7649L129.537 45.1947C129.186 45.9725 128.656 46.6099 127.949 47.107C127.241 47.5982 126.449 47.8438 125.572 47.8438ZM123.08 42.4754H128.063C128.004 42.0543 127.855 41.6742 127.616 41.3351C127.382 40.99 127.086 40.7181 126.73 40.5193C126.379 40.3146 125.993 40.2122 125.572 40.2122C125.156 40.2122 124.771 40.3117 124.414 40.5105C124.063 40.7093 123.771 40.9812 123.537 41.3263C123.309 41.6655 123.156 42.0485 123.08 42.4754ZM133.766 36.8526V38.8438H136.24V40.6684H133.766V47.6158H131.942V40.6684H130.898V38.8438H131.942V36.8526C131.942 36.3731 132.059 35.9374 132.293 35.5456C132.527 35.1479 132.839 34.8321 133.231 34.5982C133.629 34.3643 134.07 34.2473 134.556 34.2473C134.907 34.2473 135.249 34.3175 135.582 34.4579C135.915 34.5982 136.214 34.8146 136.477 35.107L135.17 36.3965C135.105 36.2912 135.015 36.2122 134.898 36.1596C134.787 36.1011 134.673 36.0719 134.556 36.0719C134.339 36.0719 134.152 36.1479 133.994 36.3C133.842 36.452 133.766 36.6362 133.766 36.8526ZM141.334 47.8438C140.527 47.8438 139.79 47.6362 139.123 47.221C138.462 46.8058 137.933 46.2503 137.535 45.5543C137.144 44.8526 136.948 44.0777 136.948 43.2298C136.948 42.5865 137.062 41.9871 137.29 41.4315C137.518 40.8701 137.831 40.3789 138.228 39.9579C138.632 39.531 139.1 39.1976 139.632 38.9579C140.164 38.7181 140.731 38.5982 141.334 38.5982C142.006 38.5982 142.623 38.7386 143.185 39.0193C143.746 39.2941 144.226 39.6772 144.623 40.1684C145.021 40.6538 145.313 41.2152 145.5 41.8526C145.688 42.4842 145.743 43.1567 145.667 43.8701H138.904C138.98 44.2736 139.126 44.6391 139.343 44.9666C139.565 45.2883 139.845 45.5427 140.185 45.7298C140.53 45.9169 140.913 46.0134 141.334 46.0193C141.778 46.0193 142.182 45.9082 142.544 45.6859C142.913 45.4637 143.214 45.1567 143.448 44.7649L145.299 45.1947C144.948 45.9725 144.419 46.6099 143.711 47.107C143.003 47.5982 142.211 47.8438 141.334 47.8438ZM138.843 42.4754H143.825C143.766 42.0543 143.617 41.6742 143.378 41.3351C143.144 40.99 142.848 40.7181 142.492 40.5193C142.141 40.3146 141.755 40.2122 141.334 40.2122C140.919 40.2122 140.533 40.3117 140.176 40.5105C139.825 40.7093 139.533 40.9812 139.299 41.3263C139.071 41.6655 138.919 42.0485 138.843 42.4754ZM147.12 47.6158V38.8438H148.944V39.7736C149.248 39.4111 149.623 39.1245 150.067 38.914C150.512 38.7035 150.991 38.5982 151.506 38.5982C151.833 38.5982 152.158 38.6421 152.479 38.7298L151.751 40.5719C151.523 40.4842 151.295 40.4403 151.067 40.4403C150.681 40.4403 150.327 40.5368 150.006 40.7298C149.684 40.9169 149.427 41.1713 149.234 41.4929C149.041 41.8146 148.944 42.1713 148.944 42.5631V47.6158H147.12ZM153.562 47.6158V38.8438H155.386V39.7736C155.69 39.4111 156.065 39.1245 156.509 38.914C156.953 38.7035 157.433 38.5982 157.948 38.5982C158.275 38.5982 158.6 38.6421 158.921 38.7298L158.193 40.5719C157.965 40.4842 157.737 40.4403 157.509 40.4403C157.123 40.4403 156.769 40.5368 156.448 40.7298C156.126 40.9169 155.869 41.1713 155.676 41.4929C155.483 41.8146 155.386 42.1713 155.386 42.5631V47.6158H153.562ZM163.383 47.8438C162.576 47.8438 161.84 47.6362 161.173 47.221C160.512 46.8058 159.983 46.2503 159.585 45.5543C159.193 44.8526 158.998 44.0777 158.998 43.2298C158.998 42.5865 159.112 41.9871 159.34 41.4315C159.568 40.8701 159.881 40.3789 160.278 39.9579C160.682 39.531 161.15 39.1976 161.682 38.9579C162.214 38.7181 162.781 38.5982 163.383 38.5982C164.056 38.5982 164.673 38.7386 165.234 39.0193C165.796 39.2941 166.275 39.6772 166.673 40.1684C167.071 40.6538 167.363 41.2152 167.55 41.8526C167.737 42.4842 167.793 43.1567 167.717 43.8701H160.954C161.03 44.2736 161.176 44.6391 161.392 44.9666C161.614 45.2883 161.895 45.5427 162.234 45.7298C162.579 45.9169 162.962 46.0134 163.383 46.0193C163.828 46.0193 164.231 45.9082 164.594 45.6859C164.962 45.4637 165.264 45.1567 165.498 44.7649L167.348 45.1947C166.998 45.9725 166.468 46.6099 165.761 47.107C165.053 47.5982 164.261 47.8438 163.383 47.8438ZM160.892 42.4754H165.875C165.816 42.0543 165.667 41.6742 165.427 41.3351C165.193 40.99 164.898 40.7181 164.541 40.5193C164.191 40.3146 163.805 40.2122 163.383 40.2122C162.968 40.2122 162.582 40.3117 162.226 40.5105C161.875 40.7093 161.582 40.9812 161.348 41.3263C161.12 41.6655 160.968 42.0485 160.892 42.4754ZM175.986 34.4579H177.81V47.6158H175.986V46.3263C175.699 46.7824 175.325 47.1508 174.863 47.4315C174.401 47.7064 173.86 47.8438 173.24 47.8438C172.603 47.8438 172.006 47.7239 171.451 47.4842C170.895 47.2444 170.404 46.914 169.977 46.4929C169.556 46.066 169.226 45.5748 168.986 45.0193C168.746 44.4637 168.626 43.8672 168.626 43.2298C168.626 42.5924 168.746 41.9959 168.986 41.4403C169.226 40.8789 169.556 40.3877 169.977 39.9666C170.404 39.5397 170.895 39.2064 171.451 38.9666C172.006 38.7269 172.603 38.607 173.24 38.607C173.86 38.607 174.401 38.7473 174.863 39.028C175.325 39.3029 175.699 39.6655 175.986 40.1158V34.4579ZM173.258 46.0807C173.772 46.0807 174.223 45.9549 174.609 45.7035C174.995 45.4462 175.293 45.1011 175.503 44.6684C175.72 44.2356 175.828 43.7561 175.828 43.2298C175.828 42.6976 175.72 42.2152 175.503 41.7824C175.287 41.3497 174.986 41.0076 174.6 40.7561C174.22 40.4988 173.772 40.3701 173.258 40.3701C172.749 40.3701 172.284 40.4988 171.863 40.7561C171.448 41.0134 171.114 41.3584 170.863 41.7912C170.617 42.2239 170.495 42.7035 170.495 43.2298C170.495 43.762 170.62 44.2444 170.872 44.6772C171.129 45.1041 171.465 45.4462 171.88 45.7035C172.302 45.9549 172.761 46.0807 173.258 46.0807ZM188.758 40.6684H186.916L186.907 47.6158H185.083L185.091 40.6684H183.697V38.8438H185.091L185.083 36.0894H186.907L186.916 38.8438H188.758V40.6684ZM193.982 47.8438C193.175 47.8438 192.439 47.6362 191.772 47.221C191.111 46.8058 190.582 46.2503 190.184 45.5543C189.792 44.8526 189.596 44.0777 189.596 43.2298C189.596 42.5865 189.711 41.9871 189.939 41.4315C190.167 40.8701 190.48 40.3789 190.877 39.9579C191.281 39.531 191.749 39.1976 192.281 38.9579C192.813 38.7181 193.38 38.5982 193.982 38.5982C194.789 38.5982 195.523 38.8058 196.184 39.221C196.851 39.6362 197.38 40.1947 197.772 40.8965C198.17 41.5982 198.368 42.376 198.368 43.2298C198.368 43.8672 198.254 44.4637 198.026 45.0193C197.798 45.5748 197.482 46.066 197.079 46.4929C196.681 46.914 196.216 47.2444 195.684 47.4842C195.158 47.7239 194.591 47.8438 193.982 47.8438ZM193.982 46.0193C194.468 46.0193 194.904 45.8906 195.289 45.6333C195.675 45.376 195.98 45.0368 196.202 44.6158C196.43 44.1889 196.544 43.7269 196.544 43.2298C196.544 42.721 196.427 42.2532 196.193 41.8263C195.965 41.3994 195.658 41.0602 195.272 40.8087C194.886 40.5514 194.456 40.4228 193.982 40.4228C193.503 40.4228 193.067 40.5514 192.675 40.8087C192.289 41.066 191.982 41.4081 191.754 41.8351C191.532 42.262 191.421 42.7269 191.421 43.2298C191.421 43.7503 191.538 44.221 191.772 44.6421C192.006 45.0631 192.316 45.3994 192.702 45.6508C193.094 45.8965 193.52 46.0193 193.982 46.0193Z" fill="#8C8C8C"/>
<path d="M269.684 38.7768C268.579 38.7768 267.684 39.6722 267.684 40.7768C267.684 41.8814 268.579 42.7768 269.684 42.7768V38.7768ZM302.797 42.7768C303.902 42.7768 304.797 41.8814 304.797 40.7768C304.797 39.6722 303.902 38.7768 302.797 38.7768V42.7768ZM362.297 38.7768C361.193 38.7768 360.297 39.6722 360.297 40.7768C360.297 41.8814 361.193 42.7768 362.297 42.7768V38.7768ZM396.825 42.191C397.606 41.41 397.606 40.1436 396.825 39.3626L384.097 26.6347C383.316 25.8536 382.05 25.8536 381.269 26.6347C380.488 27.4157 380.488 28.682 381.269 29.4631L392.582 40.7768L381.269 52.0905C380.488 52.8716 380.488 54.1379 381.269 54.9189C382.05 55.7 383.316 55.7 384.097 54.9189L396.825 42.191ZM269.684 42.7768H302.797V38.7768H269.684V42.7768ZM362.297 42.7768H395.411V38.7768H362.297V42.7768Z" fill="#B3B3B3"/>
<path d="M322.976 49.0888C321.976 49.0888 321.08 48.8648 320.288 48.4168C319.496 47.9608 318.816 47.3328 318.248 46.5328C317.68 45.7328 317.248 44.8088 316.952 43.7608C316.656 42.7048 316.508 41.5768 316.508 40.3768C316.508 39.1768 316.656 38.0488 316.952 36.9928C317.248 35.9368 317.68 35.0128 318.248 34.2208C318.816 33.4208 319.496 32.7968 320.288 32.3488C321.08 31.8928 321.976 31.6648 322.976 31.6648C323.968 31.6648 324.86 31.8928 325.652 32.3488C326.452 32.7968 327.128 33.4208 327.68 34.2208C328.24 35.0128 328.668 35.9368 328.964 36.9928C329.268 38.0488 329.42 39.1768 329.42 40.3768C329.42 41.5768 329.268 42.7048 328.964 43.7608C328.668 44.8088 328.24 45.7328 327.68 46.5328C327.128 47.3328 326.452 47.9608 325.652 48.4168C324.86 48.8648 323.968 49.0888 322.976 49.0888ZM322.976 47.0728C323.976 47.0728 324.812 46.7648 325.484 46.1488C326.164 45.5248 326.672 44.7048 327.008 43.6888C327.344 42.6728 327.512 41.5688 327.512 40.3768C327.512 39.1208 327.336 37.9888 326.984 36.9808C326.64 35.9648 326.128 35.1608 325.448 34.5688C324.776 33.9768 323.952 33.6808 322.976 33.6808C322.208 33.6808 321.536 33.8608 320.96 34.2208C320.392 34.5808 319.92 35.0728 319.544 35.6968C319.168 36.3208 318.884 37.0368 318.692 37.8448C318.508 38.6448 318.416 39.4888 318.416 40.3768C318.416 41.5688 318.588 42.6768 318.932 43.7008C319.276 44.7168 319.784 45.5328 320.456 46.1488C321.136 46.7648 321.976 47.0728 322.976 47.0728ZM331.728 38.9848C331.424 38.9848 331.164 38.8768 330.948 38.6608C330.74 38.4448 330.636 38.1808 330.636 37.8688C330.636 37.5728 330.74 37.3168 330.948 37.1008C331.164 36.8848 331.424 36.7768 331.728 36.7768C332.04 36.7768 332.304 36.8848 332.52 37.1008C332.736 37.3168 332.844 37.5728 332.844 37.8688C332.844 38.1808 332.736 38.4448 332.52 38.6608C332.304 38.8768 332.04 38.9848 331.728 38.9848ZM331.728 49.0888C331.424 49.0888 331.164 48.9808 330.948 48.7648C330.74 48.5488 330.636 48.2848 330.636 47.9728C330.636 47.6768 330.74 47.4208 330.948 47.2048C331.164 46.9888 331.424 46.8808 331.728 46.8808C332.04 46.8808 332.304 46.9888 332.52 47.2048C332.736 47.4208 332.844 47.6768 332.844 47.9728C332.844 48.2848 332.736 48.5488 332.52 48.7648C332.304 48.9808 332.04 49.0888 331.728 49.0888ZM335.277 48.7768V31.9768H337.461L345.849 45.1288V31.9768H347.865V48.7768H345.693L337.293 35.6248V48.7768H335.277Z" fill="#757575"/>
<path d="M146.988 173.831C146.988 174.936 147.884 175.831 148.988 175.831C150.093 175.831 150.988 174.936 150.988 173.831H146.988ZM150.988 158.079C150.988 156.974 150.093 156.079 148.988 156.079C147.884 156.079 146.988 156.974 146.988 158.079H150.988ZM146.988 105.079C146.988 106.183 147.884 107.079 148.988 107.079C150.093 107.079 150.988 106.183 150.988 105.079H146.988ZM150.402 87.9121C149.621 87.131 148.355 87.131 147.574 87.9121L134.846 100.64C134.065 101.421 134.065 102.687 134.846 103.468C135.627 104.249 136.894 104.249 137.675 103.468L148.988 92.1547L160.302 103.468C161.083 104.249 162.349 104.249 163.13 103.468C163.911 102.687 163.911 101.421 163.13 100.64L150.402 87.9121ZM150.988 173.831V158.079H146.988V173.831H150.988ZM150.988 105.079V89.3263H146.988V105.079H150.988Z" fill="#B3B3B3"/>
<path d="M143.206 139.579V124.795H141.322L141.886 122.779H145.222V139.579H143.206ZM148.732 129.787C148.428 129.787 148.168 129.679 147.952 129.463C147.744 129.247 147.64 128.983 147.64 128.671C147.64 128.375 147.744 128.119 147.952 127.903C148.168 127.687 148.428 127.579 148.732 127.579C149.044 127.579 149.308 127.687 149.524 127.903C149.74 128.119 149.848 128.375 149.848 128.671C149.848 128.983 149.74 129.247 149.524 129.463C149.308 129.679 149.044 129.787 148.732 129.787ZM148.732 139.891C148.428 139.891 148.168 139.783 147.952 139.567C147.744 139.351 147.64 139.087 147.64 138.775C147.64 138.479 147.744 138.223 147.952 138.007C148.168 137.791 148.428 137.683 148.732 137.683C149.044 137.683 149.308 137.791 149.524 138.007C149.74 138.223 149.848 138.479 149.848 138.775C149.848 139.087 149.74 139.351 149.524 139.567C149.308 139.783 149.044 139.891 148.732 139.891ZM153.685 139.579V124.795H151.801L152.365 122.779H155.701V139.579H153.685Z" fill="#757575"/>
<path d="M266.473 383.274C265.368 383.274 264.473 384.17 264.473 385.274C264.473 386.379 265.368 387.274 266.473 387.274V383.274ZM301.192 387.274C302.297 387.274 303.192 386.379 303.192 385.274C303.192 384.17 302.297 383.274 301.192 383.274V387.274ZM360.692 383.274C359.587 383.274 358.692 384.17 358.692 385.274C358.692 386.379 359.587 387.274 360.692 387.274V383.274ZM396.829 386.689C397.61 385.908 397.61 384.641 396.829 383.86L384.101 371.132C383.32 370.351 382.054 370.351 381.273 371.132C380.491 371.913 380.491 373.18 381.273 373.961L392.586 385.274L381.273 396.588C380.491 397.369 380.491 398.636 381.273 399.417C382.054 400.198 383.32 400.198 384.101 399.417L396.829 386.689ZM266.473 387.274H301.192V383.274H266.473V387.274ZM360.692 387.274H395.415V383.274H360.692V387.274Z" fill="#B3B3B3"/>
<path d="M321.374 393.586C320.374 393.586 319.478 393.362 318.686 392.914C317.894 392.458 317.214 391.83 316.646 391.03C316.078 390.23 315.646 389.306 315.35 388.258C315.054 387.202 314.906 386.074 314.906 384.874C314.906 383.674 315.054 382.546 315.35 381.49C315.646 380.434 316.078 379.51 316.646 378.718C317.214 377.918 317.894 377.294 318.686 376.846C319.478 376.39 320.374 376.162 321.374 376.162C322.366 376.162 323.258 376.39 324.05 376.846C324.85 377.294 325.526 377.918 326.078 378.718C326.638 379.51 327.066 380.434 327.362 381.49C327.666 382.546 327.818 383.674 327.818 384.874C327.818 386.074 327.666 387.202 327.362 388.258C327.066 389.306 326.638 390.23 326.078 391.03C325.526 391.83 324.85 392.458 324.05 392.914C323.258 393.362 322.366 393.586 321.374 393.586ZM321.374 391.57C322.374 391.57 323.21 391.262 323.882 390.646C324.562 390.022 325.07 389.202 325.406 388.186C325.742 387.17 325.91 386.066 325.91 384.874C325.91 383.618 325.734 382.486 325.382 381.478C325.038 380.462 324.526 379.658 323.846 379.066C323.174 378.474 322.35 378.178 321.374 378.178C320.606 378.178 319.934 378.358 319.358 378.718C318.79 379.078 318.318 379.57 317.942 380.194C317.566 380.818 317.282 381.534 317.09 382.342C316.906 383.142 316.814 383.986 316.814 384.874C316.814 386.066 316.986 387.174 317.33 388.198C317.674 389.214 318.182 390.03 318.854 390.646C319.534 391.262 320.374 391.57 321.374 391.57ZM330.126 383.482C329.822 383.482 329.562 383.374 329.346 383.158C329.138 382.942 329.034 382.678 329.034 382.366C329.034 382.07 329.138 381.814 329.346 381.598C329.562 381.382 329.822 381.274 330.126 381.274C330.438 381.274 330.702 381.382 330.918 381.598C331.134 381.814 331.242 382.07 331.242 382.366C331.242 382.678 331.134 382.942 330.918 383.158C330.702 383.374 330.438 383.482 330.126 383.482ZM330.126 393.586C329.822 393.586 329.562 393.478 329.346 393.262C329.138 393.046 329.034 392.782 329.034 392.47C329.034 392.174 329.138 391.918 329.346 391.702C329.562 391.486 329.822 391.378 330.126 391.378C330.438 391.378 330.702 391.486 330.918 391.702C331.134 391.918 331.242 392.174 331.242 392.47C331.242 392.782 331.134 393.046 330.918 393.262C330.702 393.478 330.438 393.586 330.126 393.586ZM333.675 393.274V376.474H335.859L344.247 389.626V376.474H346.263V393.274H344.091L335.691 380.122V393.274H333.675Z" fill="#757575"/>
<path d="M151.777 252.22C151.777 251.116 150.882 250.22 149.777 250.22C148.673 250.22 147.777 251.116 147.777 252.22H151.777ZM147.777 263.532C147.777 264.636 148.673 265.532 149.777 265.532C150.882 265.532 151.777 264.636 151.777 263.532H147.777ZM151.777 316.532C151.777 315.427 150.882 314.532 149.777 314.532C148.673 314.532 147.777 315.427 147.777 316.532H151.777ZM148.363 339.02C149.144 339.801 150.411 339.801 151.192 339.02L163.919 326.292C164.701 325.511 164.701 324.244 163.919 323.463C163.138 322.682 161.872 322.682 161.091 323.463L149.777 334.777L138.464 323.463C137.683 322.682 136.416 322.682 135.635 323.463C134.854 324.244 134.854 325.511 135.635 326.292L148.363 339.02ZM147.777 252.22V263.532H151.777V252.22H147.777ZM147.777 316.532V337.605H151.777V316.532H147.777Z" fill="#B3B3B3"/>
<path d="M140.206 298.344C139.206 298.344 138.31 298.12 137.518 297.672C136.726 297.216 136.046 296.588 135.478 295.788C134.91 294.988 134.478 294.064 134.182 293.016C133.886 291.96 133.738 290.832 133.738 289.632C133.738 288.432 133.886 287.304 134.182 286.248C134.478 285.192 134.91 284.268 135.478 283.476C136.046 282.676 136.726 282.052 137.518 281.604C138.31 281.148 139.206 280.92 140.206 280.92C141.198 280.92 142.09 281.148 142.882 281.604C143.682 282.052 144.359 282.676 144.911 283.476C145.471 284.268 145.899 285.192 146.194 286.248C146.498 287.304 146.65 288.432 146.65 289.632C146.65 290.832 146.498 291.96 146.194 293.016C145.899 294.064 145.471 294.988 144.911 295.788C144.359 296.588 143.682 297.216 142.882 297.672C142.09 298.12 141.198 298.344 140.206 298.344ZM140.206 296.328C141.206 296.328 142.042 296.02 142.714 295.404C143.395 294.78 143.903 293.96 144.239 292.944C144.575 291.928 144.743 290.824 144.743 289.632C144.743 288.376 144.566 287.244 144.214 286.236C143.87 285.22 143.359 284.416 142.679 283.824C142.006 283.232 141.182 282.936 140.206 282.936C139.438 282.936 138.766 283.116 138.19 283.476C137.622 283.836 137.15 284.328 136.774 284.952C136.398 285.576 136.114 286.292 135.922 287.1C135.738 287.9 135.646 288.744 135.646 289.632C135.646 290.824 135.818 291.932 136.162 292.956C136.506 293.972 137.014 294.788 137.686 295.404C138.366 296.02 139.206 296.328 140.206 296.328ZM148.958 288.24C148.654 288.24 148.394 288.132 148.178 287.916C147.97 287.7 147.866 287.436 147.866 287.124C147.866 286.828 147.97 286.572 148.178 286.356C148.394 286.14 148.654 286.032 148.958 286.032C149.27 286.032 149.534 286.14 149.75 286.356C149.966 286.572 150.074 286.828 150.074 287.124C150.074 287.436 149.966 287.7 149.75 287.916C149.534 288.132 149.27 288.24 148.958 288.24ZM148.958 298.344C148.654 298.344 148.394 298.236 148.178 298.02C147.97 297.804 147.866 297.54 147.866 297.228C147.866 296.932 147.97 296.676 148.178 296.46C148.394 296.244 148.654 296.136 148.958 296.136C149.27 296.136 149.534 296.244 149.75 296.46C149.966 296.676 150.074 296.932 150.074 297.228C150.074 297.54 149.966 297.804 149.75 298.02C149.534 298.236 149.27 298.344 148.958 298.344ZM152.507 298.032V281.232H154.691L163.079 294.384V281.232H165.095V298.032H162.923L154.523 284.88V298.032H152.507Z" fill="#757575"/>
</svg>
