<svg width="176" height="146" viewBox="0 0 176 146" fill="none" xmlns="http://www.w3.org/2000/svg">
<g clip-path="url(#clip0_1123_77568)">
<g filter="url(#filter0_d_1123_77568)">
<path d="M144.583 35L74.0234 62.8526C72.1144 63.6062 72.4432 66.4026 74.4748 66.6928L95.5833 69.7083M144.583 35L134.89 93.1582C134.65 94.6001 132.995 95.3055 131.788 94.48L95.5833 69.7083M144.583 35L95.5833 69.7083ZM95.5833 69.7083V87.3085C95.5833 89.0945 97.7463 89.9849 99.0037 88.7165L108.849 78.7852" fill="#E363A8" fill-opacity="0.3" shape-rendering="crispEdges"/>
<path d="M144.583 35L74.0234 62.8526C72.1144 63.6062 72.4432 66.4026 74.4748 66.6928L95.5833 69.7083M144.583 35L134.89 93.1582C134.65 94.6001 132.995 95.3055 131.788 94.48L95.5833 69.7083M144.583 35L95.5833 69.7083M95.5833 69.7083V87.3085C95.5833 89.0945 97.7463 89.9849 99.0037 88.7165L108.849 78.7852" stroke="#FF008A" stroke-width="3" stroke-linecap="round" stroke-linejoin="round" shape-rendering="crispEdges"/>
</g>
<path d="M87.4996 102.205C68.9996 125.205 27.9996 138.205 20.4996 109.205C12.9996 80.2048 87.4996 94.2048 23.9996 164.205C3.59993 184.605 -33.8333 188.371 -50 187.705" stroke="#FF008A" stroke-width="2" stroke-linecap="round" stroke-dasharray="4 4"/>
</g>
<defs>
<filter id="filter0_d_1123_77568" x="59.2563" y="21.5" width="98.8271" height="86.8328" filterUnits="userSpaceOnUse" color-interpolation-filters="sRGB">
<feFlood flood-opacity="0" result="BackgroundImageFix"/>
<feColorMatrix in="SourceAlpha" type="matrix" values="0 0 0 0 0 0 0 0 0 0 0 0 0 0 0 0 0 0 127 0" result="hardAlpha"/>
<feOffset/>
<feGaussianBlur stdDeviation="6"/>
<feComposite in2="hardAlpha" operator="out"/>
<feColorMatrix type="matrix" values="0 0 0 0 0.888916 0 0 0 0 0.388771 0 0 0 0 0.658849 0 0 0 0.5 0"/>
<feBlend mode="normal" in2="BackgroundImageFix" result="effect1_dropShadow_1123_77568"/>
<feBlend mode="normal" in="SourceGraphic" in2="effect1_dropShadow_1123_77568" result="shape"/>
</filter>
<clipPath id="clip0_1123_77568">
<rect width="176" height="146" fill="white"/>
</clipPath>
</defs>
</svg>
