<svg width="166" height="104" viewBox="0 0 166 104" fill="none" xmlns="http://www.w3.org/2000/svg">
<path d="M11.4237 60.5604C11.4788 60.8696 11.5591 61.4092 11.6646 62.1793C11.7817 62.946 11.8821 63.5736 11.9658 64.0621C12.2172 65.5277 12.4806 66.7202 12.7562 67.6398C13.0318 68.5594 13.2759 69.2692 13.4884 69.7693C13.7089 70.2544 13.9571 70.7062 14.2328 71.1246C14.5051 71.5316 14.8131 71.8276 15.1567 72.0128C15.5118 72.1945 15.8733 72.2302 16.2411 72.1199C16.7699 71.9615 17.1493 71.5346 17.3794 70.8393C17.6209 70.1405 17.7223 69.3084 17.6835 68.3429C17.6412 67.3659 17.5628 66.3935 17.4481 65.4256C17.3449 64.4544 17.2371 63.5095 17.1247 62.5912C17.0238 61.6693 16.9941 61.0268 17.0356 60.6636C17.2839 60.3637 17.4886 60.1896 17.6495 60.1414C17.8104 60.0931 17.9363 60.0742 18.0271 60.0846C18.2614 60.6157 18.6318 61.6008 19.1383 63.04C19.6529 64.4642 20.0939 65.5597 20.4615 66.3264C20.8406 67.0897 21.218 67.722 21.5937 68.2232C21.981 68.721 22.4441 69.0958 22.9831 69.3477C23.5186 69.5881 24.0623 69.6256 24.614 69.4602C25.1773 69.2914 25.5595 68.895 25.7609 68.2709C25.9622 67.6468 26.0141 66.8796 25.9166 65.9693C25.7424 64.3429 25.4106 62.7135 24.9214 61.0812C24.4288 59.4375 23.9067 58.1971 23.3553 57.3602C23.5806 57.0672 23.814 56.8845 24.0554 56.8122C24.2968 56.7398 24.5605 56.8675 24.8466 57.1951C25.1327 57.5228 25.3981 57.9694 25.6428 58.535C26.0862 59.5546 26.4371 60.4955 26.6955 61.3576C26.9538 62.2197 27.1335 63.1117 27.2344 64.0335C27.3353 64.9553 27.327 65.8473 27.2095 66.7093C27.1001 67.5563 26.8079 68.2953 26.3331 68.9262C25.8663 69.5422 25.2363 69.969 24.4431 70.2067C23.9109 70.3537 23.396 70.3702 22.8983 70.2563C22.4087 70.1274 21.9875 69.9342 21.6347 69.6766C21.2785 69.4076 20.9142 69.0282 20.542 68.5385C20.0054 67.8349 19.4493 66.8991 18.8738 65.7312C18.8975 67.5656 18.8391 68.8547 18.6986 69.5983C18.3476 71.3947 17.4611 72.5122 16.0392 72.9509C15.1196 73.2265 14.33 73.0999 13.6704 72.571C13.0889 72.0938 12.5846 71.3305 12.1573 70.281C11.985 69.8315 11.811 69.3137 11.6353 68.7274C11.06 66.8078 10.6365 64.2664 10.365 61.1032C10.6122 60.8412 10.822 60.6843 10.9944 60.6327C11.1783 60.5775 11.3214 60.5534 11.4237 60.5604ZM34.7 61.5329L35.2081 63.5416C35.5078 64.5417 35.8243 65.1797 36.1575 65.4556C36.3644 65.6442 36.5885 65.7023 36.8299 65.6299C36.8988 65.6093 36.9914 65.5627 37.1075 65.4904C37.3282 65.3491 37.5397 65.3232 37.742 65.413C37.7821 65.8394 37.44 66.1611 36.7159 66.3782C36.2216 66.5263 35.832 66.4176 35.547 66.052C35.3276 65.7795 35.1202 65.422 34.9249 64.9794C34.7262 64.5254 34.5838 64.2173 34.4976 64.0552C34.1776 65.7045 33.7135 66.7894 33.1054 67.3099C32.7973 67.5776 32.4076 67.7821 31.9363 67.9234C31.465 68.0646 31.03 67.9507 30.6312 67.5817C30.2405 67.1977 29.9143 66.5689 29.6525 65.6952C29.3906 64.8216 29.2604 63.8647 29.2619 62.8245C29.2599 61.7728 29.4365 60.8367 29.7919 60.0161C30.1439 59.1841 30.6474 58.6699 31.3026 58.4735C32.2452 58.191 32.9888 58.3941 33.5334 59.0827C33.9976 59.6702 34.3865 60.4869 34.7 61.5329ZM30.3103 62.2472C30.3354 62.9162 30.3921 63.5444 30.4804 64.1317C30.5653 64.7076 30.6733 65.2139 30.8042 65.6507C30.9316 66.076 31.1281 66.418 31.3935 66.6767C31.6705 66.932 31.9526 67.0165 32.24 66.9304C32.8607 66.7444 33.2827 65.979 33.5061 64.6342C33.7294 63.2895 33.6895 62.1114 33.3864 61.0998C33.19 60.4446 32.8556 59.956 32.3833 59.6341C32.0708 59.4271 31.7248 59.3805 31.3455 59.4942C30.9776 59.6044 30.704 59.9244 30.5245 60.4543C30.3531 60.9691 30.2817 61.5668 30.3103 62.2472ZM45.4271 63.2036C45.2857 63.484 45.0828 63.6639 44.8184 63.7431C44.3241 63.8912 43.877 63.7371 43.4772 63.2807C43.0773 62.8243 42.7407 62.2236 42.4673 61.4787C42.2055 60.7304 41.9551 59.9786 41.7163 59.2234C41.4774 58.4682 41.2212 57.8434 40.9478 57.3491C40.6859 56.8514 40.4055 56.6473 40.1066 56.7369C39.7043 56.8574 39.468 57.3229 39.3976 58.1332C39.3388 58.94 39.3846 59.8032 39.5349 60.7228C39.9537 63.2906 40.0585 64.7688 39.8492 65.1572C39.6733 65.3227 39.5106 65.4278 39.3612 65.4726C39.2118 65.5174 39.0801 65.538 38.9664 65.5346C38.408 64.5494 37.7068 62.774 36.8627 60.2083C36.4538 58.9278 36.1811 58.1013 36.0444 57.7288C36.2376 57.4956 36.4204 57.3531 36.5928 57.3014C36.7652 57.2497 36.9083 57.2256 37.0221 57.2291C37.2277 57.7062 37.5596 58.7091 38.0178 60.2379C38.4875 61.7633 38.7625 62.6392 38.8429 62.8656C38.8281 62.607 38.7799 62.1955 38.6984 61.6312C38.6285 61.0633 38.5763 60.5967 38.5419 60.2312C38.5041 59.8541 38.4893 59.4076 38.4975 58.8915C38.5057 58.3755 38.5604 57.9519 38.6616 57.6209C38.7594 57.2784 38.9399 56.9612 39.2032 56.6694C39.4631 56.366 39.7941 56.154 40.1965 56.0334C40.7367 55.8715 41.2016 56.0015 41.5911 56.4235C41.9887 56.8305 42.3075 57.3926 42.5476 58.1099C42.7876 58.8272 43.0196 59.5594 43.2435 60.3066C43.4789 61.0503 43.7759 61.7067 44.1343 62.2757C44.5043 62.8413 44.9352 63.1506 45.4271 63.2036ZM44.5375 56.123C44.0202 56.278 43.6317 56.2566 43.372 56.0589C43.3169 55.8749 43.3485 55.7089 43.4669 55.5606C43.5969 55.4089 43.7503 55.294 43.9274 55.2159C44.101 55.1263 44.3912 55.008 44.7981 54.861C44.7396 54.5403 44.638 54.1386 44.4933 53.6558C44.3566 53.1581 44.2424 52.7351 44.1505 52.3868C43.9129 51.4683 43.8837 50.8695 44.0631 50.5902C44.139 50.4673 44.2344 50.3886 44.3494 50.3541C44.4758 50.3162 44.5885 50.295 44.6873 50.2904C44.9698 51.1077 45.1369 51.6026 45.1886 51.775L45.8603 54.3923C45.8867 54.3969 45.9517 54.3837 46.0551 54.3527L47.2811 53.9289C48.1777 53.6602 48.6673 53.6638 48.75 53.9397C48.8671 54.3305 48.7751 54.6086 48.4739 54.7741C48.3348 54.8533 48.1618 54.924 47.9549 54.986C47.7595 55.0446 47.494 55.0991 47.1583 55.1496C46.8307 55.1851 46.598 55.2236 46.46 55.2649C46.3221 55.3062 46.2319 55.3395 46.1893 55.3648C46.2548 55.7085 46.3374 56.047 46.4373 56.3804C46.5338 56.7022 46.6618 57.1086 46.8215 57.5994C46.9892 58.0753 47.2091 58.642 47.4813 59.2995C47.7651 59.9536 48.1074 60.4899 48.5085 60.9084C48.906 61.3154 49.3002 61.4603 49.6911 61.3432C49.8865 61.2846 50.094 61.141 50.3136 60.9123C50.5297 60.6722 50.7068 60.5314 50.8447 60.4901C50.9941 60.4453 51.1309 60.4419 51.255 60.4798C51.3872 60.5028 51.4654 60.5546 51.4895 60.6351C51.5618 60.8764 51.3853 61.1862 50.9599 61.5642C50.5426 61.9273 50.1615 62.1605 49.8167 62.2639C48.5522 62.6428 47.4066 61.6833 46.3796 59.3854C46.081 58.7233 45.6571 57.56 45.1082 55.8955C44.9346 55.9851 44.7444 56.061 44.5375 56.123ZM54.6067 53.1052C54.0894 53.2602 53.7009 53.2388 53.4412 53.0411C53.3861 52.8571 53.4177 52.6911 53.5362 52.5428C53.6661 52.3911 53.8196 52.2762 53.9966 52.1981C54.1702 52.1085 54.4604 51.9902 54.8673 51.8432C54.8088 51.5225 54.7072 51.1208 54.5625 50.638C54.4259 50.1403 54.3116 49.7173 54.2198 49.369C53.9821 48.4505 53.9529 47.8517 54.1323 47.5724C54.2082 47.4495 54.3036 47.3708 54.4186 47.3363C54.545 47.2984 54.6577 47.2772 54.7565 47.2726C55.039 48.0899 55.2061 48.5848 55.2578 48.7572L55.9295 51.3745C55.9559 51.3791 56.0209 51.3659 56.1243 51.3349L57.3503 50.9111C58.2469 50.6424 58.7365 50.646 58.8192 50.9219C58.9363 51.3127 58.8443 51.5908 58.5431 51.7563C58.404 51.8355 58.231 51.9062 58.0241 51.9682C57.8287 52.0268 57.5632 52.0813 57.2275 52.1318C56.9 52.1673 56.6672 52.2057 56.5293 52.2471C56.3913 52.2884 56.3011 52.3217 56.2585 52.347C56.324 52.6907 56.4066 53.0292 56.5065 53.3626C56.603 53.6844 56.7311 54.0908 56.8907 54.5816C57.0584 55.0575 57.2783 55.6242 57.5506 56.2817C57.8343 56.9358 58.1766 57.4721 58.5777 57.8906C58.9753 58.2976 59.3695 58.4425 59.7603 58.3254C59.9557 58.2668 60.1632 58.1232 60.3828 57.8945C60.5989 57.6544 60.776 57.5136 60.9139 57.4723C61.0634 57.4275 61.2001 57.4241 61.3243 57.462C61.4564 57.485 61.5346 57.5368 61.5587 57.6173C61.631 57.8586 61.4545 58.1684 61.0291 58.5464C60.6118 58.9095 60.2307 59.1427 59.8859 59.2461C58.6215 59.625 57.4758 58.6655 56.4488 56.3676C56.1502 55.7055 55.7264 54.5422 55.1774 52.8777C55.0038 52.9673 54.8136 53.0432 54.6067 53.1052ZM61.3759 51.1515C61.6935 50.0792 62.404 49.3777 63.5075 49.047C64.611 48.7163 65.6247 48.901 66.5486 49.6013C67.484 50.298 68.124 51.2212 68.4685 52.3707C68.8096 53.5087 68.7369 54.5827 68.2504 55.5929C67.7639 56.6031 66.9632 57.2753 65.8482 57.6095C64.7332 57.9436 63.8298 57.8761 63.138 57.407C62.4427 56.9264 61.9246 56.1171 61.5835 54.9791C61.1391 53.4962 61.0699 52.2204 61.3759 51.1515ZM62.4085 51.838C62.3934 52.3311 62.4128 52.8138 62.4667 53.2863C62.5321 53.7552 62.6234 54.1851 62.7405 54.5759C62.8542 54.9553 62.988 55.2973 63.1419 55.6019C63.2924 55.895 63.4831 56.1761 63.7141 56.4451C63.9416 56.7026 64.2209 56.882 64.5519 56.9833C64.8794 57.073 65.2328 57.061 65.6122 56.9473C66.3823 56.7165 66.9313 56.2075 67.2591 55.4202C67.5984 54.6296 67.6337 53.7859 67.3649 52.8893C67.0962 51.9927 66.5947 51.1972 65.8605 50.5028C65.1342 49.7934 64.4263 49.5421 63.7366 49.7488C63.3228 49.8728 63.0038 50.125 62.7795 50.5054C62.5553 50.8858 62.4316 51.33 62.4085 51.838ZM72.8389 41.5714C73.0915 42.3726 73.2781 42.9743 73.3987 43.3766C73.5159 43.7675 73.6272 44.16 73.7329 44.5543C73.85 44.9451 74.0601 45.7089 74.3633 46.8458C74.663 47.9711 74.9052 48.8631 75.0901 49.5217C75.4373 49.092 75.8226 48.4754 76.2458 47.6721C76.6655 46.8573 77.0553 46.1517 77.4153 45.5552C77.9868 44.6198 78.4805 44.2401 78.8966 44.416C79.054 44.4816 79.1235 44.5672 79.1051 44.673C79.0625 44.9488 78.886 45.3212 78.5755 45.79C78.2765 46.2555 77.9166 46.7893 77.4958 47.3914C77.075 47.9936 76.7587 48.5268 76.5471 48.9911C77.4207 48.8546 78.2344 49.1243 78.9882 49.8004C79.3203 50.1142 79.6466 50.4298 79.9672 50.7472C80.7957 51.5887 81.5737 52.0947 82.3012 52.265C82.1402 52.5638 81.9103 52.758 81.6114 52.8475C81.3126 52.9371 80.9706 52.883 80.5857 52.6852C80.2122 52.484 79.8542 52.2092 79.5118 51.8608C79.1808 51.509 78.8442 51.1589 78.5017 50.8106C77.7077 49.9586 76.9831 49.6309 76.3279 49.8272C76.0176 49.9203 75.7842 50.1029 75.6278 50.3753C75.468 50.6362 75.4208 50.8758 75.4862 51.0942C75.8996 52.4736 76.1833 53.5035 76.3371 54.184C76.2416 54.4506 76.1019 54.6115 75.918 54.6666C75.8605 54.6839 75.7939 54.6913 75.718 54.689C75.4341 54.6613 75.2439 54.4866 75.1475 54.1647C75.0625 53.8394 74.8042 52.852 74.3724 51.2025C73.2483 46.992 72.5123 44.3063 72.1643 43.1453C72.0024 42.605 71.9456 42.2274 71.994 42.0125C72.0538 41.7941 72.1584 41.6626 72.3079 41.6178C72.4688 41.5695 72.6458 41.5541 72.8389 41.5714ZM90.3513 49.7396C90.2099 50.02 90.007 50.1998 89.7426 50.2791C89.2483 50.4272 88.8012 50.2731 88.4014 49.8166C88.0015 49.3602 87.6649 48.7596 87.3915 48.0147C87.1297 47.2664 86.8793 46.5146 86.6404 45.7594C86.4016 45.0042 86.1454 44.3794 85.872 43.8851C85.6101 43.3873 85.3297 43.1832 85.0308 43.2728C84.6285 43.3934 84.3922 43.8588 84.3218 44.6691C84.263 45.476 84.3087 46.3392 84.4591 47.2588C84.8779 49.8266 84.9827 51.3048 84.7734 51.6932C84.5975 51.8587 84.4348 51.9638 84.2854 52.0086C84.1359 52.0534 84.0043 52.074 83.8905 52.0705C83.3322 51.0853 82.631 49.3099 81.7869 46.7443C81.378 45.4637 81.1053 44.6372 80.9686 44.2648C81.1618 44.0315 81.3446 43.889 81.517 43.8374C81.6894 43.7857 81.8325 43.7616 81.9463 43.7651C82.1519 44.2421 82.4838 45.2451 82.942 46.7739C83.4117 48.2992 83.6867 49.1752 83.7671 49.4016C83.7523 49.143 83.7041 48.7315 83.6226 48.1671C83.5527 47.5993 83.5005 47.1326 83.4661 46.7671C83.4283 46.3901 83.4135 45.9436 83.4217 45.4275C83.4298 44.9114 83.4846 44.4879 83.5858 44.1569C83.6836 43.8144 83.8641 43.4972 84.1274 43.2053C84.3873 42.902 84.7183 42.69 85.1207 42.5694C85.6609 42.4075 86.1258 42.5375 86.5153 42.9594C86.9129 43.3664 87.2317 43.9286 87.4718 44.6458C87.7118 45.3631 87.9438 46.0954 88.1677 46.8425C88.4031 47.5862 88.7001 48.2426 89.0585 48.8117C89.4285 49.3773 89.8594 49.6866 90.3513 49.7396ZM90.0513 42.5574C90.3688 41.4851 91.0793 40.7836 92.1829 40.4528C93.2864 40.1221 94.3001 40.3069 95.224 41.0071C96.1594 41.7039 96.7994 42.627 97.1439 43.7765C97.4849 44.9145 97.4122 45.9886 96.9258 46.9988C96.4393 48.0089 95.6386 48.6811 94.5236 49.0153C93.4086 49.3495 92.5052 49.282 91.8134 48.8128C91.1181 48.3322 90.6 47.5229 90.2589 46.3849C89.8145 44.9021 89.7453 43.6262 90.0513 42.5574ZM91.0839 43.2438C91.0688 43.7369 91.0882 44.2197 91.1421 44.6921C91.2075 45.1611 91.2987 45.591 91.4159 45.9818C91.5296 46.3611 91.6634 46.7031 91.8173 47.0077C91.9678 47.3009 92.1585 47.5819 92.3895 47.851C92.617 48.1085 92.8962 48.2879 93.2272 48.3891C93.5548 48.4788 93.9082 48.4669 94.2876 48.3532C95.0577 48.1224 95.6067 47.6133 95.9345 46.8261C96.2738 46.0354 96.309 45.1917 96.0403 44.2951C95.7716 43.3985 95.2701 42.603 94.5358 41.9086C93.8096 41.1992 93.1017 40.9479 92.412 41.1546C91.9982 41.2786 91.6791 41.5308 91.4549 41.9112C91.2307 42.2916 91.107 42.7358 91.0839 43.2438ZM104.101 43.9651C104.076 44.549 103.854 45.1041 103.435 45.6304C103.028 46.1532 102.514 46.5077 101.894 46.6937C101.284 46.8763 100.716 46.7147 100.189 46.2088C99.6692 45.688 99.2458 44.8816 98.9186 43.7896C97.9953 40.7089 97.9877 39.0325 98.8958 38.7604C99.0107 38.7259 99.1596 38.7001 99.3423 38.6829C99.363 38.8772 99.3876 39.2519 99.4162 39.807C99.4664 40.8944 99.607 41.8231 99.8378 42.5933C100.069 43.3634 100.422 44.1468 100.899 44.9435C101.373 45.7287 101.81 46.061 102.213 45.9404C102.42 45.8784 102.581 45.6859 102.697 45.3629C102.814 45.04 102.886 44.7176 102.915 44.3958C102.94 44.0625 102.959 43.6872 102.972 43.27C102.985 42.8527 102.996 42.5987 103.007 42.5079C102.634 41.8929 102.345 41.2406 102.138 40.5509C102.128 40.5164 102.097 40.4129 102.045 40.2405C101.99 40.0566 101.943 39.8767 101.902 39.7008C101.862 39.525 101.835 39.3077 101.82 39.0491C101.79 38.5319 102.028 38.1975 102.534 38.0459C102.959 37.9184 103.365 38.4984 103.751 39.7858C103.819 40.0157 103.885 40.3594 103.947 40.8169C104.02 41.2709 104.083 41.5841 104.134 41.7565C104.293 42.2853 104.751 42.8935 105.508 43.581C106.265 44.2685 106.862 44.5468 107.299 44.4159C107.747 44.2816 107.999 43.9305 108.055 43.3627C108.11 42.7949 108.045 42.2007 107.859 41.58C107.645 40.8673 107.42 40.346 107.183 40.016C106.954 39.6712 106.806 39.4464 106.737 39.3418C106.679 39.2337 106.551 39.078 106.352 38.8745C106.162 38.656 106.039 38.5175 105.984 38.4589C105.94 38.3968 105.804 38.2559 105.575 38.0363C105.346 37.8167 105.215 37.6932 105.182 37.6656C104.673 37.1792 104.381 36.9159 104.306 36.8757C104.521 36.5482 104.75 36.3482 104.991 36.2759C105.844 36.5715 106.649 37.2321 107.408 38.2575C108.163 39.2715 108.681 40.2498 108.964 41.1923C109.243 42.1234 109.262 42.9194 109.022 43.5802C108.789 44.2261 108.254 44.6748 107.415 44.9263C106.828 45.102 106.223 45.1082 105.597 44.9448C104.98 44.7664 104.481 44.4399 104.101 43.9651ZM114.089 34.9398C114.215 34.9019 114.506 35.6416 114.961 37.1589C115.033 37.4003 115.143 37.7871 115.29 38.3193C115.448 38.8481 115.531 39.124 115.538 39.147C115.263 37.8136 115.113 36.894 115.087 36.3883C115.072 35.8791 115.078 35.4389 115.104 35.0677C115.127 34.6849 115.186 34.3792 115.28 34.1505C115.507 33.569 115.862 33.2058 116.344 33.0612C116.954 32.8786 117.499 33.0471 117.98 33.5668C118.473 34.083 118.877 34.8451 119.192 35.8532C118.856 33.6865 119.303 32.4189 120.532 32.0502C121.061 31.8918 121.516 32.0499 121.896 32.5247C122.276 32.9995 122.579 33.6105 122.802 34.3577L123.536 36.994C124.053 38.7182 124.685 39.4684 125.432 39.2445L126.368 38.7947C126.426 38.7775 126.485 38.766 126.546 38.7603C126.483 38.9672 126.311 39.1688 126.032 39.3653C125.749 39.5503 125.458 39.6876 125.16 39.7771C124.573 39.9528 124.053 39.8268 123.599 39.3991C123.154 38.9565 122.833 38.4513 122.638 37.8834C122.439 37.3041 122.278 36.8075 122.154 36.3937L121.728 34.8488C121.577 34.343 121.397 33.8705 121.191 33.4314C120.995 32.9888 120.766 32.8072 120.501 32.8864C120.11 33.0036 119.977 33.9391 120.102 35.6931C120.235 37.4322 120.482 39.0495 120.842 40.5449C120.709 40.8104 120.494 40.9937 120.199 41.0947C120.107 41.1223 120.016 41.1309 119.925 41.1205C119.642 40.5538 119.287 39.5767 118.858 38.1893C118.438 36.7869 118.035 35.6926 117.649 34.9063C117.263 34.12 116.829 33.7992 116.346 33.9439C116.024 34.0403 115.866 34.4759 115.873 35.2506C115.874 36.4655 116.095 38.2908 116.537 40.7265C116.634 41.2989 116.701 41.711 116.739 41.9627C116.559 42.242 116.343 42.4195 116.09 42.4953L115.821 42.5383C115.085 40.6669 114.291 38.3116 113.44 35.4724C113.505 35.2276 113.721 35.05 114.089 34.9398ZM125.496 31.9345C125.813 30.8622 126.524 30.1607 127.627 29.83C128.731 29.4992 129.744 29.684 130.668 30.3842C131.604 31.081 132.244 32.0041 132.588 33.1536C132.929 34.2916 132.857 35.3657 132.37 36.3759C131.884 37.3861 131.083 38.0583 129.968 38.3924C128.853 38.7266 127.949 38.6591 127.258 38.19C126.562 37.7093 126.044 36.9 125.703 35.762C125.259 34.2792 125.19 33.0034 125.496 31.9345ZM126.528 32.621C126.513 33.1141 126.533 33.5968 126.586 34.0692C126.652 34.5382 126.743 34.9681 126.86 35.3589C126.974 35.7382 127.108 36.0802 127.262 36.3849C127.412 36.678 127.603 36.9591 127.834 37.2281C128.061 37.4856 128.341 37.665 128.672 37.7662C128.999 37.856 129.353 37.844 129.732 37.7303C130.502 37.4995 131.051 36.9905 131.379 36.2032C131.718 35.4125 131.753 34.5689 131.485 33.6723C131.216 32.7757 130.714 31.9802 129.98 31.2857C129.254 30.5764 128.546 30.325 127.856 30.5317C127.442 30.6558 127.123 30.908 126.899 31.2884C126.675 31.6687 126.551 32.113 126.528 32.621ZM136.69 34.5362L137.036 35.5036C137.112 35.7564 137.091 35.957 136.972 36.1052C136.862 36.2385 136.732 36.3276 136.583 36.3724C136.445 36.4137 136.294 36.4338 136.131 36.4326C135.478 35.175 134.785 33.5725 134.051 31.6253C133.329 29.6746 132.916 28.5705 132.814 28.313C132.938 28.1004 133.092 27.9665 133.276 27.9114C133.472 27.8528 133.651 27.8241 133.814 27.8253C133.96 28.1449 134.215 28.8702 134.579 30.0013C134.943 31.1324 135.186 31.8365 135.306 32.1135C135.178 31.0997 135.195 30.1113 135.357 29.1481C135.446 28.6079 135.633 28.1448 135.918 27.7586C136.211 27.3576 136.57 27.0933 136.995 26.9659C137.432 26.8349 137.887 26.9115 138.361 27.1955C138.842 27.4646 139.13 27.7543 139.223 28.0647C139.257 28.1797 139.216 28.2923 139.098 28.4026C138.978 28.5014 138.831 28.5767 138.659 28.6283C138.498 28.6766 138.352 28.6512 138.223 28.5524C138.093 28.4535 137.988 28.3345 137.909 28.1954C137.826 28.0448 137.708 27.9235 137.556 27.8315C137.403 27.7395 137.229 27.7228 137.033 27.7814C136.516 27.9364 136.213 28.5346 136.124 29.5759C135.978 31.1356 136.166 32.789 136.69 34.5362ZM141.921 30.9955C141.967 31.2323 142.002 31.3909 142.026 31.4714C142.232 32.1611 142.6 32.6336 143.127 32.8889C143.666 33.1407 144.223 33.1805 144.798 33.0083C145.372 32.836 145.814 32.6161 146.122 32.3483C146.442 32.0772 146.654 31.8255 146.76 31.5933C147.019 30.9521 147.321 30.5797 147.666 30.4764C147.792 30.4385 147.952 30.4282 148.145 30.4455C148.199 31.0432 147.917 31.6914 147.3 32.39C146.69 33.0737 145.816 33.5861 144.678 33.9272C143.874 34.1684 143.103 34.1239 142.365 33.7938C141.635 33.4488 141.138 32.8337 140.872 31.9486C140.607 31.0635 140.523 30.1555 140.62 29.2245C140.724 28.2786 141.017 27.4143 141.496 26.6317C141.984 25.8342 142.567 25.3338 143.245 25.1305C143.934 24.9238 144.529 24.9021 145.029 25.0655C145.537 25.2139 145.872 25.5582 146.034 26.0985C146.334 27.0985 146.133 28.0605 145.433 28.9844C144.741 29.8934 143.895 30.4978 142.895 30.7975C142.631 30.8767 142.306 30.9427 141.921 30.9955ZM143.061 30.0338C143.601 29.8719 144.032 29.5547 144.354 29.0824C144.676 28.6101 144.866 28.1585 144.925 27.7274C144.995 27.293 144.984 26.9206 144.891 26.6102C144.798 26.2999 144.596 26.0659 144.286 25.9084C143.972 25.7393 143.654 25.703 143.332 25.7995C142.758 25.9717 142.342 26.5285 142.085 27.4698C141.84 28.4076 141.742 29.3329 141.79 30.2455C142.327 30.1974 142.75 30.1268 143.061 30.0338ZM147.199 21.5778C147.127 21.6744 147.034 21.7399 146.919 21.7743C146.816 21.8053 146.676 21.7972 146.499 21.7501C146.333 21.6994 146.235 21.6224 146.204 21.5189C146.169 21.404 146.213 21.2782 146.335 21.1414C146.959 20.4657 147.915 19.935 149.203 19.5491C150.777 19.0772 151.819 19.0407 152.327 19.4396C152.553 19.6098 152.727 19.896 152.847 20.2984C152.964 20.6892 152.94 21.2351 152.774 21.9362C152.605 22.6258 152.388 23.2798 152.122 23.8981C151.853 24.5049 151.621 25.1508 151.425 25.8358C151.241 26.5173 151.196 27.0569 151.29 27.4546C151.327 27.619 151.273 27.773 151.128 27.9166C150.994 28.0568 150.859 28.1476 150.721 28.1889L150.583 28.2303C150.374 28.2429 150.234 28.1532 150.164 27.9612C150.04 27.4221 150.065 26.7946 150.239 26.0785C150.412 25.3625 150.628 24.7218 150.884 24.1563C151.149 23.576 151.359 22.9617 151.516 22.3135C151.684 21.6618 151.711 21.1463 151.597 20.767C151.483 20.3876 151.251 20.1755 150.899 20.1306C150.547 20.0857 149.958 20.1872 149.13 20.4353C148.314 20.6799 147.67 21.0607 147.199 21.5778ZM151.838 29.8461C152.04 29.8105 152.235 29.8336 152.422 29.9152C152.606 29.9854 152.732 30.1354 152.801 30.3653C152.867 30.5837 152.789 30.8262 152.568 31.0928C152.348 31.3594 152.088 31.5375 151.789 31.6271C151.341 31.7614 151.068 31.6677 150.972 31.3458C150.872 31.0125 150.906 30.7079 151.074 30.4321C151.238 30.1448 151.493 29.9494 151.838 29.8461ZM56.9123 74.7254C56.7881 74.938 56.6732 75.0977 56.5674 75.2046C56.4616 75.3114 56.3369 75.3551 56.1932 75.3355C56.061 75.3125 55.9668 75.2906 55.9105 75.2699C55.8542 75.2492 55.7295 75.1676 55.5364 75.025C55.3514 74.8675 55.2348 74.7709 55.1865 74.7352C54.3832 74.1868 53.5161 74.0521 52.585 74.3311C51.6654 74.6067 50.8871 75.1657 50.2501 76.008C49.6212 76.8354 49.2043 77.8059 48.9994 78.9197C48.7945 80.0334 48.8488 81.1132 49.1623 82.1593C49.5481 83.4467 50.2887 84.371 51.3839 84.9322C52.4906 85.4899 53.7509 85.5569 55.1647 85.1332C56.5901 84.706 57.7184 83.9357 58.5498 82.8221C58.6843 82.644 58.8131 82.405 58.9361 82.105C59.0707 81.8016 59.1915 81.5775 59.2984 81.4327C59.4168 81.2845 59.541 81.1971 59.6709 81.1707C59.8122 81.1409 60.014 81.1243 60.276 81.1209C60.0711 82.2346 59.4692 83.2356 58.4701 84.1238C57.4791 84.9971 56.2537 85.6525 54.7938 86.09C53.334 86.5275 51.976 86.4898 50.7198 85.9768C49.4637 85.4638 48.6031 84.4315 48.138 82.8796C47.8486 81.9141 47.7305 80.9348 47.7836 79.9417C47.8333 78.9372 48.0364 78.0056 48.393 77.1471C48.7576 76.2737 49.3032 75.5026 50.0297 74.8338C50.7678 74.1616 51.6369 73.6757 52.637 73.376C54.4187 72.842 55.8438 73.2918 56.9123 74.7254ZM60.8994 76.3491C61.2169 75.2768 61.9274 74.5753 63.0309 74.2445C64.1344 73.9138 65.1481 74.0986 66.0721 74.7988C67.0075 75.4956 67.6474 76.4187 67.992 77.5682C68.333 78.7062 68.2603 79.7803 67.7738 80.7905C67.2874 81.8006 66.4866 82.4728 65.3716 82.807C64.2566 83.1412 63.3532 83.0737 62.6614 82.6045C61.9662 82.1239 61.448 81.3146 61.107 80.1766C60.6626 78.6938 60.5934 77.4179 60.8994 76.3491ZM61.9319 77.0355C61.9169 77.5286 61.9363 78.0114 61.9902 78.4838C62.0555 78.9528 62.1468 79.3827 62.2639 79.7735C62.3776 80.1528 62.5114 80.4948 62.6654 80.7994C62.8159 81.0926 63.0066 81.3736 63.2375 81.6427C63.4651 81.9002 63.7443 82.0796 64.0753 82.1808C64.4029 82.2705 64.7563 82.2586 65.1356 82.1449C65.9058 81.9141 66.4548 81.405 66.7825 80.6178C67.1218 79.8271 67.1571 78.9834 66.8884 78.0868C66.6197 77.1903 66.1182 76.3947 65.3839 75.7003C64.6577 74.9909 63.9497 74.7396 63.26 74.9463C62.8462 75.0703 62.5272 75.3225 62.303 75.7029C62.0787 76.0833 61.9551 76.5275 61.9319 77.0355ZM77.8523 78.5403C77.7109 78.8207 77.508 79.0005 77.2436 79.0798C76.7493 79.2279 76.3022 79.0738 75.9024 78.6174C75.5025 78.1609 75.1659 77.5603 74.8925 76.8154C74.6307 76.0671 74.3803 75.3153 74.1415 74.5601C73.9026 73.8049 73.6464 73.1801 73.373 72.6858C73.1111 72.1881 72.8307 71.984 72.5318 72.0735C72.1295 72.1941 71.8932 72.6596 71.8228 73.4699C71.764 74.2767 71.8098 75.1399 71.9601 76.0595C72.3789 78.6273 72.4837 80.1055 72.2744 80.4939C72.0985 80.6594 71.9358 80.7645 71.7864 80.8093C71.637 80.8541 71.5053 80.8747 71.3916 80.8713C70.8332 79.8861 70.132 78.1106 69.2879 75.545C68.879 74.2644 68.6063 73.438 68.4696 73.0655C68.6628 72.8322 68.8456 72.6898 69.018 72.6381C69.1904 72.5864 69.3335 72.5623 69.4473 72.5658C69.6529 73.0429 69.9848 74.0458 70.443 75.5746C70.9127 77.1 71.1877 77.9759 71.2681 78.2023C71.2533 77.9437 71.2051 77.5322 71.1236 76.9678C71.0537 76.4 71.0015 75.9334 70.9671 75.5678C70.9293 75.1908 70.9145 74.7443 70.9227 74.2282C70.9309 73.7121 70.9856 73.2886 71.0868 72.9576C71.1846 72.6151 71.3651 72.2979 71.6284 72.0061C71.8883 71.7027 72.2193 71.4907 72.6217 71.3701C73.1619 71.2082 73.6268 71.3382 74.0163 71.7602C74.4139 72.1672 74.7327 72.7293 74.9728 73.4466C75.2128 74.1639 75.4448 74.8961 75.6687 75.6433C75.9041 76.387 76.2011 77.0434 76.5595 77.6124C76.9295 78.178 77.3604 78.4873 77.8523 78.5403ZM76.9627 71.4597C76.4454 71.6147 76.0569 71.5933 75.7972 71.3956C75.7421 71.2116 75.7737 71.0456 75.8921 70.8973C76.0221 70.7456 76.1755 70.6307 76.3526 70.5526C76.5262 70.463 76.8164 70.3447 77.2233 70.1977C77.1648 69.877 77.0632 69.4753 76.9185 68.9925C76.7819 68.4948 76.6676 68.0717 76.5757 67.7235C76.3381 66.805 76.3089 66.2062 76.4883 65.9269C76.5642 65.804 76.6596 65.7253 76.7746 65.6908C76.901 65.6529 77.0137 65.6317 77.1125 65.6271C77.395 66.4444 77.5621 66.9393 77.6138 67.1117L78.2855 69.729C78.3119 69.7336 78.3769 69.7204 78.4803 69.6894L79.7063 69.2656C80.6029 68.9969 81.0925 69.0005 81.1752 69.2764C81.2923 69.6672 81.2003 69.9453 80.8991 70.1108C80.76 70.19 80.587 70.2607 80.3801 70.3227C80.1847 70.3812 79.9192 70.4358 79.5835 70.4863C79.2559 70.5218 79.0232 70.5602 78.8852 70.6016C78.7473 70.6429 78.6571 70.6762 78.6145 70.7015C78.68 71.0452 78.7626 71.3837 78.8625 71.7171C78.959 72.0389 79.087 72.4453 79.2467 72.9361C79.4144 73.412 79.6343 73.9787 79.9065 74.6362C80.1903 75.2903 80.5326 75.8266 80.9337 76.2451C81.3312 76.6521 81.7254 76.797 82.1163 76.6799C82.3117 76.6213 82.5192 76.4777 82.7388 76.249C82.9549 76.0088 83.132 75.8681 83.2699 75.8268C83.4193 75.782 83.5561 75.7786 83.6802 75.8165C83.8124 75.8395 83.8906 75.8913 83.9147 75.9717C83.987 76.2131 83.8105 76.5229 83.3851 76.9009C82.9678 77.264 82.5867 77.4972 82.2419 77.6006C80.9774 77.9795 79.8318 77.02 78.8048 74.7221C78.5062 74.06 78.0823 72.8967 77.5334 71.2322C77.3598 71.3218 77.1696 71.3976 76.9627 71.4597ZM89.2505 70.2385L89.7586 72.2472C90.0583 73.2473 90.3748 73.8853 90.708 74.1612C90.9149 74.3498 91.139 74.4079 91.3804 74.3355C91.4494 74.3149 91.5419 74.2683 91.658 74.196C91.8787 74.0547 92.0902 74.0288 92.2925 74.1186C92.3326 74.545 91.9906 74.8667 91.2664 75.0838C90.7721 75.2319 90.3825 75.1232 90.0976 74.7576C89.8781 74.4851 89.6707 74.1276 89.4755 73.685C89.2767 73.231 89.1343 72.9229 89.0481 72.7608C88.7282 74.4101 88.2641 75.495 87.6559 76.0155C87.3478 76.2832 86.9581 76.4877 86.4868 76.629C86.0155 76.7702 85.5805 76.6563 85.1818 76.2873C84.7911 75.9033 84.4648 75.2745 84.203 74.4008C83.9412 73.5272 83.811 72.5703 83.8124 71.5301C83.8104 70.4784 83.9871 69.5423 84.3425 68.7217C84.6944 67.8897 85.198 67.3755 85.8532 67.1791C86.7958 66.8966 87.5394 67.0997 88.084 67.7883C88.5482 68.3758 88.937 69.1925 89.2505 70.2385ZM84.8608 70.9528C84.8859 71.6218 84.9426 72.25 85.031 72.8373C85.1159 73.4132 85.2238 73.9195 85.3547 74.3563C85.4822 74.7816 85.6786 75.1236 85.9441 75.3823C86.221 75.6376 86.5031 75.7221 86.7905 75.636C87.4112 75.45 87.8333 74.6846 88.0566 73.3398C88.28 71.9951 88.2401 70.817 87.9369 69.8054C87.7405 69.1502 87.4062 68.6616 86.9339 68.3397C86.6213 68.1327 86.2753 68.0861 85.896 68.1998C85.5282 68.31 85.2545 68.63 85.0751 69.1599C84.9037 69.6747 84.8323 70.2724 84.8608 70.9528ZM96.8913 66.3137C96.7384 66.5976 96.5527 66.7722 96.3343 66.8377C96.1159 66.9032 95.9102 66.8646 95.7171 66.722C95.5321 66.5645 95.3667 66.3886 95.2207 66.1943C95.0714 65.9885 94.8599 65.8264 94.5864 65.7079C94.3209 65.5745 94.0273 65.5561 93.7054 65.6525C93.2709 65.8329 92.9593 66.277 92.7706 66.985C92.5785 67.6815 92.503 68.4119 92.5441 69.1763C92.5853 69.9406 92.7006 70.6389 92.8901 71.2711C93.0762 71.8918 93.4105 72.3804 93.8931 72.7369C94.3838 73.0784 94.9281 73.1595 95.5258 72.9804C96.2155 72.7737 96.6949 72.3669 96.964 71.7601C97.0744 71.5016 97.1733 71.2464 97.2608 70.9947C97.4839 70.4017 97.7449 70.0604 98.0438 69.9708C98.1472 69.9398 98.3053 69.9238 98.5179 69.9227C98.6454 70.348 98.4234 71.0284 97.8519 71.9638C97.2884 72.8843 96.5526 73.4807 95.6445 73.7528C94.7364 74.025 93.9319 73.9529 93.2309 73.5367C92.5379 73.1055 92.0536 72.4301 91.778 71.5105C91.4232 70.3265 91.3557 69.0564 91.5756 67.7002C91.6907 67.0393 91.9403 66.4509 92.3243 65.9349C92.7049 65.4074 93.1998 65.0524 93.8091 64.8698C94.4183 64.6872 94.9688 64.7477 95.4607 65.0513C95.9606 65.3399 96.4375 65.7607 96.8913 66.3137ZM98.5828 64.98C98.0656 65.135 97.6771 65.1136 97.4174 64.9159C97.3623 64.7319 97.3939 64.5659 97.5123 64.4176C97.6423 64.2659 97.7957 64.151 97.9728 64.0729C98.1463 63.9833 98.4366 63.865 98.8435 63.718C98.785 63.3973 98.6834 62.9956 98.5387 62.5128C98.402 62.0151 98.2878 61.5921 98.1959 61.2438C97.9583 60.3253 97.9291 59.7265 98.1085 59.4472C98.1844 59.3243 98.2798 59.2456 98.3948 59.2111C98.5212 59.1732 98.6338 59.152 98.7327 59.1474C99.0152 59.9647 99.1823 60.4596 99.234 60.632L99.9057 63.2493C99.9321 63.2539 99.9971 63.2407 100.101 63.2097L101.326 62.7859C102.223 62.5172 102.713 62.5208 102.795 62.7967C102.913 63.1875 102.82 63.4656 102.519 63.6311C102.38 63.7103 102.207 63.781 102 63.843C101.805 63.9016 101.539 63.9561 101.204 64.0066C100.876 64.0421 100.643 64.0805 100.505 64.1219C100.367 64.1632 100.277 64.1965 100.235 64.2218C100.3 64.5655 100.383 64.904 100.483 65.2374C100.579 65.5592 100.707 65.9656 100.867 66.4564C101.035 66.9323 101.254 67.499 101.527 68.1565C101.81 68.8106 102.153 69.3469 102.554 69.7654C102.951 70.1724 103.346 70.3173 103.736 70.2002C103.932 70.1416 104.139 69.998 104.359 69.7693C104.575 69.5292 104.752 69.3884 104.89 69.3471C105.04 69.3023 105.176 69.2989 105.3 69.3368C105.433 69.3598 105.511 69.4116 105.535 69.4921C105.607 69.7334 105.431 70.0432 105.005 70.4212C104.588 70.7843 104.207 71.0175 103.862 71.1209C102.598 71.4998 101.452 70.5403 100.425 68.2424C100.126 67.5803 99.7025 66.417 99.1536 64.7525C98.98 64.8421 98.7898 64.918 98.5828 64.98ZM109.352 61.4141C109.479 61.3762 109.769 62.1159 110.224 63.6332C110.296 63.8746 110.406 64.2614 110.553 64.7936C110.711 65.3224 110.794 65.5983 110.801 65.6213C110.527 64.2879 110.376 63.3683 110.35 62.8626C110.335 62.3534 110.341 61.9132 110.368 61.5419C110.391 61.1592 110.449 60.8535 110.544 60.6248C110.77 60.0433 111.125 59.6801 111.608 59.5354C112.217 59.3529 112.762 59.5214 113.244 60.041C113.737 60.5573 114.141 61.3194 114.455 62.3275C114.119 60.1608 114.566 58.8932 115.796 58.5245C116.325 58.3661 116.779 58.5242 117.16 58.999C117.54 59.4738 117.842 60.0848 118.066 60.832L118.8 63.4683C119.316 65.1925 119.948 65.9427 120.696 65.7188L121.632 65.269C121.689 65.2518 121.748 65.2403 121.809 65.2346C121.746 65.4415 121.575 65.6431 121.295 65.8396C121.013 66.0246 120.722 66.1619 120.423 66.2514C119.837 66.4271 119.317 66.3011 118.863 65.8734C118.417 65.4308 118.096 64.9255 117.901 64.3577C117.702 63.7783 117.541 63.2818 117.417 62.868L116.992 61.3231C116.84 60.8173 116.661 60.3448 116.454 59.9057C116.259 59.4631 116.029 59.2815 115.765 59.3607C115.374 59.4778 115.241 60.4134 115.366 62.1674C115.498 63.9065 115.745 65.5237 116.106 67.0192C115.972 67.2847 115.758 67.4679 115.462 67.569C115.37 67.5966 115.279 67.6052 115.188 67.5948C114.906 67.0281 114.55 66.051 114.122 64.6636C113.702 63.2612 113.298 62.1669 112.912 61.3806C112.526 60.5943 112.092 60.2735 111.609 60.4182C111.287 60.5146 111.13 60.9502 111.137 61.7249C111.137 62.9398 111.359 64.7651 111.801 67.2008C111.897 67.7732 111.964 68.1853 112.002 68.437C111.823 68.7163 111.606 68.8938 111.354 68.9696L111.085 69.0126C110.348 67.1412 109.555 64.7859 108.704 61.9467C108.768 61.7019 108.984 61.5243 109.352 61.4141ZM122.148 61.9763C122.194 62.2131 122.229 62.3717 122.253 62.4522C122.459 63.1419 122.827 63.6144 123.354 63.8697C123.893 64.1216 124.45 64.1614 125.025 63.9891C125.599 63.8168 126.041 63.5969 126.349 63.3291C126.669 63.058 126.881 62.8063 126.987 62.5742C127.246 61.9329 127.548 61.5605 127.892 61.4572C128.019 61.4193 128.179 61.409 128.372 61.4263C128.426 62.024 128.144 62.6722 127.526 63.3708C126.917 64.0546 126.043 64.5669 124.905 64.908C124.101 65.1492 123.33 65.1047 122.592 64.7746C121.862 64.4296 121.364 63.8146 121.099 62.9295C120.834 62.0443 120.75 61.1363 120.846 60.2053C120.951 59.2594 121.243 58.3951 121.723 57.6125C122.211 56.815 122.793 56.3146 123.472 56.1113C124.161 55.9046 124.756 55.8829 125.256 56.0463C125.764 56.1947 126.099 56.539 126.261 57.0793C126.561 58.0793 126.36 59.0413 125.66 59.9653C124.968 60.8742 124.122 61.4786 123.122 61.7783C122.857 61.8575 122.533 61.9235 122.148 61.9763ZM123.288 61.0146C123.828 60.8527 124.259 60.5355 124.581 60.0632C124.903 59.5909 125.093 59.1393 125.152 58.7083C125.222 58.2738 125.211 57.9014 125.118 57.591C125.025 57.2807 124.823 57.0467 124.513 56.8892C124.199 56.7201 123.881 56.6838 123.559 56.7803C122.985 56.9526 122.569 57.5093 122.312 58.4506C122.067 59.3884 121.969 60.3137 122.017 61.2263C122.554 61.1782 122.977 61.1076 123.288 61.0146ZM127.493 51.4298C127.463 51.2885 127.511 51.1551 127.636 51.0299C127.758 50.8932 127.911 50.7972 128.095 50.7421C128.405 50.6491 128.595 50.7175 128.663 50.9474C129.657 54.3453 130.334 56.9172 130.694 58.6633C130.721 58.7931 130.661 58.9299 130.516 59.0735C130.38 59.2022 130.231 59.2907 130.07 59.3389C129.782 59.4251 129.604 59.3532 129.535 59.1233C129.19 57.3853 128.509 54.8208 127.493 51.4298ZM130.783 61.9063C130.902 61.8454 131.048 61.7891 131.221 61.7374C131.405 61.6823 131.615 61.6945 131.852 61.7738C132.089 61.8532 132.243 62.0136 132.316 62.255C132.388 62.4964 132.327 62.7527 132.133 63.0239C131.953 63.3031 131.754 63.4755 131.536 63.5409C131.329 63.6029 131.081 63.5897 130.791 63.5011C130.505 63.424 130.336 63.2992 130.284 63.1268C130.119 62.5751 130.285 62.1682 130.783 61.9063Z" fill="#4D4D4D"/>
<path d="M0.502811 10.0788C0.473571 10.3534 0.672467 10.5997 0.947057 10.6289L5.42176 11.1054C5.69635 11.1346 5.94265 10.9357 5.97189 10.6611C6.00113 10.3866 5.80224 10.1403 5.52765 10.111L1.55013 9.68748L1.97367 5.70996C2.00291 5.43537 1.80402 5.18907 1.52943 5.15983C1.25484 5.13059 1.00853 5.32949 0.979295 5.60408L0.502811 10.0788ZM60.7304 32.9487C60.7304 28.693 58.8767 23.576 55.6647 18.6984C52.4472 13.8124 47.8388 9.12268 42.2658 5.72761C36.6907 2.33126 30.1393 0.224477 23.0476 0.529154C15.9519 0.834 8.35273 3.55152 0.68587 9.74272L1.31413 10.5207C8.83456 4.44777 16.2329 1.82285 23.0905 1.52823C29.952 1.23345 36.3098 3.27018 41.7455 6.58162C47.1833 9.89435 51.6873 14.4766 54.8295 19.2483C57.9772 24.0283 59.7304 28.9545 59.7304 32.9487H60.7304Z" fill="#4D4D4D"/>
</svg>
