<svg width="585" height="304" viewBox="0 0 585 304" fill="none" xmlns="http://www.w3.org/2000/svg">
<rect x="-0.707552" y="0.707551" width="225.001" height="60.3697" rx="10.8051" transform="matrix(-1 -8.74228e-08 -8.74228e-08 1 379.909 0.159546)" fill="url(#paint0_linear_981_150286)" stroke="white" stroke-width="1.4151"/>
<rect width="38.3757" height="38.3757" rx="11.5127" transform="matrix(-1 -8.74228e-08 -8.74228e-08 1 366.164 42.7566)" fill="#0EA5E9" stroke="white" stroke-width="1.4151"/>
<rect width="38.3757" height="38.3757" rx="11.5127" transform="matrix(-1 -8.74228e-08 -8.74228e-08 1 313.59 42.7565)" fill="#3B82F6" stroke="white" stroke-width="1.4151"/>
<rect width="38.3757" height="38.3757" rx="11.5127" transform="matrix(-1 -8.74228e-08 -8.74228e-08 1 261.016 42.7565)" fill="#6366F1" stroke="white" stroke-width="1.4151"/>
<rect width="38.3757" height="38.3757" rx="11.5127" transform="matrix(-1 -8.74228e-08 -8.74228e-08 1 208.441 42.7566)" fill="#8B5CF6" stroke="white" stroke-width="1.4151"/>
<path d="M180.497 60.4806H179.83L179.424 61.9863H180.094L179.975 62.4354H179.308L179.008 63.5481H178.546L178.846 62.4354H177.288L176.987 63.5481H176.525L176.825 62.4354H176.155L176.277 61.9863H176.941L177.347 60.4806H176.677L176.799 60.0349H177.466L177.763 58.9254H178.225L177.928 60.0349H179.49L179.784 58.9254H180.246L179.952 60.0349H180.616L180.497 60.4806ZM178.962 61.9863L179.368 60.4806H177.809L177.403 61.9863H178.962ZM182.619 63.6339C182.349 63.6339 182.101 63.5723 181.876 63.449C181.654 63.3258 181.477 63.1607 181.345 62.9538C181.213 62.7468 181.147 62.5168 181.147 62.2637C181.147 62.0171 181.215 61.7926 181.351 61.5901C181.488 61.3853 181.665 61.2269 181.883 61.1146C181.703 61.0111 181.554 60.8702 181.437 60.6919C181.321 60.5114 181.262 60.3133 181.262 60.0976C181.262 59.8665 181.323 59.6562 181.444 59.4669C181.567 59.2754 181.731 59.1235 181.936 59.0113C182.143 58.8968 182.371 58.8396 182.619 58.8396C182.868 58.8396 183.095 58.8968 183.3 59.0113C183.506 59.1235 183.67 59.2754 183.792 59.4669C183.915 59.6562 183.976 59.8665 183.976 60.0976C183.976 60.3133 183.918 60.5114 183.801 60.6919C183.687 60.8702 183.538 61.0111 183.356 61.1146C183.578 61.2269 183.756 61.3853 183.891 61.5901C184.027 61.7926 184.095 62.0171 184.095 62.2637C184.095 62.5146 184.028 62.7446 183.894 62.9538C183.762 63.1607 183.585 63.3258 183.362 63.449C183.14 63.5723 182.892 63.6339 182.619 63.6339ZM182.619 63.1717C182.802 63.1717 182.967 63.131 183.115 63.0495C183.262 62.9681 183.38 62.8591 183.468 62.7226C183.556 62.5839 183.6 62.431 183.6 62.2637C183.6 62.0964 183.556 61.9445 183.468 61.808C183.38 61.6715 183.262 61.5625 183.115 61.4811C182.967 61.3997 182.802 61.3589 182.619 61.3589C182.441 61.3589 182.277 61.3997 182.127 61.4811C181.98 61.5625 181.861 61.6715 181.771 61.808C181.683 61.9445 181.639 62.0964 181.639 62.2637C181.639 62.431 181.683 62.5839 181.771 62.7226C181.861 62.8591 181.98 62.9681 182.127 63.0495C182.277 63.131 182.441 63.1717 182.619 63.1717ZM182.619 60.8967C182.78 60.8967 182.925 60.8614 183.055 60.791C183.185 60.7184 183.289 60.6215 183.366 60.5004C183.445 60.3794 183.484 60.2451 183.484 60.0976C183.484 59.9501 183.445 59.8169 183.366 59.6981C183.289 59.577 183.185 59.4812 183.055 59.4108C182.925 59.3382 182.78 59.3018 182.619 59.3018C182.461 59.3018 182.316 59.3382 182.183 59.4108C182.054 59.4812 181.949 59.577 181.87 59.6981C181.793 59.8169 181.754 59.9501 181.754 60.0976C181.754 60.2451 181.793 60.3794 181.87 60.5004C181.949 60.6215 182.054 60.7184 182.183 60.791C182.316 60.8614 182.461 60.8967 182.619 60.8967ZM184.755 63.5481V58.9254H186.317C186.541 58.9254 186.745 58.9717 186.927 59.0641C187.112 59.1544 187.259 59.2875 187.367 59.4636C187.477 59.6375 187.532 59.8489 187.532 60.0976C187.532 60.2385 187.506 60.3728 187.456 60.5004C187.405 60.6281 187.339 60.7371 187.258 60.8273C187.176 60.9154 187.088 60.9726 186.993 60.999C187.13 61.0342 187.248 61.0959 187.347 61.1839C187.446 61.2698 187.527 61.3721 187.591 61.491C187.655 61.6077 187.701 61.7309 187.73 61.8608C187.761 61.9907 187.776 62.1184 187.776 62.2438C187.776 62.5036 187.719 62.7314 187.604 62.9273C187.492 63.1233 187.341 63.2762 187.152 63.3863C186.963 63.4942 186.752 63.5481 186.521 63.5481H184.755ZM185.217 63.1354H186.485C186.646 63.1354 186.791 63.0935 186.921 63.0099C187.053 62.9262 187.157 62.8118 187.235 62.6665C187.314 62.5212 187.353 62.3572 187.353 62.1745C187.353 62.0116 187.314 61.8586 187.235 61.7155C187.157 61.5703 187.053 61.4536 186.921 61.3655C186.791 61.2753 186.646 61.2302 186.485 61.2302H185.217V63.1354ZM185.217 60.824H186.277C186.495 60.824 186.681 60.7613 186.835 60.6358C186.991 60.5081 187.069 60.3276 187.069 60.0943C187.069 59.839 186.991 59.6496 186.835 59.5264C186.681 59.4009 186.495 59.3382 186.277 59.3382H185.217V60.824ZM189.788 63.6339C189.506 63.6339 189.249 63.5657 189.018 63.4292C188.789 63.2927 188.608 63.11 188.474 62.8811C188.339 62.65 188.272 62.3968 188.272 62.1217H188.734C188.734 62.3132 188.782 62.4893 188.876 62.65C188.971 62.8085 189.098 62.935 189.256 63.0297C189.417 63.1244 189.594 63.1717 189.788 63.1717C189.979 63.1717 190.154 63.1244 190.313 63.0297C190.471 62.935 190.598 62.8085 190.692 62.65C190.789 62.4893 190.838 62.3132 190.838 62.1217C190.838 61.928 190.791 61.7519 190.699 61.5934C190.609 61.4327 190.48 61.305 190.313 61.2103C190.148 61.1135 189.951 61.0651 189.722 61.0651H188.599L189.035 58.9254H191.198V59.3877H189.408L189.167 60.6028L189.705 60.6061C190.02 60.6105 190.296 60.6776 190.534 60.8075C190.774 60.9374 190.961 61.1157 191.095 61.3424C191.232 61.567 191.3 61.8267 191.3 62.1217C191.3 62.3286 191.26 62.5234 191.181 62.7061C191.104 62.8888 190.995 63.0506 190.854 63.1915C190.716 63.3302 190.555 63.4391 190.372 63.5184C190.192 63.5954 189.997 63.6339 189.788 63.6339ZM194.233 63.6339C193.921 63.6339 193.627 63.5723 193.352 63.449C193.077 63.3236 192.835 63.1519 192.625 62.9339C192.418 62.7138 192.256 62.4585 192.137 62.1679C192.02 61.8773 191.962 61.567 191.962 61.2368C191.962 60.9066 192.02 60.5962 192.137 60.3056C192.256 60.0151 192.418 59.7608 192.625 59.5429C192.835 59.3228 193.077 59.1511 193.352 59.0278C193.627 58.9023 193.921 58.8396 194.233 58.8396C194.608 58.8396 194.952 58.9265 195.267 59.1004C195.582 59.2743 195.843 59.5055 196.049 59.7938L195.64 60.0151C195.477 59.7971 195.27 59.6243 195.019 59.4967C194.771 59.3668 194.509 59.3018 194.233 59.3018C193.98 59.3018 193.744 59.3536 193.524 59.457C193.306 59.5583 193.114 59.6981 192.949 59.8764C192.784 60.0547 192.655 60.2605 192.563 60.4938C192.47 60.7272 192.424 60.9748 192.424 61.2368C192.424 61.5031 192.47 61.753 192.563 61.9863C192.657 62.2196 192.787 62.4254 192.952 62.6038C193.12 62.7821 193.312 62.9218 193.53 63.0231C193.75 63.1221 193.985 63.1717 194.233 63.1717C194.52 63.1717 194.785 63.1067 195.029 62.9769C195.276 62.8448 195.479 62.6731 195.64 62.4618L196.049 62.683C195.843 62.9714 195.582 63.2025 195.267 63.3764C194.952 63.5481 194.608 63.6339 194.233 63.6339ZM196.731 63.5481V58.9254H199.435V59.3877H197.193V60.8405H199.118V61.3028H197.193V63.5481H196.731ZM201.258 63.6339C200.967 63.6339 200.701 63.5624 200.458 63.4193C200.219 63.274 200.026 63.0803 199.881 62.8382C199.738 62.596 199.666 62.3286 199.666 62.0358C199.666 61.8663 199.686 61.7221 199.725 61.6033C199.765 61.4822 199.823 61.3479 199.9 61.2004L201.211 58.9254H201.75L200.789 60.5896C200.982 60.5147 201.177 60.4817 201.373 60.4905C201.569 60.4971 201.756 60.5401 201.934 60.6193C202.113 60.6986 202.271 60.8075 202.41 60.9462C202.549 61.0827 202.658 61.2434 202.737 61.4283C202.818 61.6132 202.859 61.8157 202.859 62.0358C202.859 62.2559 202.817 62.4629 202.733 62.6566C202.65 62.8481 202.534 63.0176 202.387 63.1651C202.241 63.3104 202.072 63.4248 201.878 63.5085C201.685 63.5921 201.478 63.6339 201.258 63.6339ZM201.258 63.1717C201.478 63.1717 201.674 63.1188 201.845 63.0132C202.017 62.9053 202.151 62.7644 202.248 62.5905C202.347 62.4166 202.397 62.2306 202.397 62.0325C202.397 61.8256 202.346 61.6374 202.245 61.4679C202.144 61.2962 202.007 61.1597 201.835 61.0585C201.664 60.955 201.473 60.9033 201.264 60.9033C201.048 60.9033 200.855 60.9561 200.683 61.0618C200.511 61.1674 200.376 61.3061 200.277 61.4778C200.178 61.6473 200.128 61.8322 200.128 62.0325C200.128 62.2482 200.18 62.442 200.283 62.6137C200.389 62.7854 200.528 62.9218 200.7 63.0231C200.871 63.1221 201.057 63.1717 201.258 63.1717Z" fill="white"/>
<path d="M337.844 60.4796H337.177L336.771 61.9853H337.441L337.322 62.4344H336.655L336.355 63.5471H335.893L336.193 62.4344H334.635L334.334 63.5471H333.872L334.172 62.4344H333.502L333.624 61.9853H334.288L334.694 60.4796H334.024L334.146 60.0339H334.813L335.11 58.9244H335.572L335.275 60.0339H336.837L337.131 58.9244H337.593L337.299 60.0339H337.963L337.844 60.4796ZM336.309 61.9853L336.715 60.4796H335.156L334.75 61.9853H336.309ZM340.201 63.633C339.923 63.633 339.676 63.5713 339.458 63.4481C339.24 63.3226 339.054 63.1498 338.9 62.9297C338.746 62.7095 338.628 62.4553 338.546 62.1669C338.467 61.8764 338.428 61.566 338.428 61.2358C338.428 60.9056 338.467 60.5952 338.546 60.3046C338.628 60.0141 338.746 59.7598 338.9 59.5419C339.054 59.3218 339.24 59.1501 339.458 59.0268C339.676 58.9013 339.923 58.8386 340.201 58.8386C340.476 58.8386 340.722 58.9013 340.94 59.0268C341.158 59.1501 341.343 59.3218 341.495 59.5419C341.647 59.7598 341.763 60.0141 341.842 60.3046C341.923 60.5952 341.964 60.9056 341.964 61.2358C341.964 61.566 341.923 61.8764 341.842 62.1669C341.763 62.4553 341.647 62.7095 341.495 62.9297C341.343 63.1498 341.158 63.3226 340.94 63.4481C340.722 63.5713 340.476 63.633 340.201 63.633ZM340.201 63.1707C340.491 63.1707 340.735 63.0816 340.93 62.9032C341.129 62.7249 341.277 62.4894 341.376 62.1966C341.475 61.9017 341.525 61.5814 341.525 61.2358C341.525 60.8704 341.473 60.5424 341.37 60.2518C341.268 59.959 341.119 59.7279 340.921 59.5584C340.725 59.3867 340.485 59.3009 340.201 59.3009C339.976 59.3009 339.78 59.3526 339.613 59.4561C339.446 59.5595 339.307 59.7015 339.197 59.882C339.087 60.0625 339.004 60.2694 338.949 60.5028C338.894 60.7339 338.867 60.9782 338.867 61.2358C338.867 61.5836 338.917 61.905 339.019 62.1999C339.12 62.4927 339.27 62.7282 339.468 62.9065C339.666 63.0827 339.91 63.1707 340.201 63.1707ZM342.56 63.5471V58.9244H345.373V59.3867H343.022V60.8396H344.967V61.3018H343.022V63.0849H345.373V63.5471H342.56ZM347.604 58.9244H348.178L349.862 63.5471H349.37L349.01 62.5565H346.775L346.415 63.5471H345.923L347.604 58.9244ZM346.943 62.0943H348.839L347.891 59.4924L346.943 62.0943ZM351.875 63.633C351.593 63.633 351.336 63.5647 351.105 63.4283C350.876 63.2918 350.695 63.1091 350.561 62.8801C350.426 62.649 350.359 62.3959 350.359 62.1207H350.821C350.821 62.3122 350.869 62.4883 350.963 62.649C351.058 62.8075 351.185 62.9341 351.343 63.0287C351.504 63.1234 351.681 63.1707 351.875 63.1707C352.066 63.1707 352.241 63.1234 352.4 63.0287C352.558 62.9341 352.685 62.8075 352.779 62.649C352.876 62.4883 352.925 62.3122 352.925 62.1207C352.925 61.927 352.878 61.7509 352.786 61.5924C352.696 61.4317 352.567 61.304 352.4 61.2094C352.235 61.1125 352.038 61.0641 351.809 61.0641H350.686L351.122 58.9244H353.285V59.3867H351.495L351.254 60.6018L351.792 60.6051C352.107 60.6095 352.383 60.6767 352.621 60.8065C352.861 60.9364 353.048 61.1147 353.182 61.3414C353.319 61.566 353.387 61.8257 353.387 62.1207C353.387 62.3276 353.347 62.5224 353.268 62.7051C353.191 62.8878 353.082 63.0496 352.941 63.1905C352.803 63.3292 352.642 63.4382 352.459 63.5174C352.279 63.5944 352.084 63.633 351.875 63.633ZM354.181 63.5471V58.9244H356.994V59.3867H354.643V60.8396H356.588V61.3018H354.643V63.0849H356.994V63.5471H354.181ZM358.487 63.5471L359.508 61.7806C359.274 61.8686 359.041 61.8962 358.808 61.8631C358.574 61.8279 358.361 61.7443 358.167 61.6122C357.973 61.4779 357.817 61.3062 357.698 61.0971C357.582 60.8858 357.523 60.648 357.523 60.3839C357.523 60.1726 357.563 59.9734 357.642 59.7862C357.724 59.5991 357.835 59.4351 357.976 59.2943C358.116 59.1512 358.279 59.04 358.464 58.9608C358.651 58.8793 358.852 58.8386 359.065 58.8386C359.347 58.8386 359.603 58.909 359.835 59.0499C360.068 59.1886 360.254 59.3746 360.393 59.6079C360.533 59.8413 360.604 60.0999 360.604 60.3839C360.604 60.5446 360.584 60.6833 360.544 60.7999C360.507 60.9144 360.45 61.0432 360.373 61.1863L359.019 63.5471H358.487ZM359.059 61.4669C359.268 61.4669 359.454 61.4174 359.617 61.3183C359.782 61.2171 359.912 61.0839 360.006 60.9188C360.101 60.7537 360.148 60.5765 360.148 60.3872C360.148 60.1803 360.098 59.9954 359.996 59.8325C359.897 59.6674 359.765 59.5375 359.6 59.4428C359.435 59.346 359.257 59.2976 359.065 59.2976C358.854 59.2976 358.666 59.3482 358.501 59.4495C358.338 59.5507 358.209 59.685 358.114 59.8523C358.022 60.0174 357.976 60.1957 357.976 60.3872C357.976 60.5853 358.024 60.7669 358.121 60.932C358.218 61.0949 358.348 61.2248 358.51 61.3216C358.676 61.4185 358.858 61.4669 359.059 61.4669Z" fill="white"/>
<path d="M234.135 62.3677H233.468L233.062 63.8734H233.732L233.613 64.3224H232.946L232.646 65.4352H232.183L232.484 64.3224H230.925L230.625 65.4352H230.163L230.463 64.3224H229.793L229.915 63.8734H230.579L230.985 62.3677H230.315L230.437 61.922H231.104L231.401 60.8125H231.863L231.566 61.922H233.128L233.422 60.8125H233.884L233.59 61.922H234.254L234.135 62.3677ZM232.599 63.8734L233.006 62.3677H231.447L231.041 63.8734H232.599ZM236.277 65.521C235.986 65.521 235.72 65.4495 235.478 65.3064C235.238 65.1611 235.045 64.9674 234.9 64.7253C234.757 64.4831 234.685 64.2157 234.685 63.9229C234.685 63.7534 234.705 63.6092 234.745 63.4904C234.784 63.3693 234.843 63.235 234.92 63.0875L236.231 60.8125H236.769L235.808 62.4767C236.002 62.4018 236.196 62.3688 236.392 62.3776C236.588 62.3842 236.775 62.4271 236.954 62.5064C237.132 62.5856 237.291 62.6946 237.429 62.8333C237.568 62.9698 237.677 63.1304 237.756 63.3154C237.838 63.5003 237.878 63.7028 237.878 63.9229C237.878 64.143 237.836 64.35 237.753 64.5437C237.669 64.7352 237.554 64.9047 237.406 65.0522C237.261 65.1974 237.091 65.3119 236.898 65.3956C236.704 65.4792 236.497 65.521 236.277 65.521ZM236.277 65.0588C236.497 65.0588 236.693 65.0059 236.865 64.9003C237.036 64.7924 237.171 64.6515 237.267 64.4776C237.366 64.3037 237.416 64.1177 237.416 63.9196C237.416 63.7127 237.365 63.5245 237.264 63.355C237.163 63.1833 237.026 63.0468 236.855 62.9455C236.683 62.8421 236.493 62.7904 236.283 62.7904C236.068 62.7904 235.874 62.8432 235.702 62.9488C235.531 63.0545 235.395 63.1932 235.296 63.3649C235.197 63.5344 235.148 63.7193 235.148 63.9196C235.148 64.1353 235.199 64.329 235.303 64.5007C235.408 64.6724 235.547 64.8089 235.719 64.9102C235.891 65.0092 236.077 65.0588 236.277 65.0588ZM239.695 65.521C239.413 65.521 239.165 65.4594 238.952 65.3361C238.738 65.2107 238.571 65.0434 238.45 64.8342C238.331 64.6251 238.272 64.394 238.272 64.1408H238.734C238.734 64.3081 238.773 64.4622 238.85 64.6031C238.929 64.7418 239.04 64.8529 239.183 64.9366C239.326 65.018 239.497 65.0588 239.695 65.0588C239.862 65.0588 240.018 65.018 240.164 64.9366C240.311 64.8529 240.43 64.7418 240.52 64.6031C240.613 64.4622 240.659 64.3081 240.659 64.1408C240.659 63.9317 240.606 63.7578 240.501 63.6191C240.395 63.4783 240.25 63.3737 240.065 63.3055C239.88 63.235 239.668 63.1998 239.431 63.1998V62.8168C239.759 62.8168 240.022 62.7474 240.22 62.6087C240.42 62.4679 240.52 62.262 240.52 61.9913C240.52 61.8438 240.48 61.7095 240.398 61.5885C240.319 61.4674 240.214 61.3705 240.085 61.2979C239.957 61.223 239.819 61.1856 239.672 61.1856C239.524 61.1856 239.382 61.223 239.246 61.2979C239.112 61.3705 239.001 61.4674 238.916 61.5885C238.832 61.7095 238.79 61.8438 238.79 61.9913H238.328C238.328 61.8174 238.364 61.6545 238.437 61.5026C238.509 61.3485 238.609 61.2131 238.734 61.0965C238.859 60.9798 239.003 60.8885 239.163 60.8224C239.324 60.7564 239.492 60.7234 239.668 60.7234C239.9 60.7234 240.114 60.7806 240.312 60.8951C240.513 61.0095 240.674 61.1625 240.798 61.354C240.921 61.5455 240.983 61.758 240.983 61.9913C240.983 62.218 240.924 62.4227 240.808 62.6054C240.691 62.7882 240.534 62.9169 240.335 62.9918C240.507 63.049 240.651 63.136 240.768 63.2526C240.885 63.3671 240.973 63.5003 241.032 63.6522C241.092 63.804 241.121 63.9669 241.121 64.1408C241.121 64.394 241.055 64.6251 240.923 64.8342C240.791 65.0434 240.616 65.2107 240.398 65.3361C240.182 65.4594 239.948 65.521 239.695 65.521ZM243.074 65.521C242.784 65.521 242.517 65.4495 242.275 65.3064C242.035 65.1611 241.843 64.9674 241.697 64.7253C241.554 64.4831 241.483 64.2157 241.483 63.9229C241.483 63.7534 241.502 63.6092 241.542 63.4904C241.582 63.3693 241.64 63.235 241.717 63.0875L243.028 60.8125H243.566L242.605 62.4767C242.799 62.4018 242.994 62.3688 243.19 62.3776C243.386 62.3842 243.573 62.4271 243.751 62.5064C243.929 62.5856 244.088 62.6946 244.226 62.8333C244.365 62.9698 244.474 63.1304 244.553 63.3154C244.635 63.5003 244.676 63.7028 244.676 63.9229C244.676 64.143 244.634 64.35 244.55 64.5437C244.466 64.7352 244.351 64.9047 244.203 65.0522C244.058 65.1974 243.889 65.3119 243.695 65.3956C243.501 65.4792 243.294 65.521 243.074 65.521ZM243.074 65.0588C243.294 65.0588 243.49 65.0059 243.662 64.9003C243.834 64.7924 243.968 64.6515 244.065 64.4776C244.164 64.3037 244.213 64.1177 244.213 63.9196C244.213 63.7127 244.163 63.5245 244.061 63.355C243.96 63.1833 243.824 63.0468 243.652 62.9455C243.48 62.8421 243.29 62.7904 243.081 62.7904C242.865 62.7904 242.671 62.8432 242.5 62.9488C242.328 63.0545 242.193 63.1932 242.093 63.3649C241.994 63.5344 241.945 63.7193 241.945 63.9196C241.945 64.1353 241.997 64.329 242.1 64.5007C242.206 64.6724 242.344 64.8089 242.516 64.9102C242.688 65.0092 242.874 65.0588 243.074 65.0588ZM246.628 65.521C246.337 65.521 246.071 65.4495 245.828 65.3064C245.589 65.1611 245.396 64.9674 245.251 64.7253C245.108 64.4831 245.036 64.2157 245.036 63.9229C245.036 63.7534 245.056 63.6092 245.095 63.4904C245.135 63.3693 245.193 63.235 245.27 63.0875L246.581 60.8125H247.12L246.159 62.4767C246.352 62.4018 246.547 62.3688 246.743 62.3776C246.939 62.3842 247.126 62.4271 247.304 62.5064C247.483 62.5856 247.641 62.6946 247.78 62.8333C247.919 62.9698 248.028 63.1304 248.107 63.3154C248.188 63.5003 248.229 63.7028 248.229 63.9229C248.229 64.143 248.187 64.35 248.103 64.5437C248.02 64.7352 247.904 64.9047 247.757 65.0522C247.612 65.1974 247.442 65.3119 247.248 65.3956C247.055 65.4792 246.848 65.521 246.628 65.521ZM246.628 65.0588C246.848 65.0588 247.044 65.0059 247.215 64.9003C247.387 64.7924 247.521 64.6515 247.618 64.4776C247.717 64.3037 247.767 64.1177 247.767 63.9196C247.767 63.7127 247.716 63.5245 247.615 63.355C247.514 63.1833 247.377 63.0468 247.205 62.9455C247.034 62.8421 246.843 62.7904 246.634 62.7904C246.418 62.7904 246.225 62.8432 246.053 62.9488C245.881 63.0545 245.746 63.1932 245.647 63.3649C245.548 63.5344 245.498 63.7193 245.498 63.9196C245.498 64.1353 245.55 64.329 245.653 64.5007C245.759 64.6724 245.898 64.8089 246.07 64.9102C246.241 65.0092 246.427 65.0588 246.628 65.0588ZM248.821 65.4352V60.8125H251.525V61.2748H249.283V62.7276H251.208V63.1899H249.283V65.4352H248.821ZM252.35 65.4352V61.2748H251.855L251.987 60.8125H252.813V65.4352H252.35Z" fill="white"/>
<path d="M286.07 62.3669H285.403L284.997 63.8725H285.667L285.549 64.3216H284.882L284.581 65.4343H284.119L284.419 64.3216H282.861L282.56 65.4343H282.098L282.399 64.3216H281.728L281.85 63.8725H282.514L282.92 62.3669H282.25L282.372 61.9211H283.039L283.336 60.8117H283.799L283.501 61.9211H285.063L285.357 60.8117H285.819L285.526 61.9211H286.189L286.07 62.3669ZM284.535 63.8725L284.941 62.3669H283.383L282.976 63.8725H284.535ZM288.077 65.5202C287.795 65.5202 287.548 65.4585 287.334 65.3353C287.12 65.2098 286.953 65.0425 286.832 64.8334C286.713 64.6243 286.654 64.3931 286.654 64.14H287.116C287.116 64.3073 287.155 64.4614 287.232 64.6022C287.311 64.7409 287.422 64.8521 287.565 64.9357C287.708 65.0172 287.879 65.0579 288.077 65.0579C288.244 65.0579 288.401 65.0172 288.546 64.9357C288.693 64.8521 288.812 64.7409 288.902 64.6022C288.995 64.4614 289.041 64.3073 289.041 64.14C289.041 63.9309 288.988 63.757 288.883 63.6183C288.777 63.4774 288.632 63.3728 288.447 63.3046C288.262 63.2342 288.051 63.1989 287.813 63.1989V62.8159C288.141 62.8159 288.404 62.7466 288.602 62.6079C288.802 62.467 288.902 62.2612 288.902 61.9904C288.902 61.843 288.862 61.7087 288.78 61.5876C288.701 61.4665 288.596 61.3697 288.467 61.297C288.339 61.2222 288.201 61.1848 288.054 61.1848C287.906 61.1848 287.764 61.2222 287.628 61.297C287.494 61.3697 287.384 61.4665 287.298 61.5876C287.214 61.7087 287.172 61.843 287.172 61.9904H286.71C286.71 61.8165 286.746 61.6536 286.819 61.5018C286.892 61.3477 286.991 61.2123 287.116 61.0956C287.242 60.979 287.385 60.8876 287.545 60.8216C287.706 60.7555 287.874 60.7225 288.051 60.7225C288.282 60.7225 288.496 60.7797 288.694 60.8942C288.895 61.0087 289.057 61.1617 289.18 61.3532C289.303 61.5447 289.365 61.7571 289.365 61.9904C289.365 62.2172 289.306 62.4219 289.19 62.6046C289.073 62.7873 288.916 62.9161 288.718 62.9909C288.889 63.0481 289.033 63.1351 289.15 63.2518C289.267 63.3662 289.355 63.4994 289.414 63.6513C289.474 63.8032 289.503 63.9661 289.503 64.14C289.503 64.3931 289.437 64.6243 289.305 64.8334C289.173 65.0425 288.998 65.2098 288.78 65.3353C288.565 65.4585 288.33 65.5202 288.077 65.5202ZM290.096 65.4343V60.8117H291.658C291.882 60.8117 292.086 60.8579 292.268 60.9503C292.453 61.0406 292.6 61.1738 292.708 61.3499C292.818 61.5238 292.873 61.7351 292.873 61.9838C292.873 62.1247 292.847 62.259 292.797 62.3867C292.746 62.5143 292.68 62.6233 292.599 62.7136C292.517 62.8016 292.429 62.8588 292.335 62.8853C292.471 62.9205 292.589 62.9821 292.688 63.0702C292.787 63.156 292.868 63.2584 292.932 63.3772C292.996 63.4939 293.042 63.6172 293.071 63.7471C293.102 63.8769 293.117 64.0046 293.117 64.1301C293.117 64.3898 293.06 64.6177 292.945 64.8136C292.833 65.0095 292.682 65.1625 292.493 65.2725C292.304 65.3804 292.093 65.4343 291.862 65.4343H290.096ZM290.558 65.0216H291.826C291.987 65.0216 292.132 64.9798 292.262 64.8961C292.394 64.8125 292.498 64.698 292.576 64.5527C292.655 64.4074 292.694 64.2434 292.694 64.0607C292.694 63.8978 292.655 63.7449 292.576 63.6018C292.498 63.4565 292.394 63.3398 292.262 63.2518C292.132 63.1615 291.987 63.1164 291.826 63.1164H290.558V65.0216ZM290.558 62.7103H291.618C291.836 62.7103 292.022 62.6475 292.176 62.522C292.332 62.3944 292.41 62.2139 292.41 61.9805C292.41 61.7252 292.332 61.5359 292.176 61.4126C292.022 61.2871 291.836 61.2244 291.618 61.2244H290.558V62.7103ZM295.119 65.5202C294.848 65.5202 294.6 65.4585 294.376 65.3353C294.154 65.212 293.976 65.0469 293.844 64.84C293.712 64.6331 293.646 64.403 293.646 64.1499C293.646 63.9033 293.714 63.6788 293.851 63.4763C293.987 63.2716 294.165 63.1131 294.382 63.0008C294.202 62.8974 294.053 62.7565 293.937 62.5782C293.82 62.3977 293.762 62.1996 293.762 61.9838C293.762 61.7527 293.822 61.5425 293.943 61.3532C294.067 61.1617 294.231 61.0098 294.435 60.8975C294.642 60.783 294.87 60.7258 295.119 60.7258C295.368 60.7258 295.594 60.783 295.799 60.8975C296.006 61.0098 296.17 61.1617 296.291 61.3532C296.414 61.5425 296.476 61.7527 296.476 61.9838C296.476 62.1996 296.418 62.3977 296.301 62.5782C296.186 62.7565 296.038 62.8974 295.855 63.0008C296.077 63.1131 296.256 63.2716 296.39 63.4763C296.526 63.6788 296.595 63.9033 296.595 64.1499C296.595 64.4008 296.528 64.6309 296.393 64.84C296.261 65.0469 296.084 65.212 295.862 65.3353C295.639 65.4585 295.392 65.5202 295.119 65.5202ZM295.119 65.0579C295.301 65.0579 295.467 65.0172 295.614 64.9357C295.762 64.8543 295.879 64.7453 295.967 64.6088C296.055 64.4702 296.099 64.3172 296.099 64.1499C296.099 63.9826 296.055 63.8307 295.967 63.6942C295.879 63.5577 295.762 63.4488 295.614 63.3673C295.467 63.2859 295.301 63.2452 295.119 63.2452C294.94 63.2452 294.776 63.2859 294.627 63.3673C294.479 63.4488 294.36 63.5577 294.27 63.6942C294.182 63.8307 294.138 63.9826 294.138 64.1499C294.138 64.3172 294.182 64.4702 294.27 64.6088C294.36 64.7453 294.479 64.8543 294.627 64.9357C294.776 65.0172 294.94 65.0579 295.119 65.0579ZM295.119 62.7829C295.279 62.7829 295.425 62.7477 295.555 62.6772C295.685 62.6046 295.788 62.5077 295.865 62.3867C295.944 62.2656 295.984 62.1313 295.984 61.9838C295.984 61.8363 295.944 61.7032 295.865 61.5843C295.788 61.4632 295.685 61.3675 295.555 61.297C295.425 61.2244 295.279 61.1881 295.119 61.1881C294.96 61.1881 294.815 61.2244 294.683 61.297C294.553 61.3675 294.448 61.4632 294.369 61.5843C294.292 61.7032 294.254 61.8363 294.254 61.9838C294.254 62.1313 294.292 62.2656 294.369 62.3867C294.448 62.5077 294.553 62.6046 294.683 62.6772C294.815 62.7477 294.96 62.7829 295.119 62.7829ZM297.122 65.4343V65.0249C297.303 64.8576 297.501 64.6749 297.717 64.4768C297.932 64.2765 298.146 64.0706 298.357 63.8593C298.571 63.6458 298.765 63.4356 298.942 63.2287C299.118 63.0195 299.258 62.8225 299.364 62.6376C299.472 62.4505 299.526 62.2854 299.526 62.1423C299.526 61.9684 299.483 61.8099 299.397 61.6669C299.314 61.5216 299.2 61.406 299.057 61.3202C298.916 61.2321 298.759 61.1881 298.585 61.1881C298.411 61.1881 298.251 61.2321 298.106 61.3202C297.963 61.406 297.849 61.5216 297.763 61.6669C297.677 61.8099 297.634 61.9684 297.634 62.1423H297.172C297.172 61.8782 297.236 61.6393 297.363 61.4258C297.493 61.2123 297.665 61.0428 297.878 60.9173C298.092 60.7896 298.327 60.7258 298.585 60.7258C298.842 60.7258 299.077 60.7896 299.288 60.9173C299.502 61.045 299.671 61.2156 299.797 61.4291C299.924 61.6426 299.988 61.8804 299.988 62.1423C299.988 62.2986 299.946 62.4703 299.863 62.6574C299.781 62.8423 299.67 63.0349 299.529 63.2353C299.388 63.4334 299.23 63.6337 299.054 63.8362C298.878 64.0387 298.694 64.2368 298.502 64.4305C298.311 64.6221 298.125 64.8026 297.944 64.9721H300.058V65.4343H297.122ZM300.853 65.4343V60.8117H303.557V61.2739H301.315V62.7268H303.24V63.189H301.315V65.4343H300.853ZM305.38 65.5202C305.089 65.5202 304.823 65.4486 304.581 65.3056C304.341 65.1603 304.148 64.9666 304.003 64.7244C303.86 64.4823 303.788 64.2148 303.788 63.9221C303.788 63.7526 303.808 63.6084 303.848 63.4895C303.887 63.3684 303.946 63.2342 304.023 63.0867L305.333 60.8117H305.872L304.911 62.4758C305.105 62.401 305.299 62.368 305.495 62.3768C305.691 62.3834 305.878 62.4263 306.057 62.5055C306.235 62.5848 306.393 62.6937 306.532 62.8324C306.671 62.9689 306.78 63.1296 306.859 63.3145C306.94 63.4994 306.981 63.7019 306.981 63.9221C306.981 64.1422 306.939 64.3491 306.856 64.5428C306.772 64.7343 306.656 64.9038 306.509 65.0513C306.364 65.1966 306.194 65.3111 306 65.3947C305.807 65.4784 305.6 65.5202 305.38 65.5202ZM305.38 65.0579C305.6 65.0579 305.796 65.0051 305.967 64.8994C306.139 64.7916 306.273 64.6507 306.37 64.4768C306.469 64.3029 306.519 64.1169 306.519 63.9188C306.519 63.7118 306.468 63.5236 306.367 63.3541C306.266 63.1824 306.129 63.0459 305.957 62.9447C305.786 62.8412 305.595 62.7895 305.386 62.7895C305.171 62.7895 304.977 62.8423 304.805 62.948C304.633 63.0537 304.498 63.1923 304.399 63.364C304.3 63.5335 304.25 63.7184 304.25 63.9188C304.25 64.1345 304.302 64.3282 304.406 64.4999C304.511 64.6716 304.65 64.8081 304.822 64.9093C304.993 65.0084 305.179 65.0579 305.38 65.0579Z" fill="white"/>
<path d="M85.0938 148.114V98.4864V49.057C85.0938 38.6365 93.5413 30.189 103.962 30.189H150.66" stroke="#9CA3AF" stroke-width="1.4151"/>
<path d="M284.626 147.643V136.58C284.626 126.159 276.179 117.712 265.758 117.712H255.852C245.432 117.712 236.984 109.264 236.984 98.8438V81.1331" stroke="#9CA3AF" stroke-width="1.4151"/>
<path d="M499.06 146.227V136.438C499.06 126.018 490.613 117.57 480.192 117.57H308.493C298.073 117.57 289.625 109.123 289.625 98.7021V81.1323" stroke="#9CA3AF" stroke-width="1.4151"/>
<rect x="28.207" y="270.756" width="117.925" height="117.925" rx="28.3021" transform="rotate(-90 28.207 270.756)" fill="url(#paint1_linear_981_150286)"/>
<path d="M39.7416 299.851V290.611H42.8633C43.312 290.611 43.719 290.703 44.0842 290.888C44.4538 291.069 44.7464 291.335 44.962 291.687C45.182 292.034 45.292 292.457 45.292 292.954C45.292 293.236 45.2414 293.504 45.1402 293.759C45.039 294.014 44.907 294.232 44.7442 294.412C44.5814 294.588 44.4054 294.703 44.2162 294.756C44.489 294.826 44.7244 294.949 44.9224 295.125C45.1204 295.297 45.2832 295.501 45.4108 295.739C45.5384 295.972 45.6308 296.219 45.688 296.478C45.7496 296.738 45.7804 296.993 45.7804 297.244C45.7804 297.763 45.666 298.218 45.4372 298.61C45.2128 299.002 44.9114 299.307 44.533 299.527C44.1546 299.743 43.7344 299.851 43.2724 299.851H39.7416ZM40.6655 299.026H43.1998C43.521 299.026 43.8114 298.942 44.071 298.775C44.335 298.608 44.544 298.379 44.698 298.089C44.8564 297.798 44.9356 297.47 44.9356 297.105C44.9356 296.78 44.8564 296.474 44.698 296.188C44.544 295.897 44.335 295.664 44.071 295.488C43.8114 295.308 43.521 295.218 43.1998 295.218H40.6655V299.026ZM40.6655 294.406H42.7841C43.2196 294.406 43.5914 294.28 43.8994 294.03C44.2118 293.775 44.368 293.414 44.368 292.947C44.368 292.437 44.2118 292.059 43.8994 291.812C43.5914 291.561 43.2196 291.436 42.7841 291.436H40.6655V294.406ZM47.1019 299.851V293.251H48.0258V294.162C48.259 293.827 48.5626 293.561 48.9366 293.363C49.3106 293.165 49.7176 293.066 50.1576 293.066C50.4128 293.066 50.6592 293.099 50.8968 293.165L50.5206 294.082C50.3358 294.025 50.1554 293.997 49.9794 293.997C49.623 293.997 49.2952 294.085 48.996 294.261C48.7012 294.437 48.4658 294.672 48.2898 294.967C48.1138 295.262 48.0258 295.589 48.0258 295.95V299.851H47.1019ZM56.8065 293.251H57.7304V299.851H56.8065L56.7735 298.623C56.5579 299.041 56.2565 299.38 55.8693 299.64C55.4821 299.895 55.0201 300.022 54.4833 300.022C53.9993 300.022 53.5462 299.932 53.1238 299.752C52.7014 299.567 52.3296 299.314 52.0084 298.993C51.6872 298.672 51.4364 298.3 51.256 297.877C51.0756 297.455 50.9854 297.002 50.9854 296.518C50.9854 296.043 51.0734 295.596 51.2494 295.178C51.4298 294.76 51.6762 294.393 51.9886 294.076C52.3054 293.759 52.6706 293.513 53.0842 293.337C53.5022 293.156 53.9487 293.066 54.4239 293.066C54.9739 293.066 55.4535 293.198 55.8627 293.462C56.2719 293.722 56.5975 294.063 56.8394 294.485L56.8065 293.251ZM54.4635 299.125C54.9343 299.125 55.3391 299.01 55.6779 298.782C56.0167 298.548 56.2763 298.236 56.4567 297.844C56.6415 297.453 56.7339 297.022 56.7339 296.551C56.7339 296.067 56.6415 295.631 56.4567 295.244C56.2719 294.852 56.0101 294.542 55.6713 294.313C55.3325 294.085 54.9299 293.97 54.4635 293.97C53.9971 293.97 53.5704 294.087 53.1832 294.32C52.8004 294.549 52.4946 294.859 52.2658 295.251C52.0414 295.642 51.9292 296.076 51.9292 296.551C51.9292 297.03 52.0458 297.466 52.279 297.858C52.5122 298.245 52.8202 298.553 53.203 298.782C53.5902 299.01 54.0103 299.125 54.4635 299.125ZM64.8061 295.765V299.851H63.8821V295.95C63.8821 295.589 63.7941 295.262 63.6182 294.967C63.4422 294.672 63.2068 294.437 62.912 294.261C62.6172 294.085 62.2894 293.997 61.9286 293.997C61.5722 293.997 61.2444 294.085 60.9452 294.261C60.6504 294.437 60.4151 294.672 60.2391 294.967C60.0631 295.262 59.9751 295.589 59.9751 295.95V299.851H59.0511V293.251H59.9751V294.162C60.2083 293.827 60.5119 293.561 60.8858 293.363C61.2598 293.165 61.6668 293.066 62.1068 293.066C62.604 293.066 63.0572 293.187 63.4664 293.429C63.8755 293.671 64.2011 293.997 64.4431 294.406C64.6851 294.815 64.8061 295.268 64.8061 295.765ZM71.4306 289.951H72.3545V299.851H71.4306V298.617C71.2018 299.039 70.8872 299.38 70.4868 299.64C70.0908 299.895 69.62 300.022 69.0744 300.022C68.5948 300.022 68.1461 299.932 67.7281 299.752C67.3101 299.571 66.9405 299.323 66.6193 299.006C66.3025 298.685 66.0539 298.315 65.8735 297.897C65.6931 297.479 65.6029 297.03 65.6029 296.551C65.6029 296.071 65.6931 295.622 65.8735 295.204C66.0539 294.782 66.3025 294.412 66.6193 294.096C66.9405 293.775 67.3101 293.524 67.7281 293.343C68.1461 293.163 68.5948 293.073 69.0744 293.073C69.62 293.073 70.0908 293.203 70.4868 293.462C70.8872 293.717 71.2018 294.054 71.4306 294.472V289.951ZM69.081 299.125C69.5518 299.125 69.9566 299.01 70.2954 298.782C70.6342 298.548 70.8938 298.236 71.0742 297.844C71.259 297.453 71.3514 297.022 71.3514 296.551C71.3514 296.067 71.259 295.631 71.0742 295.244C70.8894 294.852 70.6276 294.542 70.2888 294.313C69.95 294.085 69.5474 293.97 69.081 293.97C68.6146 293.97 68.1901 294.087 67.8073 294.32C67.4245 294.549 67.1187 294.859 66.8899 295.251C66.6611 295.642 66.5467 296.076 66.5467 296.551C66.5467 297.03 66.6633 297.466 66.8965 297.858C67.1297 298.245 67.4377 298.553 67.8205 298.782C68.2077 299.01 68.6278 299.125 69.081 299.125ZM80.4432 290.611L77.7703 300.59H76.8463L79.5192 290.611H80.4432ZM89.2179 300.022C88.5843 300.022 87.9904 299.899 87.436 299.653C86.886 299.402 86.4042 299.057 85.9906 298.617C85.577 298.172 85.2536 297.662 85.0204 297.085C84.7873 296.505 84.6707 295.884 84.6707 295.224C84.6707 294.551 84.7917 293.924 85.0336 293.343C85.2756 292.763 85.6078 292.257 86.0302 291.825C86.4526 291.39 86.9366 291.051 87.4822 290.809C88.0322 290.567 88.6151 290.446 89.2311 290.446C89.9395 290.446 90.6083 290.611 91.2375 290.941C91.871 291.271 92.4078 291.74 92.8478 292.347L92.0228 292.796C91.6708 292.334 91.2463 291.979 90.7491 291.733C90.2563 291.487 89.7481 291.363 89.2245 291.363C88.7273 291.363 88.2587 291.465 87.8188 291.667C87.3832 291.865 86.9982 292.142 86.6638 292.499C86.3294 292.855 86.0676 293.266 85.8784 293.733C85.6892 294.199 85.5946 294.701 85.5946 295.237C85.5946 295.77 85.6892 296.269 85.8784 296.736C86.0676 297.202 86.3272 297.613 86.6572 297.97C86.9916 298.322 87.3788 298.599 87.8188 298.801C88.2587 298.999 88.7295 299.098 89.2311 299.098C89.6447 299.098 90.0363 299.028 90.4059 298.887C90.7799 298.742 91.1209 298.54 91.4288 298.28C91.7368 298.02 91.9964 297.717 92.2076 297.369C92.4232 297.022 92.5794 296.643 92.6762 296.234H90.1815V295.396H93.752C93.7388 296.034 93.6112 296.632 93.3692 297.191C93.1272 297.75 92.7972 298.243 92.3792 298.669C91.9656 299.092 91.4882 299.424 90.9471 299.666C90.4103 299.904 89.8339 300.022 89.2179 300.022ZM95.0406 299.851V293.251H95.9645V294.162C96.1977 293.827 96.5013 293.561 96.8753 293.363C97.2493 293.165 97.6563 293.066 98.0963 293.066C98.3515 293.066 98.5979 293.099 98.8355 293.165L98.4593 294.082C98.2745 294.025 98.0941 293.997 97.9181 293.997C97.5617 293.997 97.2339 294.085 96.9347 294.261C96.6399 294.437 96.4045 294.672 96.2285 294.967C96.0525 295.262 95.9645 295.589 95.9645 295.95V299.851H95.0406ZM104.745 293.251H105.669V299.851H104.745L104.712 298.623C104.497 299.041 104.195 299.38 103.808 299.64C103.421 299.895 102.959 300.022 102.422 300.022C101.938 300.022 101.485 299.932 101.062 299.752C100.64 299.567 100.268 299.314 99.9471 298.993C99.6259 298.672 99.3751 298.3 99.1947 297.877C99.0143 297.455 98.9241 297.002 98.9241 296.518C98.9241 296.043 99.0121 295.596 99.1881 295.178C99.3685 294.76 99.6149 294.393 99.9273 294.076C100.244 293.759 100.609 293.513 101.023 293.337C101.441 293.156 101.887 293.066 102.363 293.066C102.913 293.066 103.392 293.198 103.801 293.462C104.211 293.722 104.536 294.063 104.778 294.485L104.745 293.251ZM102.402 299.125C102.873 299.125 103.278 299.01 103.617 298.782C103.955 298.548 104.215 298.236 104.395 297.844C104.58 297.453 104.673 297.022 104.673 296.551C104.673 296.067 104.58 295.631 104.395 295.244C104.211 294.852 103.949 294.542 103.61 294.313C103.271 294.085 102.869 293.97 102.402 293.97C101.936 293.97 101.509 294.087 101.122 294.32C100.739 294.549 100.433 294.859 100.204 295.251C99.9801 295.642 99.8679 296.076 99.8679 296.551C99.8679 297.03 99.9845 297.466 100.218 297.858C100.451 298.245 100.759 298.553 101.142 298.782C101.529 299.01 101.949 299.125 102.402 299.125ZM112.293 289.951H113.217V299.851H112.293V298.617C112.064 299.039 111.749 299.38 111.349 299.64C110.953 299.895 110.482 300.022 109.936 300.022C109.457 300.022 109.008 299.932 108.59 299.752C108.172 299.571 107.802 299.323 107.481 299.006C107.164 298.685 106.916 298.315 106.736 297.897C106.555 297.479 106.465 297.03 106.465 296.551C106.465 296.071 106.555 295.622 106.736 295.204C106.916 294.782 107.164 294.412 107.481 294.096C107.802 293.775 108.172 293.524 108.59 293.343C109.008 293.163 109.457 293.073 109.936 293.073C110.482 293.073 110.953 293.203 111.349 293.462C111.749 293.717 112.064 294.054 112.293 294.472V289.951ZM109.943 299.125C110.414 299.125 110.819 299.01 111.157 298.782C111.496 298.548 111.756 298.236 111.936 297.844C112.121 297.453 112.213 297.022 112.213 296.551C112.213 296.067 112.121 295.631 111.936 295.244C111.751 294.852 111.49 294.542 111.151 294.313C110.812 294.085 110.409 293.97 109.943 293.97C109.477 293.97 109.052 294.087 108.669 294.32C108.286 294.549 107.981 294.859 107.752 295.251C107.523 295.642 107.409 296.076 107.409 296.551C107.409 297.03 107.525 297.466 107.758 297.858C107.992 298.245 108.3 298.553 108.682 298.782C109.07 299.01 109.49 299.125 109.943 299.125ZM114.801 293.251H115.725V299.851H114.801V293.251ZM115.27 292.096C115.12 292.096 114.993 292.048 114.887 291.951C114.786 291.85 114.735 291.724 114.735 291.575C114.735 291.425 114.786 291.302 114.887 291.205C114.993 291.104 115.12 291.053 115.27 291.053C115.415 291.053 115.538 291.104 115.639 291.205C115.745 291.302 115.798 291.425 115.798 291.575C115.798 291.724 115.747 291.85 115.646 291.951C115.545 292.048 115.419 292.096 115.27 292.096ZM120.154 300.022C119.547 300.022 118.993 299.866 118.491 299.554C117.994 299.241 117.596 298.823 117.297 298.3C117.002 297.772 116.854 297.189 116.854 296.551C116.854 296.067 116.94 295.616 117.112 295.198C117.283 294.775 117.519 294.406 117.818 294.089C118.122 293.768 118.474 293.517 118.874 293.337C119.274 293.156 119.701 293.066 120.154 293.066C120.643 293.066 121.091 293.163 121.501 293.357C121.914 293.55 122.268 293.821 122.563 294.168C122.862 294.516 123.087 294.923 123.236 295.389C123.39 295.856 123.454 296.359 123.428 296.901H117.831C117.884 297.319 118.016 297.693 118.227 298.023C118.443 298.353 118.716 298.614 119.046 298.808C119.38 298.997 119.75 299.094 120.154 299.098C120.594 299.098 120.99 298.984 121.342 298.755C121.699 298.526 121.985 298.212 122.2 297.811L123.137 298.029C122.873 298.614 122.475 299.094 121.943 299.468C121.41 299.838 120.814 300.022 120.154 300.022ZM117.805 296.155H122.497C122.466 295.746 122.341 295.372 122.121 295.033C121.905 294.69 121.626 294.417 121.283 294.214C120.94 294.008 120.564 293.904 120.154 293.904C119.745 293.904 119.371 294.005 119.032 294.208C118.694 294.406 118.416 294.676 118.201 295.02C117.985 295.358 117.853 295.737 117.805 296.155ZM130.314 295.765V299.851H129.39V295.95C129.39 295.589 129.302 295.262 129.126 294.967C128.95 294.672 128.715 294.437 128.42 294.261C128.125 294.085 127.797 293.997 127.437 293.997C127.08 293.997 126.753 294.085 126.453 294.261C126.159 294.437 125.923 294.672 125.747 294.967C125.571 295.262 125.483 295.589 125.483 295.95V299.851H124.559V293.251H125.483V294.162C125.716 293.827 126.02 293.561 126.394 293.363C126.768 293.165 127.175 293.066 127.615 293.066C128.112 293.066 128.565 293.187 128.974 293.429C129.384 293.671 129.709 293.997 129.951 294.406C130.193 294.815 130.314 295.268 130.314 295.765ZM135.008 294.175H133.431L133.424 299.851H132.5L132.507 294.175H131.313V293.251H132.507L132.5 291.179H133.424L133.431 293.251H135.008V294.175Z" fill="black"/>
<rect x="233.207" y="152.831" width="117.925" height="117.925" rx="28.3021" fill="#6366F1"/>
<path d="M252.708 299.851V290.611H255.829C256.278 290.611 256.685 290.703 257.05 290.888C257.42 291.068 257.713 291.335 257.928 291.687C258.148 292.034 258.258 292.457 258.258 292.954C258.258 293.235 258.208 293.504 258.106 293.759C258.005 294.014 257.873 294.232 257.71 294.412C257.548 294.588 257.372 294.703 257.182 294.756C257.455 294.826 257.691 294.949 257.889 295.125C258.087 295.297 258.249 295.501 258.377 295.739C258.505 295.972 258.597 296.219 258.654 296.478C258.716 296.738 258.747 296.993 258.747 297.244C258.747 297.763 258.632 298.218 258.403 298.61C258.179 299.001 257.878 299.307 257.499 299.527C257.121 299.743 256.701 299.851 256.239 299.851H252.708ZM253.632 299.026H256.166C256.487 299.026 256.778 298.942 257.037 298.775C257.301 298.608 257.51 298.379 257.664 298.088C257.823 297.798 257.902 297.47 257.902 297.105C257.902 296.779 257.823 296.474 257.664 296.188C257.51 295.897 257.301 295.664 257.037 295.488C256.778 295.308 256.487 295.218 256.166 295.218H253.632V299.026ZM253.632 294.406H255.75C256.186 294.406 256.558 294.28 256.866 294.03C257.178 293.774 257.334 293.414 257.334 292.947C257.334 292.437 257.178 292.058 256.866 291.812C256.558 291.561 256.186 291.436 255.75 291.436H253.632V294.406ZM260.068 299.851V293.251H260.992V294.162C261.225 293.827 261.529 293.561 261.903 293.363C262.277 293.165 262.684 293.066 263.124 293.066C263.379 293.066 263.625 293.099 263.863 293.165L263.487 294.082C263.302 294.025 263.122 293.997 262.946 293.997C262.589 293.997 262.261 294.085 261.962 294.261C261.667 294.437 261.432 294.672 261.256 294.967C261.08 295.262 260.992 295.589 260.992 295.95V299.851H260.068ZM269.773 293.251H270.697V299.851H269.773L269.74 298.623C269.524 299.041 269.223 299.38 268.835 299.639C268.448 299.895 267.986 300.022 267.449 300.022C266.965 300.022 266.512 299.932 266.09 299.752C265.668 299.567 265.296 299.314 264.975 298.993C264.653 298.671 264.403 298.3 264.222 297.877C264.042 297.455 263.952 297.002 263.952 296.518C263.952 296.043 264.04 295.596 264.216 295.178C264.396 294.76 264.642 294.393 264.955 294.076C265.272 293.759 265.637 293.513 266.05 293.337C266.468 293.156 266.915 293.066 267.39 293.066C267.94 293.066 268.42 293.198 268.829 293.462C269.238 293.722 269.564 294.063 269.806 294.485L269.773 293.251ZM267.43 299.125C267.9 299.125 268.305 299.01 268.644 298.781C268.983 298.548 269.242 298.236 269.423 297.844C269.608 297.453 269.7 297.021 269.7 296.551C269.7 296.067 269.608 295.631 269.423 295.244C269.238 294.852 268.976 294.542 268.637 294.313C268.299 294.085 267.896 293.97 267.43 293.97C266.963 293.97 266.537 294.087 266.149 294.32C265.767 294.549 265.461 294.859 265.232 295.251C265.008 295.642 264.895 296.076 264.895 296.551C264.895 297.03 265.012 297.466 265.245 297.857C265.478 298.245 265.786 298.553 266.169 298.781C266.556 299.01 266.976 299.125 267.43 299.125ZM277.772 295.765V299.851H276.848V295.95C276.848 295.589 276.76 295.262 276.584 294.967C276.408 294.672 276.173 294.437 275.878 294.261C275.583 294.085 275.256 293.997 274.895 293.997C274.538 293.997 274.211 294.085 273.911 294.261C273.617 294.437 273.381 294.672 273.205 294.967C273.029 295.262 272.941 295.589 272.941 295.95V299.851H272.017V293.251H272.941V294.162C273.174 293.827 273.478 293.561 273.852 293.363C274.226 293.165 274.633 293.066 275.073 293.066C275.57 293.066 276.023 293.187 276.433 293.429C276.842 293.671 277.167 293.997 277.409 294.406C277.651 294.815 277.772 295.268 277.772 295.765ZM284.397 289.951H285.321V299.851H284.397V298.616C284.168 299.039 283.853 299.38 283.453 299.639C283.057 299.895 282.586 300.022 282.041 300.022C281.561 300.022 281.112 299.932 280.694 299.752C280.276 299.571 279.907 299.323 279.585 299.006C279.269 298.685 279.02 298.315 278.84 297.897C278.659 297.479 278.569 297.03 278.569 296.551C278.569 296.071 278.659 295.622 278.84 295.204C279.02 294.782 279.269 294.412 279.585 294.096C279.907 293.774 280.276 293.524 280.694 293.343C281.112 293.163 281.561 293.073 282.041 293.073C282.586 293.073 283.057 293.202 283.453 293.462C283.853 293.717 284.168 294.054 284.397 294.472V289.951ZM282.047 299.125C282.518 299.125 282.923 299.01 283.262 298.781C283.6 298.548 283.86 298.236 284.04 297.844C284.225 297.453 284.318 297.021 284.318 296.551C284.318 296.067 284.225 295.631 284.04 295.244C283.856 294.852 283.594 294.542 283.255 294.313C282.916 294.085 282.514 293.97 282.047 293.97C281.581 293.97 281.156 294.087 280.773 294.32C280.391 294.549 280.085 294.859 279.856 295.251C279.627 295.642 279.513 296.076 279.513 296.551C279.513 297.03 279.629 297.466 279.863 297.857C280.096 298.245 280.404 298.553 280.787 298.781C281.174 299.01 281.594 299.125 282.047 299.125ZM293.409 290.611L290.736 300.59H289.812L292.485 290.611H293.409ZM298.099 299.851V290.611H299.023V299.851H298.099ZM306.556 295.765V299.851H305.632V295.95C305.632 295.589 305.544 295.262 305.368 294.967C305.192 294.672 304.957 294.437 304.662 294.261C304.367 294.085 304.039 293.997 303.679 293.997C303.322 293.997 302.994 294.085 302.695 294.261C302.4 294.437 302.165 294.672 301.989 294.967C301.813 295.262 301.725 295.589 301.725 295.95V299.851H300.801V293.251H301.725V294.162C301.958 293.827 302.262 293.561 302.636 293.363C303.01 293.165 303.417 293.066 303.857 293.066C304.354 293.066 304.807 293.187 305.216 293.429C305.626 293.671 305.951 293.997 306.193 294.406C306.435 294.815 306.556 295.268 306.556 295.765ZM313.181 289.951H314.105V299.851H313.181V298.616C312.952 299.039 312.637 299.38 312.237 299.639C311.841 299.895 311.37 300.022 310.824 300.022C310.345 300.022 309.896 299.932 309.478 299.752C309.06 299.571 308.69 299.323 308.369 299.006C308.053 298.685 307.804 298.315 307.624 297.897C307.443 297.479 307.353 297.03 307.353 296.551C307.353 296.071 307.443 295.622 307.624 295.204C307.804 294.782 308.053 294.412 308.369 294.096C308.69 293.774 309.06 293.524 309.478 293.343C309.896 293.163 310.345 293.073 310.824 293.073C311.37 293.073 311.841 293.202 312.237 293.462C312.637 293.717 312.952 294.054 313.181 294.472V289.951ZM310.831 299.125C311.302 299.125 311.707 299.01 312.045 298.781C312.384 298.548 312.644 298.236 312.824 297.844C313.009 297.453 313.101 297.021 313.101 296.551C313.101 296.067 313.009 295.631 312.824 295.244C312.639 294.852 312.378 294.542 312.039 294.313C311.7 294.085 311.297 293.97 310.831 293.97C310.365 293.97 309.94 294.087 309.557 294.32C309.174 294.549 308.869 294.859 308.64 295.251C308.411 295.642 308.297 296.076 308.297 296.551C308.297 297.03 308.413 297.466 308.646 297.857C308.88 298.245 309.188 298.553 309.57 298.781C309.958 299.01 310.378 299.125 310.831 299.125ZM315.689 293.251H316.613V299.851H315.689V293.251ZM316.158 292.096C316.008 292.096 315.881 292.047 315.775 291.951C315.674 291.849 315.623 291.724 315.623 291.574C315.623 291.425 315.674 291.302 315.775 291.205C315.881 291.104 316.008 291.053 316.158 291.053C316.303 291.053 316.426 291.104 316.527 291.205C316.633 291.302 316.686 291.425 316.686 291.574C316.686 291.724 316.635 291.849 316.534 291.951C316.433 292.047 316.307 292.096 316.158 292.096ZM323.385 293.251H324.309V300.095C324.309 300.517 324.217 300.913 324.032 301.283C323.852 301.652 323.605 301.976 323.293 302.253C322.985 302.535 322.633 302.754 322.237 302.913C321.841 303.071 321.43 303.15 321.003 303.15C320.545 303.15 320.103 303.045 319.676 302.834C319.249 302.627 318.878 302.35 318.561 302.002C318.248 301.655 318.026 301.27 317.894 300.847L318.746 300.458C318.829 300.788 318.985 301.085 319.214 301.349C319.447 301.617 319.72 301.828 320.033 301.982C320.349 302.141 320.673 302.22 321.003 302.22C321.306 302.22 321.599 302.163 321.881 302.048C322.167 301.938 322.422 301.787 322.646 301.593C322.875 301.399 323.055 301.173 323.187 300.913C323.319 300.658 323.385 300.385 323.385 300.095V298.636C323.156 299.05 322.846 299.384 322.455 299.639C322.068 299.895 321.617 300.022 321.102 300.022C320.64 300.022 320.204 299.932 319.795 299.752C319.39 299.571 319.034 299.323 318.726 299.006C318.418 298.685 318.176 298.315 318 297.897C317.828 297.479 317.742 297.03 317.742 296.551C317.742 296.071 317.828 295.622 318 295.204C318.176 294.782 318.418 294.412 318.726 294.096C319.034 293.774 319.39 293.524 319.795 293.343C320.204 293.163 320.64 293.073 321.102 293.073C321.617 293.073 322.068 293.2 322.455 293.455C322.846 293.706 323.156 294.041 323.385 294.459V293.251ZM321.108 299.125C321.566 299.125 321.96 299.006 322.29 298.768C322.624 298.531 322.881 298.216 323.062 297.824C323.242 297.433 323.332 297.008 323.332 296.551C323.332 296.08 323.24 295.651 323.055 295.264C322.875 294.872 322.617 294.56 322.283 294.327C321.949 294.089 321.557 293.97 321.108 293.97C320.66 293.97 320.25 294.087 319.881 294.32C319.516 294.549 319.225 294.859 319.01 295.251C318.794 295.642 318.686 296.076 318.686 296.551C318.686 297.026 318.796 297.459 319.016 297.851C319.236 298.238 319.529 298.548 319.894 298.781C320.264 299.01 320.668 299.125 321.108 299.125ZM328.738 300.022C328.131 300.022 327.576 299.866 327.075 299.554C326.577 299.241 326.179 298.823 325.88 298.3C325.585 297.772 325.438 297.189 325.438 296.551C325.438 296.067 325.524 295.616 325.695 295.198C325.867 294.775 326.102 294.406 326.401 294.089C326.705 293.768 327.057 293.517 327.457 293.337C327.858 293.156 328.285 293.066 328.738 293.066C329.345 293.066 329.897 293.222 330.394 293.535C330.896 293.847 331.294 294.267 331.589 294.795C331.888 295.323 332.038 295.908 332.038 296.551C332.038 297.03 331.952 297.479 331.78 297.897C331.609 298.315 331.371 298.685 331.068 299.006C330.768 299.323 330.419 299.571 330.018 299.752C329.622 299.932 329.195 300.022 328.738 300.022ZM328.738 299.098C329.187 299.098 329.589 298.982 329.946 298.748C330.306 298.511 330.59 298.198 330.797 297.811C331.008 297.424 331.114 297.004 331.114 296.551C331.114 296.089 331.008 295.664 330.797 295.277C330.586 294.885 330.3 294.573 329.939 294.34C329.583 294.107 329.182 293.99 328.738 293.99C328.289 293.99 327.884 294.109 327.523 294.346C327.167 294.58 326.883 294.89 326.672 295.277C326.465 295.664 326.362 296.089 326.362 296.551C326.362 297.026 326.47 297.457 326.685 297.844C326.901 298.227 327.189 298.533 327.55 298.762C327.911 298.986 328.307 299.098 328.738 299.098Z" fill="black"/>
<rect x="438.211" y="152.831" width="117.925" height="117.925" rx="28.3021" fill="#3B82F6"/>
<path d="M463.428 299.851V290.611H466.55C466.999 290.611 467.406 290.703 467.771 290.888C468.141 291.068 468.433 291.335 468.649 291.687C468.869 292.034 468.979 292.457 468.979 292.954C468.979 293.235 468.928 293.504 468.827 293.759C468.726 294.014 468.594 294.232 468.431 294.412C468.268 294.588 468.092 294.703 467.903 294.756C468.176 294.826 468.411 294.949 468.609 295.125C468.807 295.297 468.97 295.501 469.098 295.739C469.225 295.972 469.318 296.219 469.375 296.478C469.436 296.738 469.467 296.993 469.467 297.244C469.467 297.763 469.353 298.218 469.124 298.61C468.9 299.001 468.598 299.307 468.22 299.527C467.841 299.743 467.421 299.851 466.959 299.851H463.428ZM464.352 299.026H466.887C467.208 299.026 467.498 298.942 467.758 298.775C468.022 298.608 468.231 298.379 468.385 298.088C468.543 297.798 468.622 297.47 468.622 297.105C468.622 296.779 468.543 296.474 468.385 296.188C468.231 295.897 468.022 295.664 467.758 295.488C467.498 295.308 467.208 295.218 466.887 295.218H464.352V299.026ZM464.352 294.406H466.471C466.907 294.406 467.278 294.28 467.586 294.03C467.899 293.774 468.055 293.414 468.055 292.947C468.055 292.437 467.899 292.058 467.586 291.812C467.278 291.561 466.907 291.436 466.471 291.436H464.352V294.406ZM470.789 299.851V293.251H471.713V294.162C471.946 293.827 472.249 293.561 472.623 293.363C472.997 293.165 473.404 293.066 473.844 293.066C474.1 293.066 474.346 293.099 474.584 293.165L474.207 294.082C474.023 294.025 473.842 293.997 473.666 293.997C473.31 293.997 472.982 294.085 472.683 294.261C472.388 294.437 472.153 294.672 471.977 294.967C471.801 295.262 471.713 295.589 471.713 295.95V299.851H470.789ZM480.493 293.251H481.417V299.851H480.493L480.46 298.623C480.245 299.041 479.943 299.38 479.556 299.639C479.169 299.895 478.707 300.022 478.17 300.022C477.686 300.022 477.233 299.932 476.811 299.752C476.388 299.567 476.016 299.314 475.695 298.993C475.374 298.671 475.123 298.3 474.943 297.877C474.763 297.455 474.672 297.002 474.672 296.518C474.672 296.043 474.76 295.596 474.936 295.178C475.117 294.76 475.363 294.393 475.675 294.076C475.992 293.759 476.357 293.513 476.771 293.337C477.189 293.156 477.636 293.066 478.111 293.066C478.661 293.066 479.14 293.198 479.55 293.462C479.959 293.722 480.284 294.063 480.526 294.485L480.493 293.251ZM478.15 299.125C478.621 299.125 479.026 299.01 479.365 298.781C479.704 298.548 479.963 298.236 480.144 297.844C480.328 297.453 480.421 297.021 480.421 296.551C480.421 296.067 480.328 295.631 480.144 295.244C479.959 294.852 479.697 294.542 479.358 294.313C479.019 294.085 478.617 293.97 478.15 293.97C477.684 293.97 477.257 294.087 476.87 294.32C476.487 294.549 476.181 294.859 475.953 295.251C475.728 295.642 475.616 296.076 475.616 296.551C475.616 297.03 475.733 297.466 475.966 297.857C476.199 298.245 476.507 298.553 476.89 298.781C477.277 299.01 477.697 299.125 478.15 299.125ZM488.493 295.765V299.851H487.569V295.95C487.569 295.589 487.481 295.262 487.305 294.967C487.129 294.672 486.894 294.437 486.599 294.261C486.304 294.085 485.976 293.997 485.615 293.997C485.259 293.997 484.931 294.085 484.632 294.261C484.337 294.437 484.102 294.672 483.926 294.967C483.75 295.262 483.662 295.589 483.662 295.95V299.851H482.738V293.251H483.662V294.162C483.895 293.827 484.199 293.561 484.573 293.363C484.947 293.165 485.354 293.066 485.794 293.066C486.291 293.066 486.744 293.187 487.153 293.429C487.562 293.671 487.888 293.997 488.13 294.406C488.372 294.815 488.493 295.268 488.493 295.765ZM495.117 289.951H496.041V299.851H495.117V298.616C494.889 299.039 494.574 299.38 494.174 299.639C493.778 299.895 493.307 300.022 492.761 300.022C492.282 300.022 491.833 299.932 491.415 299.752C490.997 299.571 490.627 299.323 490.306 299.006C489.989 298.685 489.741 298.315 489.56 297.897C489.38 297.479 489.29 297.03 489.29 296.551C489.29 296.071 489.38 295.622 489.56 295.204C489.741 294.782 489.989 294.412 490.306 294.096C490.627 293.774 490.997 293.524 491.415 293.343C491.833 293.163 492.282 293.073 492.761 293.073C493.307 293.073 493.778 293.202 494.174 293.462C494.574 293.717 494.889 294.054 495.117 294.472V289.951ZM492.768 299.125C493.239 299.125 493.643 299.01 493.982 298.781C494.321 298.548 494.581 298.236 494.761 297.844C494.946 297.453 495.038 297.021 495.038 296.551C495.038 296.067 494.946 295.631 494.761 295.244C494.576 294.852 494.314 294.542 493.976 294.313C493.637 294.085 493.234 293.97 492.768 293.97C492.302 293.97 491.877 294.087 491.494 294.32C491.111 294.549 490.806 294.859 490.577 295.251C490.348 295.642 490.234 296.076 490.234 296.551C490.234 297.03 490.35 297.466 490.583 297.857C490.817 298.245 491.125 298.553 491.507 298.781C491.895 299.01 492.315 299.125 492.768 299.125ZM504.13 290.611L501.457 300.59H500.533L503.206 290.611H504.13ZM508.622 299.851V290.611H511.743C512.192 290.611 512.599 290.703 512.964 290.888C513.334 291.068 513.626 291.335 513.842 291.687C514.062 292.034 514.172 292.457 514.172 292.954C514.172 293.235 514.121 293.504 514.02 293.759C513.919 294.014 513.787 294.232 513.624 294.412C513.461 294.588 513.285 294.703 513.096 294.756C513.369 294.826 513.604 294.949 513.802 295.125C514 295.297 514.163 295.501 514.291 295.739C514.418 295.972 514.511 296.219 514.568 296.478C514.63 296.738 514.66 296.993 514.66 297.244C514.66 297.763 514.546 298.218 514.317 298.61C514.093 299.001 513.791 299.307 513.413 299.527C513.035 299.743 512.614 299.851 512.152 299.851H508.622ZM509.545 299.026H512.08C512.401 299.026 512.691 298.942 512.951 298.775C513.215 298.608 513.424 298.379 513.578 298.088C513.736 297.798 513.816 297.47 513.816 297.105C513.816 296.779 513.736 296.474 513.578 296.188C513.424 295.897 513.215 295.664 512.951 295.488C512.691 295.308 512.401 295.218 512.08 295.218H509.545V299.026ZM509.545 294.406H511.664C512.1 294.406 512.471 294.28 512.779 294.03C513.092 293.774 513.248 293.414 513.248 292.947C513.248 292.437 513.092 292.058 512.779 291.812C512.471 291.561 512.1 291.436 511.664 291.436H509.545V294.406ZM515.866 299.851V289.951H516.79V299.851H515.866ZM518.115 297.323V293.251H519.039V297.138C519.039 297.499 519.127 297.827 519.303 298.121C519.479 298.416 519.715 298.652 520.01 298.828C520.309 299.004 520.637 299.092 520.993 299.092C521.354 299.092 521.679 299.004 521.97 298.828C522.264 298.652 522.5 298.416 522.676 298.121C522.852 297.827 522.94 297.499 522.94 297.138V293.251H523.864L523.87 299.851H522.946L522.94 298.927C522.707 299.261 522.403 299.527 522.029 299.725C521.66 299.923 521.255 300.022 520.815 300.022C520.318 300.022 519.864 299.901 519.455 299.659C519.046 299.417 518.72 299.092 518.478 298.682C518.236 298.273 518.115 297.82 518.115 297.323ZM528.038 300.022C527.431 300.022 526.876 299.866 526.375 299.554C525.877 299.241 525.479 298.823 525.18 298.3C524.885 297.772 524.738 297.189 524.738 296.551C524.738 296.067 524.824 295.616 524.995 295.198C525.167 294.775 525.402 294.406 525.701 294.089C526.005 293.768 526.357 293.517 526.757 293.337C527.158 293.156 527.585 293.066 528.038 293.066C528.526 293.066 528.975 293.163 529.384 293.356C529.798 293.55 530.152 293.821 530.447 294.168C530.746 294.516 530.97 294.923 531.12 295.389C531.274 295.856 531.338 296.359 531.311 296.9H525.715C525.767 297.318 525.899 297.692 526.111 298.022C526.326 298.352 526.599 298.614 526.929 298.808C527.263 298.997 527.633 299.094 528.038 299.098C528.478 299.098 528.874 298.984 529.226 298.755C529.582 298.526 529.868 298.212 530.084 297.811L531.021 298.029C530.757 298.614 530.359 299.094 529.826 299.468C529.294 299.837 528.698 300.022 528.038 300.022ZM525.688 296.155H530.381C530.35 295.746 530.225 295.372 530.005 295.033C529.789 294.69 529.51 294.417 529.166 294.214C528.823 294.008 528.447 293.904 528.038 293.904C527.629 293.904 527.255 294.005 526.916 294.208C526.577 294.406 526.3 294.676 526.084 295.02C525.869 295.358 525.737 295.737 525.688 296.155Z" fill="black"/>
<defs>
<linearGradient id="paint0_linear_981_150286" x1="8.43467e-07" y1="30.8924" x2="226.416" y2="30.8924" gradientUnits="userSpaceOnUse">
<stop stop-color="#0EA5E9"/>
<stop offset="0.290291" stop-color="#3B82F6"/>
<stop offset="0.615124" stop-color="#6366F1"/>
<stop offset="1" stop-color="#8B5CF6"/>
</linearGradient>
<linearGradient id="paint1_linear_981_150286" x1="28.207" y1="376.103" x2="146.132" y2="279.797" gradientUnits="userSpaceOnUse">
<stop stop-color="#0EA5E9"/>
<stop offset="0.290291" stop-color="#3B82F6"/>
<stop offset="0.615124" stop-color="#6366F1"/>
<stop offset="1" stop-color="#8B5CF6"/>
</linearGradient>
</defs>
</svg>
