<svg width="271" height="268" viewBox="0 0 271 268" fill="none" xmlns="http://www.w3.org/2000/svg">
<path d="M23.4551 5.16897V10.5045C21.344 7.54884 17.4287 5.01544 13.5902 5.01544C12.8225 5.01544 12.0165 5.16897 11.2488 5.43767C8.02443 6.6276 6.94965 9.54485 6.94965 13.1146C6.94965 15.9551 7.6022 18.9491 8.44666 21.1755C10.4043 26.5877 14.1276 30.2343 18.35 30.2343C18.6954 30.2343 19.0409 30.1959 19.3864 30.1575C22.0733 29.7737 24.6067 27.8928 25.6815 26.2039H26.4876C24.8754 28.7373 22.8794 30.6181 20.3076 31.6162C19.0025 32.1152 17.5055 32.4222 15.8933 32.4222C11.4791 32.4222 6.52742 30.1575 4.22433 23.7089C3.49502 21.7512 3.14955 19.7168 3.14955 17.7208C3.14955 11.8863 6.22034 6.47406 11.8629 4.36289C13.3983 3.82551 15.0105 3.55681 16.661 3.55681C19.0025 3.55681 21.3824 4.0942 23.4551 5.16897ZM41.0987 17.7592C39.2562 19.0643 32.155 19.0259 32.155 26.0503C32.155 29.6969 34.1126 31.3091 35.9551 31.3091C38.834 31.3091 40.7532 27.2019 41.1371 23.2099V18.7188C41.1371 18.3734 41.0987 18.0663 41.0987 17.7592ZM45.9736 20.1391V28.7757C45.9736 29.7353 46.0887 31.002 46.319 31.9232L46.3574 32H41.1371V25.4746C40.5229 29.006 38.7188 32.3838 34.1894 32.3838C30.9267 32.3838 27.3185 30.3495 27.3185 26.1655C27.3185 18.2582 40.1007 18.4501 41.0603 16.838C40.7916 13.4217 39.6017 12.2318 37.6441 12.2318C35.4945 12.2318 33.153 14.0743 30.2358 18.4118V13.1146C32.155 12.155 35.0723 11.4641 37.337 11.4641C41.5209 11.4641 45.9736 13.7288 45.9736 20.1391ZM62.8491 28.5454C62.8491 24.323 49.7215 24.4382 49.7215 17.2986V17.2218C49.7215 13.844 52.7539 11.4641 57.0914 11.4641C59.2026 11.4641 61.5824 12.0399 63.6936 13.1146V18.4118C61.6592 15.6097 57.8591 12.6156 54.7883 12.6156C53.0994 12.6156 51.7943 13.6136 51.7943 14.9187V15.0339C51.7943 19.2178 64.9219 19.1027 64.9219 26.4342C64.9219 30.004 61.8127 32.3838 56.9762 32.3838C54.5964 32.3838 52.2165 31.8465 50.1437 30.7333V25.4362C52.1781 28.2383 55.9782 31.2323 59.3177 31.2323C61.3521 31.2323 62.8491 30.004 62.8491 28.5454ZM78.8952 25.4746V30.7333C77.9356 31.3858 75.9012 32.3838 73.79 32.3838C70.3354 32.3838 67.61 29.7353 67.61 24.9372V12.654H64.9615V11.8479H67.61V8.20138L72.4465 6.20537V11.8479H76.7073V12.654H72.4465V25.1675C72.4465 29.4666 72.9072 31.6162 74.2122 31.6162C75.4406 31.6162 77.0143 29.8121 78.8952 25.4746ZM87.9423 28.7757C87.9423 29.7353 88.1343 31.0404 88.3646 32H82.722C82.9523 31.0404 83.1058 29.7353 83.1058 28.7757V7.04983C83.1058 6.05183 82.9523 4.78513 82.722 3.86389V3.82551H87.9423V28.7757ZM94.1358 18.6421C94.1358 18.6037 94.1358 18.5653 94.1358 18.4885C94.1358 18.5653 94.1358 18.6037 94.1358 18.6421ZM96.4389 13.2682V13.2298H96.4773L96.4389 13.2682ZM105.459 19.333C104.922 17.6824 104.039 16.1087 102.964 14.8803L103.003 14.9187C104.077 16.1087 104.922 17.6824 105.459 19.333ZM94.1358 18.6421C94.1358 18.6037 94.1358 18.5653 94.1358 18.4885C94.1358 18.5653 94.1358 18.6037 94.1358 18.6421ZM96.4389 13.2682V13.2298H96.4773L96.4389 13.2682ZM105.459 19.333C104.922 17.6824 104.039 16.1087 102.964 14.8803L103.003 14.9187C104.077 16.1087 104.922 17.6824 105.459 19.333ZM109.298 18.2582L105.574 20.1775V20.1391L95.8247 24.8604C97.5137 27.8928 100.277 30.1959 103.003 30.1959C104.653 30.1959 106.995 29.3898 108.569 26.2039H109.375C107.263 31.0404 103.732 32.4606 100.431 32.4606C94.5964 32.4606 90.6812 28.1615 90.6812 22.0967C90.6812 15.8784 94.7116 11.4641 100.277 11.4641C105.882 11.4641 108.76 16.0319 109.298 18.2582ZM95.6328 24.1311L105.459 19.333C104.922 17.6824 104.039 16.1087 102.964 14.8803L96.4773 13.2298L96.4389 13.2682L94.1358 18.4885C94.1358 18.5653 94.1358 18.6037 94.1358 18.6421C94.1358 20.5997 94.7116 22.327 95.6328 24.1311ZM109.298 18.2582L105.574 20.1775V20.1391L95.8247 24.8604C97.5137 27.8928 100.277 30.1959 103.003 30.1959C104.653 30.1959 106.995 29.3898 108.569 26.2039H109.375C107.263 31.0404 103.732 32.4606 100.431 32.4606C94.5964 32.4606 90.6812 28.1615 90.6812 22.0967C90.6812 15.8784 94.7116 11.4641 100.277 11.4641C105.882 11.4641 108.76 16.0319 109.298 18.2582ZM95.6328 24.1311L105.459 19.333C104.922 17.6824 104.039 16.1087 102.964 14.8803L96.4773 13.2298L96.4389 13.2682L94.1358 18.4885C94.1358 18.5653 94.1358 18.6037 94.1358 18.6421C94.1358 20.5997 94.7116 22.327 95.6328 24.1311ZM127.501 30.8485H132.414C136.483 30.8485 139.247 28.8524 139.247 24.4382C139.247 19.9855 136.483 17.6441 132.414 17.6441H127.501V30.8485ZM131.224 4.97705H127.501V16.4157H131.224C135.293 16.4157 138.018 14.1127 138.018 10.4277C138.018 6.66599 135.293 4.97705 131.224 4.97705ZM133.22 3.82551C139.132 3.82551 142.855 6.39729 142.855 10.6964C142.855 13.844 140.859 15.8016 137.212 16.9147C140.936 17.6057 144.083 19.9088 144.083 24.2846C144.083 29.6585 139.247 32 134.449 32H122.281C122.549 30.9636 122.664 29.8504 122.664 28.7757V7.04983C122.664 5.93667 122.549 4.8619 122.281 3.82551H133.22ZM150.586 24.1311L160.451 19.3714C159.261 15.8016 156.613 12.5773 153.58 12.5773C151.008 12.5773 149.089 15.0339 149.089 18.6805C149.089 20.6381 149.665 22.327 150.586 24.1311ZM155.231 11.4641C160.873 11.4641 163.752 16.0319 164.29 18.2582L160.566 20.1775V20.1391L150.778 24.8604C152.467 27.8928 155.231 30.1959 157.994 30.1959C159.645 30.1959 161.986 29.3898 163.56 26.2039H164.366C162.255 31.0404 158.724 32.4606 155.384 32.4606C149.55 32.4606 145.634 28.1615 145.634 22.0967C145.634 15.8784 149.665 11.4641 155.231 11.4641ZM170.202 17.0299C170.202 21.2522 172.928 28.1231 177.303 28.1231C179.53 28.1231 180.528 26.4726 180.528 23.7473C180.528 18.7188 177.303 12.7308 173.465 12.7308C171.315 12.7308 170.202 14.3046 170.202 17.0299ZM175.077 29.505C173.887 29.505 172.774 29.3131 171.776 28.9292C170.126 30.0808 169.319 31.7313 169.319 32.6142C169.319 33.2283 169.703 33.497 170.279 33.497C171.431 33.497 173.465 32.4606 174.924 31.7313C178.609 29.8121 181.372 28.8908 183.292 28.8908C185.595 28.8908 186.708 30.1959 186.708 32.499C186.708 37.182 182.178 40.4447 175.615 40.4447C172.736 40.4447 169.511 39.8689 167.477 38.8325V33.5354C170.279 38.7174 173.196 40.0608 176.037 40.0608C179.875 40.0608 182.485 37.6426 182.485 35.1476C182.485 33.9576 181.91 32.8445 179.837 32.8445C179.223 32.8445 178.455 32.9596 177.534 33.1899C175.384 33.7657 172.544 34.9556 170.663 34.9556C169.511 34.9556 168.744 34.495 168.744 33.1515C168.744 31.6545 169.78 29.9272 171.315 28.8141C168.053 27.5474 166.057 24.5533 166.057 20.9068C166.057 15.5329 170.509 11.2338 176.114 11.2338H175.96C178.186 10.9651 179.568 9.69839 179.568 7.62561C179.568 6.58921 179.3 5.74475 179.146 5.28413H182.025C182.102 5.55283 182.14 5.82152 182.14 6.09021C182.14 8.73877 180.336 10.6964 177.495 11.3106C182.37 11.9631 184.827 16.1087 184.827 20.2158C184.827 25.4746 180.72 29.505 175.077 29.505ZM201.798 17.7592C199.955 19.0643 192.854 19.0259 192.854 26.0503C192.854 29.6969 194.812 31.3091 196.654 31.3091C199.533 31.3091 201.452 27.2019 201.836 23.2099V18.7188C201.836 18.3734 201.798 18.0663 201.798 17.7592ZM206.673 20.1391V28.7757C206.673 29.7353 206.788 31.002 207.018 31.9232L207.057 32H201.836V25.4746C201.222 29.006 199.418 32.3838 194.889 32.3838C191.626 32.3838 188.018 30.3495 188.018 26.1655C188.018 18.2582 200.8 18.4501 201.759 16.838C201.491 13.4217 200.301 12.2318 198.343 12.2318C196.194 12.2318 193.852 14.0743 190.935 18.4118V13.1146C192.854 12.155 195.771 11.4641 198.036 11.4641C202.22 11.4641 206.673 13.7288 206.673 20.1391ZM216.217 28.7757C216.217 29.7353 216.409 31.0404 216.639 32H210.996C211.227 31.0404 211.38 29.7353 211.38 28.7757V7.04983C211.38 6.05183 211.227 4.78513 210.996 3.86389V3.82551H216.217V28.7757ZM223.907 24.1311L233.772 19.3714C232.582 15.8016 229.934 12.5773 226.901 12.5773C224.329 12.5773 222.41 15.0339 222.41 18.6805C222.41 20.6381 222.986 22.327 223.907 24.1311ZM228.552 11.4641C234.194 11.4641 237.073 16.0319 237.611 18.2582L233.887 20.1775V20.1391L224.099 24.8604C225.788 27.8928 228.552 30.1959 231.316 30.1959C232.966 30.1959 235.308 29.3898 236.881 26.2039H237.687C235.576 31.0404 232.045 32.4606 228.705 32.4606C222.871 32.4606 218.956 28.1615 218.956 22.0967C218.956 15.8784 222.986 11.4641 228.552 11.4641Z" fill="black"/>
<path d="M2.46411 69.2236H7.46511L4.99751 62.9395L2.46411 69.2236ZM1.23031 71.1483L4.55334 62.6927L4.71785 62.3308L4.01047 60.4061H6.21486L10.3604 71.1483C10.5085 71.5267 10.7552 72.0202 10.9856 72.3821L11.0514 72.4808H8.5015C8.45215 72.0696 8.30409 71.5267 8.15604 71.1483L7.59671 69.7171H2.2996L1.75673 71.1483C1.59222 71.5267 1.46062 72.0696 1.39482 72.4808H0.687437L0.75324 72.3821C0.983549 72.0202 1.08225 71.5267 1.23031 71.1483ZM15.0038 71.9873H17.1094C18.8532 71.9873 20.0377 71.1319 20.0377 69.2401C20.0377 67.3318 18.8532 66.3283 17.1094 66.3283H15.0038V71.9873ZM16.5995 60.8996H15.0038V65.8019H16.5995C18.3432 65.8019 19.5112 64.8148 19.5112 63.2356C19.5112 61.6234 18.3432 60.8996 16.5995 60.8996ZM17.4549 60.4061C19.9883 60.4061 21.584 61.5082 21.584 63.3507C21.584 64.6997 20.7286 65.5387 19.1658 66.0157C20.7615 66.3118 22.1104 67.2989 22.1104 69.1743C22.1104 71.4773 20.0377 72.4808 17.9813 72.4808H12.7665C12.8816 72.0367 12.931 71.5596 12.931 71.099V61.7879C12.931 61.3108 12.8816 60.8502 12.7665 60.4061H17.4549ZM31.4119 60.9818V63.2685C30.5071 62.0018 28.8291 60.916 27.1841 60.916C26.855 60.916 26.5096 60.9818 26.1806 61.097C24.7987 61.6069 24.3381 62.8572 24.3381 64.3871C24.3381 65.6045 24.6177 66.8876 24.9797 67.8417C25.8186 70.1613 27.4144 71.7241 29.2239 71.7241C29.372 71.7241 29.52 71.7077 29.6681 71.6912C30.8196 71.5267 31.9054 70.7206 32.366 69.9968H32.7115C32.0205 71.0825 31.1651 71.8886 30.0629 72.3163C29.5036 72.5302 28.862 72.6618 28.1711 72.6618C26.2793 72.6618 24.1571 71.6912 23.1701 68.9275C22.8575 68.0885 22.7095 67.2166 22.7095 66.3612C22.7095 63.8607 24.0255 61.5411 26.4438 60.6364C27.1018 60.4061 27.7927 60.2909 28.5001 60.2909C29.5036 60.2909 30.5235 60.5212 31.4119 60.9818ZM36.2919 60.8996H36.2097V71.9873H36.2919C39.1543 71.9873 41.4081 70.0461 41.4081 66.4434C41.4081 62.8407 39.1543 60.8996 36.2919 60.8996ZM37.5093 72.4808H33.9724V72.4644C34.0711 72.0531 34.1369 71.5102 34.1369 71.099V61.7879C34.1369 61.3602 34.0711 60.8173 33.9724 60.4225V60.4061H37.5093C41.0791 60.4061 43.4809 62.7914 43.4809 66.4434C43.4809 70.079 41.0791 72.4808 37.5093 72.4808ZM47.054 71.9873H51.5615C51.9728 71.9873 52.5321 71.9051 52.9269 71.8064H52.9433V72.4808H44.8167V72.4644C44.9154 72.0531 44.9812 71.5102 44.9812 71.099V61.7879C44.9812 61.3602 44.9154 60.8173 44.8167 60.4225V60.4061H52.9433V61.0805H52.9269C52.5321 60.9654 51.9728 60.8996 51.5615 60.8996H47.054V66.5586H49.8342C50.2454 66.5586 50.8048 66.4928 51.1996 66.3941L51.216 66.3776V67.2331H51.1996C50.8048 67.1179 50.2454 67.0521 49.8342 67.0521H47.054V71.9873ZM56.215 72.4479V72.4808H53.7967V72.4644C53.8954 72.0531 53.9612 71.5102 53.9612 71.099V61.7879C53.9612 61.3602 53.8954 60.8173 53.7967 60.4225V60.4061H61.9233V61.0805H61.9069C61.5121 60.9654 60.9528 60.8996 60.5415 60.8996H56.034V66.5586H58.8142C59.2254 66.5586 59.7848 66.5092 60.1796 66.3941L60.196 66.3776V67.2331H60.1796C59.7848 67.1344 59.2254 67.0521 58.8142 67.0521H56.034V71.099C56.034 71.5102 56.1163 72.0531 56.215 72.4479ZM66.564 67.2989H66.5311V66.6244H71.2031V69.9968L71.1866 70.0132C70.5121 71.099 69.6402 71.8886 68.5545 72.3163C67.9952 72.5302 67.3536 72.6618 66.6627 72.6618C64.7709 72.6618 62.6487 71.6912 61.6617 68.9275C61.3491 68.0885 61.2011 67.2166 61.2011 66.3612C61.2011 63.8607 62.5171 61.5411 64.9354 60.6364C65.5934 60.4061 66.2843 60.2909 66.9917 60.2909C67.9952 60.2909 69.0151 60.5212 69.9035 60.9818V63.2685C68.9987 62.0018 67.3207 60.916 65.6756 60.916C65.3466 60.916 65.0012 60.9818 64.6721 61.097C63.2903 61.6069 62.8297 62.8572 62.8297 64.3871C62.8297 65.6045 63.1093 66.8876 63.4712 67.8417C64.3102 70.1613 65.9059 71.7241 67.7155 71.7241C67.8636 71.7241 68.0116 71.7077 68.1597 71.6912C68.4887 71.6583 68.8177 71.5431 69.1303 71.4115V67.1344H67.9129C67.5017 67.1344 66.9752 67.2002 66.564 67.2989ZM82.3909 72.4644V72.4808H79.9727V72.4644C80.0714 72.0531 80.1536 71.5102 80.1536 71.099V66.7725H75.1197V71.099C75.1197 71.5102 75.202 72.0531 75.3007 72.4644V72.4808H72.8824V72.4644C72.9811 72.0531 73.0469 71.5102 73.0469 71.099V61.7879C73.0469 61.3602 72.9811 60.8173 72.8824 60.4225V60.4061H75.3007V60.4225C75.202 60.8173 75.1197 61.3602 75.1197 61.7879V66.2789H80.1536V61.7879C80.1536 61.3602 80.0714 60.8338 79.9727 60.439V60.4061H82.3909V60.439C82.2922 60.8338 82.2264 61.3602 82.2264 61.7879V71.099C82.2264 71.5102 82.2922 72.0531 82.3909 72.4644ZM86.4981 72.4644V72.4808H84.0798V72.4644C84.1785 72.0531 84.2443 71.5102 84.2443 71.099V61.7879C84.2443 61.3602 84.1785 60.8173 84.0798 60.4225V60.4061H86.4981V60.4225C86.3994 60.8173 86.3171 61.3602 86.3171 61.7879V71.099C86.3171 71.5102 86.3994 72.0531 86.4981 72.4644ZM90.5782 60.4061V60.439C90.4795 60.8338 90.3973 61.3602 90.3973 61.7879V71.9873H94.9047C95.316 71.9873 95.8753 71.9051 96.2701 71.8064H96.2866V72.4808H88.16V72.4644C88.2587 72.0696 88.3245 71.5102 88.3245 71.099V61.7879C88.3245 61.3602 88.2587 60.8338 88.16 60.4225V60.4061H90.5782ZM97.8351 72.4644V72.4808H96.9962V72.4644C97.0949 72.0531 97.1607 71.5102 97.1607 71.099V61.7879C97.1607 61.3602 97.0949 60.8173 96.9962 60.4225V60.4061H99.3979L102.951 69.6184L106.587 60.4061H109.087C108.989 60.8173 108.923 61.3602 108.923 61.7879V71.099C108.923 71.5102 108.989 72.0696 109.087 72.4808H106.686C106.784 72.0696 106.85 71.5102 106.85 71.099V60.8338L102.227 72.4808H102.014L97.7035 60.9325L97.6706 61.097V71.099C97.6706 71.5102 97.7364 72.0531 97.8351 72.4644ZM120.075 61.7879V72.4808H119.877L111.405 60.9489V71.099C111.405 71.5102 111.471 72.0696 111.57 72.4808H110.731C110.829 72.0696 110.895 71.5102 110.895 71.099V61.7879C110.895 61.3437 110.829 60.8009 110.731 60.4061H113.445L119.565 68.8617V61.7879C119.565 61.3602 119.499 60.8173 119.4 60.4061H120.239C120.14 60.8173 120.075 61.3602 120.075 61.7879ZM123.327 67.5456C124.38 70.4739 126.716 72.1354 128.608 72.1354C128.953 72.1354 129.282 72.086 129.578 71.9709C130.894 71.4773 131.503 70.0461 131.503 68.3188C131.503 67.3647 131.322 66.3447 130.96 65.3412C129.809 62.1663 127.44 60.7844 125.63 60.7844C125.252 60.7844 124.923 60.8338 124.61 60.9489C123.311 61.426 122.768 62.8736 122.768 64.5023C122.768 65.5058 122.982 66.5915 123.327 67.5456ZM121.534 68.6807C121.271 67.9569 121.139 67.1673 121.139 66.3776C121.139 64.0252 122.324 61.5905 124.873 60.6528C125.548 60.4061 126.255 60.2909 126.963 60.2909C129.397 60.2909 131.849 61.6728 132.786 64.3049C133.049 65.0287 133.181 65.8019 133.181 66.575C133.181 68.9768 131.881 71.3293 129.282 72.267C128.575 72.5302 127.851 72.6453 127.16 72.6453C124.66 72.6453 122.389 71.0661 121.534 68.6807ZM139.188 60.8996H137.082V66.4928H139.188C140.931 66.4928 142.116 65.6703 142.116 63.6962C142.116 61.7386 140.931 60.8996 139.188 60.8996ZM140.06 66.9699H137.082V71.099C137.082 71.5102 137.164 72.0696 137.263 72.4808H134.845C134.943 72.0696 135.009 71.5102 135.009 71.099V61.7879C135.009 61.3437 134.943 60.8009 134.845 60.4061H140.06C142.577 60.4061 144.189 61.7386 144.189 63.7126C144.189 65.7525 142.494 66.9699 140.06 66.9699ZM147.592 69.421C148.727 71.0825 150.322 72.0531 151.721 72.1189C150.701 70.7535 149.813 69.2565 148.464 69.2565C148.184 69.2565 147.871 69.3223 147.592 69.421ZM146.638 67.5456C146.851 68.1379 147.115 68.6478 147.394 69.1084C147.756 68.9933 148.118 68.911 148.529 68.911C150.092 68.911 151.03 70.6877 152.132 72.1189C152.412 72.1025 152.642 72.0531 152.889 71.9709C154.205 71.4773 154.814 70.0461 154.814 68.3188C154.814 67.3647 154.633 66.3447 154.271 65.3412C153.119 62.1663 150.75 60.7844 148.941 60.7844C148.562 60.7844 148.233 60.8338 147.921 60.9489C146.621 61.426 146.078 62.8736 146.078 64.5023C146.078 65.5058 146.292 66.5915 146.638 67.5456ZM144.844 68.6807C144.581 67.9569 144.45 67.1673 144.45 66.3776C144.45 64.0252 145.634 61.5905 148.184 60.6528C148.858 60.4061 149.566 60.2909 150.273 60.2909C152.708 60.2909 155.159 61.6728 156.097 64.3049C156.36 65.0287 156.491 65.8019 156.491 66.575C156.491 68.9768 155.192 71.3293 152.593 72.267C152.51 72.3163 152.428 72.3492 152.313 72.3657C153.037 73.254 153.876 73.9778 155.011 73.9778C155.85 73.9778 156.623 73.6982 157.051 72.925L157.363 73.106C156.821 74.0272 155.949 74.3233 154.929 74.3233C153.662 74.3233 152.774 73.4843 151.968 72.4644C151.474 72.596 150.964 72.6453 150.487 72.6453C147.987 72.6453 145.716 71.0825 144.844 68.6807ZM162.498 60.8996H160.392V66.6409H162.498C164.242 66.6409 165.426 65.6538 165.426 63.6962C165.426 61.7386 164.242 60.8996 162.498 60.8996ZM167.499 72.3163L167.647 72.4808H165.032L164.999 72.4315C164.851 72.0531 164.604 71.5431 164.39 71.1977L161.709 67.1344H160.392V71.099C160.392 71.5102 160.475 72.0696 160.573 72.4808H158.155C158.254 72.0696 158.32 71.5102 158.32 71.099V61.7879C158.32 61.3437 158.254 60.8009 158.155 60.4061H163.37C165.887 60.4061 167.499 61.7386 167.499 63.7126C167.499 65.5716 166.084 66.7725 163.979 66.9534L166.66 71.1977C166.89 71.5431 167.22 72.0038 167.499 72.3163ZM169.958 62.265C169.958 65.4729 175.979 65.5387 175.979 69.3552C175.979 71.3622 174.334 72.6453 171.85 72.6453C170.699 72.6453 169.448 72.3821 168.593 71.9709V69.6842C169.794 71.3128 171.044 72.2012 172.409 72.2012C173.479 72.2012 174.17 71.7406 174.17 70.6055C174.17 67.2331 168.149 67.266 168.149 63.3507C168.149 61.1792 170.008 60.2251 172.015 60.2251C173.084 60.2251 174.351 60.4883 175.173 60.916V63.2027C173.989 61.574 172.821 60.6528 171.587 60.6528C170.534 60.6693 169.958 61.2615 169.958 62.265ZM176.624 60.9654L175.571 61.0805V60.4061H184.734V61.0805L183.698 60.9654C183.286 60.9325 182.727 60.8996 182.332 60.8996H181.197V71.099C181.197 71.5102 181.246 72.0696 181.362 72.4808H178.96C179.058 72.0696 179.124 71.5102 179.124 71.099V60.8996H177.989C177.578 60.8996 177.035 60.9325 176.624 60.9654ZM186.315 68.1214V61.7879C186.315 61.3437 186.25 60.8009 186.151 60.4061H188.569C188.47 60.8009 188.388 61.3437 188.388 61.7879V68.1214C188.388 70.77 189.573 71.9873 191.497 71.9873C192.978 71.9873 194.985 71.3951 194.985 68.1214V61.7879C194.985 61.3602 194.919 60.8338 194.82 60.439V60.4061H195.659V60.439C195.561 60.8338 195.495 61.3602 195.495 61.7879V68.1214C195.495 70.8193 193.784 72.6453 190.872 72.6453C188.059 72.6453 186.315 70.9345 186.315 68.1214ZM205.02 61.7221L201.187 71.0332L200.661 72.4808H200.365L196.219 61.7221C196.071 61.3437 195.825 60.8502 195.594 60.5048L195.528 60.4061H198.078C198.128 60.8173 198.276 61.3437 198.424 61.7221L201.187 69.7665L204.494 61.7221C204.659 61.3437 204.807 60.8173 204.856 60.4061H205.728L205.662 60.5048C205.432 60.8667 205.168 61.3437 205.02 61.7221ZM214.88 60.4061L208.234 71.9873H212.988C213.4 71.9873 213.942 71.9051 214.337 71.8064H214.354V72.4808H205.75L212.396 60.8996H207.642C207.231 60.8996 206.688 60.9654 206.293 61.0805H206.26V60.4061H214.88ZM7.66252 85.3776C6.87289 85.937 3.82951 85.9205 3.82951 88.931C3.82951 90.4938 4.6685 91.1847 5.45813 91.1847C6.69193 91.1847 7.51446 89.4245 7.67897 87.7136V85.7889C7.67897 85.6409 7.66252 85.5092 7.66252 85.3776ZM9.75175 86.3976V90.099C9.75175 90.5102 9.8011 91.0531 9.89981 91.4479L9.91626 91.4808H7.67897V88.6842C7.41576 90.1977 6.64258 91.6453 4.7014 91.6453C3.30309 91.6453 1.75673 90.7735 1.75673 88.9803C1.75673 85.5915 7.2348 85.6738 7.64607 84.9828C7.53091 83.5187 7.02094 83.0087 6.18196 83.0087C5.26072 83.0087 4.25723 83.7984 3.00698 85.6573V83.3871C3.82951 82.9758 5.07976 82.6797 6.05035 82.6797C7.84347 82.6797 9.75175 83.6503 9.75175 86.3976ZM16.1945 91.2505C17.3296 91.2505 18.185 89.6713 18.185 87.105C18.185 84.6045 17.3954 83.0745 16.2274 83.0745C15.0101 83.0745 13.9079 84.769 13.8585 87.2366C13.9079 89.4739 15.0101 91.2505 16.1945 91.2505ZM11.7693 80.7879C11.7693 80.3437 11.7035 79.8009 11.6048 79.4061H13.8421V85.7889C14.1711 83.7984 15.2075 82.6797 16.8361 82.6797C18.7608 82.6797 20.2578 84.4729 20.2578 87.105C20.2578 89.8029 18.6621 91.6453 16.6716 91.6453C15.1417 91.6453 14.1546 90.7077 13.8421 88.6678V91.4808H11.6048C11.7035 91.0696 11.7693 90.5102 11.7693 90.099V80.7879ZM28.2296 83.3871V85.6573C27.3412 84.4564 25.7291 83.1733 24.413 83.1733C23.3602 83.1733 22.4554 83.9135 22.4554 85.6409C22.4554 88.1084 24.3308 90.5431 26.2719 90.5431C26.9793 90.5431 27.9828 90.3622 28.6573 88.9968H29.0027C28.098 91.0696 26.5845 91.6782 25.1533 91.6782C22.6528 91.6782 20.9748 89.8358 20.9748 87.253C20.9748 84.5058 22.8667 82.6797 25.3836 82.6797C26.2884 82.6797 27.3248 82.9265 28.2296 83.3871ZM33.908 91.2505C35.0925 91.2505 36.1782 89.4903 36.2275 87.2695V87.2201C36.1782 84.769 35.0925 83.0745 33.8587 83.0745C32.7071 83.0745 31.9175 84.6045 31.9175 87.105C31.9175 89.6713 32.7565 91.2505 33.908 91.2505ZM38.3003 90.099C38.3003 90.5102 38.3661 91.0696 38.4813 91.4808H36.2275V88.7829C35.8985 90.7406 34.9279 91.6453 33.4145 91.6453C31.4404 91.6453 29.8447 89.8029 29.8447 87.105C29.8447 84.4729 31.3252 82.6797 33.2664 82.6797C34.8457 82.6797 35.8821 83.7326 36.2275 85.6902V80.7879C36.2275 80.3437 36.1617 79.8009 36.063 79.4061H38.3003V90.099ZM41.7979 88.1084L46.0257 86.0686C45.5157 84.5387 44.3806 83.1568 43.081 83.1568C41.9788 83.1568 41.1563 84.2096 41.1563 85.7725C41.1563 86.6114 41.4031 87.3353 41.7979 88.1084ZM43.7884 82.6797C46.2067 82.6797 47.4405 84.6374 47.6708 85.5915L46.0751 86.414V86.3976L41.8801 88.421C42.604 89.7206 43.7884 90.7077 44.9729 90.7077C45.6802 90.7077 46.6837 90.3622 47.3582 88.9968H47.7037C46.7989 91.0696 45.2854 91.6782 43.8542 91.6782C41.3537 91.6782 39.6758 89.8358 39.6758 87.2366C39.6758 84.5716 41.4031 82.6797 43.7884 82.6797ZM50.0403 85.756C50.0403 85.7396 50.0403 85.7231 50.0403 85.6902C50.0403 85.7231 50.0403 85.7396 50.0403 85.756ZM51.0274 83.4529V83.4365H51.0438L51.0274 83.4529ZM54.8933 86.0521C54.663 85.3447 54.2846 84.6703 53.824 84.1438L53.8404 84.1603C54.301 84.6703 54.663 85.3447 54.8933 86.0521ZM50.0403 85.756C50.0403 85.7396 50.0403 85.7231 50.0403 85.6902C50.0403 85.7231 50.0403 85.7396 50.0403 85.756ZM51.0274 83.4529V83.4365H51.0438L51.0274 83.4529ZM54.8933 86.0521C54.663 85.3447 54.2846 84.6703 53.824 84.1438L53.8404 84.1603C54.301 84.6703 54.663 85.3447 54.8933 86.0521ZM56.5383 85.5915L54.9426 86.414V86.3976L50.7641 88.421C51.488 89.7206 52.6724 90.7077 53.8404 90.7077C54.5478 90.7077 55.5513 90.3622 56.2258 88.9968H56.5712C55.6664 91.0696 54.153 91.6782 52.7382 91.6782C50.2377 91.6782 48.5598 89.8358 48.5598 87.2366C48.5598 84.5716 50.2871 82.6797 52.6724 82.6797C55.0742 82.6797 56.308 84.6374 56.5383 85.5915ZM50.6819 88.1084L54.8933 86.0521C54.663 85.3447 54.2846 84.6703 53.824 84.1438L51.0438 83.4365L51.0274 83.4529L50.0403 85.6902C50.0403 85.7231 50.0403 85.7396 50.0403 85.756C50.0403 86.595 50.2871 87.3353 50.6819 88.1084ZM56.5383 85.5915L54.9426 86.414V86.3976L50.7641 88.421C51.488 89.7206 52.6724 90.7077 53.8404 90.7077C54.5478 90.7077 55.5513 90.3622 56.2258 88.9968H56.5712C55.6664 91.0696 54.153 91.6782 52.7382 91.6782C50.2377 91.6782 48.5598 89.8358 48.5598 87.2366C48.5598 84.5716 50.2871 82.6797 52.6724 82.6797C55.0742 82.6797 56.308 84.6374 56.5383 85.5915ZM50.6819 88.1084L54.8933 86.0521C54.663 85.3447 54.2846 84.6703 53.824 84.1438L51.0438 83.4365L51.0274 83.4529L50.0403 85.6902C50.0403 85.7231 50.0403 85.7396 50.0403 85.756C50.0403 86.595 50.2871 87.3353 50.6819 88.1084ZM57.9044 90.099V83.1897H56.7693V82.8442H57.9044V82.4165C57.9044 80.3602 59.0724 79.2251 60.5529 79.2251C61.4577 79.2251 62.3296 79.6528 62.7409 79.9325V82.2191C61.9348 80.3273 61.2603 79.5706 60.7339 79.5706C60.1746 79.5706 59.9772 80.5082 59.9772 82.3343V82.8442H61.8032V83.1897H59.9772V90.099C59.9772 90.5102 60.043 91.0531 60.1581 91.4644V91.4808H57.7399V91.4644C57.8386 91.0531 57.9044 90.5102 57.9044 90.099ZM63.7959 85.0651C63.7959 86.8747 64.9639 89.8193 66.8393 89.8193C67.7934 89.8193 68.2211 89.1119 68.2211 87.9439C68.2211 85.7889 66.8393 83.2226 65.1942 83.2226C64.273 83.2226 63.7959 83.8971 63.7959 85.0651ZM65.8851 90.4115C65.3752 90.4115 64.8981 90.3293 64.4704 90.1648C63.763 90.6583 63.4175 91.3657 63.4175 91.744C63.4175 92.0073 63.582 92.1224 63.8288 92.1224C64.3223 92.1224 65.1942 91.6782 65.8193 91.3657C67.3986 90.5431 68.583 90.1483 69.4056 90.1483C70.3926 90.1483 70.8697 90.7077 70.8697 91.6947C70.8697 93.7017 68.9285 95.1 66.1154 95.1C64.8816 95.1 63.4998 94.8532 62.6279 94.4091V92.1389C63.8288 94.3597 65.079 94.9355 66.2964 94.9355C67.9415 94.9355 69.0601 93.8991 69.0601 92.8298C69.0601 92.3198 68.8133 91.8427 67.925 91.8427C67.6618 91.8427 67.3328 91.8921 66.938 91.9908C66.0167 92.2376 64.7994 92.7475 63.9933 92.7475C63.4998 92.7475 63.1708 92.5501 63.1708 91.9744C63.1708 91.3328 63.6149 90.5925 64.273 90.1154C62.8747 89.5726 62.0192 88.2894 62.0192 86.7266C62.0192 84.4235 63.9275 82.581 66.3293 82.581H66.2635C67.2176 82.4659 67.8099 81.923 67.8099 81.0347C67.8099 80.5905 67.6947 80.2286 67.6289 80.0312H68.8627C68.8956 80.1463 68.912 80.2615 68.912 80.3766C68.912 81.5117 68.1389 82.3507 66.9215 82.6139C69.0107 82.8936 70.0636 84.6703 70.0636 86.4305C70.0636 88.6842 68.3034 90.4115 65.8851 90.4115ZM78.1594 90.099V86.1179C78.1594 83.9629 77.4684 83.1568 76.5472 83.1568C75.297 83.1568 74.3428 84.5222 74.3428 86.3647V90.099C74.3428 90.5102 74.4251 91.0696 74.5238 91.4808H72.1055C72.2042 91.0696 72.27 90.5102 72.27 90.099V80.7879C72.27 80.3602 72.2042 79.8173 72.1055 79.4225V79.4061H74.3428V84.9828C74.7212 83.3542 75.9056 82.4988 77.4191 82.4988C79.0971 82.4988 80.2322 83.7326 80.2322 85.7889V90.099C80.2322 90.5102 80.298 91.0531 80.4131 91.4644V91.4808H77.9949V91.4644C78.0936 91.0531 78.1594 90.5102 78.1594 90.099ZM83.9972 90.099C83.9972 90.5102 84.063 91.0696 84.1617 91.4808H81.7434C81.8421 91.0696 81.9244 90.5102 81.9244 90.099V84.2261C81.9244 83.8148 81.8421 83.272 81.7599 82.8607L81.7434 82.8442H83.9972V90.099ZM81.7105 80.4753C81.8586 79.7351 82.4837 79.2251 83.224 79.2251C83.8491 79.2251 84.2275 79.587 84.2275 80.1628C84.2275 80.2615 84.2275 80.3602 84.1946 80.4753C84.0465 81.2156 83.4378 81.7091 82.6976 81.7091C82.056 81.7091 81.6776 81.3472 81.6776 80.7715C81.6776 80.6728 81.6941 80.574 81.7105 80.4753ZM87.9343 90.099C87.9343 90.5102 88.0165 91.0696 88.1152 91.4808H85.697C85.7957 91.0696 85.8615 90.5102 85.8615 90.099V80.7879C85.8615 80.3602 85.7957 79.8173 85.697 79.4225V79.4061H87.9343V90.099ZM95.0961 90.099V86.1179C95.0961 84.0122 94.6848 83.1568 93.7636 83.1568C92.5956 83.1568 91.7895 84.6538 91.7895 86.3647V90.099C91.7895 90.5102 91.8718 91.0696 91.9705 91.4808H89.5522C89.6509 91.0696 89.7167 90.5102 89.7167 90.099V84.2261C89.7167 83.8148 89.6509 83.272 89.5522 82.8607V82.8442H91.7895V84.9335C92.1514 83.3378 93.2207 82.4988 94.6684 82.4988C96.0996 82.4988 96.9715 83.3542 97.136 85.0486C97.4814 83.3871 98.5672 82.4988 100.031 82.4988C101.611 82.4988 102.532 83.7655 102.532 85.7889V90.099C102.532 90.5102 102.598 91.0531 102.696 91.4644V91.4808H100.295V91.4644C100.393 91.0531 100.459 90.5102 100.459 90.099V86.1179C100.459 84.0122 100.048 83.1568 99.1265 83.1568C97.9585 83.1568 97.1689 84.6538 97.1689 86.3647V90.099C97.1689 90.5102 97.2347 91.0531 97.3334 91.4644V91.4808H94.9151V91.4644C95.0303 91.0531 95.0961 90.5102 95.0961 90.099ZM110.145 90.099V86.1179C110.145 83.9629 109.454 83.1568 108.533 83.1568C107.283 83.1568 106.328 84.5222 106.328 86.3647V90.099C106.328 90.5102 106.411 91.0696 106.509 91.4808H104.091C104.19 91.0696 104.256 90.5102 104.256 90.099V84.2261C104.256 83.8148 104.19 83.272 104.091 82.8607V82.8442H106.328V84.9828C106.707 83.3542 107.891 82.4988 109.405 82.4988C111.083 82.4988 112.218 83.7326 112.218 85.7889V90.099C112.218 90.5102 112.284 91.0531 112.399 91.4644V91.4808H109.98V91.4644C110.079 91.0531 110.145 90.5102 110.145 90.099ZM115.473 88.0426C116.23 90.1319 117.661 91.0696 118.813 91.0696C118.994 91.0696 119.191 91.0531 119.356 90.9873C120.145 90.7077 120.54 90.0167 120.54 88.8816C120.54 88.1743 120.375 87.3517 120.063 86.4963C119.306 84.4071 117.941 83.2226 116.707 83.2226C116.526 83.2226 116.329 83.2555 116.148 83.3213C115.276 83.6339 114.98 84.3906 114.98 85.427C114.98 86.3153 115.194 87.2859 115.473 88.0426ZM113.548 88.7665C113.351 88.2401 113.252 87.6807 113.252 87.1214C113.252 85.3776 114.239 83.6668 116.098 82.9923C116.625 82.7949 117.217 82.6962 117.809 82.6962C119.471 82.6962 121.182 83.5187 121.889 85.4928C122.086 86.0357 122.185 86.5785 122.185 87.1214C122.185 89.0132 121.017 90.7406 119.24 91.3986C118.747 91.5795 118.237 91.6618 117.71 91.6618C115.967 91.6618 114.239 90.6583 113.548 88.7665ZM128.249 91.2505C129.417 91.2505 130.207 89.7206 130.207 87.2366C130.207 84.6703 129.352 83.0745 128.216 83.0745C127.032 83.0745 125.93 84.8512 125.88 87.105C125.93 89.5561 127.032 91.2505 128.249 91.2505ZM123.627 82.8442H125.864V85.6738C126.177 83.6174 127.164 82.6797 128.693 82.6797C130.684 82.6797 132.28 84.5222 132.28 87.2366C132.28 89.8522 130.783 91.6453 128.858 91.6453C127.229 91.6453 126.193 90.5431 125.864 88.5362V93.5536C125.864 93.9649 125.946 94.5242 126.045 94.919V94.9355H123.627V94.919C123.725 94.5242 123.791 93.9649 123.791 93.5536V84.2261C123.791 83.8148 123.725 83.2884 123.627 82.8607V82.8442ZM137.093 91.2505C138.327 91.2505 139.429 89.5726 139.462 87.105C139.429 84.8512 138.327 83.0745 137.142 83.0745C135.991 83.0745 135.152 84.6703 135.152 87.2366C135.152 89.7206 135.941 91.2505 137.093 91.2505ZM139.478 93.5536V88.5362C139.149 90.5431 138.113 91.6453 136.501 91.6453C134.56 91.6453 133.079 89.8522 133.079 87.2366C133.079 84.5222 134.675 82.6797 136.649 82.6797C138.195 82.6797 139.166 83.6174 139.478 85.6738V82.8442H141.732V82.8607C141.617 83.2884 141.551 83.8148 141.551 84.2261V93.5536C141.551 93.9649 141.617 94.5242 141.732 94.919V94.9355H139.314V94.919C139.412 94.5242 139.478 93.9649 139.478 93.5536ZM145.624 90.099C145.624 90.5102 145.706 91.0696 145.805 91.4808H143.387C143.485 91.0696 143.551 90.5102 143.551 90.099V84.2261C143.551 83.8148 143.485 83.272 143.387 82.8607V82.8442H145.624V84.9828C146.002 83.3542 147.187 82.4988 148.7 82.4988C148.881 82.4988 149.029 82.5317 149.177 82.5481V84.259C148.914 84.1603 148.404 84.0287 147.796 84.0287C146.43 84.0287 145.624 84.7361 145.624 86.3647V90.099ZM155.401 90.0003C155.401 88.1907 149.775 88.2401 149.775 85.1802V85.1473C149.775 83.6997 151.074 82.6797 152.933 82.6797C153.838 82.6797 154.858 82.9265 155.763 83.3871V85.6573C154.891 84.4564 153.262 83.1733 151.946 83.1733C151.223 83.1733 150.663 83.601 150.663 84.1603V84.2096C150.663 86.0028 156.289 85.9534 156.289 89.0955C156.289 90.6254 154.957 91.6453 152.884 91.6453C151.864 91.6453 150.844 91.415 149.956 90.938V88.6678C150.828 89.8687 152.456 91.1518 153.888 91.1518C154.759 91.1518 155.401 90.6254 155.401 90.0003ZM162.278 88.6842V90.938C161.867 91.2176 160.995 91.6453 160.09 91.6453C158.609 91.6453 157.441 90.5102 157.441 88.4539V83.1897H156.306V82.8442H157.441V81.2814L159.514 80.426V82.8442H161.34V83.1897H159.514V88.5526C159.514 90.3951 159.712 91.3163 160.271 91.3163C160.797 91.3163 161.472 90.5431 162.278 88.6842ZM169.807 84.2261C169.807 83.7984 169.741 83.272 169.643 82.8442H171.88V90.099C171.88 90.5102 171.946 91.0696 172.061 91.4644V91.4808H169.807V89.3422C169.429 90.9709 168.261 91.8263 166.731 91.8263C165.069 91.8263 163.918 90.5925 163.918 88.5526V84.2261C163.918 83.8148 163.852 83.272 163.753 82.8607V82.8442H165.991V88.2236C165.991 90.3786 166.682 91.0038 167.619 91.0038C168.87 91.0038 169.807 89.8029 169.807 87.9604V84.2261ZM179.939 82.8607L180.268 82.8442H180.811L180.696 82.9923C180.466 83.3213 180.186 83.7819 180.005 84.1603L176.501 91.4808H176.287L172.931 84.1603C172.767 83.7984 172.487 83.3213 172.24 82.9758L172.158 82.8442H174.757V82.8607C174.856 83.272 175.02 83.7984 175.201 84.1603L177.126 89.0955L179.495 84.1603C179.659 83.7819 179.84 83.272 179.939 82.8607ZM188.564 82.8442L183.679 90.9873H187.018C187.429 90.9873 187.989 90.9051 188.384 90.8064H188.4V91.4808H181.129L186.015 83.3542H182.675C182.264 83.3542 181.721 83.42 181.326 83.5187H181.31V82.8442H188.564ZM5.47458 109.099C5.47458 109.51 5.55683 110.07 5.65554 110.481H3.23729C3.33599 110.07 3.4018 109.51 3.4018 109.099V99.6069L2.54636 99.4424L5.47458 98.4061V109.099ZM8.6556 98.768C8.32658 98.8996 7.86596 99.1792 7.4876 99.5082L7.33954 99.6234V99.097L7.37245 99.0805C7.76726 98.9325 8.26078 98.7186 8.67205 98.5706C9.26427 98.3402 9.93875 98.2251 10.5803 98.2251C12.3405 98.2251 14.183 99.1792 14.183 101.071C14.183 104.69 7.50405 106.187 7.4876 108.589H12.538C12.9492 108.589 13.4921 108.507 13.8869 108.408H13.9198V110.481H7.04343V109.329C7.04343 105.858 12.3734 103.127 12.3734 100.232C12.3734 99.2615 11.8141 98.4225 10.4487 98.4061C9.97165 98.4061 9.36297 98.5048 8.6556 98.768ZM18.228 110.645C17.7015 110.645 17.1916 110.58 16.7309 110.431C16.4842 110.349 16.0894 110.135 15.4642 109.823L15.3984 109.79V109.231L15.6123 109.461C16.2374 110.119 16.8954 110.464 17.8331 110.464C19.4947 110.464 20.3172 109.05 20.3172 107.174C20.3172 104.657 18.8531 103.555 17.2245 103.555C16.879 103.555 16.5335 103.604 16.1881 103.703V103.506L19.8895 100.133H15.3984V98.4061H22.0445L16.4513 103.489C16.9448 103.292 17.5699 103.177 18.2115 103.177C20.1691 103.177 22.39 104.197 22.39 106.779C22.39 108.984 20.7614 110.645 18.228 110.645ZM30.6314 107.289H30.4504V109.099C30.4504 109.51 30.5162 110.053 30.6314 110.464V110.481H28.2131V110.464C28.3118 110.053 28.3776 109.51 28.3776 109.099V107.289H23.3602V107.108H28.3776V100.643L30.6314 99.7879V99.8208C30.5162 100.216 30.4504 100.742 30.4504 101.153V107.108H30.6314C31.0426 107.108 31.5855 107.043 31.9968 106.944H32.0132V107.454H31.9968C31.5855 107.355 31.0426 107.289 30.6314 107.289ZM26.3213 99.7221L23.5576 107.108H23.3602L26.1403 99.7221C26.2719 99.3437 26.42 98.8173 26.4693 98.4061H26.9958L26.93 98.5048C26.7161 98.8502 26.4693 99.3437 26.3213 99.7221ZM35.9857 110.645C35.3934 110.645 34.8341 110.547 34.3406 110.349C34.1267 110.234 33.7319 110.02 33.1233 109.675L33.041 109.625V109.083L33.2713 109.313C33.8964 109.987 34.6367 110.464 35.5909 110.464C37.1372 110.464 37.9597 109.05 37.9597 107.043C37.9597 104.772 36.8905 103.407 35.0644 103.407C34.538 103.407 33.9622 103.522 33.3207 103.753V98.4061H37.6143C38.0256 98.4061 38.5849 98.3238 38.9797 98.2251H38.9961V100.298H33.4852V103.506C34.3571 103.127 35.196 102.946 35.9857 102.946C38.2888 102.946 40.0325 104.46 40.0325 106.747C40.0325 108.984 38.4039 110.645 35.9857 110.645ZM43.8804 107.553C44.2917 108.638 45.3116 110.316 46.3974 110.316C46.5454 110.316 46.71 110.283 46.858 110.218C47.4831 109.938 47.6805 109.198 47.6805 108.375C47.6805 107.553 47.4831 106.664 47.2693 106.072C46.8745 105.003 45.8874 103.374 44.8017 103.374C44.6536 103.374 44.4891 103.407 44.3411 103.473C43.6995 103.785 43.4856 104.526 43.4856 105.348C43.4856 106.138 43.6666 106.977 43.8804 107.553ZM45.7558 98.2251V98.4061C43.7488 100.018 43.3869 102.058 43.3705 104.016C43.7653 103.588 44.2424 103.259 44.851 103.078C45.2129 102.963 45.5584 102.914 45.9039 102.914C47.3515 102.914 48.6676 103.851 49.1776 105.332C49.3585 105.809 49.4408 106.302 49.4408 106.796C49.4408 108.786 48.0425 110.645 45.9203 110.645C43.5679 110.645 41.2977 108.359 41.2977 104.986C41.2977 102.305 42.7618 99.7221 45.7558 98.2251ZM51.3661 110.481L51.3826 110.448C51.4813 110.102 51.58 109.56 51.6458 109.099C52.0571 105.611 53.6363 103.325 55.3801 100.298H51.1029C50.6917 100.298 50.1323 100.364 49.7375 100.479H49.7211V98.4061H56.4658L56.1368 99.0312C54.5082 102.716 53.8008 105.134 53.6857 109.099V109.247C53.6857 109.625 53.735 110.102 53.8337 110.464V110.481H51.3661ZM59.4379 108.095C59.9808 109.543 60.9349 110.382 61.9548 110.382C62.1687 110.382 62.399 110.349 62.6129 110.267C63.4683 109.954 63.9618 109.148 63.9618 108.079C63.9618 107.602 63.8631 107.076 63.6657 106.533C63.1228 105.069 62.1193 104.164 61.0994 104.164C60.8855 104.164 60.6717 104.213 60.4743 104.279C59.6024 104.608 59.1418 105.447 59.1418 106.516C59.1418 106.993 59.2405 107.536 59.4379 108.095ZM59.7998 101.861C60.2275 102.996 61.05 103.67 61.9055 103.67C62.1029 103.67 62.2838 103.637 62.4813 103.572C63.2051 103.292 63.6164 102.65 63.6164 101.795C63.6164 101.4 63.5341 100.972 63.3531 100.512C62.909 99.3273 62.0042 98.4883 61.0994 98.4883C60.9349 98.4883 60.7704 98.5048 60.6059 98.5706C59.915 98.8338 59.5201 99.5576 59.5201 100.462C59.5201 100.907 59.6188 101.384 59.7998 101.861ZM57.4638 108.721C57.3322 108.375 57.2828 108.03 57.2828 107.684C57.2828 106.187 58.4344 104.822 60.4085 104.114C60.4414 104.114 60.4743 104.098 60.5072 104.082C59.2076 104.049 58.2041 103.456 57.8093 102.436C57.7106 102.173 57.6612 101.91 57.6612 101.63C57.6612 100.347 58.7634 99.0641 60.5894 98.3896C61.2639 98.1428 61.889 98.0277 62.4648 98.0277C63.8302 98.0277 64.8666 98.6693 65.2779 99.7221C65.393 100.018 65.4424 100.298 65.4424 100.594C65.4424 101.861 64.406 103.062 62.6293 103.72C62.6129 103.72 62.5964 103.736 62.5635 103.736C64.0112 103.785 65.1134 104.509 65.574 105.792C65.7056 106.154 65.7714 106.533 65.7714 106.878C65.7714 108.375 64.6363 109.724 62.7116 110.448C62.0206 110.695 61.3462 110.81 60.7375 110.81C59.1747 110.81 57.9409 110.053 57.4638 108.721ZM72.0243 101.482C71.5966 100.397 70.5931 98.7022 69.5567 98.7022C69.4251 98.7022 69.277 98.7351 69.1454 98.8009C68.5697 99.0805 68.3723 99.8044 68.3723 100.594C68.3723 101.433 68.5861 102.338 68.8164 102.946C69.2112 104.016 70.1818 105.661 71.2182 105.661C71.3663 105.661 71.5143 105.628 71.6624 105.546C72.2382 105.25 72.4356 104.526 72.4356 103.736C72.4356 102.93 72.2382 102.075 72.0243 101.482ZM70.1489 110.81V110.629C72.1559 109.017 72.5014 106.96 72.5178 105.003C72.1395 105.43 71.6624 105.776 71.1031 105.957C70.7741 106.072 70.445 106.121 70.0996 106.121C68.7177 106.121 67.4181 105.184 66.8753 103.703C66.7107 103.243 66.6285 102.765 66.6285 102.288C66.6285 100.281 68.0597 98.3896 70.3792 98.3896C72.9126 98.3896 74.6071 100.66 74.6071 103.736C74.6071 106.878 72.8304 109.444 70.1489 110.81ZM78.33 104.723C78.9223 108.112 80.2712 110.382 81.6202 110.382C81.7024 110.382 81.7682 110.382 81.834 110.366C82.8375 110.185 83.3804 108.836 83.3804 106.779C83.3804 105.973 83.2817 105.052 83.1172 104.049C82.5085 100.627 81.2418 98.4883 79.8929 98.4883C79.8271 98.4883 79.7448 98.4883 79.679 98.5048C78.6591 98.7022 78.0833 100.051 78.0833 102.107C78.0833 102.897 78.1655 103.769 78.33 104.723ZM76.2408 104.542C76.2408 100.791 78.2149 98.2251 80.8305 98.2251C83.4298 98.2251 85.2229 100.709 85.2229 104.427C85.2229 108.128 83.4298 110.645 80.7483 110.645C78.0668 110.645 76.2408 108.178 76.2408 104.542Z" fill="#4D4D4D"/>
<path d="M13.7246 183.98C11.575 183.98 9.71976 183.455 8.15878 182.406C6.59779 181.357 5.39507 179.949 4.5506 178.184C3.71893 176.405 3.30309 174.435 3.30309 172.272V156.611H5.99003V172.272C5.99003 173.91 6.29071 175.414 6.89208 176.783C7.49344 178.152 8.3699 179.246 9.52144 180.065C10.673 180.883 12.074 181.293 13.7246 181.293C15.4135 181.293 16.8274 180.883 17.9661 180.065C19.1177 179.233 19.9877 178.132 20.5763 176.763C21.1649 175.394 21.4591 173.897 21.4591 172.272V156.611H24.1461V172.272C24.1461 173.897 23.903 175.42 23.4168 176.84C22.9434 178.248 22.2524 179.489 21.344 180.564C20.4483 181.638 19.3544 182.476 18.0621 183.078C16.7826 183.679 15.3367 183.98 13.7246 183.98ZM28.4932 183.481V164.288H31.1801V166.937C31.8582 165.964 32.7411 165.19 33.8287 164.615C34.9162 164.039 36.0998 163.751 37.3793 163.751C38.1214 163.751 38.8379 163.847 39.5288 164.039L38.4348 166.707C37.8975 166.54 37.3729 166.457 36.8611 166.457C35.8247 166.457 34.8714 166.713 34.0014 167.225C33.1441 167.737 32.4596 168.421 31.9478 169.278C31.436 170.136 31.1801 171.089 31.1801 172.138V183.481H28.4932ZM51.2824 163.751C53.1504 163.751 54.8458 164.205 56.3684 165.114C57.9038 166.022 59.1257 167.244 60.0341 168.779C60.9426 170.302 61.3968 171.997 61.3968 173.865C61.3968 175.26 61.1345 176.571 60.6099 177.8C60.0853 179.015 59.356 180.09 58.422 181.024C57.5007 181.945 56.426 182.668 55.1976 183.193C53.9821 183.717 52.677 183.98 51.2824 183.98C49.6958 183.98 48.3267 183.602 47.1752 182.847C46.0237 182.093 45.1152 181.107 44.4499 179.892V183.481H41.7629V154.692H44.4499V167.839C45.1152 166.623 46.0237 165.638 47.1752 164.883C48.3267 164.128 49.6958 163.751 51.2824 163.751ZM51.2632 181.35C52.6322 181.35 53.8734 181.018 54.9865 180.352C56.0997 179.674 56.9889 178.766 57.6543 177.627C58.3196 176.488 58.6523 175.234 58.6523 173.865C58.6523 172.458 58.3132 171.191 57.6351 170.065C56.9569 168.927 56.0549 168.024 54.9289 167.359C53.8158 166.694 52.5939 166.361 51.2632 166.361C49.9069 166.361 48.7298 166.7 47.7318 167.378C46.7466 168.056 45.9853 168.965 45.4479 170.104C44.9233 171.242 44.661 172.496 44.661 173.865C44.661 175.26 44.9297 176.527 45.4671 177.665C46.0045 178.791 46.7658 179.687 47.751 180.352C48.749 181.018 49.9197 181.35 51.2632 181.35ZM80.2552 164.288H82.9421V183.481H80.2552L80.1592 179.911C79.5322 181.127 78.6558 182.112 77.5298 182.867C76.4039 183.609 75.0604 183.98 73.4994 183.98C72.092 183.98 70.7741 183.717 69.5458 183.193C68.3175 182.655 67.2363 181.92 66.3023 180.986C65.3682 180.052 64.6389 178.971 64.1143 177.742C63.5897 176.514 63.3274 175.196 63.3274 173.789C63.3274 172.407 63.5833 171.108 64.0951 169.893C64.6197 168.677 65.3362 167.609 66.2447 166.687C67.1659 165.766 68.2279 165.05 69.4306 164.538C70.6461 164.013 71.9448 163.751 73.3267 163.751C74.9261 163.751 76.3207 164.135 77.5106 164.902C78.7006 165.657 79.6474 166.649 80.3511 167.877L80.2552 164.288ZM73.4418 181.37C74.8109 181.37 75.988 181.037 76.9733 180.372C77.9585 179.693 78.7134 178.785 79.238 177.646C79.7753 176.508 80.044 175.254 80.044 173.885C80.044 172.477 79.7753 171.21 79.238 170.084C78.7006 168.946 77.9393 168.044 76.9541 167.378C75.9688 166.713 74.7981 166.38 73.4418 166.38C72.0856 166.38 70.8445 166.719 69.7185 167.398C68.6054 168.063 67.7161 168.965 67.0508 170.104C66.3982 171.242 66.0719 172.503 66.0719 173.885C66.0719 175.279 66.411 176.546 67.0891 177.685C67.7673 178.811 68.6629 179.706 69.7761 180.372C70.902 181.037 72.124 181.37 73.4418 181.37ZM103.518 171.601V183.481H100.832V172.138C100.832 171.089 100.576 170.136 100.064 169.278C99.5521 168.421 98.8675 167.737 98.0103 167.225C97.153 166.713 96.1998 166.457 95.1506 166.457C94.1142 166.457 93.161 166.713 92.2909 167.225C91.4337 167.737 90.7491 168.421 90.2373 169.278C89.7255 170.136 89.4696 171.089 89.4696 172.138V183.481H86.7827V164.288H89.4696V166.937C90.1478 165.964 91.0306 165.19 92.1182 164.615C93.2058 164.039 94.3893 163.751 95.6688 163.751C97.1146 163.751 98.4325 164.103 99.6224 164.807C100.812 165.51 101.759 166.457 102.463 167.647C103.167 168.837 103.518 170.155 103.518 171.601ZM107.362 164.288H110.049V183.481H107.362V164.288ZM108.725 160.93C108.29 160.93 107.919 160.789 107.612 160.507C107.317 160.213 107.17 159.848 107.17 159.413C107.17 158.978 107.317 158.62 107.612 158.339C107.919 158.044 108.29 157.897 108.725 157.897C109.147 157.897 109.505 158.044 109.8 158.339C110.107 158.62 110.26 158.978 110.26 159.413C110.26 159.848 110.113 160.213 109.819 160.507C109.524 160.789 109.16 160.93 108.725 160.93ZM120.452 183.845C119.403 183.82 118.379 183.628 117.381 183.27C116.383 182.911 115.513 182.425 114.771 181.811C114.029 181.197 113.498 180.5 113.178 179.719L115.501 178.721C115.705 179.22 116.083 179.681 116.633 180.103C117.196 180.512 117.836 180.845 118.552 181.101C119.269 181.344 119.979 181.466 120.683 181.466C121.463 181.466 122.192 181.338 122.87 181.082C123.549 180.826 124.099 180.461 124.521 179.988C124.956 179.502 125.174 178.932 125.174 178.28C125.174 177.576 124.943 177.026 124.483 176.629C124.022 176.22 123.44 175.9 122.736 175.669C122.032 175.426 121.309 175.196 120.567 174.979C119.211 174.607 118.015 174.198 116.978 173.75C115.942 173.302 115.13 172.733 114.541 172.042C113.965 171.338 113.677 170.436 113.677 169.336C113.677 168.172 114.004 167.167 114.656 166.323C115.321 165.465 116.185 164.807 117.247 164.346C118.322 163.873 119.467 163.636 120.683 163.636C122.244 163.636 123.664 163.975 124.943 164.653C126.236 165.331 127.17 166.233 127.745 167.359L125.577 168.645C125.346 168.12 124.982 167.666 124.483 167.282C123.984 166.899 123.414 166.598 122.774 166.38C122.148 166.163 121.508 166.048 120.855 166.035C120.036 166.022 119.275 166.144 118.571 166.4C117.868 166.643 117.298 167.007 116.863 167.493C116.441 167.98 116.23 168.575 116.23 169.278C116.23 169.982 116.441 170.519 116.863 170.891C117.285 171.249 117.855 171.543 118.571 171.773C119.301 171.991 120.12 172.247 121.028 172.541C122.192 172.912 123.286 173.334 124.31 173.808C125.333 174.281 126.159 174.87 126.786 175.573C127.413 176.277 127.72 177.166 127.707 178.241C127.707 179.393 127.361 180.397 126.671 181.254C125.98 182.112 125.084 182.771 123.984 183.231C122.883 183.679 121.706 183.884 120.452 183.845ZM140.823 166.975H136.236L136.216 183.481H133.529L133.549 166.975H130.075V164.288H133.549L133.529 158.262H136.216L136.236 164.288H140.823V166.975Z" fill="black"/>
<path d="M5.84472 212.446H7.27593L11.4708 223.962H10.2453L9.34871 221.494H3.78016L2.8836 223.962H1.65803L5.84472 212.446ZM4.19965 220.342H8.92099L6.56032 213.861L4.19965 220.342ZM13.0077 223.962V212.446H16.8983C17.4576 212.446 17.9648 212.561 18.42 212.792C18.8806 213.016 19.2452 213.348 19.5139 213.787C19.7881 214.22 19.9252 214.746 19.9252 215.366C19.9252 215.717 19.8621 216.052 19.736 216.37C19.6099 216.688 19.4454 216.959 19.2425 217.184C19.0396 217.403 18.8203 217.546 18.5845 217.612C18.9244 217.699 19.2178 217.853 19.4646 218.072C19.7113 218.286 19.9142 218.541 20.0733 218.837C20.2323 219.128 20.3474 219.435 20.4187 219.758C20.4955 220.082 20.5339 220.4 20.5339 220.713C20.5339 221.36 20.3913 221.927 20.1062 222.415C19.8265 222.903 19.4509 223.284 18.9793 223.559C18.5077 223.827 17.984 223.962 17.4082 223.962H13.0077ZM14.1592 222.933H17.3178C17.7181 222.933 18.08 222.829 18.4035 222.621C18.7325 222.412 18.993 222.127 19.1849 221.765C19.3823 221.403 19.481 220.995 19.481 220.54C19.481 220.134 19.3823 219.753 19.1849 219.396C18.993 219.035 18.7325 218.744 18.4035 218.525C18.08 218.3 17.7181 218.187 17.3178 218.187H14.1592V222.933ZM14.1592 217.176H16.7996C17.3424 217.176 17.8058 217.019 18.1897 216.707C18.579 216.389 18.7737 215.939 18.7737 215.358C18.7737 214.722 18.579 214.25 18.1897 213.943C17.8058 213.631 17.3424 213.474 16.7996 213.474H14.1592V217.176ZM27.5109 224.175C26.7322 224.175 26.0002 224.022 25.3147 223.715C24.6293 223.402 24.0261 222.975 23.5051 222.432C22.9897 221.883 22.5839 221.247 22.2878 220.523C21.9972 219.8 21.8519 219.026 21.8519 218.204C21.8519 217.381 21.9972 216.608 22.2878 215.884C22.5839 215.16 22.9897 214.527 23.5051 213.984C24.0261 213.436 24.6293 213.008 25.3147 212.701C26.0002 212.389 26.7322 212.232 27.5109 212.232C28.4431 212.232 29.3013 212.449 30.0854 212.882C30.8696 213.315 31.5194 213.891 32.0348 214.609L31.0149 215.16C30.6091 214.618 30.0936 214.187 29.4685 213.869C28.8489 213.546 28.1963 213.384 27.5109 213.384C26.8803 213.384 26.2908 213.513 25.7424 213.77C25.1996 214.023 24.7225 214.371 24.3112 214.815C23.9 215.259 23.5792 215.772 23.3489 216.353C23.1186 216.934 23.0034 217.551 23.0034 218.204C23.0034 218.867 23.1186 219.49 23.3489 220.071C23.5847 220.652 23.9082 221.165 24.3195 221.609C24.7362 222.053 25.216 222.401 25.7589 222.654C26.3072 222.9 26.8912 223.024 27.5109 223.024C28.2237 223.024 28.8845 222.862 29.4932 222.539C30.1073 222.21 30.6146 221.782 31.0149 221.255L32.0348 221.807C31.5194 222.525 30.8696 223.101 30.0854 223.534C29.3013 223.962 28.4431 224.175 27.5109 224.175ZM33.7317 223.962V212.446H37.54C38.3351 212.446 39.0809 212.597 39.7773 212.898C40.4737 213.195 41.0851 213.609 41.6115 214.141C42.138 214.667 42.5492 215.278 42.8453 215.975C43.1469 216.666 43.2977 217.409 43.2977 218.204C43.2977 218.999 43.1469 219.745 42.8453 220.441C42.5492 221.132 42.138 221.743 41.6115 222.275C41.0851 222.802 40.4737 223.216 39.7773 223.517C39.0809 223.813 38.3351 223.962 37.54 223.962H33.7317ZM34.8832 222.81H37.54C38.1761 222.81 38.7711 222.692 39.3249 222.456C39.8842 222.215 40.375 221.883 40.7972 221.461C41.2195 221.039 41.5485 220.551 41.7843 219.997C42.0255 219.438 42.1462 218.84 42.1462 218.204C42.1462 217.568 42.0255 216.973 41.7843 216.419C41.5485 215.86 41.2167 215.369 40.789 214.947C40.3668 214.524 39.8787 214.195 39.3249 213.96C38.7711 213.718 38.1761 213.598 37.54 213.598H34.8832V222.81ZM44.8166 223.962V212.446H51.8246V213.598H45.9681V217.217H50.8129V218.368H45.9681V222.81H51.8246V223.962H44.8166ZM53.7488 223.962V212.446H60.4853V213.598H54.9003V217.217H59.6957V218.368H54.9003V223.962H53.7488ZM66.6537 224.175C65.864 224.175 65.1238 224.022 64.4328 223.715C63.7474 223.402 63.1469 222.972 62.6315 222.423C62.116 221.87 61.713 221.233 61.4224 220.515C61.1317 219.791 60.9864 219.018 60.9864 218.196C60.9864 217.357 61.1372 216.575 61.4388 215.851C61.7404 215.128 62.1544 214.497 62.6808 213.96C63.2073 213.417 63.8105 212.994 64.4904 212.693C65.1759 212.391 65.9024 212.24 66.6701 212.24C67.553 212.24 68.3865 212.446 69.1706 212.857C69.9603 213.269 70.6293 213.853 71.1776 214.609L70.1494 215.169C69.7108 214.593 69.1816 214.151 68.562 213.844C67.9478 213.537 67.3144 213.384 66.6619 213.384C66.0423 213.384 65.4583 213.51 64.9099 213.762C64.367 214.009 63.8872 214.354 63.4705 214.799C63.0537 215.243 62.7275 215.755 62.4917 216.337C62.2559 216.918 62.138 217.543 62.138 218.212C62.138 218.876 62.2559 219.498 62.4917 220.079C62.7275 220.66 63.051 221.173 63.4623 221.617C63.879 222.056 64.3616 222.401 64.9099 222.654C65.4583 222.9 66.045 223.024 66.6701 223.024C67.1856 223.024 67.6736 222.936 68.1342 222.761C68.6003 222.58 69.0253 222.327 69.4092 222.004C69.793 221.68 70.1165 221.302 70.3798 220.869C70.6484 220.436 70.8431 219.964 70.9638 219.454H67.8546V218.409H72.3045C72.288 219.205 72.129 219.95 71.8274 220.647C71.5258 221.343 71.1145 221.957 70.5936 222.489C70.0782 223.016 69.4832 223.43 68.8087 223.731C68.1397 224.027 67.4214 224.175 66.6537 224.175ZM81.1719 212.446H82.3234V223.962H81.1719V218.368H75.1263V223.962H73.9747V212.446H75.1263V217.217H81.1719V212.446ZM84.5514 223.962V212.446H85.7029V223.962H84.5514ZM87.9192 223.962V212.446H89.0708V222.81H94.3597V223.962H87.9192ZM96.1767 223.962L98.4058 212.446H99.2447L102.469 220.918L105.677 212.446H106.516L108.753 223.962H107.577L105.874 215.152L102.831 223.205H102.091L99.0473 215.152L97.3447 223.962H96.1767ZM110.459 223.962V212.446H111.709L117.787 221.881V212.446H118.939V223.962H117.697L111.61 214.527V223.962H110.459ZM126.263 224.175C125.485 224.175 124.753 224.022 124.067 223.715C123.382 223.402 122.779 222.972 122.258 222.423C121.737 221.875 121.328 221.242 121.032 220.523C120.736 219.8 120.588 219.026 120.588 218.204C120.588 217.381 120.736 216.611 121.032 215.892C121.328 215.169 121.737 214.533 122.258 213.984C122.779 213.436 123.382 213.008 124.067 212.701C124.753 212.389 125.485 212.232 126.263 212.232C127.048 212.232 127.782 212.389 128.468 212.701C129.153 213.008 129.756 213.436 130.277 213.984C130.798 214.533 131.204 215.169 131.495 215.892C131.791 216.611 131.939 217.381 131.939 218.204C131.939 219.026 131.791 219.8 131.495 220.523C131.204 221.242 130.798 221.875 130.277 222.423C129.756 222.972 129.153 223.402 128.468 223.715C127.782 224.022 127.048 224.175 126.263 224.175ZM126.263 223.024C126.894 223.024 127.481 222.898 128.024 222.645C128.572 222.388 129.052 222.037 129.463 221.593C129.88 221.148 130.203 220.636 130.434 220.055C130.669 219.473 130.787 218.856 130.787 218.204C130.787 217.546 130.669 216.926 130.434 216.345C130.198 215.758 129.872 215.245 129.455 214.807C129.044 214.363 128.564 214.014 128.015 213.762C127.473 213.51 126.889 213.384 126.263 213.384C125.633 213.384 125.043 213.513 124.495 213.77C123.952 214.023 123.472 214.371 123.056 214.815C122.644 215.259 122.321 215.772 122.085 216.353C121.855 216.934 121.739 217.551 121.739 218.204C121.739 218.867 121.857 219.49 122.093 220.071C122.329 220.652 122.652 221.165 123.064 221.609C123.481 222.053 123.96 222.401 124.503 222.654C125.052 222.9 125.638 223.024 126.263 223.024ZM133.608 223.962V212.446H137.293C137.907 212.446 138.461 212.597 138.955 212.898C139.448 213.195 139.84 213.598 140.131 214.108C140.427 214.612 140.575 215.18 140.575 215.81C140.575 216.446 140.424 217.019 140.123 217.529C139.827 218.039 139.429 218.442 138.93 218.738C138.437 219.035 137.891 219.183 137.293 219.183H134.76V223.962H133.608ZM134.76 218.031H137.203C137.609 218.031 137.979 217.932 138.313 217.735C138.653 217.532 138.922 217.261 139.119 216.921C139.322 216.575 139.424 216.186 139.424 215.753C139.424 215.319 139.322 214.933 139.119 214.593C138.922 214.247 138.653 213.976 138.313 213.779C137.979 213.576 137.609 213.474 137.203 213.474H134.76V218.031ZM152.517 224.159L151.144 222.785C150.661 223.213 150.113 223.548 149.499 223.789C148.89 224.03 148.246 224.151 147.566 224.151C146.782 224.151 146.047 223.997 145.361 223.69C144.676 223.378 144.073 222.95 143.552 222.407C143.031 221.859 142.622 221.223 142.326 220.499C142.036 219.775 141.89 219.002 141.89 218.179C141.89 217.357 142.036 216.586 142.326 215.868C142.622 215.144 143.031 214.508 143.552 213.96C144.073 213.411 144.676 212.983 145.361 212.676C146.047 212.364 146.782 212.208 147.566 212.208C148.35 212.208 149.082 212.364 149.762 212.676C150.447 212.983 151.051 213.411 151.571 213.96C152.092 214.508 152.498 215.144 152.789 215.868C153.085 216.586 153.233 217.357 153.233 218.179C153.233 218.903 153.118 219.586 152.888 220.227C152.657 220.869 152.339 221.447 151.933 221.963L153.332 223.345L152.517 224.159ZM147.566 222.999C148.065 222.999 148.553 222.909 149.03 222.728C149.512 222.547 149.937 222.289 150.305 221.955L148.602 220.252L149.416 219.429L151.086 221.107C151.41 220.696 151.656 220.238 151.826 219.734C151.996 219.229 152.081 218.711 152.081 218.179C152.081 217.516 151.964 216.893 151.728 216.312C151.492 215.731 151.166 215.218 150.749 214.774C150.338 214.33 149.858 213.984 149.309 213.737C148.767 213.485 148.185 213.359 147.566 213.359C146.935 213.359 146.346 213.488 145.797 213.746C145.254 213.998 144.775 214.349 144.358 214.799C143.947 215.243 143.623 215.755 143.387 216.337C143.157 216.912 143.042 217.527 143.042 218.179C143.042 218.843 143.16 219.465 143.395 220.046C143.631 220.628 143.958 221.14 144.374 221.584C144.791 222.029 145.271 222.377 145.814 222.629C146.362 222.876 146.946 222.999 147.566 222.999ZM155.023 223.962V212.446H158.93C159.544 212.446 160.098 212.597 160.592 212.898C161.085 213.195 161.477 213.598 161.768 214.108C162.059 214.612 162.204 215.18 162.204 215.81C162.204 216.375 162.089 216.888 161.858 217.348C161.628 217.809 161.313 218.19 160.912 218.492C160.518 218.793 160.071 218.993 159.572 219.092L162.385 223.962H161.052L158.28 219.183H156.175V223.962H155.023ZM156.175 218.031H158.831C159.237 218.031 159.607 217.932 159.942 217.735C160.282 217.532 160.551 217.261 160.748 216.921C160.951 216.575 161.052 216.186 161.052 215.753C161.052 215.319 160.951 214.933 160.748 214.593C160.551 214.247 160.282 213.976 159.942 213.779C159.607 213.576 159.237 213.474 158.831 213.474H156.175V218.031ZM168.154 224.175C167.54 224.175 166.945 224.079 166.369 223.888C165.799 223.696 165.3 223.421 164.872 223.065C164.445 222.709 164.143 222.284 163.968 221.79L165.045 221.387C165.166 221.727 165.385 222.02 165.703 222.267C166.027 222.508 166.402 222.695 166.83 222.826C167.263 222.958 167.705 223.024 168.154 223.024C168.681 223.024 169.171 222.936 169.627 222.761C170.082 222.585 170.449 222.341 170.729 222.029C171.008 221.711 171.148 221.338 171.148 220.91C171.148 220.477 171.003 220.12 170.712 219.841C170.422 219.561 170.046 219.342 169.585 219.183C169.13 219.018 168.653 218.892 168.154 218.804C167.37 218.667 166.665 218.481 166.04 218.245C165.421 218.009 164.93 217.677 164.568 217.25C164.206 216.816 164.025 216.246 164.025 215.539C164.025 214.875 164.217 214.3 164.601 213.811C164.985 213.323 165.489 212.945 166.114 212.676C166.745 212.408 167.425 212.273 168.154 212.273C168.752 212.273 169.336 212.367 169.906 212.553C170.477 212.739 170.978 213.011 171.411 213.367C171.85 213.724 172.165 214.16 172.357 214.675L171.263 215.07C171.143 214.725 170.921 214.431 170.597 214.19C170.279 213.943 169.906 213.757 169.479 213.631C169.051 213.499 168.609 213.433 168.154 213.433C167.633 213.428 167.145 213.515 166.69 213.696C166.24 213.872 165.876 214.119 165.596 214.437C165.317 214.749 165.177 215.117 165.177 215.539C165.177 216.032 165.306 216.413 165.563 216.682C165.826 216.945 166.183 217.143 166.633 217.274C167.082 217.406 167.589 217.524 168.154 217.628C168.889 217.754 169.572 217.952 170.202 218.22C170.833 218.483 171.34 218.837 171.724 219.281C172.108 219.72 172.3 220.263 172.3 220.91C172.3 221.568 172.108 222.144 171.724 222.637C171.34 223.125 170.833 223.504 170.202 223.772C169.577 224.041 168.895 224.175 168.154 224.175ZM182.45 212.446V213.598H178.501V223.962H177.35V213.598H173.41V212.446H182.45ZM188.567 224.175C187.646 224.175 186.851 223.951 186.182 223.501C185.513 223.051 184.998 222.448 184.636 221.691C184.279 220.929 184.101 220.085 184.101 219.158V212.446H185.253V219.158C185.253 219.86 185.381 220.504 185.639 221.091C185.897 221.678 186.272 222.146 186.766 222.497C187.26 222.848 187.86 223.024 188.567 223.024C189.291 223.024 189.897 222.848 190.385 222.497C190.879 222.141 191.252 221.669 191.504 221.083C191.756 220.496 191.882 219.854 191.882 219.158V212.446H193.034V219.158C193.034 219.854 192.929 220.507 192.721 221.116C192.518 221.719 192.222 222.251 191.833 222.711C191.449 223.172 190.98 223.531 190.426 223.789C189.878 224.047 189.258 224.175 188.567 224.175ZM198.587 223.962L194.409 212.446H195.626L199.278 222.514L202.947 212.446H204.164L199.977 223.962H198.587ZM205.139 223.962V222.81L212.911 213.598H205.139V212.446H214.45V213.598L206.677 222.81H214.45V223.962H205.139ZM8.74826 235.736H9.89981V243.962H8.74826L8.70713 242.432C8.43844 242.953 8.06282 243.375 7.58026 243.698C7.09771 244.016 6.52194 244.175 5.85294 244.175C5.24975 244.175 4.68495 244.063 4.15853 243.838C3.63211 243.608 3.16875 243.293 2.76845 242.892C2.36815 242.492 2.05558 242.029 1.83076 241.502C1.60593 240.976 1.49352 240.411 1.49352 239.808C1.49352 239.216 1.60319 238.659 1.82253 238.138C2.04736 237.617 2.35444 237.159 2.74377 236.764C3.13859 236.37 3.59372 236.062 4.10917 235.843C4.63011 235.618 5.18669 235.506 5.77892 235.506C6.46436 235.506 7.06207 235.67 7.57204 235.999C8.08201 236.323 8.48779 236.748 8.78939 237.274L8.74826 235.736ZM5.82827 243.057C6.41501 243.057 6.9195 242.914 7.34173 242.629C7.76396 242.338 8.08749 241.949 8.31232 241.461C8.54263 240.973 8.65778 240.436 8.65778 239.849C8.65778 239.246 8.54263 238.703 8.31232 238.22C8.08201 237.732 7.75574 237.346 7.3335 237.06C6.91127 236.775 6.40953 236.633 5.82827 236.633C5.24701 236.633 4.71511 236.778 4.23255 237.069C3.75549 237.354 3.37438 237.74 3.08923 238.228C2.80957 238.717 2.66974 239.257 2.66974 239.849C2.66974 240.447 2.81506 240.989 3.10568 241.477C3.39631 241.96 3.78016 242.344 4.25723 242.629C4.73978 242.914 5.26346 243.057 5.82827 243.057ZM15.738 235.506C16.5386 235.506 17.2652 235.701 17.9177 236.09C18.5757 236.479 19.0994 237.003 19.4887 237.661C19.8781 238.313 20.0727 239.04 20.0727 239.841C20.0727 240.438 19.9603 241 19.7355 241.527C19.5107 242.048 19.1981 242.508 18.7978 242.909C18.403 243.304 17.9424 243.613 17.416 243.838C16.895 244.063 16.3357 244.175 15.738 244.175C15.058 244.175 14.4713 244.014 13.9778 243.69C13.4843 243.367 13.0949 242.944 12.8098 242.423V243.962H11.6582V231.624H12.8098V237.258C13.0949 236.737 13.4843 236.315 13.9778 235.991C14.4713 235.668 15.058 235.506 15.738 235.506ZM15.7298 243.049C16.3165 243.049 16.8484 242.906 17.3255 242.621C17.8025 242.33 18.1837 241.941 18.4688 241.453C18.7539 240.965 18.8965 240.427 18.8965 239.841C18.8965 239.237 18.7512 238.695 18.4606 238.212C18.1699 237.724 17.7834 237.337 17.3008 237.052C16.8237 236.767 16.3001 236.625 15.7298 236.625C15.1485 236.625 14.644 236.77 14.2163 237.06C13.7941 237.351 13.4678 237.74 13.2375 238.228C13.0127 238.717 12.9003 239.254 12.9003 239.841C12.9003 240.438 13.0154 240.981 13.2457 241.469C13.476 241.952 13.8023 242.336 14.2245 242.621C14.6522 242.906 15.154 243.049 15.7298 243.049ZM27.2666 241.897L28.2947 242.456C27.9218 242.977 27.4475 243.394 26.8717 243.707C26.3015 244.019 25.6818 244.175 25.0128 244.175C24.2561 244.175 23.5652 243.981 22.94 243.591C22.3204 243.202 21.8241 242.681 21.4513 242.029C21.0839 241.371 20.9002 240.644 20.9002 239.849C20.9002 239.246 21.0071 238.684 21.2209 238.163C21.4348 237.636 21.7282 237.176 22.1011 236.781C22.4794 236.381 22.9181 236.068 23.4171 235.843C23.9161 235.618 24.448 235.506 25.0128 235.506C25.6818 235.506 26.3015 235.662 26.8717 235.975C27.4475 236.287 27.9218 236.707 28.2947 237.233L27.2666 237.784C26.9814 237.422 26.6387 237.145 26.2384 236.954C25.8381 236.756 25.4296 236.657 25.0128 236.657C24.459 236.657 23.9572 236.806 23.5076 237.102C23.0579 237.392 22.7015 237.779 22.4383 238.261C22.1806 238.744 22.0517 239.273 22.0517 239.849C22.0517 240.425 22.1833 240.954 22.4465 241.436C22.7152 241.919 23.0744 242.306 23.524 242.596C23.9737 242.881 24.47 243.024 25.0128 243.024C25.4625 243.024 25.8847 242.92 26.2795 242.711C26.6743 242.503 27.0034 242.231 27.2666 241.897ZM36.4366 231.624H37.5882V243.962H36.4366V242.423C36.1515 242.95 35.7594 243.375 35.2604 243.698C34.7669 244.016 34.1802 244.175 33.5002 244.175C32.9025 244.175 32.3432 244.063 31.8222 243.838C31.3013 243.613 30.8407 243.304 30.4404 242.909C30.0456 242.508 29.7357 242.048 29.5109 241.527C29.2861 241.006 29.1737 240.447 29.1737 239.849C29.1737 239.251 29.2861 238.692 29.5109 238.171C29.7357 237.644 30.0456 237.184 30.4404 236.789C30.8407 236.389 31.3013 236.076 31.8222 235.851C32.3432 235.627 32.9025 235.514 33.5002 235.514C34.1802 235.514 34.7669 235.676 35.2604 235.999C35.7594 236.317 36.1515 236.737 36.4366 237.258V231.624ZM33.5084 243.057C34.0952 243.057 34.5997 242.914 35.0219 242.629C35.4441 242.338 35.7677 241.949 35.9925 241.461C36.2228 240.973 36.3379 240.436 36.3379 239.849C36.3379 239.246 36.2228 238.703 35.9925 238.22C35.7622 237.732 35.4359 237.346 35.0137 237.06C34.5914 236.775 34.0897 236.633 33.5084 236.633C32.9272 236.633 32.398 236.778 31.9209 237.069C31.4439 237.354 31.0628 237.74 30.7776 238.228C30.4925 238.717 30.3499 239.257 30.3499 239.849C30.3499 240.447 30.4952 240.989 30.7858 241.477C31.0765 241.96 31.4603 242.344 31.9374 242.629C32.4199 242.914 32.9436 243.057 33.5084 243.057ZM43.1182 244.175C42.3615 244.175 41.6705 243.981 41.0454 243.591C40.4258 243.202 39.9295 242.681 39.5566 242.029C39.1892 241.371 39.0055 240.644 39.0055 239.849C39.0055 239.246 39.1125 238.684 39.3263 238.163C39.5402 237.636 39.8335 237.176 40.2064 236.781C40.5848 236.381 41.0235 236.068 41.5225 235.843C42.0215 235.618 42.5534 235.506 43.1182 235.506C43.7269 235.506 44.2862 235.627 44.7962 235.868C45.3116 236.109 45.753 236.446 46.1204 236.88C46.4933 237.313 46.773 237.82 46.9594 238.401C47.1513 238.982 47.2309 239.61 47.1979 240.285H40.2229C40.2887 240.806 40.4532 241.272 40.7164 241.683C40.9851 242.094 41.3251 242.421 41.7363 242.662C42.1531 242.898 42.6137 243.018 43.1182 243.024C43.6665 243.024 44.1601 242.881 44.5987 242.596C45.0429 242.311 45.3993 241.919 45.668 241.42L46.836 241.691C46.507 242.421 46.0108 243.018 45.3473 243.484C44.6837 243.945 43.9407 244.175 43.1182 244.175ZM40.19 239.355H46.0382C45.9998 238.845 45.8435 238.379 45.5693 237.957C45.3006 237.529 44.9524 237.189 44.5247 236.937C44.097 236.679 43.6282 236.551 43.1182 236.551C42.6082 236.551 42.1421 236.677 41.7199 236.929C41.2976 237.176 40.9522 237.513 40.6835 237.941C40.4148 238.363 40.2503 238.834 40.19 239.355ZM50.3909 233.589V235.736H52.8585V236.888H50.3909V243.962H49.2394V236.888H48.1125V235.736H49.2394V233.589C49.2394 233.189 49.3353 232.827 49.5273 232.504C49.7247 232.175 49.9879 231.914 50.3169 231.722C50.6459 231.525 51.0106 231.426 51.4109 231.426C51.7015 231.426 51.9811 231.484 52.2498 231.599C52.524 231.714 52.768 231.884 52.9819 232.109L52.1594 232.923C52.0716 232.813 51.9592 232.728 51.8221 232.668C51.6905 232.608 51.5534 232.578 51.4109 232.578C51.1312 232.578 50.8899 232.676 50.687 232.874C50.4896 233.071 50.3909 233.31 50.3909 233.589ZM60.5289 235.736H61.6804V244.266C61.6804 244.792 61.5653 245.286 61.335 245.746C61.1101 246.207 60.8031 246.61 60.4137 246.956C60.0299 247.307 59.5912 247.581 59.0977 247.778C58.6042 247.976 58.0915 248.074 57.5595 248.074C56.9893 248.074 56.4382 247.943 55.9063 247.679C55.3744 247.422 54.911 247.076 54.5162 246.643C54.1268 246.21 53.8499 245.73 53.6854 245.204L54.7465 244.718C54.8507 245.13 55.0453 245.5 55.3305 245.829C55.6211 246.163 55.9611 246.426 56.3504 246.618C56.7452 246.816 57.1483 246.914 57.5595 246.914C57.9379 246.914 58.3026 246.843 58.6535 246.701C59.0099 246.563 59.328 246.374 59.6077 246.133C59.8928 245.892 60.1176 245.609 60.2821 245.286C60.4466 244.968 60.5289 244.628 60.5289 244.266V242.448C60.2437 242.964 59.8572 243.38 59.3691 243.698C58.8866 244.016 58.3245 244.175 57.6829 244.175C57.1072 244.175 56.5643 244.063 56.0543 243.838C55.5498 243.613 55.1057 243.304 54.7218 242.909C54.338 242.508 54.0364 242.048 53.817 241.527C53.6032 241.006 53.4962 240.447 53.4962 239.849C53.4962 239.251 53.6032 238.692 53.817 238.171C54.0364 237.644 54.338 237.184 54.7218 236.789C55.1057 236.389 55.5498 236.076 56.0543 235.851C56.5643 235.627 57.1072 235.514 57.6829 235.514C58.3245 235.514 58.8866 235.673 59.3691 235.991C59.8572 236.304 60.2437 236.721 60.5289 237.241V235.736ZM57.6912 243.057C58.2614 243.057 58.7522 242.909 59.1635 242.613C59.5802 242.316 59.901 241.924 60.1259 241.436C60.3507 240.948 60.4631 240.419 60.4631 239.849C60.4631 239.262 60.3479 238.727 60.1176 238.245C59.8928 237.757 59.572 237.368 59.1553 237.077C58.7385 236.781 58.2505 236.633 57.6912 236.633C57.1318 236.633 56.6219 236.778 56.1612 237.069C55.7061 237.354 55.3442 237.74 55.0755 238.228C54.8068 238.717 54.6725 239.257 54.6725 239.849C54.6725 240.441 54.8095 240.981 55.0837 241.469C55.3579 241.952 55.7226 242.338 56.1777 242.629C56.6383 242.914 57.1428 243.057 57.6912 243.057ZM70.8334 238.87V243.962H69.6819V239.1C69.6819 238.651 69.5722 238.242 69.3529 237.875C69.1335 237.507 68.8402 237.214 68.4728 236.995C68.1054 236.775 67.6968 236.666 67.2472 236.666C66.803 236.666 66.3945 236.775 66.0216 236.995C65.6542 237.214 65.3608 237.507 65.1415 237.875C64.9222 238.242 64.8125 238.651 64.8125 239.1V243.962H63.6609V231.624H64.8125V236.871C65.1031 236.455 65.4815 236.123 65.9476 235.876C66.4137 235.629 66.9209 235.506 67.4693 235.506C68.0889 235.506 68.6537 235.657 69.1637 235.958C69.6737 236.26 70.0794 236.666 70.381 237.176C70.6826 237.686 70.8334 238.25 70.8334 238.87ZM72.4807 235.736H73.6322V243.962H72.4807V235.736ZM73.0647 234.297C72.8782 234.297 72.7192 234.236 72.5876 234.116C72.4615 233.99 72.3984 233.833 72.3984 233.647C72.3984 233.461 72.4615 233.307 72.5876 233.186C72.7192 233.06 72.8782 232.997 73.0647 232.997C73.2456 232.997 73.3992 233.06 73.5253 233.186C73.6569 233.307 73.7227 233.461 73.7227 233.647C73.7227 233.833 73.6596 233.99 73.5335 234.116C73.4074 234.236 73.2511 234.297 73.0647 234.297ZM75.6776 243.962V231.624H76.8292V243.962H75.6776ZM78.8103 243.962V235.736H79.9619V236.871C80.258 236.455 80.6364 236.123 81.097 235.876C81.5576 235.629 82.0621 235.506 82.6104 235.506C83.2301 235.506 83.7976 235.659 84.3131 235.967C84.8285 236.268 85.2316 236.671 85.5222 237.176C85.8128 236.671 86.2131 236.268 86.7231 235.967C87.2331 235.659 87.7979 235.506 88.4175 235.506C89.0372 235.506 89.602 235.657 90.1119 235.958C90.6219 236.26 91.0277 236.666 91.3293 237.176C91.6309 237.686 91.7817 238.25 91.7817 238.87V243.962H90.6301V239.125C90.6301 238.686 90.5232 238.281 90.3093 237.908C90.0955 237.535 89.8076 237.236 89.4457 237.011C89.0892 236.781 88.6917 236.666 88.253 236.666C87.8143 236.666 87.414 236.773 87.0521 236.986C86.6957 237.195 86.4105 237.485 86.1967 237.858C85.9828 238.226 85.8759 238.648 85.8759 239.125V243.962H84.7243V239.125C84.7243 238.648 84.6174 238.226 84.4036 237.858C84.1897 237.485 83.9018 237.195 83.5399 236.986C83.178 236.773 82.7777 236.666 82.339 236.666C81.9058 236.666 81.5082 236.781 81.1463 237.011C80.7844 237.236 80.4965 237.535 80.2827 237.908C80.0688 238.281 79.9619 238.686 79.9619 239.125V243.962H78.8103ZM100.602 238.87V243.962H99.4505V239.1C99.4505 238.651 99.3408 238.242 99.1215 237.875C98.9022 237.507 98.6088 237.214 98.2414 236.995C97.874 236.775 97.4655 236.666 97.0158 236.666C96.5716 236.666 96.1631 236.775 95.7902 236.995C95.4228 237.214 95.1295 237.507 94.9101 237.875C94.6908 238.242 94.5811 238.651 94.5811 239.1V243.962H93.4296V235.736H94.5811V236.871C94.8717 236.455 95.2501 236.123 95.7162 235.876C96.1823 235.629 96.6895 235.506 97.2379 235.506C97.8575 235.506 98.4223 235.657 98.9323 235.958C99.4423 236.26 99.8481 236.666 100.15 237.176C100.451 237.686 100.602 238.25 100.602 238.87ZM105.708 244.175C104.951 244.175 104.26 243.981 103.635 243.591C103.015 243.202 102.519 242.681 102.146 242.029C101.779 241.371 101.595 240.644 101.595 239.849C101.595 239.246 101.702 238.684 101.916 238.163C102.13 237.636 102.423 237.176 102.796 236.781C103.174 236.381 103.613 236.068 104.112 235.843C104.611 235.618 105.143 235.506 105.708 235.506C106.465 235.506 107.153 235.701 107.772 236.09C108.397 236.479 108.894 237.003 109.261 237.661C109.634 238.319 109.82 239.048 109.82 239.849C109.82 240.447 109.714 241.006 109.5 241.527C109.286 242.048 108.99 242.508 108.611 242.909C108.238 243.304 107.803 243.613 107.304 243.838C106.81 244.063 106.278 244.175 105.708 244.175ZM105.708 243.024C106.267 243.024 106.769 242.879 107.213 242.588C107.663 242.292 108.016 241.902 108.274 241.42C108.537 240.937 108.669 240.414 108.669 239.849C108.669 239.273 108.537 238.744 108.274 238.261C108.011 237.773 107.654 237.384 107.205 237.093C106.761 236.803 106.262 236.657 105.708 236.657C105.148 236.657 104.644 236.806 104.194 237.102C103.75 237.392 103.396 237.779 103.133 238.261C102.876 238.744 102.747 239.273 102.747 239.849C102.747 240.441 102.881 240.978 103.15 241.461C103.418 241.938 103.778 242.319 104.227 242.604C104.677 242.884 105.17 243.024 105.708 243.024ZM112.365 248.074H111.214V235.736H112.365V237.274C112.65 236.753 113.04 236.331 113.533 236.008C114.027 235.684 114.613 235.522 115.293 235.522C115.891 235.522 116.45 235.635 116.971 235.86C117.498 236.084 117.958 236.397 118.353 236.797C118.748 237.192 119.058 237.65 119.283 238.171C119.508 238.692 119.62 239.251 119.62 239.849C119.62 240.447 119.508 241.009 119.283 241.535C119.058 242.061 118.748 242.525 118.353 242.925C117.958 243.32 117.498 243.63 116.971 243.855C116.45 244.079 115.891 244.192 115.293 244.192C114.613 244.192 114.027 244.03 113.533 243.707C113.04 243.383 112.65 242.961 112.365 242.44V248.074ZM115.285 236.641C114.709 236.641 114.208 236.786 113.78 237.077C113.358 237.362 113.031 237.746 112.801 238.228C112.571 238.711 112.456 239.251 112.456 239.849C112.456 240.436 112.568 240.973 112.793 241.461C113.023 241.949 113.349 242.338 113.772 242.629C114.199 242.92 114.704 243.065 115.285 243.065C115.855 243.065 116.379 242.922 116.856 242.637C117.339 242.352 117.725 241.968 118.016 241.486C118.307 240.998 118.452 240.452 118.452 239.849C118.452 239.262 118.309 238.727 118.024 238.245C117.739 237.757 117.358 237.368 116.881 237.077C116.404 236.786 115.872 236.641 115.285 236.641ZM124.766 244.192C123.971 244.192 123.244 243.997 122.586 243.608C121.934 243.219 121.413 242.695 121.023 242.037C120.634 241.379 120.439 240.649 120.439 239.849C120.439 239.251 120.552 238.692 120.777 238.171C121.002 237.65 121.311 237.192 121.706 236.797C122.106 236.397 122.567 236.084 123.088 235.86C123.609 235.635 124.168 235.522 124.766 235.522C125.446 235.522 126.033 235.684 126.526 236.008C127.02 236.331 127.409 236.753 127.694 237.274V235.736H128.846V248.074H127.694V242.44C127.409 242.961 127.02 243.383 126.526 243.707C126.033 244.03 125.446 244.192 124.766 244.192ZM124.774 236.641C124.193 236.641 123.661 236.786 123.179 237.077C122.701 237.368 122.32 237.757 122.035 238.245C121.756 238.727 121.616 239.262 121.616 239.849C121.616 240.452 121.758 240.998 122.043 241.486C122.334 241.968 122.718 242.352 123.195 242.637C123.678 242.922 124.204 243.065 124.774 243.065C125.361 243.065 125.865 242.92 126.288 242.629C126.71 242.338 127.033 241.949 127.258 241.461C127.489 240.973 127.604 240.436 127.604 239.849C127.604 239.251 127.489 238.711 127.258 238.228C127.028 237.746 126.702 237.362 126.279 237.077C125.857 236.786 125.356 236.641 124.774 236.641ZM130.813 243.962V235.736H131.965V236.871C132.255 236.455 132.634 236.123 133.1 235.876C133.566 235.629 134.073 235.506 134.621 235.506C134.939 235.506 135.246 235.547 135.543 235.629L135.074 236.773C134.843 236.701 134.619 236.666 134.399 236.666C133.955 236.666 133.547 236.775 133.174 236.995C132.806 237.214 132.513 237.507 132.294 237.875C132.074 238.242 131.965 238.651 131.965 239.1V243.962H130.813ZM139.122 244.118C138.672 244.107 138.234 244.025 137.806 243.871C137.378 243.718 137.005 243.509 136.687 243.246C136.369 242.983 136.142 242.684 136.005 242.349L137 241.922C137.088 242.136 137.249 242.333 137.485 242.514C137.726 242.689 138.001 242.832 138.308 242.942C138.615 243.046 138.919 243.098 139.221 243.098C139.555 243.098 139.868 243.043 140.158 242.933C140.449 242.824 140.685 242.667 140.866 242.465C141.052 242.256 141.145 242.012 141.145 241.732C141.145 241.431 141.047 241.195 140.849 241.025C140.652 240.85 140.402 240.713 140.101 240.614C139.799 240.51 139.489 240.411 139.171 240.318C138.59 240.159 138.077 239.983 137.633 239.791C137.189 239.599 136.841 239.355 136.589 239.059C136.342 238.758 136.219 238.371 136.219 237.899C136.219 237.4 136.358 236.97 136.638 236.608C136.923 236.241 137.293 235.958 137.748 235.761C138.209 235.558 138.7 235.457 139.221 235.457C139.89 235.457 140.498 235.602 141.047 235.892C141.601 236.183 142.001 236.57 142.248 237.052L141.318 237.603C141.22 237.379 141.063 237.184 140.849 237.019C140.636 236.855 140.391 236.726 140.117 236.633C139.849 236.54 139.574 236.49 139.295 236.485C138.944 236.479 138.618 236.531 138.316 236.641C138.014 236.745 137.77 236.901 137.584 237.11C137.403 237.318 137.312 237.573 137.312 237.875C137.312 238.176 137.403 238.407 137.584 238.566C137.765 238.719 138.009 238.845 138.316 238.944C138.629 239.037 138.979 239.147 139.369 239.273C139.868 239.432 140.337 239.613 140.775 239.816C141.214 240.019 141.568 240.271 141.836 240.573C142.105 240.874 142.237 241.255 142.231 241.716C142.231 242.21 142.083 242.64 141.787 243.007C141.491 243.375 141.107 243.657 140.636 243.855C140.164 244.047 139.659 244.134 139.122 244.118ZM147.852 236.888H145.886L145.878 243.962H144.727L144.735 236.888H143.246V235.736H144.735L144.727 233.153H145.878L145.886 235.736H147.852V236.888ZM148.991 240.811V235.736H150.143V240.581C150.143 241.031 150.252 241.439 150.472 241.807C150.691 242.174 150.984 242.467 151.352 242.687C151.725 242.906 152.133 243.016 152.577 243.016C153.027 243.016 153.433 242.906 153.795 242.687C154.162 242.467 154.455 242.174 154.675 241.807C154.894 241.439 155.004 241.031 155.004 240.581V235.736H156.155L156.164 243.962H155.012L155.004 242.81C154.713 243.227 154.335 243.559 153.869 243.805C153.408 244.052 152.904 244.175 152.355 244.175C151.736 244.175 151.171 244.025 150.661 243.723C150.151 243.421 149.745 243.016 149.443 242.506C149.142 241.996 148.991 241.431 148.991 240.811ZM161.775 243.962H160.311L157.309 235.712H158.534L161.043 242.613L163.552 235.712H164.777L161.775 243.962ZM172.836 236.888L167.44 242.81H172.836V243.962H165.811V242.81L171.207 236.888H165.811V235.736H172.836V236.888ZM2.89183 263.962V253.598H1.65803L1.98704 252.446H4.04337V263.962H2.89183ZM6.01167 263.962V262.942C6.46132 262.525 6.95484 262.07 7.49223 261.576C8.02961 261.077 8.56152 260.564 9.08794 260.038C9.61985 259.506 10.1051 258.982 10.5438 258.467C10.9825 257.946 11.3335 257.455 11.5967 256.995C11.8654 256.529 11.9997 256.117 11.9997 255.761C11.9997 255.328 11.8928 254.933 11.6789 254.576C11.4705 254.215 11.1881 253.927 10.8317 253.713C10.4808 253.493 10.0887 253.384 9.65549 253.384C9.22229 253.384 8.82473 253.493 8.46282 253.713C8.10638 253.927 7.82124 254.215 7.60738 254.576C7.39352 254.933 7.28659 255.328 7.28659 255.761H6.13505C6.13505 255.103 6.29407 254.508 6.61212 253.976C6.93565 253.444 7.36336 253.022 7.89527 252.709C8.42717 252.391 9.01391 252.232 9.65549 252.232C10.2971 252.232 10.8811 252.391 11.4075 252.709C11.9394 253.027 12.3616 253.452 12.6742 253.984C12.9922 254.516 13.1513 255.108 13.1513 255.761C13.1513 256.15 13.0471 256.578 12.8387 257.044C12.6358 257.505 12.3589 257.984 12.0079 258.483C11.657 258.977 11.2622 259.476 10.8235 259.98C10.3848 260.485 9.92692 260.978 9.44986 261.461C8.97279 261.938 8.50943 262.388 8.05977 262.81H13.324V263.962H6.01167ZM18.3566 264.175C17.6547 264.175 17.0378 264.022 16.5059 263.715C15.974 263.402 15.5572 262.985 15.2557 262.465C14.9595 261.944 14.8115 261.368 14.8115 260.737H15.963C15.963 261.154 16.059 261.538 16.2509 261.889C16.4483 262.234 16.7252 262.511 17.0817 262.72C17.4381 262.922 17.8631 263.024 18.3566 263.024C18.7734 263.024 19.1627 262.922 19.5246 262.72C19.892 262.511 20.1881 262.234 20.4129 261.889C20.6432 261.538 20.7584 261.154 20.7584 260.737C20.7584 260.216 20.6268 259.783 20.3636 259.438C20.1004 259.087 19.7385 258.826 19.2778 258.656C18.8172 258.481 18.2908 258.393 17.6986 258.393V257.439C18.5156 257.439 19.1709 257.266 19.6644 256.921C20.1634 256.57 20.4129 256.057 20.4129 255.383C20.4129 255.015 20.3115 254.681 20.1086 254.379C19.9112 254.077 19.6507 253.836 19.3272 253.655C19.0091 253.469 18.6664 253.376 18.299 253.376C17.9316 253.376 17.5779 253.469 17.238 253.655C16.9035 253.836 16.6293 254.077 16.4154 254.379C16.207 254.681 16.1029 255.015 16.1029 255.383H14.9513C14.9513 254.949 15.0418 254.544 15.2228 254.165C15.4037 253.781 15.6505 253.444 15.963 253.153C16.2756 252.863 16.632 252.635 17.0323 252.471C17.4326 252.306 17.8521 252.224 18.2908 252.224C18.8666 252.224 19.4012 252.367 19.8947 252.652C20.3937 252.937 20.7968 253.318 21.1039 253.795C21.4109 254.272 21.5645 254.801 21.5645 255.383C21.5645 255.947 21.4192 256.457 21.1285 256.912C20.8379 257.368 20.4458 257.688 19.9523 257.875C20.38 258.017 20.7392 258.234 21.0298 258.525C21.3205 258.81 21.5398 259.142 21.6879 259.52C21.8359 259.898 21.9099 260.304 21.9099 260.737C21.9099 261.368 21.7454 261.944 21.4164 262.465C21.0874 262.985 20.6515 263.402 20.1086 263.715C19.5712 264.022 18.9872 264.175 18.3566 264.175ZM28.0248 263.962V260.729H23.0567V259.561L27.7287 252.446H29.1764V259.577H30.3855V260.729H29.1764V263.962H28.0248ZM24.4221 259.561L28.0248 259.577L28.0002 254.091L24.4221 259.561ZM35.7303 264.175C35.0284 264.175 34.3896 264.005 33.8138 263.665C33.2435 263.325 32.7911 262.87 32.4566 262.3C32.1221 261.724 31.9549 261.094 31.9549 260.408H33.1064C33.1064 260.885 33.2243 261.324 33.4601 261.724C33.6959 262.119 34.0112 262.434 34.406 262.67C34.8063 262.906 35.2477 263.024 35.7303 263.024C36.2074 263.024 36.6433 262.906 37.0381 262.67C37.4329 262.434 37.7482 262.119 37.984 261.724C38.2253 261.324 38.346 260.885 38.346 260.408C38.346 259.926 38.2308 259.487 38.0005 259.092C37.7757 258.692 37.4549 258.374 37.0381 258.138C36.6269 257.897 36.1361 257.776 35.5658 257.776H32.7692L33.8549 252.446H39.2425V253.598H34.7844L34.1839 256.625L35.5247 256.633C36.3088 256.644 36.997 256.811 37.5892 257.135C38.1869 257.458 38.653 257.902 38.9875 258.467C39.3275 259.026 39.4975 259.673 39.4975 260.408C39.4975 260.924 39.3988 261.409 39.2014 261.864C39.0095 262.319 38.738 262.722 38.3871 263.073C38.0416 263.419 37.6413 263.69 37.1862 263.888C36.7365 264.079 36.2512 264.175 35.7303 264.175ZM44.8639 264.175C44.1401 264.175 43.4765 263.997 42.8734 263.641C42.2756 263.279 41.7958 262.796 41.4339 262.193C41.0775 261.59 40.8993 260.924 40.8993 260.194C40.8993 259.772 40.9486 259.413 41.0473 259.117C41.146 258.815 41.2913 258.481 41.4833 258.113L44.7487 252.446H46.0895L43.6959 256.592C44.1784 256.405 44.6637 256.323 45.1518 256.345C45.6398 256.361 46.1059 256.468 46.5501 256.666C46.9942 256.863 47.3891 257.135 47.7345 257.48C48.08 257.82 48.3514 258.22 48.5488 258.681C48.7517 259.142 48.8532 259.646 48.8532 260.194C48.8532 260.743 48.749 261.258 48.5406 261.741C48.3322 262.218 48.0443 262.64 47.6769 263.007C47.315 263.369 46.8928 263.654 46.4102 263.863C45.9277 264.071 45.4122 264.175 44.8639 264.175ZM44.8639 263.024C45.4122 263.024 45.9003 262.892 46.328 262.629C46.7557 262.36 47.0902 262.009 47.3315 261.576C47.5782 261.143 47.7016 260.68 47.7016 260.186C47.7016 259.671 47.5755 259.202 47.3233 258.78C47.071 258.352 46.731 258.012 46.3033 257.76C45.8756 257.502 45.4013 257.373 44.8803 257.373C44.3429 257.373 43.8604 257.505 43.4327 257.768C43.005 258.031 42.6677 258.377 42.421 258.804C42.1742 259.226 42.0508 259.687 42.0508 260.186C42.0508 260.724 42.1797 261.206 42.4374 261.634C42.7006 262.061 43.0461 262.401 43.4738 262.654C43.9015 262.9 44.3649 263.024 44.8639 263.024ZM50.4996 263.962L56.4712 253.598H49.6689V252.446H57.8037V253.598L51.8157 263.962H50.4996ZM62.454 264.175C61.7795 264.175 61.1626 264.022 60.6033 263.715C60.0495 263.408 59.608 262.996 59.279 262.481C58.95 261.966 58.7855 261.393 58.7855 260.762C58.7855 260.148 58.9555 259.588 59.2955 259.084C59.6355 258.574 60.0769 258.179 60.6198 257.899C60.1701 257.642 59.8 257.291 59.5093 256.847C59.2187 256.397 59.0734 255.903 59.0734 255.366C59.0734 254.79 59.2242 254.267 59.5258 253.795C59.8329 253.318 60.2414 252.94 60.7514 252.66C61.2668 252.375 61.8344 252.232 62.454 252.232C63.0736 252.232 63.6385 252.375 64.1484 252.66C64.6639 252.94 65.0724 253.318 65.374 253.795C65.6811 254.267 65.8346 254.79 65.8346 255.366C65.8346 255.903 65.6893 256.397 65.3987 256.847C65.1135 257.291 64.7434 257.642 64.2883 257.899C64.8421 258.179 65.2863 258.574 65.6208 259.084C65.9607 259.588 66.1307 260.148 66.1307 260.762C66.1307 261.387 65.9635 261.96 65.629 262.481C65.3 262.996 64.8585 263.408 64.3047 263.715C63.7509 264.022 63.134 264.175 62.454 264.175ZM62.454 263.024C62.9091 263.024 63.3204 262.922 63.6878 262.72C64.0552 262.517 64.3486 262.245 64.5679 261.905C64.7873 261.56 64.8969 261.179 64.8969 260.762C64.8969 260.345 64.7873 259.967 64.5679 259.627C64.3486 259.287 64.0552 259.015 63.6878 258.812C63.3204 258.61 62.9091 258.508 62.454 258.508C62.0098 258.508 61.6013 258.61 61.2284 258.812C60.861 259.015 60.5649 259.287 60.3401 259.627C60.1208 259.967 60.0111 260.345 60.0111 260.762C60.0111 261.179 60.1208 261.56 60.3401 261.905C60.5649 262.245 60.861 262.517 61.2284 262.72C61.6013 262.922 62.0098 263.024 62.454 263.024ZM62.454 257.357C62.8543 257.357 63.2162 257.269 63.5398 257.093C63.8633 256.912 64.121 256.671 64.3129 256.37C64.5103 256.068 64.609 255.733 64.609 255.366C64.609 254.999 64.5103 254.667 64.3129 254.371C64.121 254.069 63.8633 253.831 63.5398 253.655C63.2162 253.474 62.8543 253.384 62.454 253.384C62.0592 253.384 61.6973 253.474 61.3683 253.655C61.0447 253.831 60.7843 254.069 60.5869 254.371C60.3949 254.667 60.299 254.999 60.299 255.366C60.299 255.733 60.3949 256.068 60.5869 256.37C60.7843 256.671 61.0447 256.912 61.3683 257.093C61.6973 257.269 62.0592 257.357 62.454 257.357ZM69.6819 263.962L72.2235 259.561C71.6423 259.78 71.061 259.849 70.4797 259.767C69.8985 259.679 69.3666 259.471 68.884 259.142C68.4015 258.807 68.0121 258.379 67.716 257.858C67.4254 257.332 67.2801 256.74 67.2801 256.082C67.2801 255.555 67.3788 255.059 67.5762 254.593C67.7791 254.127 68.056 253.718 68.407 253.367C68.7579 253.011 69.1637 252.734 69.6243 252.537C70.0904 252.334 70.5894 252.232 71.1213 252.232C71.8232 252.232 72.462 252.408 73.0378 252.759C73.6191 253.104 74.0824 253.567 74.4279 254.149C74.7788 254.73 74.9543 255.374 74.9543 256.082C74.9543 256.482 74.905 256.827 74.8063 257.118C74.713 257.403 74.5705 257.724 74.3785 258.08L71.0062 263.962H69.6819ZM71.1049 258.78C71.6258 258.78 72.0892 258.656 72.4949 258.409C72.9062 258.157 73.2297 257.825 73.4655 257.414C73.7013 257.003 73.8192 256.561 73.8192 256.09C73.8192 255.574 73.6931 255.114 73.4409 254.708C73.1941 254.297 72.8651 253.973 72.4538 253.737C72.0426 253.496 71.5984 253.376 71.1213 253.376C70.5949 253.376 70.1261 253.502 69.7148 253.754C69.309 254.006 68.9882 254.341 68.7524 254.757C68.5221 255.169 68.407 255.613 68.407 256.09C68.407 256.583 68.5276 257.036 68.7689 257.447C69.0101 257.853 69.3337 258.176 69.7395 258.418C70.1507 258.659 70.6059 258.78 71.1049 258.78ZM80.3562 264.175C79.6652 264.175 79.0484 264.022 78.5055 263.715C77.9626 263.402 77.4992 262.972 77.1154 262.423C76.7315 261.875 76.4382 261.242 76.2353 260.523C76.0379 259.8 75.9392 259.026 75.9392 258.204C75.9392 257.381 76.0379 256.608 76.2353 255.884C76.4382 255.16 76.7315 254.527 77.1154 253.984C77.4992 253.436 77.9626 253.008 78.5055 252.701C79.0484 252.389 79.6652 252.232 80.3562 252.232C81.0416 252.232 81.6558 252.389 82.1987 252.701C82.7415 253.008 83.2021 253.436 83.5805 253.984C83.9589 254.527 84.2468 255.16 84.4442 255.884C84.6471 256.608 84.7485 257.381 84.7485 258.204C84.7485 259.026 84.6471 259.8 84.4442 260.523C84.2468 261.242 83.9589 261.875 83.5805 262.423C83.2021 262.972 82.7415 263.402 82.1987 263.715C81.6558 264.022 81.0416 264.175 80.3562 264.175ZM80.3562 263.024C81.08 263.024 81.6859 262.802 82.174 262.358C82.6675 261.913 83.0376 261.327 83.2844 260.597C83.5312 259.863 83.6545 259.065 83.6545 258.204C83.6545 257.294 83.5257 256.476 83.2679 255.753C83.0157 255.023 82.6428 254.448 82.1493 254.025C81.6613 253.598 81.0636 253.384 80.3562 253.384C79.7969 253.384 79.3088 253.513 78.8921 253.77C78.4753 254.028 78.1299 254.382 77.8557 254.831C77.5815 255.281 77.3759 255.797 77.2388 256.378C77.1017 256.954 77.0331 257.562 77.0331 258.204C77.0331 259.07 77.1593 259.871 77.4115 260.606C77.6638 261.335 78.0366 261.922 78.5302 262.366C79.0237 262.805 79.6323 263.024 80.3562 263.024Z" fill="#4D4D4D"/>
</svg>
