<svg width="530" height="279" viewBox="0 0 530 279" fill="none" xmlns="http://www.w3.org/2000/svg">
<path d="M137.258 17.4513C135.532 17.4513 134.066 16.8536 132.86 15.6583C131.653 14.4517 131.05 12.9801 131.05 11.2435C131.05 9.50691 131.653 8.04095 132.86 6.84563C134.066 5.63903 135.532 5.03574 137.258 5.03574C138.419 5.03574 139.474 5.31201 140.421 5.86457C141.368 6.40584 142.118 7.14446 142.67 8.08042L140.962 9.06148C140.094 7.65191 138.859 6.94712 137.258 6.94712C136.074 6.94712 135.076 7.36435 134.264 8.19882C133.452 9.03329 133.046 10.0482 133.046 11.2435C133.046 12.4388 133.452 13.4537 134.264 14.2882C135.076 15.1227 136.074 15.5399 137.258 15.5399C138.859 15.5399 140.094 14.8351 140.962 13.4255L142.67 14.4066C142.118 15.3425 141.368 16.0868 140.421 16.6394C139.474 17.1806 138.419 17.4513 137.258 17.4513ZM151.312 16.1488C150.467 16.9946 149.418 17.4174 148.166 17.4174C146.915 17.4174 145.86 16.9946 145.003 16.1488C144.157 15.2918 143.735 14.2487 143.735 13.0196C143.735 11.7904 144.157 10.753 145.003 9.90723C145.86 9.05021 146.915 8.62169 148.166 8.62169C149.418 8.62169 150.467 9.05021 151.312 9.90723C152.169 10.753 152.598 11.7904 152.598 13.0196C152.598 14.2487 152.169 15.2918 151.312 16.1488ZM148.166 15.6921C148.899 15.6921 149.503 15.4384 149.976 14.931C150.461 14.4122 150.703 13.7751 150.703 13.0196C150.703 12.264 150.461 11.6325 149.976 11.1251C149.503 10.6064 148.899 10.347 148.166 10.347C147.422 10.347 146.807 10.6064 146.323 11.1251C145.849 11.6325 145.612 12.264 145.612 13.0196C145.612 13.7751 145.849 14.4122 146.323 14.931C146.807 15.4384 147.422 15.6921 148.166 15.6921ZM154.469 17.2483V4.56212H156.33V17.2483H154.469ZM165.799 16.1488C164.953 16.9946 163.905 17.4174 162.653 17.4174C161.401 17.4174 160.347 16.9946 159.49 16.1488C158.644 15.2918 158.221 14.2487 158.221 13.0196C158.221 11.7904 158.644 10.753 159.49 9.90723C160.347 9.05021 161.401 8.62169 162.653 8.62169C163.905 8.62169 164.953 9.05021 165.799 9.90723C166.656 10.753 167.085 11.7904 167.085 13.0196C167.085 14.2487 166.656 15.2918 165.799 16.1488ZM162.653 15.6921C163.386 15.6921 163.989 15.4384 164.463 14.931C164.948 14.4122 165.19 13.7751 165.19 13.0196C165.19 12.264 164.948 11.6325 164.463 11.1251C163.989 10.6064 163.386 10.347 162.653 10.347C161.909 10.347 161.294 10.6064 160.809 11.1251C160.336 11.6325 160.099 12.264 160.099 13.0196C160.099 13.7751 160.336 14.4122 160.809 14.931C161.294 15.4384 161.909 15.6921 162.653 15.6921ZM168.956 17.2483V8.79084H170.817V10.2963C170.974 9.82265 171.262 9.43925 171.679 9.14606C172.108 8.85287 172.564 8.70627 173.049 8.70627C173.343 8.70627 173.585 8.72882 173.777 8.77393V10.6853C173.506 10.5838 173.196 10.5331 172.846 10.5331C172.283 10.5331 171.803 10.7642 171.409 11.2266C171.014 11.6777 170.817 12.3091 170.817 13.1211V17.2483H168.956ZM177.906 17.4174C177.128 17.4174 176.44 17.2708 175.842 16.9777C175.245 16.6732 174.799 16.2221 174.506 15.6245L175.876 14.6434C176.045 15.0042 176.316 15.2918 176.688 15.5061C177.06 15.709 177.466 15.8105 177.906 15.8105C178.255 15.8105 178.543 15.7316 178.769 15.5737C179.005 15.4158 179.124 15.196 179.124 14.914C179.124 14.666 179.028 14.463 178.836 14.3051C178.656 14.1472 178.318 13.9894 177.821 13.8315L177.077 13.6285C175.577 13.2225 174.839 12.3599 174.861 11.0405C174.861 10.3075 175.149 9.72116 175.724 9.28138C176.299 8.84159 177.021 8.62169 177.889 8.62169C179.197 8.62169 180.15 9.10095 180.748 10.0595L179.462 11.0405C179.034 10.4654 178.498 10.1779 177.855 10.1779C177.551 10.1779 177.286 10.2512 177.06 10.3978C176.835 10.5331 176.722 10.7248 176.722 10.9729C176.722 11.1984 176.795 11.3901 176.942 11.548C177.088 11.7058 177.353 11.8468 177.737 11.9708L178.599 12.2246C179.389 12.4614 179.981 12.7828 180.375 13.1887C180.77 13.5834 180.968 14.119 180.968 14.7956C180.968 15.5963 180.68 16.2334 180.105 16.707C179.53 17.1806 178.797 17.4174 177.906 17.4174Z" fill="black"/>
<rect x="0.469858" y="34.8742" width="62.961" height="62.961" rx="8.92731" fill="#FFC700" stroke="black" stroke-width="0.939716"/>
<path d="M11.4061 109.306C12.1178 109.987 12.4736 110.839 12.4736 111.862C12.4736 112.884 12.1178 113.741 11.4061 114.433C10.6944 115.114 9.80233 115.455 8.7298 115.455H7.36158V118.943H5.18143V108.268H8.7298C9.80233 108.268 10.6944 108.614 11.4061 109.306ZM9.90257 112.974C10.2033 112.684 10.3536 112.313 10.3536 111.862C10.3536 111.411 10.2033 111.04 9.90257 110.749C9.60186 110.458 9.20091 110.313 8.69973 110.313H7.36158V113.41H8.69973C9.20091 113.41 9.60186 113.265 9.90257 112.974ZM13.7224 118.943V111.426H15.7823V112.628C15.9126 112.258 16.1481 111.952 16.4889 111.711C16.8398 111.461 17.2257 111.335 17.6467 111.335C17.9073 111.335 18.1378 111.365 18.3383 111.426V113.516C18.0075 113.405 17.6968 113.35 17.4061 113.35C16.9149 113.35 16.519 113.531 16.2183 113.891C15.9276 114.242 15.7823 114.728 15.7823 115.35V118.943H13.7224ZM20.6768 110.193C20.3259 110.193 20.0202 110.067 19.7596 109.817C19.499 109.556 19.3687 109.245 19.3687 108.885C19.3687 108.524 19.499 108.218 19.7596 107.967C20.0202 107.707 20.3259 107.577 20.6768 107.577C21.0476 107.577 21.3584 107.707 21.609 107.967C21.8696 108.218 21.9999 108.524 21.9999 108.885C21.9999 109.245 21.8696 109.556 21.609 109.817C21.3584 110.067 21.0476 110.193 20.6768 110.193ZM19.6544 118.943V111.426H21.7142V118.943H19.6544ZM33.1645 118.943V114.929C33.1645 113.736 32.7736 113.14 31.9918 113.14C31.5407 113.14 31.1799 113.31 30.9092 113.651C30.6486 113.992 30.5083 114.498 30.4882 115.169V118.943H28.4284V114.929C28.4284 113.736 28.0375 113.14 27.2556 113.14C26.7945 113.14 26.4287 113.32 26.158 113.681C25.8874 114.042 25.7521 114.573 25.7521 115.275V118.943H23.6922V111.426H25.7521V112.283C26.2232 111.601 26.8897 111.26 27.7518 111.26C28.8043 111.26 29.5811 111.721 30.0823 112.643C30.3028 112.212 30.6336 111.877 31.0746 111.636C31.5157 111.386 31.9617 111.26 32.4128 111.26C33.3049 111.26 33.9965 111.556 34.4877 112.147C34.9788 112.739 35.2244 113.551 35.2244 114.583V118.943H33.1645ZM40.1647 119.109C39.1724 119.109 38.3354 118.723 37.6538 117.951C36.9722 117.179 36.6314 116.257 36.6314 115.184C36.6314 114.112 36.9722 113.19 37.6538 112.418C38.3354 111.646 39.1724 111.26 40.1647 111.26C40.6459 111.26 41.0769 111.36 41.4578 111.561C41.8387 111.761 42.1294 111.997 42.3298 112.268V111.426H44.3897V118.943H42.3298V118.101C42.1294 118.372 41.8387 118.608 41.4578 118.808C41.0769 119.008 40.6459 119.109 40.1647 119.109ZM39.2175 116.658C39.5683 117.039 40.0294 117.229 40.6008 117.229C41.1721 117.229 41.6282 117.039 41.969 116.658C42.3198 116.277 42.4952 115.786 42.4952 115.184C42.4952 114.583 42.3198 114.092 41.969 113.711C41.6282 113.33 41.1721 113.14 40.6008 113.14C40.0294 113.14 39.5683 113.33 39.2175 113.711C38.8767 114.092 38.7063 114.583 38.7063 115.184C38.7063 115.786 38.8767 116.277 39.2175 116.658ZM46.3922 118.943V111.426H48.4521V112.628C48.5824 112.258 48.8179 111.952 49.1587 111.711C49.5096 111.461 49.8955 111.335 50.3165 111.335C50.5771 111.335 50.8076 111.365 51.0081 111.426V113.516C50.6773 113.405 50.3666 113.35 50.0759 113.35C49.5848 113.35 49.1888 113.531 48.8881 113.891C48.5974 114.242 48.4521 114.728 48.4521 115.35V118.943H46.3922ZM55.1809 122.086H52.9406L54.5194 118.522L51.3619 111.426H53.6172L55.632 116.297L57.6317 111.426H59.9021L55.1809 122.086Z" fill="black"/>
<rect x="83.1647" y="34.8742" width="62.961" height="62.961" rx="8.92731" fill="#FDD64A" stroke="black" stroke-width="0.939716"/>
<path d="M98.1083 118.943V108.268H99.5066V117.62H104.664V118.943H98.1083ZM107.443 109.155C107.273 109.326 107.058 109.411 106.797 109.411C106.536 109.411 106.316 109.326 106.135 109.155C105.955 108.975 105.865 108.754 105.865 108.494C105.865 108.243 105.955 108.028 106.135 107.847C106.316 107.667 106.536 107.577 106.797 107.577C107.058 107.577 107.273 107.667 107.443 107.847C107.614 108.028 107.699 108.243 107.699 108.494C107.699 108.754 107.614 108.975 107.443 109.155ZM106.135 118.943V111.426H107.428V118.943H106.135ZM111.323 116.989C111.794 117.48 112.405 117.725 113.157 117.725C113.909 117.725 114.52 117.48 114.992 116.989C115.463 116.488 115.698 115.856 115.698 115.094C115.698 114.332 115.458 113.706 114.977 113.215C114.505 112.714 113.899 112.463 113.157 112.463C112.416 112.463 111.804 112.714 111.323 113.215C110.852 113.706 110.616 114.332 110.616 115.094C110.616 115.856 110.852 116.488 111.323 116.989ZM113.082 122.236C112.31 122.236 111.614 122.091 110.992 121.8C110.371 121.519 109.89 121.154 109.549 120.702L110.451 119.8C111.112 120.642 111.99 121.063 113.082 121.063C113.784 121.063 114.375 120.843 114.856 120.402C115.347 119.961 115.593 119.314 115.593 118.462V117.605C115.322 118.006 114.957 118.327 114.495 118.567C114.034 118.808 113.528 118.928 112.977 118.928C111.924 118.928 111.047 118.562 110.346 117.831C109.644 117.089 109.293 116.177 109.293 115.094C109.293 114.022 109.644 113.12 110.346 112.388C111.057 111.646 111.934 111.275 112.977 111.275C113.528 111.275 114.034 111.396 114.495 111.636C114.957 111.877 115.322 112.192 115.593 112.583V111.426H116.886V118.507C116.886 119.72 116.53 120.642 115.819 121.274C115.117 121.915 114.205 122.236 113.082 122.236ZM120.614 118.943H119.321V107.667H120.614V112.583C121.125 111.711 121.922 111.275 123.004 111.275C123.856 111.275 124.543 111.551 125.064 112.102C125.586 112.653 125.846 113.39 125.846 114.312V118.943H124.568V114.508C124.568 113.876 124.408 113.38 124.087 113.019C123.766 112.648 123.335 112.463 122.794 112.463C122.172 112.463 121.651 112.709 121.23 113.2C120.819 113.691 120.614 114.363 120.614 115.215V118.943ZM131.003 119.019C130.312 119.019 129.755 118.823 129.334 118.432C128.913 118.041 128.703 117.47 128.703 116.718V112.613H127.109V111.426H128.703V109.336H129.996V111.426H132.161V112.613H129.996V116.553C129.996 117.024 130.096 117.355 130.297 117.545C130.497 117.735 130.813 117.831 131.244 117.831C131.625 117.831 131.931 117.781 132.161 117.68V118.838C131.8 118.958 131.414 119.019 131.003 119.019Z" fill="black"/>
<rect x="165.86" y="34.8742" width="62.961" height="62.961" rx="8.92731" fill="#B28B00" stroke="black" stroke-width="0.939716"/>
<path d="M181.795 118.943V108.268H184.862C186.496 108.268 187.849 108.774 188.922 109.787C190.004 110.799 190.545 112.072 190.545 113.606C190.545 115.139 190.004 116.412 188.922 117.425C187.849 118.437 186.496 118.943 184.862 118.943H181.795ZM183.193 117.635H184.862C186.135 117.635 187.162 117.259 187.944 116.508C188.736 115.746 189.132 114.779 189.132 113.606C189.132 112.433 188.736 111.471 187.944 110.719C187.162 109.957 186.135 109.576 184.862 109.576H183.193V117.635ZM195.533 119.094C194.49 119.094 193.613 118.713 192.901 117.951C192.2 117.189 191.849 116.267 191.849 115.184C191.849 114.102 192.2 113.18 192.901 112.418C193.613 111.656 194.49 111.275 195.533 111.275C196.084 111.275 196.595 111.401 197.066 111.651C197.547 111.892 197.918 112.202 198.179 112.583V111.426H199.472V118.943H198.179V117.786C197.918 118.166 197.547 118.482 197.066 118.733C196.595 118.973 196.084 119.094 195.533 119.094ZM195.728 117.906C196.47 117.906 197.081 117.645 197.562 117.124C198.044 116.603 198.284 115.956 198.284 115.184C198.284 114.413 198.044 113.766 197.562 113.245C197.081 112.724 196.47 112.463 195.728 112.463C194.976 112.463 194.36 112.724 193.879 113.245C193.398 113.766 193.157 114.413 193.157 115.184C193.157 115.956 193.398 116.603 193.879 117.124C194.36 117.645 194.976 117.906 195.728 117.906ZM201.906 118.943V111.426H203.199V112.884C203.339 112.423 203.61 112.052 204.011 111.771C204.422 111.491 204.853 111.35 205.304 111.35C205.524 111.35 205.72 111.37 205.89 111.411V112.749C205.71 112.669 205.474 112.628 205.184 112.628C204.662 112.628 204.201 112.854 203.8 113.305C203.399 113.756 203.199 114.393 203.199 115.215V118.943H201.906ZM212.78 118.943L208.705 115.184V118.943H207.412V107.667H208.705V114.358L211.983 111.426H213.697L209.998 114.748L214.524 118.943H212.78Z" fill="black"/>
<rect x="248.555" y="34.8742" width="62.961" height="62.961" rx="8.92731" fill="url(#paint0_linear_1111_67985)" stroke="black" stroke-width="0.939716"/>
<path d="M254.687 118.943L259.408 108.268H260.566L265.302 118.943H263.844L262.46 115.831H257.484L256.13 118.943H254.687ZM259.964 110.163L258.04 114.568H261.904L259.964 110.163ZM269.813 119.094C268.68 119.094 267.738 118.718 266.986 117.966C266.244 117.214 265.873 116.287 265.873 115.184C265.873 114.082 266.244 113.155 266.986 112.403C267.738 111.651 268.68 111.275 269.813 111.275C270.575 111.275 271.256 111.456 271.858 111.817C272.469 112.177 272.945 112.669 273.286 113.29L272.158 113.921C271.938 113.48 271.622 113.13 271.211 112.869C270.81 112.608 270.344 112.478 269.813 112.478C269.041 112.478 268.409 112.739 267.918 113.26C267.427 113.781 267.182 114.423 267.182 115.184C267.182 115.946 267.427 116.588 267.918 117.109C268.409 117.63 269.041 117.891 269.813 117.891C270.344 117.891 270.81 117.761 271.211 117.5C271.622 117.239 271.938 116.888 272.158 116.447L273.286 117.079C272.945 117.7 272.469 118.192 271.858 118.552C271.256 118.913 270.575 119.094 269.813 119.094ZM278.314 119.094C277.182 119.094 276.239 118.718 275.488 117.966C274.746 117.214 274.375 116.287 274.375 115.184C274.375 114.082 274.746 113.155 275.488 112.403C276.239 111.651 277.182 111.275 278.314 111.275C279.076 111.275 279.758 111.456 280.359 111.817C280.971 112.177 281.447 112.669 281.787 113.29L280.66 113.921C280.439 113.48 280.124 113.13 279.713 112.869C279.312 112.608 278.845 112.478 278.314 112.478C277.542 112.478 276.911 112.739 276.42 113.26C275.929 113.781 275.683 114.423 275.683 115.184C275.683 115.946 275.929 116.588 276.42 117.109C276.911 117.63 277.542 117.891 278.314 117.891C278.845 117.891 279.312 117.761 279.713 117.5C280.124 117.239 280.439 116.888 280.66 116.447L281.787 117.079C281.447 117.7 280.971 118.192 280.359 118.552C279.758 118.913 279.076 119.094 278.314 119.094ZM286.771 119.094C285.618 119.094 284.681 118.723 283.959 117.981C283.237 117.239 282.876 116.307 282.876 115.184C282.876 114.072 283.242 113.145 283.974 112.403C284.706 111.651 285.643 111.275 286.786 111.275C287.798 111.275 288.645 111.616 289.327 112.298C290.018 112.969 290.364 113.886 290.364 115.049C290.364 115.199 290.359 115.33 290.349 115.44H284.185C284.205 116.142 284.455 116.728 284.936 117.199C285.427 117.67 286.044 117.906 286.786 117.906C287.838 117.906 288.62 117.47 289.131 116.598L290.154 117.304C289.422 118.497 288.294 119.094 286.771 119.094ZM284.275 114.388H289.041C288.941 113.786 288.675 113.31 288.244 112.959C287.823 112.598 287.322 112.418 286.741 112.418C286.149 112.418 285.618 112.598 285.147 112.959C284.686 113.31 284.395 113.786 284.275 114.388ZM292.199 118.943V111.426H293.492V112.583C294.004 111.711 294.8 111.275 295.883 111.275C296.735 111.275 297.422 111.551 297.943 112.102C298.464 112.653 298.725 113.39 298.725 114.312V118.943H297.447V114.508C297.447 113.876 297.286 113.38 296.965 113.019C296.645 112.648 296.214 112.463 295.672 112.463C295.051 112.463 294.53 112.709 294.109 113.2C293.698 113.691 293.492 114.363 293.492 115.215V118.943H292.199ZM303.882 119.019C303.19 119.019 302.634 118.823 302.213 118.432C301.792 118.041 301.582 117.47 301.582 116.718V112.613H299.988V111.426H301.582V109.336H302.875V111.426H305.04V112.613H302.875V116.553C302.875 117.024 302.975 117.355 303.175 117.545C303.376 117.735 303.691 117.831 304.122 117.831C304.503 117.831 304.809 117.781 305.04 117.68V118.838C304.679 118.958 304.293 119.019 303.882 119.019Z" fill="black"/>
<path d="M409.832 17.2482V5.23859H413.977C415.025 5.23859 415.882 5.55998 416.548 6.20274C417.224 6.84551 417.563 7.62923 417.563 8.55391C417.563 9.54625 417.19 10.3187 416.446 10.8713C417.732 11.4013 418.375 12.3541 418.375 13.7299C418.375 14.7335 418.008 15.5736 417.275 16.2502C416.553 16.9155 415.629 17.2482 414.501 17.2482H409.832ZM411.812 15.4383H414.45C415.082 15.4383 415.572 15.2804 415.922 14.9647C416.271 14.6489 416.446 14.2317 416.446 13.713C416.446 13.2055 416.271 12.7939 415.922 12.4782C415.572 12.1511 415.082 11.9876 414.45 11.9876H411.812V15.4383ZM411.812 10.2961H413.875C414.405 10.2961 414.828 10.1439 415.144 9.83944C415.46 9.53498 415.617 9.14593 415.617 8.67232C415.617 8.22125 415.46 7.83785 415.144 7.5221C414.828 7.20636 414.405 7.04849 413.875 7.04849H411.812V10.2961ZM423.751 17.4173C422.601 17.4173 421.631 16.9888 420.842 16.1318C420.064 15.2748 419.675 14.2373 419.675 13.0194C419.675 11.8016 420.064 10.7641 420.842 9.9071C421.631 9.05008 422.601 8.62157 423.751 8.62157C424.326 8.62157 424.856 8.75125 425.341 9.01062C425.826 9.2587 426.198 9.56317 426.457 9.92402V8.79072H428.318V17.2482H426.457V16.1149C426.198 16.4757 425.826 16.7858 425.341 17.0452C424.856 17.2933 424.326 17.4173 423.751 17.4173ZM422.279 14.9477C422.753 15.4665 423.356 15.7258 424.089 15.7258C424.822 15.7258 425.426 15.4665 425.899 14.9477C426.373 14.429 426.61 13.7863 426.61 13.0194C426.61 12.2526 426.373 11.6099 425.899 11.0911C425.426 10.5724 424.822 10.3131 424.089 10.3131C423.356 10.3131 422.753 10.5724 422.279 11.0911C421.806 11.6099 421.569 12.2526 421.569 13.0194C421.569 13.7863 421.806 14.429 422.279 14.9477ZM434.695 17.4173C433.421 17.4173 432.356 17.0001 431.498 16.1656C430.653 15.3199 430.23 14.2711 430.23 13.0194C430.23 11.7677 430.653 10.7247 431.498 9.89019C432.356 9.04444 433.421 8.62157 434.695 8.62157C435.564 8.62157 436.342 8.83019 437.03 9.24742C437.729 9.66466 438.264 10.2341 438.637 10.9558L437.013 11.8354C436.798 11.3843 436.488 11.0235 436.082 10.7528C435.676 10.4822 435.214 10.3469 434.695 10.3469C433.951 10.3469 433.337 10.6063 432.852 11.125C432.367 11.6324 432.124 12.2639 432.124 13.0194C432.124 13.775 432.367 14.4121 432.852 14.9308C433.337 15.4383 433.951 15.692 434.695 15.692C435.214 15.692 435.676 15.5567 436.082 15.286C436.488 15.0154 436.798 14.6546 437.013 14.2035L438.637 15.0831C438.264 15.8048 437.729 16.3742 437.03 16.7915C436.342 17.2087 435.564 17.4173 434.695 17.4173ZM446.24 17.2482L442.198 13.1717V17.2482H440.337V4.562H442.198V12.0046L445.428 8.79072H447.779L444.007 12.5627L448.625 17.2482H446.24ZM451.055 14.7617C451.54 15.2466 452.138 15.489 452.848 15.489C453.558 15.489 454.156 15.2466 454.641 14.7617C455.126 14.2655 455.368 13.6453 455.368 12.901C455.368 12.1568 455.126 11.5422 454.641 11.0573C454.156 10.5611 453.558 10.3131 452.848 10.3131C452.138 10.3131 451.54 10.5611 451.055 11.0573C450.57 11.5422 450.328 12.1568 450.328 12.901C450.328 13.6453 450.57 14.2655 451.055 14.7617ZM452.679 20.9525C451.856 20.9525 451.094 20.8116 450.395 20.5297C449.696 20.259 449.138 19.8813 448.721 19.3964L449.854 18.0601C450.61 18.8833 451.546 19.2949 452.662 19.2949C453.395 19.2949 454.004 19.0581 454.489 18.5844C454.974 18.1221 455.216 17.4793 455.216 16.6561V15.8781C454.945 16.2615 454.568 16.5772 454.083 16.8253C453.598 17.0734 453.074 17.1974 452.51 17.1974C451.371 17.1974 450.407 16.7858 449.617 15.9626C448.839 15.1282 448.45 14.1076 448.45 12.901C448.45 11.7057 448.839 10.6965 449.617 9.87327C450.407 9.03881 451.371 8.62157 452.51 8.62157C453.074 8.62157 453.598 8.74561 454.083 8.9937C454.568 9.23051 454.945 9.54062 455.216 9.92402V8.79072H457.077V16.6731C457.077 18.0826 456.671 19.1483 455.859 19.87C455.058 20.5917 453.998 20.9525 452.679 20.9525ZM459.581 17.2482V8.79072H461.442V10.2961C461.599 9.82253 461.887 9.43913 462.304 9.14593C462.733 8.85274 463.189 8.70615 463.674 8.70615C463.968 8.70615 464.21 8.7287 464.402 8.77381V10.6852C464.131 10.5837 463.821 10.533 463.471 10.533C462.908 10.533 462.428 10.7641 462.034 11.2265C461.639 11.6775 461.442 12.309 461.442 13.1209V17.2482H459.581ZM472.678 16.1487C471.832 16.9944 470.784 17.4173 469.532 17.4173C468.28 17.4173 467.226 16.9944 466.369 16.1487C465.523 15.2917 465.1 14.2486 465.1 13.0194C465.1 11.7903 465.523 10.7528 466.369 9.9071C467.226 9.05008 468.28 8.62157 469.532 8.62157C470.784 8.62157 471.832 9.05008 472.678 9.9071C473.535 10.7528 473.964 11.7903 473.964 13.0194C473.964 14.2486 473.535 15.2917 472.678 16.1487ZM469.532 15.692C470.265 15.692 470.868 15.4383 471.342 14.9308C471.827 14.4121 472.069 13.775 472.069 13.0194C472.069 12.2639 471.827 11.6324 471.342 11.125C470.868 10.6063 470.265 10.3469 469.532 10.3469C468.788 10.3469 468.173 10.6063 467.688 11.125C467.215 11.6324 466.978 12.2639 466.978 13.0194C466.978 13.775 467.215 14.4121 467.688 14.9308C468.173 15.4383 468.788 15.692 469.532 15.692ZM478.863 17.4173C477.893 17.4173 477.126 17.0959 476.562 16.4532C475.999 15.7991 475.717 14.9308 475.717 13.8483V8.79072H477.577V13.5438C477.577 14.2204 477.724 14.756 478.017 15.1507C478.31 15.5341 478.728 15.7258 479.269 15.7258C479.9 15.7258 480.402 15.489 480.774 15.0154C481.146 14.5305 481.332 13.8426 481.332 12.9518V8.79072H483.193V17.2482H481.332V16.098C480.836 16.9775 480.013 17.4173 478.863 17.4173ZM485.697 17.2482V8.79072H487.557V9.94093C488.087 9.06136 488.944 8.62157 490.128 8.62157C491.109 8.62157 491.893 8.94296 492.479 9.58572C493.066 10.2285 493.359 11.0855 493.359 12.1568V17.2482H491.498V12.4613C491.498 11.7847 491.341 11.2603 491.025 10.8882C490.709 10.5048 490.281 10.3131 489.739 10.3131C489.096 10.3131 488.572 10.5555 488.166 11.0404C487.76 11.5253 487.557 12.2075 487.557 13.0871V17.2482H485.697ZM499.207 17.4173C498.057 17.4173 497.087 16.9888 496.298 16.1318C495.52 15.2748 495.131 14.2373 495.131 13.0194C495.131 11.8016 495.52 10.7641 496.298 9.9071C497.087 9.05008 498.057 8.62157 499.207 8.62157C499.782 8.62157 500.312 8.75125 500.797 9.01062C501.282 9.2587 501.654 9.56317 501.914 9.92402V4.562H503.774V17.2482H501.914V16.1149C501.654 16.4757 501.282 16.7858 500.797 17.0452C500.312 17.2933 499.782 17.4173 499.207 17.4173ZM497.736 14.9477C498.209 15.4665 498.813 15.7258 499.546 15.7258C500.279 15.7258 500.882 15.4665 501.356 14.9477C501.829 14.429 502.066 13.7863 502.066 13.0194C502.066 12.2526 501.829 11.6099 501.356 11.0911C500.882 10.5724 500.279 10.3131 499.546 10.3131C498.813 10.3131 498.209 10.5724 497.736 11.0911C497.262 11.6099 497.025 12.2526 497.025 13.0194C497.025 13.7863 497.262 14.429 497.736 14.9477Z" fill="black"/>
<rect x="383.874" y="34.8741" width="62.961" height="62.961" rx="8.92731" fill="#FCEED7" stroke="black" stroke-width="0.939716"/>
<path d="M405.38 109.23C406.062 109.872 406.403 110.684 406.403 111.666C406.403 112.648 406.062 113.46 405.38 114.102C404.709 114.733 403.826 115.049 402.734 115.049H400.869V118.943H399.471V108.268H402.734C403.826 108.268 404.709 108.589 405.38 109.23ZM404.403 113.17C404.814 112.779 405.019 112.277 405.019 111.666C405.019 111.055 404.814 110.553 404.403 110.162C404.002 109.772 403.446 109.576 402.734 109.576H400.869V113.756H402.734C403.446 113.756 404.002 113.561 404.403 113.17ZM408.056 118.943V107.667H409.349V118.943H408.056ZM414.898 119.094C413.855 119.094 412.978 118.713 412.266 117.951C411.565 117.189 411.214 116.267 411.214 115.184C411.214 114.102 411.565 113.18 412.266 112.418C412.978 111.656 413.855 111.275 414.898 111.275C415.449 111.275 415.96 111.4 416.431 111.651C416.912 111.892 417.283 112.202 417.544 112.583V111.425H418.837V118.943H417.544V117.785C417.283 118.166 416.912 118.482 416.431 118.733C415.96 118.973 415.449 119.094 414.898 119.094ZM415.093 117.906C415.835 117.906 416.446 117.645 416.927 117.124C417.409 116.603 417.649 115.956 417.649 115.184C417.649 114.413 417.409 113.766 416.927 113.245C416.446 112.724 415.835 112.463 415.093 112.463C414.341 112.463 413.725 112.724 413.244 113.245C412.763 113.766 412.522 114.413 412.522 115.184C412.522 115.956 412.763 116.603 413.244 117.124C413.725 117.645 414.341 117.906 415.093 117.906ZM422.579 109.155C422.409 109.326 422.193 109.411 421.933 109.411C421.672 109.411 421.451 109.326 421.271 109.155C421.091 108.975 421 108.754 421 108.494C421 108.243 421.091 108.027 421.271 107.847C421.451 107.667 421.672 107.576 421.933 107.576C422.193 107.576 422.409 107.667 422.579 107.847C422.749 108.027 422.835 108.243 422.835 108.494C422.835 108.754 422.749 108.975 422.579 109.155ZM421.271 118.943V111.425H422.564V118.943H421.271ZM425.015 118.943V111.425H426.308V112.583C426.819 111.711 427.616 111.275 428.699 111.275C429.551 111.275 430.237 111.551 430.759 112.102C431.28 112.653 431.541 113.39 431.541 114.312V118.943H430.263V114.508C430.263 113.876 430.102 113.38 429.781 113.019C429.461 112.648 429.03 112.463 428.488 112.463C427.867 112.463 427.346 112.709 426.925 113.2C426.514 113.691 426.308 114.362 426.308 115.214V118.943H425.015Z" fill="black"/>
<rect x="466.569" y="34.8741" width="62.961" height="62.961" rx="8.92731" fill="#FCEED7" stroke="black" stroke-width="0.939716"/>
<mask id="mask0_1111_67985" style="mask-type:alpha" maskUnits="userSpaceOnUse" x="466" y="34" width="64" height="65">
<mask id="path-16-inside-1_1111_67985" fill="white">
<rect x="466.099" y="34.4042" width="63.9007" height="63.9007" rx="9.39716"/>
</mask>
<rect x="466.099" y="34.4042" width="63.9007" height="63.9007" rx="9.39716" fill="#FCEED7" stroke="black" stroke-width="20.6738" mask="url(#path-16-inside-1_1111_67985)"/>
</mask>
<g mask="url(#mask0_1111_67985)">
<g opacity="0.6">
<g filter="url(#filter0_f_1111_67985)">
<ellipse cx="482.334" cy="57.2656" rx="17.3302" ry="14.3243" transform="rotate(-127.029 482.334 57.2656)" fill="#FDDF3F" fill-opacity="0.5"/>
</g>
<g filter="url(#filter1_f_1111_67985)">
<ellipse cx="512.263" cy="75.4594" rx="22.1607" ry="18.317" transform="rotate(-75.1812 512.263 75.4594)" fill="#FFC700" fill-opacity="0.5"/>
</g>
<g filter="url(#filter2_f_1111_67985)">
<ellipse cx="502.352" cy="34.912" rx="15.1053" ry="12.5063" transform="rotate(-172.237 502.352 34.912)" fill="#E99415" fill-opacity="0.7"/>
</g>
<g filter="url(#filter3_f_1111_67985)">
<ellipse cx="481.571" cy="88.5723" rx="15.1053" ry="12.5063" transform="rotate(-172.237 481.571 88.5723)" fill="#E99415" fill-opacity="0.4"/>
</g>
</g>
</g>
<path d="M475.84 119.124C474.306 119.124 473.003 118.592 471.93 117.53C470.858 116.457 470.322 115.149 470.322 113.606C470.322 112.062 470.858 110.759 471.93 109.696C473.003 108.624 474.306 108.088 475.84 108.088C476.852 108.088 477.769 108.318 478.591 108.779C479.413 109.24 480.07 109.872 480.561 110.674L479.388 111.38C479.007 110.769 478.511 110.288 477.899 109.937C477.288 109.586 476.601 109.411 475.84 109.411C474.677 109.411 473.699 109.817 472.908 110.629C472.126 111.441 471.735 112.433 471.735 113.606C471.735 114.778 472.126 115.771 472.908 116.583C473.699 117.395 474.677 117.801 475.84 117.801C476.601 117.801 477.288 117.625 477.899 117.274C478.511 116.923 479.007 116.442 479.388 115.831L480.561 116.538C480.07 117.339 479.413 117.971 478.591 118.432C477.769 118.893 476.852 119.124 475.84 119.124ZM485.551 119.094C484.418 119.094 483.476 118.718 482.724 117.966C481.982 117.204 481.611 116.277 481.611 115.184C481.611 114.092 481.982 113.17 482.724 112.418C483.476 111.656 484.418 111.275 485.551 111.275C486.673 111.275 487.606 111.656 488.347 112.418C489.099 113.17 489.475 114.092 489.475 115.184C489.475 116.277 489.099 117.204 488.347 117.966C487.606 118.718 486.673 119.094 485.551 119.094ZM483.656 117.109C484.147 117.63 484.779 117.891 485.551 117.891C486.322 117.891 486.949 117.63 487.43 117.109C487.911 116.588 488.152 115.946 488.152 115.184C488.152 114.423 487.911 113.781 487.43 113.26C486.949 112.739 486.322 112.478 485.551 112.478C484.779 112.478 484.147 112.739 483.656 113.26C483.175 113.781 482.935 114.423 482.935 115.184C482.935 115.946 483.175 116.588 483.656 117.109ZM491.331 118.943V107.667H492.624V118.943H491.331ZM498.413 119.094C497.28 119.094 496.338 118.718 495.586 117.966C494.845 117.204 494.474 116.277 494.474 115.184C494.474 114.092 494.845 113.17 495.586 112.418C496.338 111.656 497.28 111.275 498.413 111.275C499.536 111.275 500.468 111.656 501.21 112.418C501.961 113.17 502.337 114.092 502.337 115.184C502.337 116.277 501.961 117.204 501.21 117.966C500.468 118.718 499.536 119.094 498.413 119.094ZM496.519 117.109C497.01 117.63 497.641 117.891 498.413 117.891C499.185 117.891 499.811 117.63 500.292 117.109C500.774 116.588 501.014 115.946 501.014 115.184C501.014 114.423 500.774 113.781 500.292 113.26C499.811 112.739 499.185 112.478 498.413 112.478C497.641 112.478 497.01 112.739 496.519 113.26C496.037 113.781 495.797 114.423 495.797 115.184C495.797 115.946 496.037 116.588 496.519 117.109ZM504.193 118.943V111.425H505.486V112.884C505.627 112.423 505.897 112.052 506.298 111.771C506.709 111.491 507.14 111.35 507.591 111.35C507.812 111.35 508.007 111.37 508.178 111.41V112.749C507.997 112.668 507.762 112.628 507.471 112.628C506.95 112.628 506.489 112.854 506.088 113.305C505.687 113.756 505.486 114.392 505.486 115.214V118.943H504.193ZM510.331 118.943V112.613H508.737V111.425H510.331V109.907C510.331 109.155 510.541 108.579 510.962 108.178C511.383 107.777 511.94 107.576 512.631 107.576C513.042 107.576 513.433 107.642 513.804 107.772V108.915C513.574 108.814 513.263 108.764 512.872 108.764C512.441 108.764 512.125 108.859 511.925 109.05C511.724 109.24 511.624 109.571 511.624 110.042V111.425H513.804V112.613H511.624V118.943H510.331ZM517.882 119.094C517.06 119.094 516.393 118.818 515.882 118.267C515.371 117.705 515.115 116.964 515.115 116.041V111.425H516.408V115.846C516.408 116.477 516.559 116.979 516.859 117.349C517.17 117.72 517.586 117.906 518.107 117.906C518.709 117.906 519.205 117.66 519.596 117.169C519.997 116.668 520.197 115.996 520.197 115.154V111.425H521.49V118.943H520.197V117.785C519.706 118.658 518.934 119.094 517.882 119.094ZM523.927 118.943V107.667H525.22V118.943H523.927Z" fill="black"/>
<path d="M239.88 196.734H238.155L231.389 188.09V196.734H229.41V184.724H231.135L237.884 193.351V184.724H239.88V196.734ZM246.26 196.903C244.975 196.903 243.915 196.492 243.08 195.668C242.257 194.845 241.845 193.791 241.845 192.505C241.845 191.254 242.263 190.21 243.097 189.376C243.932 188.53 244.986 188.107 246.26 188.107C247.433 188.107 248.403 188.479 249.17 189.224C249.948 189.968 250.337 190.994 250.337 192.302C250.337 192.528 250.331 192.731 250.32 192.911H243.672C243.717 193.599 243.982 194.157 244.467 194.586C244.952 195.003 245.555 195.212 246.277 195.212C247.36 195.212 248.166 194.783 248.696 193.926L250.117 194.941C249.305 196.249 248.019 196.903 246.26 196.903ZM243.757 191.558H248.459C248.358 190.972 248.093 190.515 247.664 190.188C247.247 189.85 246.756 189.68 246.193 189.68C245.606 189.68 245.082 189.844 244.619 190.171C244.168 190.498 243.881 190.96 243.757 191.558ZM255.277 196.903C254.307 196.903 253.541 196.582 252.977 195.939C252.413 195.285 252.131 194.417 252.131 193.334V188.277H253.992V193.03C253.992 193.706 254.138 194.242 254.431 194.637C254.725 195.02 255.142 195.212 255.683 195.212C256.315 195.212 256.816 194.975 257.189 194.501C257.561 194.016 257.747 193.328 257.747 192.438V188.277H259.607V196.734H257.747V195.584C257.251 196.463 256.427 196.903 255.277 196.903ZM265.781 196.819C264.924 196.819 264.225 196.582 263.684 196.108C263.154 195.623 262.889 194.924 262.889 194.011V189.934H261.13V188.277H262.889V185.925H264.75V188.277H267.168V189.934H264.75V193.706C264.75 194.225 264.862 194.597 265.088 194.823C265.313 195.037 265.674 195.144 266.17 195.144C266.576 195.144 266.909 195.088 267.168 194.975V196.632C266.762 196.757 266.3 196.819 265.781 196.819ZM268.933 196.734V188.277H270.794V189.782C270.952 189.308 271.239 188.925 271.656 188.632C272.085 188.339 272.542 188.192 273.026 188.192C273.32 188.192 273.562 188.214 273.754 188.26V190.171C273.483 190.069 273.173 190.019 272.823 190.019C272.26 190.019 271.78 190.25 271.386 190.712C270.991 191.163 270.794 191.795 270.794 192.607V196.734H268.933ZM278.545 196.903C277.395 196.903 276.425 196.475 275.636 195.618C274.858 194.761 274.469 193.723 274.469 192.505C274.469 191.287 274.858 190.25 275.636 189.393C276.425 188.536 277.395 188.107 278.545 188.107C279.121 188.107 279.651 188.237 280.135 188.496C280.62 188.744 280.992 189.049 281.252 189.41V188.277H283.112V196.734H281.252V195.601C280.992 195.962 280.62 196.272 280.135 196.531C279.651 196.779 279.121 196.903 278.545 196.903ZM277.074 194.434C277.547 194.952 278.151 195.212 278.884 195.212C279.617 195.212 280.22 194.952 280.694 194.434C281.167 193.915 281.404 193.272 281.404 192.505C281.404 191.738 281.167 191.096 280.694 190.577C280.22 190.058 279.617 189.799 278.884 189.799C278.151 189.799 277.547 190.058 277.074 190.577C276.6 191.096 276.363 191.738 276.363 192.505C276.363 193.272 276.6 193.915 277.074 194.434ZM285.633 196.734V184.048H287.494V196.734H285.633ZM292.684 196.903C291.905 196.903 291.218 196.757 290.62 196.463C290.022 196.159 289.577 195.708 289.284 195.11L290.654 194.129C290.823 194.49 291.094 194.777 291.466 194.992C291.838 195.195 292.244 195.296 292.684 195.296C293.033 195.296 293.321 195.217 293.546 195.059C293.783 194.902 293.901 194.682 293.901 194.4C293.901 194.152 293.806 193.949 293.614 193.791C293.433 193.633 293.095 193.475 292.599 193.317L291.855 193.114C290.355 192.708 289.616 191.846 289.639 190.526C289.639 189.793 289.926 189.207 290.501 188.767C291.077 188.327 291.798 188.107 292.667 188.107C293.975 188.107 294.928 188.587 295.525 189.545L294.24 190.526C293.811 189.951 293.276 189.664 292.633 189.664C292.328 189.664 292.063 189.737 291.838 189.883C291.612 190.019 291.499 190.21 291.499 190.459C291.499 190.684 291.573 190.876 291.719 191.034C291.866 191.192 292.131 191.332 292.514 191.457L293.377 191.71C294.166 191.947 294.758 192.268 295.153 192.674C295.548 193.069 295.745 193.605 295.745 194.281C295.745 195.082 295.458 195.719 294.882 196.193C294.307 196.666 293.574 196.903 292.684 196.903Z" fill="black"/>
<rect x="0.469858" y="214.36" width="62.961" height="62.961" rx="8.92731" fill="black" stroke="black" stroke-width="0.939716"/>
<rect x="92.5621" y="214.36" width="62.961" height="62.961" rx="8.92731" fill="#333333" stroke="black" stroke-width="0.939716"/>
<rect x="184.654" y="214.36" width="62.961" height="62.961" rx="8.92731" fill="#666666" stroke="black" stroke-width="0.939716"/>
<rect x="276.746" y="214.36" width="62.961" height="62.961" rx="8.92731" fill="#999999" stroke="black" stroke-width="0.939716"/>
<rect x="368.839" y="214.36" width="62.961" height="62.961" rx="8.92731" fill="#CCCCCC" stroke="black" stroke-width="0.939716"/>
<rect x="460.931" y="214.36" width="62.961" height="62.961" rx="8.92731" fill="white" stroke="black" stroke-width="0.939716"/>
<defs>
<filter id="filter0_f_1111_67985" x="452.751" y="26.8586" width="59.165" height="60.8139" filterUnits="userSpaceOnUse" color-interpolation-filters="sRGB">
<feFlood flood-opacity="0" result="BackgroundImageFix"/>
<feBlend mode="normal" in="SourceGraphic" in2="BackgroundImageFix" result="shape"/>
<feGaussianBlur stdDeviation="7.05028" result="effect1_foregroundBlur_1111_67985"/>
</filter>
<filter id="filter1_f_1111_67985" x="479.564" y="39.4243" width="65.3964" height="72.0701" filterUnits="userSpaceOnUse" color-interpolation-filters="sRGB">
<feFlood flood-opacity="0" result="BackgroundImageFix"/>
<feBlend mode="normal" in="SourceGraphic" in2="BackgroundImageFix" result="shape"/>
<feGaussianBlur stdDeviation="7.05028" result="effect1_foregroundBlur_1111_67985"/>
</filter>
<filter id="filter2_f_1111_67985" x="473.188" y="8.25097" width="58.3276" height="53.3221" filterUnits="userSpaceOnUse" color-interpolation-filters="sRGB">
<feFlood flood-opacity="0" result="BackgroundImageFix"/>
<feBlend mode="normal" in="SourceGraphic" in2="BackgroundImageFix" result="shape"/>
<feGaussianBlur stdDeviation="7.05028" result="effect1_foregroundBlur_1111_67985"/>
</filter>
<filter id="filter3_f_1111_67985" x="452.407" y="61.9112" width="58.3276" height="53.3221" filterUnits="userSpaceOnUse" color-interpolation-filters="sRGB">
<feFlood flood-opacity="0" result="BackgroundImageFix"/>
<feBlend mode="normal" in="SourceGraphic" in2="BackgroundImageFix" result="shape"/>
<feGaussianBlur stdDeviation="7.05028" result="effect1_foregroundBlur_1111_67985"/>
</filter>
<linearGradient id="paint0_linear_1111_67985" x1="280.035" y1="34.4043" x2="280.035" y2="98.305" gradientUnits="userSpaceOnUse">
<stop stop-color="#9747FF"/>
<stop offset="1" stop-color="#D948DC"/>
</linearGradient>
</defs>
</svg>
