<svg width="435" height="206" viewBox="0 0 435 206" fill="none" xmlns="http://www.w3.org/2000/svg">
<rect width="435" height="206" rx="40" fill="#F8FAFC"/>
<rect x="2" y="2" width="431" height="202" rx="38" stroke="black" stroke-opacity="0.05" stroke-width="4"/>
<g filter="url(#filter0_d_1001_150655)">
<rect x="45.1445" y="38.146" width="79.708" height="79.708" rx="24" fill="white" shape-rendering="crispEdges"/>
<path d="M88.3086 89.5812L93.2721 94.5447L101.545 86.2722" stroke="#6366F1" stroke-width="1.6545" stroke-linecap="round" stroke-linejoin="round"/>
<path d="M71.7617 68.0728V77.9999C71.7617 77.9999 71.7617 82.9634 83.3432 82.9634C94.9247 82.9634 94.9247 77.9999 94.9247 77.9999V68.0728" stroke="#6366F1" stroke-width="1.6545" stroke-linecap="round" stroke-linejoin="round"/>
<path d="M83.3432 63.1093C94.9247 63.1093 94.9247 68.0728 94.9247 68.0728C94.9247 68.0728 94.9247 73.0364 83.3432 73.0364C71.7617 73.0364 71.7617 68.0728 71.7617 68.0728C71.7617 68.0728 71.7617 63.1093 83.3432 63.1093Z" stroke="#6366F1" stroke-width="1.6545" stroke-linecap="round" stroke-linejoin="round"/>
<path d="M83.3432 92.8904C71.7617 92.8904 71.7617 87.9269 71.7617 87.9269V77.9998" stroke="#6366F1" stroke-width="1.6545" stroke-linecap="round" stroke-linejoin="round"/>
<rect x="51.1445" y="44.146" width="68" height="68" rx="18" stroke="#A4A4A4" stroke-opacity="0.4" stroke-miterlimit="1.41421" stroke-linecap="round" stroke-dasharray="6 6"/>
</g>
<path d="M66.8332 147.036C66.1612 147.036 65.5312 146.905 64.9432 146.644C64.3599 146.378 63.8489 146.012 63.4102 145.545C62.9715 145.074 62.6285 144.532 62.3812 143.921C62.1339 143.305 62.0102 142.647 62.0102 141.947C62.0102 141.233 62.1385 140.568 62.3952 139.952C62.6519 139.336 63.0042 138.799 63.4522 138.342C63.9002 137.88 64.4135 137.521 64.9922 137.264C65.5755 137.007 66.1939 136.879 66.8472 136.879C67.5985 136.879 68.3079 137.054 68.9752 137.404C69.6472 137.754 70.2165 138.251 70.6832 138.895L69.8082 139.371C69.4349 138.881 68.9845 138.505 68.4572 138.244C67.9345 137.983 67.3955 137.852 66.8402 137.852C66.3129 137.852 65.8159 137.959 65.3492 138.174C64.8872 138.384 64.4789 138.678 64.1242 139.056C63.7695 139.434 63.4919 139.87 63.2912 140.365C63.0905 140.86 62.9902 141.392 62.9902 141.961C62.9902 142.526 63.0905 143.055 63.2912 143.55C63.4919 144.045 63.7672 144.481 64.1172 144.859C64.4719 145.232 64.8825 145.526 65.3492 145.741C65.8159 145.951 66.3152 146.056 66.8472 146.056C67.2859 146.056 67.7012 145.981 68.0932 145.832C68.4899 145.678 68.8515 145.463 69.1782 145.188C69.5049 144.913 69.7802 144.591 70.0042 144.222C70.2329 143.853 70.3985 143.452 70.5012 143.018H67.8552V142.129H71.6422C71.6282 142.806 71.4929 143.44 71.2362 144.033C70.9795 144.626 70.6295 145.148 70.1862 145.601C69.7475 146.049 69.2412 146.401 68.6672 146.658C68.0979 146.91 67.4865 147.036 66.8332 147.036ZM78.6946 139.854H79.6746V146.854H78.6946L78.6596 145.552C78.4309 145.995 78.1113 146.355 77.7006 146.63C77.2899 146.901 76.7999 147.036 76.2306 147.036C75.7173 147.036 75.2366 146.94 74.7886 146.749C74.3406 146.553 73.9463 146.285 73.6056 145.944C73.2649 145.603 72.9989 145.209 72.8076 144.761C72.6163 144.313 72.5206 143.832 72.5206 143.319C72.5206 142.815 72.6139 142.341 72.8006 141.898C72.9919 141.455 73.2533 141.065 73.5846 140.729C73.9206 140.393 74.3079 140.132 74.7466 139.945C75.1899 139.754 75.6636 139.658 76.1676 139.658C76.7509 139.658 77.2596 139.798 77.6936 140.078C78.1276 140.353 78.4729 140.715 78.7296 141.163L78.6946 139.854ZM76.2096 146.084C76.7089 146.084 77.1383 145.963 77.4976 145.72C77.8569 145.473 78.1323 145.141 78.3236 144.726C78.5196 144.311 78.6176 143.853 78.6176 143.354C78.6176 142.841 78.5196 142.379 78.3236 141.968C78.1276 141.553 77.8499 141.224 77.4906 140.981C77.1313 140.738 76.7043 140.617 76.2096 140.617C75.7149 140.617 75.2623 140.741 74.8516 140.988C74.4456 141.231 74.1213 141.56 73.8786 141.975C73.6406 142.39 73.5216 142.85 73.5216 143.354C73.5216 143.863 73.6453 144.325 73.8926 144.74C74.1399 145.151 74.4666 145.477 74.8726 145.72C75.2833 145.963 75.7289 146.084 76.2096 146.084ZM84.6524 140.834H82.9794L82.9724 146.854H81.9924L81.9994 140.834H80.7324V139.854H81.9994L81.9924 137.656H82.9724L82.9794 139.854H84.6524V140.834ZM92.0055 142.521V146.854H91.0255V142.717C91.0255 142.334 90.9322 141.987 90.7455 141.674C90.5589 141.361 90.3092 141.112 89.9965 140.925C89.6839 140.738 89.3362 140.645 88.9535 140.645C88.5755 140.645 88.2279 140.738 87.9105 140.925C87.5979 141.112 87.3482 141.361 87.1615 141.674C86.9749 141.987 86.8815 142.334 86.8815 142.717V146.854H85.9015V136.354H86.8815V140.82C87.1289 140.465 87.4509 140.183 87.8475 139.973C88.2442 139.763 88.6759 139.658 89.1425 139.658C89.6699 139.658 90.1505 139.786 90.5845 140.043C91.0185 140.3 91.3639 140.645 91.6205 141.079C91.8772 141.513 92.0055 141.994 92.0055 142.521ZM96.3507 147.036C95.7067 147.036 95.1187 146.87 94.5867 146.539C94.0593 146.208 93.637 145.764 93.3197 145.209C93.007 144.649 92.8507 144.031 92.8507 143.354C92.8507 142.841 92.9417 142.362 93.1237 141.919C93.3057 141.471 93.5553 141.079 93.8727 140.743C94.1947 140.402 94.568 140.136 94.9927 139.945C95.4173 139.754 95.87 139.658 96.3507 139.658C96.8687 139.658 97.3447 139.761 97.7787 139.966C98.2173 140.171 98.593 140.458 98.9057 140.827C99.223 141.196 99.461 141.627 99.6197 142.122C99.783 142.617 99.8507 143.151 99.8227 143.725H93.8867C93.9427 144.168 94.0827 144.565 94.3067 144.915C94.5353 145.265 94.8247 145.543 95.1747 145.748C95.5293 145.949 95.9213 146.051 96.3507 146.056C96.8173 146.056 97.2373 145.935 97.6107 145.692C97.9887 145.449 98.292 145.116 98.5207 144.691L99.5147 144.922C99.2347 145.543 98.8123 146.051 98.2477 146.448C97.683 146.84 97.0507 147.036 96.3507 147.036ZM93.8587 142.934H98.8357C98.803 142.5 98.67 142.103 98.4367 141.744C98.208 141.38 97.9117 141.091 97.5477 140.876C97.1837 140.657 96.7847 140.547 96.3507 140.547C95.9167 140.547 95.52 140.654 95.1607 140.869C94.8013 141.079 94.5073 141.366 94.2787 141.73C94.05 142.089 93.91 142.491 93.8587 142.934ZM101.023 146.854V139.854H102.003V140.82C102.25 140.465 102.572 140.183 102.969 139.973C103.365 139.763 103.797 139.658 104.264 139.658C104.534 139.658 104.796 139.693 105.048 139.763L104.649 140.736C104.453 140.675 104.261 140.645 104.075 140.645C103.697 140.645 103.349 140.738 103.032 140.925C102.719 141.112 102.469 141.361 102.283 141.674C102.096 141.987 102.003 142.334 102.003 142.717V146.854H101.023ZM47.4836 163.854V156.854H48.4636V157.82C48.7156 157.465 49.0376 157.183 49.4296 156.973C49.8216 156.763 50.2509 156.658 50.7176 156.658C51.2449 156.658 51.7279 156.789 52.1666 157.05C52.6052 157.307 52.9482 157.65 53.1956 158.079C53.4429 157.65 53.7836 157.307 54.2176 157.05C54.6516 156.789 55.1322 156.658 55.6596 156.658C56.1869 156.658 56.6676 156.786 57.1016 157.043C57.5356 157.3 57.8809 157.645 58.1376 158.079C58.3942 158.513 58.5226 158.994 58.5226 159.521V163.854H57.5426V159.738C57.5426 159.365 57.4516 159.019 57.2696 158.702C57.0876 158.385 56.8426 158.13 56.5346 157.939C56.2312 157.743 55.8929 157.645 55.5196 157.645C55.1462 157.645 54.8056 157.736 54.4976 157.918C54.1942 158.095 53.9516 158.343 53.7696 158.66C53.5876 158.973 53.4966 159.332 53.4966 159.738V163.854H52.5166V159.738C52.5166 159.332 52.4256 158.973 52.2436 158.66C52.0616 158.343 51.8166 158.095 51.5086 157.918C51.2006 157.736 50.8599 157.645 50.4866 157.645C50.1179 157.645 49.7796 157.743 49.4716 157.939C49.1636 158.13 48.9186 158.385 48.7366 158.702C48.5546 159.019 48.4636 159.365 48.4636 159.738V163.854H47.4836ZM65.5422 156.854H66.5222V163.854H65.5422L65.5072 162.552C65.2786 162.995 64.9589 163.355 64.5482 163.63C64.1376 163.901 63.6476 164.036 63.0782 164.036C62.5649 164.036 62.0842 163.94 61.6362 163.749C61.1882 163.553 60.7939 163.285 60.4532 162.944C60.1126 162.603 59.8466 162.209 59.6552 161.761C59.4639 161.313 59.3682 160.832 59.3682 160.319C59.3682 159.815 59.4616 159.341 59.6482 158.898C59.8396 158.455 60.1009 158.065 60.4322 157.729C60.7682 157.393 61.1556 157.132 61.5942 156.945C62.0376 156.754 62.5112 156.658 63.0152 156.658C63.5986 156.658 64.1072 156.798 64.5412 157.078C64.9752 157.353 65.3206 157.715 65.5772 158.163L65.5422 156.854ZM63.0572 163.084C63.5566 163.084 63.9859 162.963 64.3452 162.72C64.7046 162.473 64.9799 162.141 65.1712 161.726C65.3672 161.311 65.4652 160.853 65.4652 160.354C65.4652 159.841 65.3672 159.379 65.1712 158.968C64.9752 158.553 64.6976 158.224 64.3382 157.981C63.9789 157.738 63.5519 157.617 63.0572 157.617C62.5626 157.617 62.1099 157.741 61.6992 157.988C61.2932 158.231 60.9689 158.56 60.7262 158.975C60.4882 159.39 60.3692 159.85 60.3692 160.354C60.3692 160.863 60.4929 161.325 60.7402 161.74C60.9876 162.151 61.3142 162.477 61.7202 162.72C62.1309 162.963 62.5766 163.084 63.0572 163.084ZM67.923 163.854V156.854H68.903V157.82C69.1503 157.465 69.4723 157.183 69.869 156.973C70.2657 156.763 70.6973 156.658 71.164 156.658C71.4347 156.658 71.696 156.693 71.948 156.763L71.549 157.736C71.353 157.675 71.1617 157.645 70.975 157.645C70.597 157.645 70.2493 157.738 69.932 157.925C69.6193 158.112 69.3697 158.361 69.183 158.674C68.9963 158.987 68.903 159.334 68.903 159.717V163.854H67.923ZM78.2299 163.854H77.1029L75.1429 160.473L73.7429 162.146V163.854H72.7629V153.354H73.7429V160.62L76.8999 156.854H78.1809L75.8079 159.675L78.2299 163.854ZM82.1866 164.036C81.5426 164.036 80.9546 163.87 80.4226 163.539C79.8953 163.208 79.4729 162.764 79.1556 162.209C78.8429 161.649 78.6866 161.031 78.6866 160.354C78.6866 159.841 78.7776 159.362 78.9596 158.919C79.1416 158.471 79.3913 158.079 79.7086 157.743C80.0306 157.402 80.4039 157.136 80.8286 156.945C81.2533 156.754 81.7059 156.658 82.1866 156.658C82.7046 156.658 83.1806 156.761 83.6146 156.966C84.0533 157.171 84.4289 157.458 84.7416 157.827C85.0589 158.196 85.2969 158.627 85.4556 159.122C85.6189 159.617 85.6866 160.151 85.6586 160.725H79.7226C79.7786 161.168 79.9186 161.565 80.1426 161.915C80.3713 162.265 80.6606 162.543 81.0106 162.748C81.3653 162.949 81.7573 163.051 82.1866 163.056C82.6533 163.056 83.0733 162.935 83.4466 162.692C83.8246 162.449 84.1279 162.116 84.3566 161.691L85.3506 161.922C85.0706 162.543 84.6483 163.051 84.0836 163.448C83.5189 163.84 82.8866 164.036 82.1866 164.036ZM79.6946 159.934H84.6716C84.6389 159.5 84.5059 159.103 84.2726 158.744C84.0439 158.38 83.7476 158.091 83.3836 157.876C83.0196 157.657 82.6206 157.547 82.1866 157.547C81.7526 157.547 81.3559 157.654 80.9966 157.869C80.6373 158.079 80.3433 158.366 80.1146 158.73C79.8859 159.089 79.7459 159.491 79.6946 159.934ZM90.3125 157.834H88.6395L88.6325 163.854H87.6525L87.6595 157.834H86.3925V156.854H87.6595L87.6525 154.656H88.6325L88.6395 156.854H90.3125V157.834ZM100.686 153.354H101.666V163.854H100.686V162.545C100.443 162.993 100.11 163.355 99.685 163.63C99.265 163.901 98.7656 164.036 98.187 164.036C97.6783 164.036 97.2023 163.94 96.759 163.749C96.3156 163.558 95.9236 163.294 95.583 162.958C95.247 162.617 94.9833 162.225 94.792 161.782C94.6006 161.339 94.505 160.863 94.505 160.354C94.505 159.845 94.6006 159.369 94.792 158.926C94.9833 158.478 95.247 158.086 95.583 157.75C95.9236 157.409 96.3156 157.143 96.759 156.952C97.2023 156.761 97.6783 156.665 98.187 156.665C98.7656 156.665 99.265 156.803 99.685 157.078C100.11 157.349 100.443 157.706 100.686 158.149V153.354ZM98.194 163.084C98.6933 163.084 99.1226 162.963 99.482 162.72C99.8413 162.473 100.117 162.141 100.308 161.726C100.504 161.311 100.602 160.853 100.602 160.354C100.602 159.841 100.504 159.379 100.308 158.968C100.112 158.553 99.8343 158.224 99.475 157.981C99.1156 157.738 98.6886 157.617 98.194 157.617C97.6993 157.617 97.249 157.741 96.843 157.988C96.437 158.231 96.1126 158.56 95.87 158.975C95.6273 159.39 95.506 159.85 95.506 160.354C95.506 160.863 95.6296 161.325 95.877 161.74C96.1243 162.151 96.451 162.477 96.857 162.72C97.2676 162.963 97.7133 163.084 98.194 163.084ZM109.046 156.854H110.026V163.854H109.046L109.011 162.552C108.782 162.995 108.463 163.355 108.052 163.63C107.641 163.901 107.151 164.036 106.582 164.036C106.069 164.036 105.588 163.94 105.14 163.749C104.692 163.553 104.298 163.285 103.957 162.944C103.616 162.603 103.35 162.209 103.159 161.761C102.968 161.313 102.872 160.832 102.872 160.319C102.872 159.815 102.965 159.341 103.152 158.898C103.343 158.455 103.605 158.065 103.936 157.729C104.272 157.393 104.659 157.132 105.098 156.945C105.541 156.754 106.015 156.658 106.519 156.658C107.102 156.658 107.611 156.798 108.045 157.078C108.479 157.353 108.824 157.715 109.081 158.163L109.046 156.854ZM106.561 163.084C107.06 163.084 107.49 162.963 107.849 162.72C108.208 162.473 108.484 162.141 108.675 161.726C108.871 161.311 108.969 160.853 108.969 160.354C108.969 159.841 108.871 159.379 108.675 158.968C108.479 158.553 108.201 158.224 107.842 157.981C107.483 157.738 107.056 157.617 106.561 157.617C106.066 157.617 105.614 157.741 105.203 157.988C104.797 158.231 104.473 158.56 104.23 158.975C103.992 159.39 103.873 159.85 103.873 160.354C103.873 160.863 103.997 161.325 104.244 161.74C104.491 162.151 104.818 162.477 105.224 162.72C105.635 162.963 106.08 163.084 106.561 163.084ZM115.004 157.834H113.331L113.324 163.854H112.344L112.351 157.834H111.084V156.854H112.351L112.344 154.656H113.324L113.331 156.854H115.004V157.834ZM121.816 156.854H122.796V163.854H121.816L121.781 162.552C121.552 162.995 121.232 163.355 120.822 163.63C120.411 163.901 119.921 164.036 119.352 164.036C118.838 164.036 118.358 163.94 117.91 163.749C117.462 163.553 117.067 163.285 116.727 162.944C116.386 162.603 116.12 162.209 115.929 161.761C115.737 161.313 115.642 160.832 115.642 160.319C115.642 159.815 115.735 159.341 115.922 158.898C116.113 158.455 116.374 158.065 116.706 157.729C117.042 157.393 117.429 157.132 117.868 156.945C118.311 156.754 118.785 156.658 119.289 156.658C119.872 156.658 120.381 156.798 120.815 157.078C121.249 157.353 121.594 157.715 121.851 158.163L121.816 156.854ZM119.331 163.084C119.83 163.084 120.259 162.963 120.619 162.72C120.978 162.473 121.253 162.141 121.445 161.726C121.641 161.311 121.739 160.853 121.739 160.354C121.739 159.841 121.641 159.379 121.445 158.968C121.249 158.553 120.971 158.224 120.612 157.981C120.252 157.738 119.825 157.617 119.331 157.617C118.836 157.617 118.383 157.741 117.973 157.988C117.567 158.231 117.242 158.56 117 158.975C116.762 159.39 116.643 159.85 116.643 160.354C116.643 160.863 116.766 161.325 117.014 161.74C117.261 162.151 117.588 162.477 117.994 162.72C118.404 162.963 118.85 163.084 119.331 163.084Z" fill="#4D4D4D"/>
<g filter="url(#filter1_d_1001_150655)">
<rect x="177.145" y="38.146" width="79.708" height="79.708" rx="24" fill="white" shape-rendering="crispEdges"/>
<path d="M212.035 73.0364C212.035 67.2455 221.135 67.2456 221.135 73.0364C221.135 77.1726 216.999 76.3452 216.999 81.3087" stroke="#6366F1" stroke-width="1.6545" stroke-linecap="round" stroke-linejoin="round"/>
<path d="M217 87.9435L217.017 87.925" stroke="#6366F1" stroke-width="1.6545" stroke-linecap="round" stroke-linejoin="round"/>
<path d="M216.998 94.5447C226.136 94.5447 233.543 87.1371 233.543 77.9997C233.543 68.8621 226.136 61.4547 216.998 61.4547C207.861 61.4547 200.453 68.8621 200.453 77.9997C200.453 81.0132 201.259 83.8386 202.667 86.2722L201.28 93.7174L208.726 92.3313C211.159 93.7389 213.985 94.5447 216.998 94.5447Z" stroke="#6366F1" stroke-width="1.6545" stroke-linecap="round" stroke-linejoin="round"/>
<rect x="183.145" y="44.146" width="68" height="68" rx="18" stroke="#A4A4A4" stroke-opacity="0.4" stroke-miterlimit="1.41421" stroke-linecap="round" stroke-dasharray="6 6"/>
</g>
<path d="M178.005 147.036C177.483 147.036 176.976 146.954 176.486 146.791C176.001 146.628 175.576 146.394 175.212 146.091C174.848 145.788 174.592 145.426 174.442 145.006L175.359 144.663C175.462 144.952 175.649 145.202 175.919 145.412C176.195 145.617 176.514 145.776 176.878 145.888C177.247 146 177.623 146.056 178.005 146.056C178.453 146.056 178.871 145.981 179.258 145.832C179.646 145.683 179.958 145.475 180.196 145.209C180.434 144.938 180.553 144.621 180.553 144.257C180.553 143.888 180.43 143.585 180.182 143.347C179.935 143.109 179.615 142.922 179.223 142.787C178.836 142.647 178.43 142.54 178.005 142.465C177.338 142.348 176.738 142.19 176.206 141.989C175.679 141.788 175.261 141.506 174.953 141.142C174.645 140.773 174.491 140.288 174.491 139.686C174.491 139.121 174.655 138.631 174.981 138.216C175.308 137.801 175.737 137.479 176.269 137.25C176.806 137.021 177.385 136.907 178.005 136.907C178.514 136.907 179.011 136.986 179.496 137.145C179.982 137.304 180.409 137.535 180.777 137.838C181.151 138.141 181.419 138.512 181.582 138.951L180.651 139.287C180.549 138.993 180.36 138.743 180.084 138.538C179.814 138.328 179.496 138.169 179.132 138.062C178.768 137.95 178.393 137.894 178.005 137.894C177.562 137.889 177.147 137.964 176.759 138.118C176.377 138.267 176.066 138.477 175.828 138.748C175.59 139.014 175.471 139.327 175.471 139.686C175.471 140.106 175.581 140.43 175.8 140.659C176.024 140.883 176.328 141.051 176.71 141.163C177.093 141.275 177.525 141.375 178.005 141.464C178.631 141.571 179.212 141.739 179.748 141.968C180.285 142.192 180.717 142.493 181.043 142.871C181.37 143.244 181.533 143.706 181.533 144.257C181.533 144.817 181.37 145.307 181.043 145.727C180.717 146.142 180.285 146.464 179.748 146.693C179.216 146.922 178.635 147.036 178.005 147.036ZM182.779 144.173V139.854H183.759V143.977C183.759 144.36 183.852 144.707 184.039 145.02C184.225 145.333 184.475 145.582 184.788 145.769C185.105 145.956 185.453 146.049 185.831 146.049C186.213 146.049 186.559 145.956 186.867 145.769C187.179 145.582 187.429 145.333 187.616 145.02C187.802 144.707 187.896 144.36 187.896 143.977V139.854H188.876L188.883 146.854H187.903L187.896 145.874C187.648 146.229 187.326 146.511 186.93 146.721C186.538 146.931 186.108 147.036 185.642 147.036C185.114 147.036 184.634 146.908 184.2 146.651C183.766 146.394 183.42 146.049 183.164 145.615C182.907 145.181 182.779 144.7 182.779 144.173ZM190.278 146.854V139.854H191.258V140.82C191.505 140.465 191.827 140.183 192.224 139.973C192.62 139.763 193.052 139.658 193.519 139.658C193.789 139.658 194.051 139.693 194.303 139.763L193.904 140.736C193.708 140.675 193.516 140.645 193.33 140.645C192.952 140.645 192.604 140.738 192.287 140.925C191.974 141.112 191.724 141.361 191.538 141.674C191.351 141.987 191.258 142.334 191.258 142.717V146.854H190.278ZM198.662 146.854H197.416L194.861 139.833H195.904L198.039 145.706L200.174 139.833H201.217L198.662 146.854ZM205.184 147.036C204.54 147.036 203.952 146.87 203.42 146.539C202.892 146.208 202.47 145.764 202.153 145.209C201.84 144.649 201.684 144.031 201.684 143.354C201.684 142.841 201.775 142.362 201.957 141.919C202.139 141.471 202.388 141.079 202.706 140.743C203.028 140.402 203.401 140.136 203.826 139.945C204.25 139.754 204.703 139.658 205.184 139.658C205.702 139.658 206.178 139.761 206.612 139.966C207.05 140.171 207.426 140.458 207.739 140.827C208.056 141.196 208.294 141.627 208.453 142.122C208.616 142.617 208.684 143.151 208.656 143.725H202.72C202.776 144.168 202.916 144.565 203.14 144.915C203.368 145.265 203.658 145.543 204.008 145.748C204.362 145.949 204.754 146.051 205.184 146.056C205.65 146.056 206.07 145.935 206.444 145.692C206.822 145.449 207.125 145.116 207.354 144.691L208.348 144.922C208.068 145.543 207.645 146.051 207.081 146.448C206.516 146.84 205.884 147.036 205.184 147.036ZM202.692 142.934H207.669C207.636 142.5 207.503 142.103 207.27 141.744C207.041 141.38 206.745 141.091 206.381 140.876C206.017 140.657 205.618 140.547 205.184 140.547C204.75 140.547 204.353 140.654 203.994 140.869C203.634 141.079 203.34 141.366 203.112 141.73C202.883 142.089 202.743 142.491 202.692 142.934ZM214.295 139.854H215.331L211.502 150.354H210.459L211.733 146.854L209.22 139.854H210.291L212.223 145.503L214.295 139.854ZM223.673 140.834H222L221.993 146.854H221.013L221.02 140.834H219.753V139.854H221.02L221.013 137.656H221.993L222 139.854H223.673V140.834ZM227.811 147.036C227.167 147.036 226.579 146.87 226.047 146.539C225.519 146.208 225.097 145.764 224.78 145.209C224.467 144.649 224.311 144.031 224.311 143.354C224.311 142.841 224.402 142.362 224.584 141.919C224.766 141.471 225.015 141.079 225.333 140.743C225.655 140.402 226.028 140.136 226.453 139.945C226.877 139.754 227.33 139.658 227.811 139.658C228.455 139.658 229.04 139.824 229.568 140.155C230.1 140.486 230.522 140.932 230.835 141.492C231.152 142.052 231.311 142.673 231.311 143.354C231.311 143.863 231.22 144.339 231.038 144.782C230.856 145.225 230.604 145.617 230.282 145.958C229.964 146.294 229.593 146.558 229.169 146.749C228.749 146.94 228.296 147.036 227.811 147.036ZM227.811 146.056C228.287 146.056 228.714 145.932 229.092 145.685C229.474 145.433 229.775 145.102 229.995 144.691C230.219 144.28 230.331 143.835 230.331 143.354C230.331 142.864 230.219 142.414 229.995 142.003C229.771 141.588 229.467 141.256 229.085 141.009C228.707 140.762 228.282 140.638 227.811 140.638C227.335 140.638 226.905 140.764 226.523 141.016C226.145 141.263 225.844 141.592 225.62 142.003C225.4 142.414 225.291 142.864 225.291 143.354C225.291 143.858 225.405 144.315 225.634 144.726C225.862 145.132 226.168 145.456 226.551 145.699C226.933 145.937 227.353 146.056 227.811 146.056ZM235.928 146.854V137.054H239.064C239.587 137.054 240.058 137.182 240.478 137.439C240.898 137.691 241.232 138.034 241.479 138.468C241.731 138.897 241.857 139.38 241.857 139.917C241.857 140.458 241.729 140.946 241.472 141.38C241.22 141.814 240.882 142.157 240.457 142.409C240.037 142.661 239.573 142.787 239.064 142.787H236.908V146.854H235.928ZM236.908 141.807H238.987C239.332 141.807 239.647 141.723 239.932 141.555C240.221 141.382 240.45 141.151 240.618 140.862C240.791 140.568 240.877 140.237 240.877 139.868C240.877 139.499 240.791 139.17 240.618 138.881C240.45 138.587 240.221 138.356 239.932 138.188C239.647 138.015 239.332 137.929 238.987 137.929H236.908V141.807ZM242.695 146.854L244.592 137.054H245.306L248.05 144.264L250.78 137.054H251.494L253.398 146.854H252.397L250.948 139.357L248.358 146.21H247.728L245.138 139.357L243.689 146.854H242.695ZM257.245 146.987C256.863 146.978 256.489 146.908 256.125 146.777C255.761 146.646 255.444 146.469 255.173 146.245C254.903 146.021 254.709 145.767 254.592 145.482L255.439 145.118C255.514 145.3 255.652 145.468 255.852 145.622C256.058 145.771 256.291 145.893 256.552 145.986C256.814 146.075 257.073 146.119 257.329 146.119C257.614 146.119 257.88 146.072 258.127 145.979C258.375 145.886 258.575 145.753 258.729 145.58C258.888 145.403 258.967 145.195 258.967 144.957C258.967 144.7 258.883 144.5 258.715 144.355C258.547 144.206 258.335 144.089 258.078 144.005C257.822 143.916 257.558 143.832 257.287 143.753C256.793 143.618 256.356 143.468 255.978 143.305C255.6 143.142 255.304 142.934 255.089 142.682C254.879 142.425 254.774 142.096 254.774 141.695C254.774 141.27 254.893 140.904 255.131 140.596C255.374 140.283 255.689 140.043 256.076 139.875C256.468 139.702 256.886 139.616 257.329 139.616C257.899 139.616 258.417 139.74 258.883 139.987C259.355 140.234 259.695 140.563 259.905 140.974L259.114 141.443C259.03 141.252 258.897 141.086 258.715 140.946C258.533 140.806 258.326 140.696 258.092 140.617C257.864 140.538 257.63 140.496 257.392 140.491C257.094 140.486 256.816 140.531 256.559 140.624C256.303 140.713 256.095 140.846 255.936 141.023C255.782 141.2 255.705 141.417 255.705 141.674C255.705 141.931 255.782 142.127 255.936 142.262C256.09 142.393 256.298 142.5 256.559 142.584C256.825 142.663 257.124 142.757 257.455 142.864C257.88 142.999 258.279 143.153 258.652 143.326C259.026 143.499 259.327 143.713 259.555 143.97C259.784 144.227 259.896 144.551 259.891 144.943C259.891 145.363 259.765 145.729 259.513 146.042C259.261 146.355 258.935 146.595 258.533 146.763C258.132 146.926 257.703 147.001 257.245 146.987ZM182.004 156.854H182.984V163.854H182.004L181.969 162.552C181.74 162.995 181.421 163.355 181.01 163.63C180.599 163.901 180.109 164.036 179.54 164.036C179.027 164.036 178.546 163.94 178.098 163.749C177.65 163.553 177.256 163.285 176.915 162.944C176.574 162.603 176.308 162.209 176.117 161.761C175.926 161.313 175.83 160.832 175.83 160.319C175.83 159.815 175.923 159.341 176.11 158.898C176.301 158.455 176.563 158.065 176.894 157.729C177.23 157.393 177.617 157.132 178.056 156.945C178.499 156.754 178.973 156.658 179.477 156.658C180.06 156.658 180.569 156.798 181.003 157.078C181.437 157.353 181.782 157.715 182.039 158.163L182.004 156.854ZM179.519 163.084C180.018 163.084 180.448 162.963 180.807 162.72C181.166 162.473 181.442 162.141 181.633 161.726C181.829 161.311 181.927 160.853 181.927 160.354C181.927 159.841 181.829 159.379 181.633 158.968C181.437 158.553 181.159 158.224 180.8 157.981C180.441 157.738 180.014 157.617 179.519 157.617C179.024 157.617 178.572 157.741 178.161 157.988C177.755 158.231 177.431 158.56 177.188 158.975C176.95 159.39 176.831 159.85 176.831 160.354C176.831 160.863 176.955 161.325 177.202 161.74C177.449 162.151 177.776 162.477 178.182 162.72C178.593 162.963 179.038 163.084 179.519 163.084ZM190.489 159.521V163.854H189.509V159.717C189.509 159.334 189.416 158.987 189.229 158.674C189.042 158.361 188.793 158.112 188.48 157.925C188.167 157.738 187.82 157.645 187.437 157.645C187.059 157.645 186.711 157.738 186.394 157.925C186.081 158.112 185.832 158.361 185.645 158.674C185.458 158.987 185.365 159.334 185.365 159.717V163.854H184.385V156.854H185.365V157.82C185.612 157.465 185.934 157.183 186.331 156.973C186.728 156.763 187.159 156.658 187.626 156.658C188.153 156.658 188.634 156.786 189.068 157.043C189.502 157.3 189.847 157.645 190.104 158.079C190.361 158.513 190.489 158.994 190.489 159.521ZM197.515 153.354H198.495V163.854H197.515V162.545C197.272 162.993 196.939 163.355 196.514 163.63C196.094 163.901 195.595 164.036 195.016 164.036C194.507 164.036 194.031 163.94 193.588 163.749C193.145 163.558 192.753 163.294 192.412 162.958C192.076 162.617 191.812 162.225 191.621 161.782C191.43 161.339 191.334 160.863 191.334 160.354C191.334 159.845 191.43 159.369 191.621 158.926C191.812 158.478 192.076 158.086 192.412 157.75C192.753 157.409 193.145 157.143 193.588 156.952C194.031 156.761 194.507 156.665 195.016 156.665C195.595 156.665 196.094 156.803 196.514 157.078C196.939 157.349 197.272 157.706 197.515 158.149V153.354ZM195.023 163.084C195.522 163.084 195.952 162.963 196.311 162.72C196.67 162.473 196.946 162.141 197.137 161.726C197.333 161.311 197.431 160.853 197.431 160.354C197.431 159.841 197.333 159.379 197.137 158.968C196.941 158.553 196.663 158.224 196.304 157.981C195.945 157.738 195.518 157.617 195.023 157.617C194.528 157.617 194.078 157.741 193.672 157.988C193.266 158.231 192.942 158.56 192.699 158.975C192.456 159.39 192.335 159.85 192.335 160.354C192.335 160.863 192.459 161.325 192.706 161.74C192.953 162.151 193.28 162.477 193.686 162.72C194.097 162.963 194.542 163.084 195.023 163.084ZM203.539 163.854V153.354H204.519V163.854H203.539ZM211.905 156.854H212.885V163.854H211.905L211.87 162.552C211.641 162.995 211.321 163.355 210.911 163.63C210.5 163.901 210.01 164.036 209.441 164.036C208.927 164.036 208.447 163.94 207.999 163.749C207.551 163.553 207.156 163.285 206.816 162.944C206.475 162.603 206.209 162.209 206.018 161.761C205.826 161.313 205.731 160.832 205.731 160.319C205.731 159.815 205.824 159.341 206.011 158.898C206.202 158.455 206.463 158.065 206.795 157.729C207.131 157.393 207.518 157.132 207.957 156.945C208.4 156.754 208.874 156.658 209.378 156.658C209.961 156.658 210.47 156.798 210.904 157.078C211.338 157.353 211.683 157.715 211.94 158.163L211.905 156.854ZM209.42 163.084C209.919 163.084 210.348 162.963 210.708 162.72C211.067 162.473 211.342 162.141 211.534 161.726C211.73 161.311 211.828 160.853 211.828 160.354C211.828 159.841 211.73 159.379 211.534 158.968C211.338 158.553 211.06 158.224 210.701 157.981C210.341 157.738 209.914 157.617 209.42 157.617C208.925 157.617 208.472 157.741 208.062 157.988C207.656 158.231 207.331 158.56 207.089 158.975C206.851 159.39 206.732 159.85 206.732 160.354C206.732 160.863 206.855 161.325 207.103 161.74C207.35 162.151 207.677 162.477 208.083 162.72C208.493 162.963 208.939 163.084 209.42 163.084ZM220.389 159.521V163.854H219.409V159.717C219.409 159.334 219.316 158.987 219.129 158.674C218.943 158.361 218.693 158.112 218.38 157.925C218.068 157.738 217.72 157.645 217.337 157.645C216.959 157.645 216.612 157.738 216.294 157.925C215.982 158.112 215.732 158.361 215.545 158.674C215.359 158.987 215.265 159.334 215.265 159.717V163.854H214.285V156.854H215.265V157.82C215.513 157.465 215.835 157.183 216.231 156.973C216.628 156.763 217.06 156.658 217.526 156.658C218.054 156.658 218.534 156.786 218.968 157.043C219.402 157.3 219.748 157.645 220.004 158.079C220.261 158.513 220.389 158.994 220.389 159.521ZM227.415 153.354H228.395V163.854H227.415V162.545C227.173 162.993 226.839 163.355 226.414 163.63C225.994 163.901 225.495 164.036 224.916 164.036C224.408 164.036 223.932 163.94 223.488 163.749C223.045 163.558 222.653 163.294 222.312 162.958C221.976 162.617 221.713 162.225 221.521 161.782C221.33 161.339 221.234 160.863 221.234 160.354C221.234 159.845 221.33 159.369 221.521 158.926C221.713 158.478 221.976 158.086 222.312 157.75C222.653 157.409 223.045 157.143 223.488 156.952C223.932 156.761 224.408 156.665 224.916 156.665C225.495 156.665 225.994 156.803 226.414 157.078C226.839 157.349 227.173 157.706 227.415 158.149V153.354ZM224.923 163.084C225.423 163.084 225.852 162.963 226.211 162.72C226.571 162.473 226.846 162.141 227.037 161.726C227.233 161.311 227.331 160.853 227.331 160.354C227.331 159.841 227.233 159.379 227.037 158.968C226.841 158.553 226.564 158.224 226.204 157.981C225.845 157.738 225.418 157.617 224.923 157.617C224.429 157.617 223.978 157.741 223.572 157.988C223.166 158.231 222.842 158.56 222.599 158.975C222.357 159.39 222.235 159.85 222.235 160.354C222.235 160.863 222.359 161.325 222.606 161.74C222.854 162.151 223.18 162.477 223.586 162.72C223.997 162.963 224.443 163.084 224.923 163.084ZM230.076 163.854V153.354H231.056V163.854H230.076ZM235.768 164.036C235.124 164.036 234.536 163.87 234.004 163.539C233.476 163.208 233.054 162.764 232.737 162.209C232.424 161.649 232.268 161.031 232.268 160.354C232.268 159.841 232.359 159.362 232.541 158.919C232.723 158.471 232.972 158.079 233.29 157.743C233.612 157.402 233.985 157.136 234.41 156.945C234.834 156.754 235.287 156.658 235.768 156.658C236.412 156.658 236.997 156.824 237.525 157.155C238.057 157.486 238.479 157.932 238.792 158.492C239.109 159.052 239.268 159.673 239.268 160.354C239.268 160.863 239.177 161.339 238.995 161.782C238.813 162.225 238.561 162.617 238.239 162.958C237.921 163.294 237.55 163.558 237.126 163.749C236.706 163.94 236.253 164.036 235.768 164.036ZM235.768 163.056C236.244 163.056 236.671 162.932 237.049 162.685C237.431 162.433 237.732 162.102 237.952 161.691C238.176 161.28 238.288 160.835 238.288 160.354C238.288 159.864 238.176 159.414 237.952 159.003C237.728 158.588 237.424 158.256 237.042 158.009C236.664 157.762 236.239 157.638 235.768 157.638C235.292 157.638 234.862 157.764 234.48 158.016C234.102 158.263 233.801 158.592 233.577 159.003C233.357 159.414 233.248 159.864 233.248 160.354C233.248 160.858 233.362 161.315 233.591 161.726C233.819 162.132 234.125 162.456 234.508 162.699C234.89 162.937 235.31 163.056 235.768 163.056ZM240.453 163.854V156.854H241.433V157.82C241.681 157.465 242.003 157.183 242.399 156.973C242.796 156.763 243.228 156.658 243.694 156.658C243.965 156.658 244.226 156.693 244.478 156.763L244.079 157.736C243.883 157.675 243.692 157.645 243.505 157.645C243.127 157.645 242.78 157.738 242.462 157.925C242.15 158.112 241.9 158.361 241.713 158.674C241.527 158.987 241.433 159.334 241.433 159.717V163.854H240.453ZM250.753 153.354H251.733V163.854H250.753V162.545C250.511 162.993 250.177 163.355 249.752 163.63C249.332 163.901 248.833 164.036 248.254 164.036C247.746 164.036 247.27 163.94 246.826 163.749C246.383 163.558 245.991 163.294 245.65 162.958C245.314 162.617 245.051 162.225 244.859 161.782C244.668 161.339 244.572 160.863 244.572 160.354C244.572 159.845 244.668 159.369 244.859 158.926C245.051 158.478 245.314 158.086 245.65 157.75C245.991 157.409 246.383 157.143 246.826 156.952C247.27 156.761 247.746 156.665 248.254 156.665C248.833 156.665 249.332 156.803 249.752 157.078C250.177 157.349 250.511 157.706 250.753 158.149V153.354ZM248.261 163.084C248.761 163.084 249.19 162.963 249.549 162.72C249.909 162.473 250.184 162.141 250.375 161.726C250.571 161.311 250.669 160.853 250.669 160.354C250.669 159.841 250.571 159.379 250.375 158.968C250.179 158.553 249.902 158.224 249.542 157.981C249.183 157.738 248.756 157.617 248.261 157.617C247.767 157.617 247.316 157.741 246.91 157.988C246.504 158.231 246.18 158.56 245.937 158.975C245.695 159.39 245.573 159.85 245.573 160.354C245.573 160.863 245.697 161.325 245.944 161.74C246.192 162.151 246.518 162.477 246.924 162.72C247.335 162.963 247.781 163.084 248.261 163.084ZM255.577 163.987C255.195 163.978 254.821 163.908 254.457 163.777C254.093 163.646 253.776 163.469 253.505 163.245C253.235 163.021 253.041 162.767 252.924 162.482L253.771 162.118C253.846 162.3 253.984 162.468 254.184 162.622C254.39 162.771 254.623 162.893 254.884 162.986C255.146 163.075 255.405 163.119 255.661 163.119C255.946 163.119 256.212 163.072 256.459 162.979C256.707 162.886 256.907 162.753 257.061 162.58C257.22 162.403 257.299 162.195 257.299 161.957C257.299 161.7 257.215 161.5 257.047 161.355C256.879 161.206 256.667 161.089 256.41 161.005C256.154 160.916 255.89 160.832 255.619 160.753C255.125 160.618 254.688 160.468 254.31 160.305C253.932 160.142 253.636 159.934 253.421 159.682C253.211 159.425 253.106 159.096 253.106 158.695C253.106 158.27 253.225 157.904 253.463 157.596C253.706 157.283 254.021 157.043 254.408 156.875C254.8 156.702 255.218 156.616 255.661 156.616C256.231 156.616 256.749 156.74 257.215 156.987C257.687 157.234 258.027 157.563 258.237 157.974L257.446 158.443C257.362 158.252 257.229 158.086 257.047 157.946C256.865 157.806 256.658 157.696 256.424 157.617C256.196 157.538 255.962 157.496 255.724 157.491C255.426 157.486 255.148 157.531 254.891 157.624C254.635 157.713 254.427 157.846 254.268 158.023C254.114 158.2 254.037 158.417 254.037 158.674C254.037 158.931 254.114 159.127 254.268 159.262C254.422 159.393 254.63 159.5 254.891 159.584C255.157 159.663 255.456 159.757 255.787 159.864C256.212 159.999 256.611 160.153 256.984 160.326C257.358 160.499 257.659 160.713 257.887 160.97C258.116 161.227 258.228 161.551 258.223 161.943C258.223 162.363 258.097 162.729 257.845 163.042C257.593 163.355 257.267 163.595 256.865 163.763C256.464 163.926 256.035 164.001 255.577 163.987Z" fill="#4D4D4D"/>
<g filter="url(#filter2_d_1001_150655)">
<rect x="309.645" y="38.146" width="79.708" height="79.708" rx="24" fill="white" shape-rendering="crispEdges"/>
<path d="M344.536 89.5814L335.916 92.4549C335.273 92.6692 334.609 92.1907 334.609 91.513V67.1339C334.609 66.7066 334.883 66.3272 335.288 66.1921L344.536 63.1093M344.536 89.5814L354.463 92.8904M344.536 89.5814V63.1093M344.536 63.1093L354.463 66.4183M354.463 92.8904L363.712 89.8077C364.117 89.6725 364.39 89.2931 364.39 88.8658V64.4867C364.39 63.8091 363.727 63.3306 363.084 63.5449L354.463 66.4183M354.463 92.8904V66.4183" stroke="#6366F1" stroke-width="1.6545" stroke-linecap="round" stroke-linejoin="round"/>
<rect x="315.645" y="44.146" width="68" height="68" rx="18" stroke="#A4A4A4" stroke-opacity="0.4" stroke-miterlimit="1.41421" stroke-linecap="round" stroke-dasharray="6 6"/>
</g>
<path d="M327.796 147.036C327.478 147.036 327.168 146.982 326.865 146.875C326.566 146.772 326.293 146.614 326.046 146.399L326.669 145.643C326.818 145.769 326.988 145.869 327.18 145.944C327.371 146.019 327.576 146.056 327.796 146.056C328.122 146.056 328.419 145.97 328.685 145.797C328.951 145.62 329.163 145.391 329.322 145.111C329.485 144.826 329.567 144.523 329.567 144.201V137.054H330.547V144.201C330.547 144.705 330.423 145.172 330.176 145.601C329.928 146.03 329.597 146.378 329.182 146.644C328.766 146.905 328.304 147.036 327.796 147.036ZM335.305 147.036C334.661 147.036 334.073 146.87 333.541 146.539C333.013 146.208 332.591 145.764 332.274 145.209C331.961 144.649 331.805 144.031 331.805 143.354C331.805 142.841 331.896 142.362 332.078 141.919C332.26 141.471 332.509 141.079 332.827 140.743C333.149 140.402 333.522 140.136 333.947 139.945C334.371 139.754 334.824 139.658 335.305 139.658C335.949 139.658 336.534 139.824 337.062 140.155C337.594 140.486 338.016 140.932 338.329 141.492C338.646 142.052 338.805 142.673 338.805 143.354C338.805 143.863 338.714 144.339 338.532 144.782C338.35 145.225 338.098 145.617 337.776 145.958C337.458 146.294 337.087 146.558 336.663 146.749C336.243 146.94 335.79 147.036 335.305 147.036ZM335.305 146.056C335.781 146.056 336.208 145.932 336.586 145.685C336.968 145.433 337.269 145.102 337.489 144.691C337.713 144.28 337.825 143.835 337.825 143.354C337.825 142.864 337.713 142.414 337.489 142.003C337.265 141.588 336.961 141.256 336.579 141.009C336.201 140.762 335.776 140.638 335.305 140.638C334.829 140.638 334.399 140.764 334.017 141.016C333.639 141.263 333.338 141.592 333.114 142.003C332.894 142.414 332.785 142.864 332.785 143.354C332.785 143.858 332.899 144.315 333.128 144.726C333.356 145.132 333.662 145.456 334.045 145.699C334.427 145.937 334.847 146.056 335.305 146.056ZM339.642 144.173V139.854H340.622V143.977C340.622 144.36 340.715 144.707 340.902 145.02C341.089 145.333 341.338 145.582 341.651 145.769C341.968 145.956 342.316 146.049 342.694 146.049C343.077 146.049 343.422 145.956 343.73 145.769C344.043 145.582 344.292 145.333 344.479 145.02C344.666 144.707 344.759 144.36 344.759 143.977V139.854H345.739L345.746 146.854H344.766L344.759 145.874C344.512 146.229 344.19 146.511 343.793 146.721C343.401 146.931 342.972 147.036 342.505 147.036C341.978 147.036 341.497 146.908 341.063 146.651C340.629 146.394 340.284 146.049 340.027 145.615C339.77 145.181 339.642 144.7 339.642 144.173ZM347.141 146.854V139.854H348.121V140.82C348.368 140.465 348.69 140.183 349.087 139.973C349.483 139.763 349.915 139.658 350.382 139.658C350.652 139.658 350.914 139.693 351.166 139.763L350.767 140.736C350.571 140.675 350.379 140.645 350.193 140.645C349.815 140.645 349.467 140.738 349.15 140.925C348.837 141.112 348.587 141.361 348.401 141.674C348.214 141.987 348.121 142.334 348.121 142.717V146.854H347.141ZM358.18 142.521V146.854H357.2V142.717C357.2 142.334 357.107 141.987 356.92 141.674C356.734 141.361 356.484 141.112 356.171 140.925C355.859 140.738 355.511 140.645 355.128 140.645C354.75 140.645 354.403 140.738 354.085 140.925C353.773 141.112 353.523 141.361 353.336 141.674C353.15 141.987 353.056 142.334 353.056 142.717V146.854H352.076V139.854H353.056V140.82C353.304 140.465 353.626 140.183 354.022 139.973C354.419 139.763 354.851 139.658 355.317 139.658C355.845 139.658 356.325 139.786 356.759 140.043C357.193 140.3 357.539 140.645 357.795 141.079C358.052 141.513 358.18 141.994 358.18 142.521ZM362.525 147.036C361.881 147.036 361.293 146.87 360.761 146.539C360.234 146.208 359.812 145.764 359.494 145.209C359.182 144.649 359.025 144.031 359.025 143.354C359.025 142.841 359.116 142.362 359.298 141.919C359.48 141.471 359.73 141.079 360.047 140.743C360.369 140.402 360.743 140.136 361.167 139.945C361.592 139.754 362.045 139.658 362.525 139.658C363.043 139.658 363.519 139.761 363.953 139.966C364.392 140.171 364.768 140.458 365.08 140.827C365.398 141.196 365.636 141.627 365.794 142.122C365.958 142.617 366.025 143.151 365.997 143.725H360.061C360.117 144.168 360.257 144.565 360.481 144.915C360.71 145.265 360.999 145.543 361.349 145.748C361.704 145.949 362.096 146.051 362.525 146.056C362.992 146.056 363.412 145.935 363.785 145.692C364.163 145.449 364.467 145.116 364.695 144.691L365.689 144.922C365.409 145.543 364.987 146.051 364.422 146.448C363.858 146.84 363.225 147.036 362.525 147.036ZM360.033 142.934H365.01C364.978 142.5 364.845 142.103 364.611 141.744C364.383 141.38 364.086 141.091 363.722 140.876C363.358 140.657 362.959 140.547 362.525 140.547C362.091 140.547 361.695 140.654 361.335 140.869C360.976 141.079 360.682 141.366 360.453 141.73C360.225 142.089 360.085 142.491 360.033 142.934ZM371.637 139.854H372.673L368.844 150.354H367.801L369.075 146.854L366.562 139.854H367.633L369.565 145.503L371.637 139.854ZM322.695 163.854V156.854H323.675V157.82C323.927 157.465 324.249 157.183 324.641 156.973C325.033 156.763 325.463 156.658 325.929 156.658C326.457 156.658 326.94 156.789 327.378 157.05C327.817 157.307 328.16 157.65 328.407 158.079C328.655 157.65 328.995 157.307 329.429 157.05C329.863 156.789 330.344 156.658 330.871 156.658C331.399 156.658 331.879 156.786 332.313 157.043C332.747 157.3 333.093 157.645 333.349 158.079C333.606 158.513 333.734 158.994 333.734 159.521V163.854H332.754V159.738C332.754 159.365 332.663 159.019 332.481 158.702C332.299 158.385 332.054 158.13 331.746 157.939C331.443 157.743 331.105 157.645 330.731 157.645C330.358 157.645 330.017 157.736 329.709 157.918C329.406 158.095 329.163 158.343 328.981 158.66C328.799 158.973 328.708 159.332 328.708 159.738V163.854H327.728V159.738C327.728 159.332 327.637 158.973 327.455 158.66C327.273 158.343 327.028 158.095 326.72 157.918C326.412 157.736 326.072 157.645 325.698 157.645C325.33 157.645 324.991 157.743 324.683 157.939C324.375 158.13 324.13 158.385 323.948 158.702C323.766 159.019 323.675 159.365 323.675 159.738V163.854H322.695ZM340.754 156.854H341.734V163.854H340.754L340.719 162.552C340.49 162.995 340.171 163.355 339.76 163.63C339.349 163.901 338.859 164.036 338.29 164.036C337.777 164.036 337.296 163.94 336.848 163.749C336.4 163.553 336.006 163.285 335.665 162.944C335.324 162.603 335.058 162.209 334.867 161.761C334.676 161.313 334.58 160.832 334.58 160.319C334.58 159.815 334.673 159.341 334.86 158.898C335.051 158.455 335.313 158.065 335.644 157.729C335.98 157.393 336.367 157.132 336.806 156.945C337.249 156.754 337.723 156.658 338.227 156.658C338.81 156.658 339.319 156.798 339.753 157.078C340.187 157.353 340.532 157.715 340.789 158.163L340.754 156.854ZM338.269 163.084C338.768 163.084 339.198 162.963 339.557 162.72C339.916 162.473 340.192 162.141 340.383 161.726C340.579 161.311 340.677 160.853 340.677 160.354C340.677 159.841 340.579 159.379 340.383 158.968C340.187 158.553 339.909 158.224 339.55 157.981C339.191 157.738 338.764 157.617 338.269 157.617C337.774 157.617 337.322 157.741 336.911 157.988C336.505 158.231 336.181 158.56 335.938 158.975C335.7 159.39 335.581 159.85 335.581 160.354C335.581 160.863 335.705 161.325 335.952 161.74C336.199 162.151 336.526 162.477 336.932 162.72C337.343 162.963 337.788 163.084 338.269 163.084ZM344.115 167.354H343.135V156.854H344.115V158.163C344.358 157.72 344.689 157.36 345.109 157.085C345.529 156.81 346.028 156.672 346.607 156.672C347.116 156.672 347.592 156.768 348.035 156.959C348.483 157.15 348.875 157.416 349.211 157.757C349.547 158.093 349.811 158.483 350.002 158.926C350.193 159.369 350.289 159.845 350.289 160.354C350.289 160.863 350.193 161.341 350.002 161.789C349.811 162.237 349.547 162.631 349.211 162.972C348.875 163.308 348.483 163.572 348.035 163.763C347.592 163.954 347.116 164.05 346.607 164.05C346.028 164.05 345.529 163.912 345.109 163.637C344.689 163.362 344.358 163.002 344.115 162.559V167.354ZM346.6 157.624C346.11 157.624 345.683 157.748 345.319 157.995C344.96 158.238 344.682 158.564 344.486 158.975C344.29 159.386 344.192 159.845 344.192 160.354C344.192 160.853 344.288 161.311 344.479 161.726C344.675 162.141 344.953 162.473 345.312 162.72C345.676 162.967 346.105 163.091 346.6 163.091C347.085 163.091 347.531 162.97 347.937 162.727C348.348 162.484 348.677 162.158 348.924 161.747C349.171 161.332 349.295 160.867 349.295 160.354C349.295 159.855 349.174 159.4 348.931 158.989C348.688 158.574 348.364 158.242 347.958 157.995C347.552 157.748 347.099 157.624 346.6 157.624ZM352.455 167.354H351.475V156.854H352.455V158.163C352.697 157.72 353.029 157.36 353.449 157.085C353.869 156.81 354.368 156.672 354.947 156.672C355.455 156.672 355.931 156.768 356.375 156.959C356.823 157.15 357.215 157.416 357.551 157.757C357.887 158.093 358.15 158.483 358.342 158.926C358.533 159.369 358.629 159.845 358.629 160.354C358.629 160.863 358.533 161.341 358.342 161.789C358.15 162.237 357.887 162.631 357.551 162.972C357.215 163.308 356.823 163.572 356.375 163.763C355.931 163.954 355.455 164.05 354.947 164.05C354.368 164.05 353.869 163.912 353.449 163.637C353.029 163.362 352.697 163.002 352.455 162.559V167.354ZM354.94 157.624C354.45 157.624 354.023 157.748 353.659 157.995C353.299 158.238 353.022 158.564 352.826 158.975C352.63 159.386 352.532 159.845 352.532 160.354C352.532 160.853 352.627 161.311 352.819 161.726C353.015 162.141 353.292 162.473 353.652 162.72C354.016 162.967 354.445 163.091 354.94 163.091C355.425 163.091 355.871 162.97 356.277 162.727C356.687 162.484 357.016 162.158 357.264 161.747C357.511 161.332 357.635 160.867 357.635 160.354C357.635 159.855 357.513 159.4 357.271 158.989C357.028 158.574 356.704 158.242 356.298 157.995C355.892 157.748 355.439 157.624 354.94 157.624ZM359.746 156.854H360.726V163.854H359.746V156.854ZM360.243 155.629C360.085 155.629 359.949 155.578 359.837 155.475C359.73 155.368 359.676 155.235 359.676 155.076C359.676 154.917 359.73 154.787 359.837 154.684C359.949 154.577 360.085 154.523 360.243 154.523C360.397 154.523 360.528 154.577 360.635 154.684C360.747 154.787 360.803 154.917 360.803 155.076C360.803 155.235 360.75 155.368 360.642 155.475C360.535 155.578 360.402 155.629 360.243 155.629ZM368.489 159.521V163.854H367.509V159.717C367.509 159.334 367.416 158.987 367.229 158.674C367.042 158.361 366.793 158.112 366.48 157.925C366.167 157.738 365.82 157.645 365.437 157.645C365.059 157.645 364.711 157.738 364.394 157.925C364.081 158.112 363.832 158.361 363.645 158.674C363.458 158.987 363.365 159.334 363.365 159.717V163.854H362.385V156.854H363.365V157.82C363.612 157.465 363.934 157.183 364.331 156.973C364.728 156.763 365.159 156.658 365.626 156.658C366.153 156.658 366.634 156.786 367.068 157.043C367.502 157.3 367.847 157.645 368.104 158.079C368.361 158.513 368.489 158.994 368.489 159.521ZM375.319 156.854H376.299V164.113C376.299 164.561 376.201 164.981 376.005 165.373C375.814 165.765 375.552 166.108 375.221 166.402C374.894 166.701 374.521 166.934 374.101 167.102C373.681 167.27 373.245 167.354 372.792 167.354C372.307 167.354 371.838 167.242 371.385 167.018C370.932 166.799 370.538 166.505 370.202 166.136C369.871 165.767 369.635 165.359 369.495 164.911L370.398 164.498C370.487 164.848 370.652 165.163 370.895 165.443C371.142 165.728 371.432 165.952 371.763 166.115C372.099 166.283 372.442 166.367 372.792 166.367C373.114 166.367 373.424 166.306 373.723 166.185C374.026 166.068 374.297 165.907 374.535 165.702C374.778 165.497 374.969 165.256 375.109 164.981C375.249 164.71 375.319 164.421 375.319 164.113V162.566C375.076 163.005 374.747 163.359 374.332 163.63C373.921 163.901 373.443 164.036 372.897 164.036C372.407 164.036 371.945 163.94 371.511 163.749C371.082 163.558 370.704 163.294 370.377 162.958C370.05 162.617 369.794 162.225 369.607 161.782C369.425 161.339 369.334 160.863 369.334 160.354C369.334 159.845 369.425 159.369 369.607 158.926C369.794 158.478 370.05 158.086 370.377 157.75C370.704 157.409 371.082 157.143 371.511 156.952C371.945 156.761 372.407 156.665 372.897 156.665C373.443 156.665 373.921 156.8 374.332 157.071C374.747 157.337 375.076 157.692 375.319 158.135V156.854ZM372.904 163.084C373.389 163.084 373.807 162.958 374.157 162.706C374.512 162.454 374.785 162.12 374.976 161.705C375.167 161.29 375.263 160.839 375.263 160.354C375.263 159.855 375.165 159.4 374.969 158.989C374.778 158.574 374.505 158.242 374.15 157.995C373.795 157.743 373.38 157.617 372.904 157.617C372.428 157.617 371.994 157.741 371.602 157.988C371.215 158.231 370.907 158.56 370.678 158.975C370.449 159.39 370.335 159.85 370.335 160.354C370.335 160.858 370.452 161.318 370.685 161.733C370.918 162.144 371.229 162.473 371.616 162.72C372.008 162.963 372.437 163.084 372.904 163.084Z" fill="#4D4D4D"/>
<path d="M162.414 104.207C162.805 103.817 162.805 103.183 162.414 102.793L156.05 96.4289C155.66 96.0384 155.026 96.0384 154.636 96.4289C154.245 96.8195 154.245 97.4526 154.636 97.8431L160.293 103.5L154.636 109.157C154.245 109.547 154.245 110.181 154.636 110.571C155.026 110.962 155.66 110.962 156.05 110.571L162.414 104.207ZM137.707 104.5H161.707V102.5H137.707V104.5Z" fill="#AAAAAA"/>
<path d="M294.387 104.207C294.777 103.817 294.777 103.183 294.387 102.793L288.023 96.4289C287.632 96.0384 286.999 96.0384 286.609 96.4289C286.218 96.8195 286.218 97.4526 286.609 97.8431L292.265 103.5L286.609 109.157C286.218 109.547 286.218 110.181 286.609 110.571C286.999 110.962 287.632 110.962 288.023 110.571L294.387 104.207ZM269.68 104.5H293.68V102.5H269.68V104.5Z" fill="#AAAAAA"/>
<defs>
<filter id="filter0_d_1001_150655" x="33.1445" y="26.146" width="103.707" height="103.708" filterUnits="userSpaceOnUse" color-interpolation-filters="sRGB">
<feFlood flood-opacity="0" result="BackgroundImageFix"/>
<feColorMatrix in="SourceAlpha" type="matrix" values="0 0 0 0 0 0 0 0 0 0 0 0 0 0 0 0 0 0 127 0" result="hardAlpha"/>
<feOffset/>
<feGaussianBlur stdDeviation="6"/>
<feComposite in2="hardAlpha" operator="out"/>
<feColorMatrix type="matrix" values="0 0 0 0 0 0 0 0 0 0 0 0 0 0 0 0 0 0 0.15 0"/>
<feBlend mode="normal" in2="BackgroundImageFix" result="effect1_dropShadow_1001_150655"/>
<feBlend mode="normal" in="SourceGraphic" in2="effect1_dropShadow_1001_150655" result="shape"/>
</filter>
<filter id="filter1_d_1001_150655" x="165.145" y="26.146" width="103.707" height="103.708" filterUnits="userSpaceOnUse" color-interpolation-filters="sRGB">
<feFlood flood-opacity="0" result="BackgroundImageFix"/>
<feColorMatrix in="SourceAlpha" type="matrix" values="0 0 0 0 0 0 0 0 0 0 0 0 0 0 0 0 0 0 127 0" result="hardAlpha"/>
<feOffset/>
<feGaussianBlur stdDeviation="6"/>
<feComposite in2="hardAlpha" operator="out"/>
<feColorMatrix type="matrix" values="0 0 0 0 0 0 0 0 0 0 0 0 0 0 0 0 0 0 0.15 0"/>
<feBlend mode="normal" in2="BackgroundImageFix" result="effect1_dropShadow_1001_150655"/>
<feBlend mode="normal" in="SourceGraphic" in2="effect1_dropShadow_1001_150655" result="shape"/>
</filter>
<filter id="filter2_d_1001_150655" x="297.645" y="26.146" width="103.707" height="103.708" filterUnits="userSpaceOnUse" color-interpolation-filters="sRGB">
<feFlood flood-opacity="0" result="BackgroundImageFix"/>
<feColorMatrix in="SourceAlpha" type="matrix" values="0 0 0 0 0 0 0 0 0 0 0 0 0 0 0 0 0 0 127 0" result="hardAlpha"/>
<feOffset/>
<feGaussianBlur stdDeviation="6"/>
<feComposite in2="hardAlpha" operator="out"/>
<feColorMatrix type="matrix" values="0 0 0 0 0 0 0 0 0 0 0 0 0 0 0 0 0 0 0.15 0"/>
<feBlend mode="normal" in2="BackgroundImageFix" result="effect1_dropShadow_1001_150655"/>
<feBlend mode="normal" in="SourceGraphic" in2="effect1_dropShadow_1001_150655" result="shape"/>
</filter>
</defs>
</svg>
